<?xml version="1.0" encoding="UTF-8" standalone="no"?>
<!-- Creator: CorelDRAW X8 -->

<svg
   xmlns:dc="http://purl.org/dc/elements/1.1/"
   xmlns:cc="http://creativecommons.org/ns#"
   xmlns:rdf="http://www.w3.org/1999/02/22-rdf-syntax-ns#"
   xmlns:svg="http://www.w3.org/2000/svg"
   xmlns="http://www.w3.org/2000/svg"
   xmlns:sodipodi="http://sodipodi.sourceforge.net/DTD/sodipodi-0.dtd"
   xmlns:inkscape="http://www.inkscape.org/namespaces/inkscape"
   xml:space="preserve"
   width="448px"
   height="115px"
   version="1.1"
   shape-rendering="geometricPrecision"
   text-rendering="geometricPrecision"
   image-rendering="optimizeQuality"
   fill-rule="evenodd"
   clip-rule="evenodd"
   viewBox="0 0 885671 227191"
   id="svg2"
   inkscape:version="0.91 r13725"
   sodipodi:docname="logo1.svg"><metadata
     id="metadata68"><rdf:RDF><cc:Work
         rdf:about=""><dc:format>image/svg+xml</dc:format><dc:type
           rdf:resource="http://purl.org/dc/dcmitype/StillImage" /></cc:Work></rdf:RDF></metadata><sodipodi:namedview
     pagecolor="#ffffff"
     bordercolor="#666666"
     borderopacity="1"
     objecttolerance="10"
     gridtolerance="10"
     guidetolerance="10"
     inkscape:pageopacity="0"
     inkscape:pageshadow="2"
     inkscape:window-width="1280"
     inkscape:window-height="743"
     id="namedview66"
     showgrid="false"
     inkscape:zoom="0.68303571"
     inkscape:cx="224"
     inkscape:cy="57.5"
     inkscape:window-x="0"
     inkscape:window-y="0"
     inkscape:window-maximized="1"
     inkscape:current-layer="_810364064" /><defs
     id="defs4"><linearGradient
       id="id0"
       gradientUnits="userSpaceOnUse"
       x1="156136"
       y1="69275.3"
       x2="67247.7"
       y2="157341"><stop
         offset="0"
         stop-opacity="1"
         stop-color="#74CC36"
         id="stop7" /><stop
         offset="1"
         stop-opacity="1"
         stop-color="#4FB674"
         id="stop9" /></linearGradient><linearGradient
       id="id1"
       gradientUnits="userSpaceOnUse"
       x1="105744"
       y1="53699.1"
       x2="-0"
       y2="53699.1"><stop
         offset="0"
         stop-opacity="1"
         stop-color="#74CC35"
         id="stop12" /><stop
         offset="1"
         stop-opacity="1"
         stop-color="#4EB675"
         id="stop14" /></linearGradient><linearGradient
       id="id2"
       gradientUnits="userSpaceOnUse"
       x1="222566"
       y1="173018"
       x2="116927"
       y2="173018"><stop
         offset="0"
         stop-opacity="1"
         stop-color="#74CC35"
         id="stop17" /><stop
         offset="1"
         stop-opacity="1"
         stop-color="#4EB675"
         id="stop19" /></linearGradient><linearGradient
       id="id3"
       gradientUnits="userSpaceOnUse"
       x1="645644"
       y1="81875.5"
       x2="885568"
       y2="81875.5"><stop
         offset="0"
         stop-opacity="1"
         stop-color="#73CC36"
         id="stop22" /><stop
         offset="1"
         stop-opacity="1"
         stop-color="#50B771"
         id="stop24" /></linearGradient></defs><g
     id="Слой_x0020_1"><metadata
       id="CorelCorpID_0Corel-Layer" /><path
       fill="url(#id0)"
       d="M111692 50744c34553,0 62564,28011 62564,62564 0,34554 -28011,62564 -62564,62564 -34554,0 -62564,-28010 -62564,-62564 0,-34553 28010,-62564 62564,-62564z"
       id="path28" /><path
       fill="#FEFEFE"
       d="M111566 56874c25908,0 47894,16795 55668,40089 -8888,-22023 -30461,-37566 -55668,-37566 -25208,0 -46783,15543 -55669,37566 7774,-23294 29758,-40089 55669,-40089z"
       id="path30" /><path
       fill="url(#id1)"
       d="M38941 107401c6720,-37065 26450,-61773 66806,-66886l0 -40515 -9302 25696c-39550,8215 -63305,32659 -72165,72403l-24280 9302 38941 0z"
       id="path32" /><g
       id="_810398784"><path
         fill="url(#id2)"
         d="M183665 118844c-6716,37392 -26424,62315 -66738,67475l0 40872 9292 -25922c39511,-8288 63239,-32947 72093,-73041l24254 -9384 -38901 0z"
         id="path35" /><path
         fill="#00262D"
         d="M184347 107401c-6720,-37065 -26452,-61773 -66806,-66886l0 -40515 9302 25696c39550,8215 63304,32659 72165,72403l24277 9302 -15837 0 -23101 0z"
         id="path37" /></g><path
       fill="#00262D"
       d="M38941 119281c6720,37065 26450,61770 66803,66884l0 40517 -9301 -25698c-39548,-8213 -63303,-32657 -72165,-72401l-24278 -9302 38941 0z"
       id="path39" /><g
       id="_810411232"><path
         fill="white"
         fill-rule="nonzero"
         d="M262672 116261l-15721 0 0 -68773 15721 0 0 29966 22498 -29966 18865 0 -25840 31734 27903 37039 -19945 0 -23481 -32718 0 32718zm43818 -34388c0,-10152 3373,-18601 10119,-25347 6814,-6812 15623,-10218 26430,-10218 10743,0 19486,3242 26232,9727 6877,6485 10316,15097 10316,25838 0,10351 -3471,18865 -10414,25546 -6877,6681 -15588,10022 -26134,10022 -10676,0 -19452,-3243 -26331,-9727 -6812,-6485 -10218,-15098 -10218,-25841zm16702 0c0,5831 1934,10776 5798,14836 3798,3997 8482,5994 14049,5994 6288,0 11168,-1932 14639,-5798 3471,-3994 5207,-9005 5207,-15032 0,-6221 -1899,-11231 -5698,-15032 -3866,-3863 -8580,-5795 -14148,-5795 -5763,0 -10512,1932 -14245,5795 -3733,3866 -5602,8877 -5602,15032zm84889 34388l-15721 0 0 -68773 15819 0 21222 28982 20043 -28982 14833 0 0 68773 -15718 0 0 -43818 -19158 26821 -2261 0 -19059 -26527 0 43524zm80857 0l-15817 0 28590 -68773 14051 0 28590 68773 -16800 0 -5700 -14443 -27214 0 -5700 14443zm27020 -29181l-7664 -19452 -7763 19452 15427 0zm52956 5798l0 23383 -15721 0 0 -68773c3014,0 6322,-33 9924,-98 3667,-66 7370,-98 11102,-98 9695,0 16768,2160 21223,6482 4387,4193 6582,9629 6582,16310 0,6419 -2326,11887 -6977,16407 -4649,4455 -10806,6681 -18471,6681 -3405,0 -5959,-98 -7662,-294zm6878 -30851c-66,0 -360,16 -886,49 -523,33 -1341,68 -2455,100 -1114,33 -2294,49 -3537,49l0 15719c2750,327 5142,491 7172,491 2686,0 4896,-703 6632,-2112 1735,-1409 2604,-3520 2604,-6338 0,-5305 -3177,-7958 -9530,-7958zm61013 34093l-25939 0 0 -13754 25939 0 0 13754z"
         id="path42"
         style="fill:#00262d;fill-opacity:1" /><path
         fill="url(#id3)"
         fill-rule="nonzero"
         d="M645644 81873c0,-10152 3373,-18601 10119,-25347 6814,-6812 15623,-10218 26429,-10218 10743,0 19487,3242 26233,9727 6877,6485 10316,15097 10316,25838 0,10351 -3471,18865 -10414,25546 -6877,6681 -15588,10022 -26135,10022 -10675,0 -19451,-3243 -26331,-9727 -6811,-6485 -10217,-15098 -10217,-25841zm16702 0c0,5831 1934,10776 5798,14836 3798,3997 8482,5994 14048,5994 6289,0 11169,-1932 14640,-5798 3471,-3994 5207,-9005 5207,-15032 0,-6221 -1899,-11231 -5698,-15032 -3866,-3863 -8580,-5795 -14149,-5795 -5763,0 -10512,1932 -14244,5795 -3733,3866 -5602,8877 -5602,15032zm109550 35173l-15721 0 0 -9234c-9300,-66 -16735,-2458 -22302,-7172 -5503,-4716 -8253,-11299 -8253,-19748 0,-8384 2782,-14868 8351,-19454 5567,-4651 12970,-7139 22204,-7466l0 -7271 15721 0 0 7271c9234,197 16636,2684 22203,7466 5697,4847 8547,11332 8547,19454 0,8384 -2817,14934 -8449,19650 -5632,4780 -13067,7204 -22301,7270l0 9234zm14048 -36154c0,-3733 -1163,-6713 -3487,-8942 -2325,-2226 -5847,-3406 -10561,-3537l0 24955c4978,-65 8563,-1111 10757,-3144 2193,-2030 3291,-5141 3291,-9332zm-43622 0c0,8122 4619,12280 13853,12476l0 -24955c-4586,131 -8041,1311 -10365,3537 -2327,2229 -3488,5209 -3488,8942zm112496 36154l-15721 0 0 -9234c-9300,-66 -16735,-2458 -22302,-7172 -5503,-4716 -8253,-11299 -8253,-19748 0,-8384 2782,-14868 8351,-19454 5567,-4651 12970,-7139 22204,-7466l0 -7271 15721 0 0 7271c9234,197 16636,2684 22203,7466 5697,4847 8547,11332 8547,19454 0,8384 -2817,14934 -8449,19650 -5632,4780 -13067,7204 -22301,7270l0 9234zm14048 -36154c0,-3733 -1163,-6713 -3487,-8942 -2325,-2226 -5847,-3406 -10561,-3537l0 24955c4978,-65 8563,-1111 10757,-3144 2193,-2030 3291,-5141 3291,-9332zm-43622 0c0,8122 4619,12280 13853,12476l0 -24955c-4586,131 -8041,1311 -10365,3537 -2327,2229 -3488,5209 -3488,8942z"
         id="path44" /></g><g
       id="_810364064"><path
         fill="white"
         fill-rule="nonzero"
         d="M246848 154713c0,-5676 1885,-10400 5658,-14172 3808,-3808 8732,-5712 14775,-5712 6006,0 10892,1813 14665,5439 3845,3625 5768,8439 5768,14445 0,5786 -1942,10547 -5824,14282 -3843,3735 -8713,5602 -14609,5602 -5968,0 -10876,-1813 -14721,-5438 -3808,-3626 -5712,-8440 -5712,-14446zm9337 0c0,3259 1079,6025 3240,8295 2123,2233 4742,3350 7856,3350 3516,0 6244,-1079 8183,-3240 1941,-2233 2913,-5036 2913,-8405 0,-3478 -1063,-6279 -3187,-8405 -2160,-2158 -4798,-3240 -7909,-3240 -3224,0 -5877,1082 -7966,3240 -2086,2161 -3130,4964 -3130,8405zm41524 25817l-8239 0 0 -14831 4121 0c1098,-1464 2214,-4155 3350,-8075 1172,-3990 1903,-8807 2198,-14446l329 -7690 25105 0 0 30211 5216 0 0 14831 -8239 0 0 -6592 -23841 0 0 6592zm10274 -36803l-603 6482c-257,3077 -843,6226 -1759,9447 -881,3114 -1668,5128 -2364,6043l12525 0 0 -21972 -7799 0zm52568 6317l-17029 23894 -7690 0 0 -38450 8790 0 0 23895 17027 -23895 7690 0 0 38450 -8788 0 0 -23894zm50258 23894l-8787 0 0 -15490 -14007 0 0 15490 -8790 0 0 -38450 8790 0 0 14721 14007 0 0 -14721 8787 0 0 38450zm168690 -23894l-17032 23894 -7690 0 0 -38450 8790 0 0 23895 17030 -23895 7690 0 0 38450 -8788 0 0 -23894zm38450 23894l-8791 0 0 -38450 8844 0 11865 16205 11205 -16205 8295 0 0 38450 -8790 0 0 -24497 -10710 14994 -1264 0 -10654 -14831 0 24334zm80032 0l-8792 0 0 -38450 8792 0 0 38450zm-27303 -18400c-401,0 -1280,91 -2635,273l0 9778c1171,148 2033,220 2582,220 3660,0 5491,-1775 5491,-5328 0,-1612 -476,-2839 -1427,-3679 -953,-844 -2289,-1264 -4011,-1264zm-11425 -20050l8790 0 0 12030c1061,-147 2196,-219 3404,-219 4541,0 8010,1135 10409,3406 2399,2268 3597,5454 3597,9556 0,4174 -1390,7524 -4174,10052 -2820,2490 -6718,3735 -11699,3735 -2270,0 -4211,-19 -5823,-54 -1575,-37 -3074,-56 -4504,-56l0 -38450zm83768 0l8844 0 -12909 29333c-1355,3111 -2938,5410 -4751,6893 -1813,1484 -3981,2224 -6508,2224 -1063,0 -2161,-173 -3296,-521 -1135,-348 -1976,-743 -2525,-1182l3074 -7470c953,624 1850,934 2693,934 1427,0 2378,-514 2855,-1537l495 -1154 -16534 -27520 9942 0 10820 18786 7800 -18786zm25322 38340l0 -38230c4284,-220 8166,-329 11644,-329 4250,0 7461,852 9641,2555 2179,1701 3268,4037 3268,7003 0,3771 -1465,6627 -4394,8569l0 109c1647,622 2976,1685 3983,3187 1007,1499 1509,3368 1509,5601 0,3845 -1355,6793 -4065,8844 -2672,2014 -6188,3021 -10544,3021 -5090,0 -8772,-110 -11042,-330zm12193 -15433l-3403 0 0 7194c803,220 1794,330 2964,330 3406,0 5109,-1355 5109,-4065 0,-2308 -1556,-3459 -4670,-3459zm-658 -14887c-659,0 -1575,74 -2745,219l0 6978 2910 0c2710,0 4065,-1245 4065,-3736 0,-1062 -404,-1906 -1210,-2527 -804,-624 -1810,-934 -3020,-934zm26256 30430l-8844 0 15985 -38450 7853 0 15988 38450 -9396 0 -3186 -8075 -15214 0 -3186 8075zm15104 -16314l-4284 -10874 -4340 10874 8624 0zm46086 5933l3350 6592c-1170,1318 -2910,2397 -5216,3240 -2271,806 -4707,1208 -7307,1208 -5968,0 -10820,-1813 -14555,-5438 -3736,-3698 -5602,-8512 -5602,-14446 0,-5786 1757,-10547 5272,-14282 3516,-3733 8459,-5602 14831,-5602 2416,0 4668,367 6756,1098 2086,734 3754,1703 4999,2913l-3901 6590c-2563,-1574 -5181,-2362 -7854,-2362 -3114,0 -5695,1026 -7746,3077 -2013,2013 -3020,4870 -3020,8568 0,3369 1079,6172 3240,8405 2161,2161 4961,3240 8405,3240 3076,0 5858,-934 8348,-2801zm17359 -4450l-8788 0 0 -23619 8788 0 0 23619zm-9778 9559c0,-1355 532,-2556 1593,-3600 1063,-1042 2399,-1565 4011,-1565 1427,0 2644,523 3651,1565 1006,1044 1511,2245 1511,3600 0,1537 -486,2854 -1455,3955 -970,1098 -2208,1647 -3707,1647 -1650,0 -2995,-540 -4039,-1622 -1042,-1079 -1565,-2406 -1565,-3980z"
         id="path47"
         style="fill:#00262d;fill-opacity:1" /><path
         fill="#56BA68"
         fill-rule="nonzero"
         d="M450635 135488l8788 0 0 38450 -8788 0 0 -14721c-1941,1502 -4688,2252 -8241,2252 -3221,0 -5994,-979 -8323,-2939 -2324,-1957 -3488,-5062 -3488,-9309l0 -13733 8791 0 0 11096c0,2418 457,4128 1373,5137 916,1007 2252,1509 4011,1509 2086,0 4046,-678 5877,-2032l0 -15710zm22575 38450l-8844 0 15985 -38450 7854 0 15985 38450 -9393 0 -3187 -8075 -15214 0 -3186 8075zm15104 -16314l-4284 -10874 -4340 10874 8624 0zm46084 5933l3350 6592c-1170,1318 -2911,2397 -5216,3240 -2271,806 -4707,1208 -7307,1208 -5968,0 -10820,-1813 -14555,-5438 -3736,-3698 -5602,-8512 -5602,-14446 0,-5786 1757,-10547 5272,-14282 3516,-3733 8459,-5602 14831,-5602 2416,0 4667,367 6756,1098 2086,734 3754,1703 4999,2913l-3901 6590c-2563,-1574 -5181,-2362 -7854,-2362 -3114,0 -5695,1026 -7746,3077 -2013,2013 -3020,4870 -3020,8568 0,3369 1079,6172 3240,8405 2160,2161 4961,3240 8405,3240 3076,0 5858,-934 8348,-2801z"
         id="path49" /></g><g
       id="_810407712"><path
         fill="white"
         fill-rule="nonzero"
         d="M115836 75300l-5312 11315c-98,215 -117,467 -40,708l9 28 4114 12350c542,-656 1079,-1221 1602,-1670 -32,-273 -18,-558 -4,-846l-3703 -10128 4941 -11383 7 -24c79,-182 86,-392 14,-589l-4352 -11203c-124,-317 -479,-483 -806,-369 -332,119 -502,481 -383,811l3913 11000z"
         id="path52" /><path
         fill="white"
         fill-rule="nonzero"
         d="M135787 102740l31 -4c233,-38 455,-162 612,-362l7605 -9924 11571 -1579c338,-46 583,-352 544,-698 -40,-348 -351,-600 -699,-561l-11950 1287c-197,21 -384,117 -521,283l-12 16 -7840 9624 -10694 1365c-245,147 -497,289 -749,387 -164,671 -416,1411 -750,2192l12852 -2026z"
         id="path54" /><path
         fill="white"
         fill-rule="nonzero"
         d="M86522 119113l14 -28 4408 -7996c-862,35 -1724,49 -2582,35l-3387 6651 -18346 4798c-346,93 -563,443 -482,799 80,359 442,588 804,506l18942 -4293c255,-61 489,-227 629,-472z"
         id="path56" /><path
         fill="white"
         fill-rule="nonzero"
         d="M120505 139389l3922 -5464c-422,-742 -801,-1497 -1161,-2261l-4641 6943 -23 28c-143,222 -197,500 -127,771l4906 18795c86,345 441,567 796,486 363,-82 589,-444 505,-806l-4177 -18492z"
         id="path58" /><path
         fill="white"
         fill-rule="nonzero"
         d="M108162 142333l12474 -18071c-285,-1096 -525,-2185 -745,-3261l-13420 20488 -14 26c-84,128 -136,280 -143,448l-1172 27962c-14,320 231,596 553,619 327,23 612,-227 636,-556l1831 -27655z"
         id="path60" /><path
         fill="white"
         fill-rule="nonzero"
         d="M98606 110222l-10571 19868 -23712 14343c-273,170 -369,528 -210,805 168,288 530,386 815,225l24285 -13902c135,-79 254,-191 334,-336l11 -21 12229 -21692c-1032,267 -2095,503 -3181,710z"
         id="path62" /><path
         fill="white"
         fill-rule="nonzero"
         d="M144024 142823c-367,-6228 -4492,-25380 -23579,-38751 782,-1698 1086,-3214 1095,-4399 1138,498 4298,-2448 2551,-4504 1273,-2216 4483,-9030 4483,-9030 0,0 -4492,6033 -5873,8185 -2868,-603 -3810,3691 -2917,4286 -1045,547 -2252,1509 -3399,2979 -20669,-10872 -39623,-5730 -45330,-3194 -1787,795 3345,5838 4838,6749 14754,8982 33577,147 39917,-2724 -142,213 -292,390 -430,619 -1499,2469 -1182,2334 -2079,5177 -7244,4424 -15013,20131 -16679,30442 8389,-6221 18763,-20341 19366,-28814 2109,-2098 2137,-1752 3639,-4219 114,-187 182,-362 285,-542 364,7099 1252,27625 15896,36542 1493,908 8330,3153 8216,1198z"
         id="path64" /></g></g></svg>