<?xml version="1.0" encoding="UTF-8"?>
<!DOCTYPE svg PUBLIC "-//W3C//DTD SVG 1.1//EN" "http://www.w3.org/Graphics/SVG/1.1/DTD/svg11.dtd">
<!-- Creator: CorelDRAW X8 -->
<svg xmlns="http://www.w3.org/2000/svg" xml:space="preserve" width="448px" height="115px" version="1.1" shape-rendering="geometricPrecision" text-rendering="geometricPrecision" image-rendering="optimizeQuality" fill-rule="evenodd" clip-rule="evenodd"
viewBox="0 0 886185 227323"
 xmlns:xlink="http://www.w3.org/1999/xlink">
 <defs>
   <linearGradient id="id0" gradientUnits="userSpaceOnUse" x1="156226" y1="69315.5" x2="67286.7" y2="157432">
    <stop offset="0" stop-opacity="1" stop-color="#74CC36"/>
    <stop offset="1" stop-opacity="1" stop-color="#4FB674"/>
   </linearGradient>
   <linearGradient id="id1" gradientUnits="userSpaceOnUse" x1="105806" y1="53730.3" x2="-0" y2="53730.3">
    <stop offset="0" stop-opacity="1" stop-color="#74CC35"/>
    <stop offset="1" stop-opacity="1" stop-color="#4EB675"/>
   </linearGradient>
    <linearGradient id="id2" gradientUnits="userSpaceOnUse" x1="222695" y1="173118" x2="116994" y2="173118">
     <stop offset="0" stop-opacity="1" stop-color="#74CC35"/>
     <stop offset="1" stop-opacity="1" stop-color="#4EB675"/>
    </linearGradient>
    <linearGradient id="id3" gradientUnits="userSpaceOnUse" x1="646019" y1="81923" x2="886082" y2="81923">
     <stop offset="0" stop-opacity="1" stop-color="#73CC36"/>
     <stop offset="1" stop-opacity="1" stop-color="#50B771"/>
    </linearGradient>
 </defs>
 <g id="Слой_x0020_1">
  <metadata id="CorelCorpID_0Corel-Layer"/>
  <path fill="url(#id0)" d="M111757 50774c34573,0 62600,28026 62600,62600 0,34574 -28027,62600 -62600,62600 -34574,0 -62601,-28026 -62601,-62600 0,-34574 28027,-62600 62601,-62600z"/>
  <path fill="#FEFEFE" d="M111630 56907c25924,0 47922,16805 55701,40113 -8893,-22036 -30479,-37589 -55701,-37589 -25222,0 -46809,15553 -55700,37589 7778,-23308 29775,-40113 55700,-40113z"/>
  <path fill="url(#id1)" d="M38963 107463c6725,-37086 26466,-61808 66845,-66925l0 -40538 -9307 25711c-39573,8220 -63341,32678 -72207,72445l-24294 9307 38963 0z"/>
  <g id="_810396032">
   <path fill="url(#id2)" d="M183772 118913c-6720,37414 -26440,62351 -66778,67514l0 40896 9298 -25937c39534,-8293 63276,-32966 72135,-73084l24268 -9389 -38923 0z"/>
   <path fill="white" d="M184454 107463c-6724,-37086 -26468,-61808 -66845,-66925l0 -40538 9307 25711c39574,8220 63342,32678 72207,72445l24292 9307 -15847 0 -23114 0z"/>
  </g>
  <path fill="white" d="M38963 119351c6725,37086 26466,61805 66843,66922l0 40540 -9307 -25712c-39571,-8218 -63339,-32676 -72207,-72443l-24292 -9307 38963 0z"/>
  <g id="_810394624">
   <path fill="white" fill-rule="nonzero" d="M262825 116328l-15731 0 0 -68813 15731 0 0 29983 22510 -29983 18876 0 -25855 31753 27919 37060 -19956 0 -23494 -32736 0 32736zm43843 -34407c0,-10158 3375,-18612 10125,-25363 6818,-6815 15632,-10223 26445,-10223 10749,0 19498,3244 26248,9733 6881,6488 10321,15106 10321,25853 0,10356 -3473,18876 -10419,25561 -6882,6684 -15597,10027 -26150,10027 -10682,0 -19463,-3244 -26347,-9733 -6815,-6488 -10223,-15106 -10223,-25855zm16712 0c0,5834 1935,10782 5801,14844 3800,3999 8487,5998 14057,5998 6292,0 11174,-1933 14648,-5802 3473,-3996 5209,-9010 5209,-15040 0,-6225 -1900,-11238 -5700,-15041 -3868,-3866 -8585,-5799 -14157,-5799 -5767,0 -10518,1933 -14253,5799 -3735,3868 -5605,8882 -5605,15041zm84938 34407l-15730 0 0 -68813 15828 0 21235 28999 20054 -28999 14842 0 0 68813 -15728 0 0 -43843 -19168 26837 -2263 0 -19070 -26543 0 43549zm80904 0l-15826 0 28606 -68813 14059 0 28607 68813 -16810 0 -5703 -14451 -27230 0 -5703 14451zm27036 -29197l-7669 -19463 -7767 19463 15436 0zm52987 5801l0 23396 -15730 0 0 -68813c3015,0 6324,-32 9928,-98 3670,-65 7375,-98 11110,-98 9700,0 16777,2162 21234,6486 4390,4196 6587,9635 6587,16319 0,6423 -2328,11895 -6982,16418 -4651,4457 -10812,6684 -18481,6684 -3408,0 -5962,-98 -7666,-294zm6881 -30869c-66,0 -360,16 -886,49 -524,33 -1342,68 -2457,100 -1115,33 -2295,50 -3538,50l0 15727c2751,328 5144,491 7175,491 2688,0 4899,-703 6636,-2113 1737,-1409 2606,-3522 2606,-6341 0,-5308 -3179,-7963 -9536,-7963zm61048 34113l-25953 0 0 -13762 25953 0 0 13762z"/>
   <path fill="url(#id3)" fill-rule="nonzero" d="M646019 81921c0,-10158 3375,-18612 10125,-25363 6818,-6815 15632,-10223 26444,-10223 10750,0 19498,3244 26248,9733 6881,6488 10322,15106 10322,25853 0,10356 -3473,18876 -10420,25561 -6881,6684 -15597,10027 -26150,10027 -10681,0 -19463,-3244 -26346,-9733 -6816,-6488 -10223,-15106 -10223,-25855zm16711 0c0,5834 1936,10782 5802,14844 3800,3999 8486,5998 14056,5998 6292,0 11175,-1933 14648,-5802 3474,-3996 5210,-9010 5210,-15040 0,-6225 -1900,-11238 -5701,-15041 -3868,-3866 -8585,-5799 -14157,-5799 -5766,0 -10518,1933 -14253,5799 -3735,3868 -5605,8882 -5605,15041zm109614 35193l-15730 0 0 -9240c-9305,-65 -16745,-2459 -22315,-7175 -5507,-4719 -8258,-11306 -8258,-19760 0,-8389 2784,-14877 8356,-19465 5570,-4654 12977,-7143 22217,-7470l0 -7276 15730 0 0 7276c9239,196 16646,2685 22216,7470 5701,4850 8552,11338 8552,19465 0,8389 -2819,14942 -8454,19662 -5635,4782 -13075,7208 -22314,7273l0 9240zm14056 -36175c0,-3735 -1164,-6717 -3489,-8947 -2326,-2228 -5851,-3408 -10567,-3539l0 24970c4981,-66 8568,-1113 10763,-3146 2195,-2032 3293,-5145 3293,-9338zm-43647 0c0,8127 4621,12287 13861,12484l0 -24970c-4589,131 -8046,1311 -10371,3539 -2328,2230 -3490,5212 -3490,8947zm112561 36175l-15730 0 0 -9240c-9305,-65 -16745,-2459 -22315,-7175 -5506,-4719 -8257,-11306 -8257,-19760 0,-8389 2783,-14877 8355,-19465 5570,-4654 12977,-7143 22217,-7470l0 -7276 15730 0 0 7276c9239,196 16646,2685 22216,7470 5701,4850 8552,11338 8552,19465 0,8389 -2819,14942 -8454,19662 -5635,4782 -13075,7208 -22314,7273l0 9240zm14056 -36175c0,-3735 -1164,-6717 -3489,-8947 -2326,-2228 -5850,-3408 -10567,-3539l0 24970c4981,-66 8568,-1113 10763,-3146 2195,-2032 3293,-5145 3293,-9338zm-43647 0c0,8127 4621,12287 13861,12484l0 -24970c-4588,131 -8045,1311 -10371,3539 -2328,2230 -3490,5212 -3490,8947z"/>
  </g>
  <g id="_810417856">
   <path fill="white" fill-rule="nonzero" d="M246992 154803c0,-5680 1886,-10406 5660,-14181 3810,-3809 8737,-5714 14784,-5714 6009,0 10899,1813 14674,5441 3847,3628 5771,8445 5771,14454 0,5790 -1943,10553 -5827,14290 -3845,3738 -8719,5605 -14618,5605 -5972,0 -10883,-1814 -14730,-5441 -3810,-3628 -5714,-8445 -5714,-14454zm9342 0c0,3261 1080,6028 3242,8300 2124,2234 4744,3352 7860,3352 3518,0 6248,-1080 8188,-3242 1942,-2235 2914,-5040 2914,-8410 0,-3480 -1063,-6283 -3188,-8410 -2162,-2159 -4801,-3242 -7914,-3242 -3225,0 -5881,1083 -7970,3242 -2087,2162 -3132,4967 -3132,8410zm41548 25832l-8244 0 0 -14840 4123 0c1099,-1465 2216,-4158 3352,-8080 1173,-3992 1905,-8811 2199,-14454l330 -7694 25119 0 0 30228 5219 0 0 14840 -8243 0 0 -6596 -23855 0 0 6596zm10279 -36824l-603 6486c-257,3078 -843,6229 -1760,9452 -881,3115 -1668,5130 -2365,6046l12533 0 0 -21984 -7805 0zm52600 6320l-17040 23908 -7694 0 0 -38472 8795 0 0 23908 17037 -23908 7694 0 0 38472 -8792 0 0 -23908zm50287 23908l-8793 0 0 -15499 -14015 0 0 15499 -8795 0 0 -38472 8795 0 0 14730 14015 0 0 -14730 8793 0 0 38472zm168787 -23908l-17041 23908 -7695 0 0 -38472 8796 0 0 23908 17039 -23908 7694 0 0 38472 -8793 0 0 -23908zm38472 23908l-8795 0 0 -38472 8849 0 11871 16214 11212 -16214 8300 0 0 38472 -8795 0 0 -24511 -10717 15003 -1264 0 -10661 -14840 0 24348zm80079 0l-8797 0 0 -38472 8797 0 0 38472zm-27318 -18411c-402,0 -1281,91 -2637,274l0 9784c1171,147 2034,219 2583,219 3662,0 5495,-1776 5495,-5331 0,-1613 -477,-2840 -1428,-3681 -954,-844 -2291,-1265 -4013,-1265zm-11432 -20061l8795 0 0 12037c1061,-147 2197,-220 3406,-220 4543,0 8014,1136 10415,3408 2400,2270 3599,5458 3599,9562 0,4177 -1391,7529 -4177,10058 -2821,2491 -6722,3737 -11705,3737 -2272,0 -4214,-19 -5827,-54 -1575,-37 -3076,-56 -4506,-56l0 -38472zm83816 0l8849 0 -12916 29350c-1356,3113 -2940,5413 -4754,6897 -1814,1484 -3983,2225 -6512,2225 -1063,0 -2162,-173 -3298,-521 -1136,-348 -1977,-743 -2526,-1183l3076 -7475c953,625 1851,935 2695,935 1428,0 2379,-514 2856,-1538l495 -1154 -16543 -27536 9947 0 10827 18797 7804 -18797zm25337 38362l0 -38252c4286,-220 8171,-330 11651,-330 4252,0 7466,853 9646,2557 2181,1702 3270,4039 3270,7007 0,3773 -1465,6631 -4396,8574l0 110c1647,621 2977,1685 3985,3188 1007,1500 1510,3370 1510,5605 0,3847 -1356,6796 -4067,8849 -2674,2014 -6192,3022 -10551,3022 -5093,0 -8777,-110 -11048,-330zm12200 -15442l-3405 0 0 7199c804,219 1795,329 2966,329 3408,0 5112,-1356 5112,-4067 0,-2309 -1557,-3461 -4673,-3461zm-659 -14896c-659,0 -1575,75 -2746,220l0 6981 2912 0c2712,0 4067,-1246 4067,-3737 0,-1064 -404,-1907 -1211,-2529 -804,-624 -1811,-935 -3022,-935zm26272 30448l-8849 0 15994 -38472 7858 0 15997 38472 -9401 0 -3188 -8080 -15223 0 -3188 8080zm15113 -16324l-4287 -10880 -4343 10880 8630 0zm46113 5937l3352 6596c-1171,1318 -2913,2398 -5220,3242 -2272,806 -4709,1208 -7311,1208 -5972,0 -10826,-1814 -14564,-5441 -3737,-3700 -5605,-8517 -5605,-14454 0,-5790 1758,-10553 5276,-14290 3517,-3735 8463,-5605 14839,-5605 2417,0 4670,367 6760,1098 2087,734 3756,1704 5002,2915l-3904 6593c-2564,-1575 -5184,-2363 -7858,-2363 -3115,0 -5698,1027 -7750,3079 -2015,2014 -3022,4873 -3022,8573 0,3370 1080,6175 3242,8410 2162,2162 4964,3242 8409,3242 3078,0 5862,-935 8354,-2803zm17368 -4453l-8793 0 0 -23632 8793 0 0 23632zm-9784 9565c0,-1356 533,-2557 1594,-3602 1064,-1042 2401,-1566 4014,-1566 1428,0 2646,524 3653,1566 1007,1045 1512,2246 1512,3602 0,1538 -486,2856 -1456,3957 -970,1098 -2209,1648 -3709,1648 -1650,0 -2997,-540 -4042,-1622 -1042,-1080 -1566,-2408 -1566,-3983z"/>
   <path fill="#56BA68" fill-rule="nonzero" d="M450897 135567l8793 0 0 38472 -8793 0 0 -14730c-1942,1503 -4691,2253 -8246,2253 -3223,0 -5998,-979 -8328,-2940 -2326,-1959 -3490,-5065 -3490,-9314l0 -13741 8796 0 0 11102c0,2419 458,4130 1374,5140 916,1007 2253,1510 4013,1510 2087,0 4048,-678 5881,-2034l0 -15718zm22588 38472l-8849 0 15994 -38472 7858 0 15994 38472 -9398 0 -3188 -8080 -15223 0 -3188 8080zm15113 -16324l-4287 -10880 -4343 10880 8630 0zm46110 5937l3352 6596c-1171,1318 -2912,2398 -5219,3242 -2272,806 -4710,1208 -7311,1208 -5972,0 -10827,-1814 -14564,-5441 -3737,-3700 -5605,-8517 -5605,-14454 0,-5790 1758,-10553 5275,-14290 3518,-3735 8464,-5605 14840,-5605 2417,0 4670,367 6760,1098 2087,734 3756,1704 5001,2915l-3903 6593c-2564,-1575 -5184,-2363 -7858,-2363 -3116,0 -5698,1027 -7751,3079 -2014,2014 -3022,4873 -3022,8573 0,3370 1080,6175 3242,8410 2162,2162 4965,3242 8410,3242 3078,0 5862,-935 8353,-2803z"/>
  </g>
  <g id="_810406560">
   <path fill="white" fill-rule="nonzero" d="M115903 75343l-5315 11322c-98,215 -117,468 -40,709l10 28 4116 12357c542,-657 1079,-1222 1603,-1671 -33,-274 -19,-559 -5,-846l-3704 -10135 4943 -11390 7 -23c80,-182 87,-393 14,-589l-4354 -11210c-124,-318 -479,-484 -807,-369 -332,119 -502,481 -383,811l3915 11006z"/>
   <path fill="white" fill-rule="nonzero" d="M135866 102800l30 -5c234,-37 456,-161 613,-362l7610 -9929 11577 -1580c339,-47 584,-353 544,-699 -39,-348 -350,-601 -698,-561l-11958 1288c-196,21 -383,117 -521,283l-12 16 -7844 9630 -10700 1365c-246,147 -498,290 -751,388 -163,671 -416,1412 -750,2192l12860 -2026z"/>
   <path fill="white" fill-rule="nonzero" d="M86572 119182l14 -28 4411 -8000c-863,35 -1725,49 -2583,35l-3389 6654 -18358 4801c-346,93 -563,444 -481,799 79,360 442,589 804,507l18953 -4296c255,-60 489,-226 629,-472z"/>
   <path fill="white" fill-rule="nonzero" d="M120575 139470l3925 -5467c-423,-743 -802,-1498 -1162,-2262l-4644 6946 -24 28c-142,222 -196,500 -126,772l4909 18806c86,346 441,568 797,486 362,-82 589,-444 504,-807l-4179 -18502z"/>
   <path fill="white" fill-rule="nonzero" d="M108225 142415l12481 -18081c-285,-1097 -526,-2186 -745,-3263l-13428 20500 -14 26c-85,129 -136,281 -143,449l-1173 27978c-14,320 231,596 554,619 327,23 612,-227 635,-556l1833 -27672z"/>
   <path fill="white" fill-rule="nonzero" d="M98663 110286l-10576 19879 -23727 14351c-273,171 -369,529 -210,807 168,287 531,385 816,224l24299 -13909c135,-80 254,-192 334,-337l11 -21 12236 -21704c-1033,266 -2096,502 -3183,710z"/>
   <path fill="white" fill-rule="nonzero" d="M144107 142906c-367,-6231 -4494,-25395 -23592,-38774 783,-1699 1086,-3216 1096,-4401 1138,498 4300,-2449 2552,-4506 1274,-2218 4485,-9036 4485,-9036 0,0 -4494,6037 -5876,8190 -2870,-603 -3812,3693 -2919,4289 -1045,547 -2253,1509 -3401,2980 -20680,-10878 -39645,-5734 -45355,-3195 -1788,794 3347,5841 4840,6752 14763,8987 33597,147 39940,-2725 -142,212 -292,390 -430,619 -1500,2471 -1182,2335 -2080,5180 -7248,4427 -15022,20143 -16688,30460 8393,-6225 18773,-20354 19376,-28831 2110,-2099 2139,-1753 3641,-4221 115,-187 183,-363 286,-543 364,7103 1252,27641 15905,36563 1494,909 8335,3155 8220,1199z"/>
  </g>
 </g>
</svg>
