<?xml version="1.0" encoding="UTF-8"?>
<!DOCTYPE svg PUBLIC "-//W3C//DTD SVG 1.1//EN" "http://www.w3.org/Graphics/SVG/1.1/DTD/svg11.dtd">
<!-- Creator: CorelDRAW X8 -->
<svg xmlns="http://www.w3.org/2000/svg" xml:space="preserve" width="33px" height="33px" version="1.1" shape-rendering="geometricPrecision" text-rendering="geometricPrecision" image-rendering="optimizeQuality" fill-rule="evenodd" clip-rule="evenodd"
viewBox="0 0 6579 6579"
 xmlns:xlink="http://www.w3.org/1999/xlink">
 <defs>
   <linearGradient id="id0" gradientUnits="userSpaceOnUse" x1="6578.82" y1="3289.65" x2="-0" y2="3289.65">
    <stop offset="0" stop-opacity="1" stop-color="#4FB674"/>
    <stop offset="1" stop-opacity="1" stop-color="#73CC36"/>
   </linearGradient>
 </defs>
 <g id="Слой_x0020_1">
  <metadata id="CorelCorpID_0Corel-Layer"/>
  <path fill="url(#id0)" fill-rule="nonzero" d="M5615 964c-1286,-1285 -3368,-1285 -4652,0 -1236,1236 -1282,3213 -138,4505l34 28c-124,268 -338,599 -677,765 -112,55 -86,222 37,241 371,57 903,-7 1399,-382l7 6c1261,741 2909,571 3992,-512 1283,-1283 1283,-3367 -2,-4651z"/>
  <path fill="white" fill-rule="nonzero" d="M4783 3351c-66,-382 -246,-730 -521,-1006 -289,-290 -657,-473 -1063,-530l41 -293c469,65 895,278 1230,614 319,318 528,722 605,1165l-292 50zm-410 1346c-72,74 -149,142 -217,219 -100,112 -226,147 -368,139 -208,-11 -401,-81 -585,-171 -412,-200 -763,-477 -1057,-827 -218,-259 -397,-540 -516,-859 -57,-154 -98,-312 -86,-478 8,-103 47,-190 122,-263 82,-78 158,-158 239,-238 105,-104 237,-102 342,0 66,65 128,129 193,193 63,63 126,124 187,187 110,111 110,240 0,350 -78,80 -156,159 -237,236 -20,20 -23,36 -12,62 52,126 129,238 213,342 171,211 366,398 598,543 49,31 104,53 156,82 26,15 45,10 65,-12 79,-81 159,-160 238,-240 106,-103 237,-103 341,0 128,128 256,255 383,383 109,113 109,244 1,352zm-1213 -2125l41 -292c283,39 540,168 743,370 193,193 318,435 364,701l-292 51c-35,-206 -133,-394 -281,-543 -158,-157 -356,-257 -575,-287z"/>
 </g>
</svg>
