<?xml version="1.0" encoding="UTF-8"?>
<!DOCTYPE svg PUBLIC "-//W3C//DTD SVG 1.1//EN" "http://www.w3.org/Graphics/SVG/1.1/DTD/svg11.dtd">
<!-- Creator: CorelDRAW X8 -->
<svg xmlns="http://www.w3.org/2000/svg" xml:space="preserve" width="120px" height="163px" version="1.1" shape-rendering="geometricPrecision" text-rendering="geometricPrecision" image-rendering="optimizeQuality" fill-rule="evenodd" clip-rule="evenodd"
viewBox="0 0 75036 102077"
 xmlns:xlink="http://www.w3.org/1999/xlink">
 <defs>
     <linearGradient id="id0" gradientUnits="userSpaceOnUse" x1="-0" y1="37518.2" x2="75036.5" y2="37518.2">
      <stop offset="0" stop-opacity="1" stop-color="#84C357"/>
      <stop offset="1" stop-opacity="1" stop-color="#6BBD65"/>
     </linearGradient>
 </defs>
 <g id="Слой_x0020_1">
  <metadata id="CorelCorpID_0Corel-Layer"/>
  <g id="_1274994064">
   <path fill="#434345" fill-rule="nonzero" d="M7154 86794c0,-1063 355,-1956 1063,-2678 723,-723 1633,-1085 2731,-1085 1098,0 2004,348 2720,1043 723,701 1084,1608 1084,2720 0,1090 -361,1990 -1084,2699 -722,708 -1629,1063 -2720,1063 -1098,0 -2005,-347 -2720,-1042 -716,-695 -1074,-1601 -1074,-2720zm1355 0c0,736 233,1348 699,1834 465,486 1045,729 1740,729 750,0 1345,-243 1782,-729 444,-486 667,-1098 667,-1834 0,-743 -236,-1359 -708,-1845 -473,-480 -1053,-719 -1741,-719 -702,0 -1285,239 -1751,719 -458,480 -688,1094 -688,1845zm11777 3647l-1199 0 0 -3564 -2000 0 0 3564 -1199 0 0 -4689 4398 0 0 4689zm3022 0l-1688 0 0 -4689 1199 0 0 1282 583 0c702,0 1221,145 1558,437 337,292 506,688 506,1188 0,535 -181,966 -542,1293 -362,326 -900,489 -1616,489zm4023 0l-1198 0 0 -4689 1198 0 0 4689zm-4033 -2449l-479 0 0 1407 469 0c604,0 907,-232 907,-698 0,-472 -300,-709 -897,-709zm6420 -1042l-1543 0 0 -1198 4273 0 0 1198 -1532 0 0 3491 -1198 0 0 -3491zm6993 5576l-1199 0 0 -6774 1199 0 0 448c153,-167 361,-302 626,-407 263,-104 538,-156 822,-156 647,0 1161,222 1543,667 389,451 584,1025 584,1719 0,730 -229,1334 -688,1814 -459,480 -1056,719 -1792,719 -473,0 -838,-76 -1095,-229l0 2199zm1073 -5763c-416,0 -775,169 -1073,510l0 1897c285,181 614,271 990,271 396,0 714,-129 954,-386 239,-257 359,-590 359,-1000 0,-389 -109,-702 -328,-938 -219,-236 -519,-354 -902,-354zm3909 198l-302 -876c507,-299 1059,-448 1656,-448 654,0 1129,160 1428,479 299,320 448,810 448,1470l0 2855 -1042 0 0 -542c-278,404 -740,605 -1386,605 -445,0 -801,-131 -1068,-391 -268,-260 -401,-610 -401,-1048 0,-486 156,-861 469,-1125 312,-264 726,-396 1240,-396 424,0 778,101 1062,302 15,-416 -46,-722 -182,-916 -135,-195 -366,-293 -693,-293 -361,0 -771,108 -1229,324zm1198 2532c403,0 706,-142 906,-428l0 -479c-194,-153 -468,-229 -822,-229 -223,0 -404,52 -542,156 -139,105 -209,247 -209,428 0,167 62,300 188,401 125,101 284,151 479,151zm6785 -6462l625 980c-167,209 -376,362 -625,458 -223,77 -501,153 -834,230 -327,63 -598,149 -813,261 -577,270 -914,854 -1011,1750l21 0c146,-257 372,-467 677,-630 306,-164 629,-245 969,-245 647,0 1164,208 1553,626 389,423 584,983 584,1677 0,674 -230,1247 -688,1720 -458,465 -1049,698 -1771,698 -786,0 -1407,-267 -1866,-802 -452,-536 -677,-1258 -677,-2168 0,-2001 590,-3258 1771,-3773 257,-111 542,-194 855,-250 354,-69 614,-137 781,-203 167,-66 317,-176 449,-329zm-2575 4805c7,472 122,858 344,1157 223,298 518,448 886,448 361,0 653,-119 876,-354 222,-236 333,-536 333,-897 0,-368 -103,-667 -307,-896 -206,-229 -489,-344 -850,-344 -312,0 -583,81 -813,245 -229,163 -385,377 -469,641zm5169 2032c-465,-465 -698,-1056 -698,-1772 0,-715 233,-1302 698,-1761 466,-465 1084,-698 1856,-698 764,0 1379,233 1844,698 473,459 709,1046 709,1761 0,709 -236,1300 -709,1772 -472,459 -1087,688 -1844,688 -772,0 -1390,-229 -1856,-688zm949 -2730c-243,249 -365,569 -365,958 0,390 120,711 359,964 240,254 545,381 913,381 375,0 682,-125 922,-376 240,-249 360,-573 360,-969 0,-389 -122,-709 -365,-958 -243,-251 -549,-375 -917,-375 -362,0 -664,124 -907,375zm5367 -188l-1542 0 0 -1198 4272 0 0 1198 -1532 0 0 3491 -1198 0 0 -3491zm5273 3491l-1688 0 0 -4689 1198 0 0 1282 584 0c701,0 1221,145 1558,437 337,292 505,688 505,1188 0,535 -181,966 -542,1293 -361,326 -899,489 -1615,489zm4023 0l-1199 0 0 -4689 1199 0 0 4689zm-4033 -2449l-480 0 0 1407 469 0c605,0 907,-232 907,-698 0,-472 -299,-709 -896,-709zm-48598 6560l625 980c-166,209 -375,361 -625,458 -222,77 -500,153 -834,230 -326,63 -597,149 -813,261 -576,270 -913,854 -1011,1750l22 0c145,-257 371,-467 677,-630 306,-164 628,-245 969,-245 646,0 1164,208 1553,625 389,424 584,983 584,1678 0,674 -230,1247 -688,1720 -459,465 -1050,698 -1772,698 -785,0 -1407,-268 -1865,-802 -452,-536 -678,-1258 -678,-2168 0,-2002 590,-3259 1771,-3773 257,-111 542,-195 856,-250 353,-69 614,-137 781,-203 167,-67 316,-176 448,-329zm-2574 4805c7,472 122,858 344,1157 222,298 518,447 885,447 362,0 654,-118 876,-353 223,-237 333,-536 333,-897 0,-368 -102,-667 -307,-897 -205,-228 -488,-343 -849,-343 -313,0 -584,81 -813,245 -229,163 -386,377 -469,641zm5169 2032c-465,-465 -698,-1056 -698,-1772 0,-715 233,-1303 698,-1761 466,-465 1084,-698 1855,-698 765,0 1380,233 1845,698 473,458 708,1046 708,1761 0,709 -235,1299 -708,1772 -473,459 -1087,688 -1845,688 -771,0 -1389,-229 -1855,-688zm949 -2730c-244,249 -365,569 -365,958 0,390 120,711 359,964 240,254 544,380 912,380 375,0 683,-124 923,-375 240,-249 359,-573 359,-969 0,-389 -122,-709 -365,-958 -243,-251 -548,-376 -917,-376 -361,0 -663,125 -906,376zm8629 3303l-1198 0 0 -3491 -1240 0 -32 500c-90,848 -220,1494 -391,1939 -170,444 -385,745 -646,901 -260,156 -620,238 -1078,245l-105 -1167c153,7 296,-35 427,-125 153,-111 289,-344 407,-698 118,-355 195,-800 229,-1334l73 -1460 3554 0 0 4690zm5013 -1313l344 844c-465,389 -1063,584 -1792,584 -751,0 -1362,-226 -1835,-678 -459,-444 -688,-1038 -688,-1782 0,-695 226,-1278 678,-1751 452,-472 1052,-708 1803,-708 618,0 1143,204 1573,614 431,410 647,932 647,1564 0,278 -25,493 -73,646l-3388 0c49,341 201,608 454,802 253,195 572,293 953,293 522,0 963,-143 1324,-428zm-1542 -2491c-681,0 -1091,340 -1230,1021l2303 0c7,-298 -89,-543 -287,-734 -198,-191 -460,-287 -786,-287zm6888 2491l345 844c-466,389 -1063,584 -1793,584 -750,0 -1362,-226 -1835,-678 -458,-444 -687,-1038 -687,-1782 0,-695 226,-1278 677,-1751 452,-472 1053,-708 1803,-708 619,0 1143,204 1574,614 430,410 646,932 646,1564 0,278 -24,493 -73,646l-3387 0c49,341 200,608 453,802 254,195 572,293 954,293 521,0 962,-143 1323,-428zm-1542 -2491c-681,0 -1091,340 -1229,1021l2302 0c8,-298 -88,-543 -286,-734 -198,-191 -460,-287 -787,-287zm5628 386l479 -3877 3450 0 0 1198 -2397 0 -208 1449c138,-28 277,-42 417,-42 667,0 1212,212 1636,636 438,424 656,987 656,1689 0,757 -240,1362 -719,1813 -472,444 -1069,667 -1792,667 -396,0 -803,-90 -1220,-271 -389,-181 -695,-438 -917,-771l688 -907c146,222 360,403 641,542 282,139 561,208 839,208 347,0 634,-114 860,-343 225,-230 338,-525 338,-887 0,-382 -140,-692 -421,-932 -282,-240 -659,-359 -1131,-359 -508,0 -907,62 -1199,187zm11673 3418l-1199 0 0 -3491 -1240 0 -31 500c-91,848 -220,1494 -391,1939 -170,444 -386,745 -646,901 -260,156 -620,238 -1079,245l-104 -1167c153,7 296,-35 427,-125 153,-111 289,-344 407,-698 118,-355 194,-800 229,-1334l73 -1460 3554 0 0 4690zm5013 -1313l344 844c-465,389 -1063,584 -1793,584 -750,0 -1362,-226 -1834,-678 -459,-444 -688,-1038 -688,-1782 0,-695 226,-1278 677,-1751 452,-472 1053,-708 1803,-708 619,0 1144,204 1574,614 431,410 646,932 646,1564 0,278 -24,493 -73,646l-3387 0c49,341 200,608 454,802 253,195 571,293 953,293 522,0 963,-143 1324,-428zm-1542 -2491c-681,0 -1091,340 -1230,1021l2303 0c7,-298 -89,-543 -287,-734 -198,-191 -460,-287 -786,-287zm4241 313l-1542 0 0 -1199 4273 0 0 1199 -1532 0 0 3491 -1199 0 0 -3491z"/>
   <g>
    <path fill="url(#id0)" d="M37518 0c20721,0 37518,16797 37518,37518 0,20721 -16797,37518 -37518,37518 -20721,0 -37518,-16797 -37518,-37518 0,-20721 16797,-37518 37518,-37518zm0 3127c18995,0 34391,15397 34391,34391 0,18995 -15396,34391 -34391,34391 -18994,0 -34391,-15396 -34391,-34391 0,-18994 15397,-34391 34391,-34391z"/>
    <path fill="#00262D" fill-rule="nonzero" d="M26978 39650l2842 -23210 20487 0 0 8881 -12671 0 -829 5270 1421 0c3711,0 6790,1223 9237,3671 2487,2408 3730,5684 3730,9829 0,4500 -1421,8053 -4263,10658 -2882,2566 -6493,3849 -10835,3849 -2329,0 -4659,-494 -6987,-1481 -2330,-1026 -4086,-2388 -5270,-4085l4974 -6809c828,987 1963,1815 3404,2487 1441,670 2813,1006 4116,1006 1578,0 2871,-483 3878,-1451 1006,-967 1509,-2220 1509,-3759 0,-1777 -681,-3208 -2042,-4293 -1362,-1086 -3227,-1628 -5596,-1628 -3276,0 -5645,355 -7105,1065z"/>
   </g>
  </g>
 </g>
</svg>
