<?xml version="1.0" encoding="UTF-8"?>
<!DOCTYPE svg PUBLIC "-//W3C//DTD SVG 1.1//EN" "http://www.w3.org/Graphics/SVG/1.1/DTD/svg11.dtd">
<!-- Creator: CorelDRAW X8 -->
<svg xmlns="http://www.w3.org/2000/svg" xml:space="preserve" width="226px" height="167px" version="1.1" shape-rendering="geometricPrecision" text-rendering="geometricPrecision" image-rendering="optimizeQuality" fill-rule="evenodd" clip-rule="evenodd"
viewBox="0 0 276705 203566"
 xmlns:xlink="http://www.w3.org/1999/xlink">
 <defs>
     <linearGradient id="id0" gradientUnits="userSpaceOnUse" x1="64320.9" y1="73315" x2="210951" y2="73315">
      <stop offset="0" stop-opacity="1" stop-color="#84C357"/>
      <stop offset="1" stop-opacity="1" stop-color="#6BBD65"/>
     </linearGradient>
 </defs>
 <g id="Слой_x0020_1">
  <metadata id="CorelCorpID_0Corel-Layer"/>
  <g id="_1277440080">
   <path fill="#434345" fill-rule="nonzero" d="M10957 173722l957 1873c-449,476 -1090,863 -1926,1162 -834,299 -1713,447 -2636,447 -2172,0 -3945,-671 -5316,-2016 -1358,-1343 -2036,-3121 -2036,-5335 0,-2117 645,-3877 1935,-5275 1276,-1384 3061,-2077 5356,-2077 1819,0 3265,482 4337,1446l-1120 1853c-964,-638 -2036,-957 -3217,-957 -1358,0 -2471,455 -3339,1364 -871,911 -1305,2126 -1305,3646 0,1493 456,2701 1365,3625 924,924 2112,1384 3563,1384 1250,0 2377,-379 3382,-1140zm5112 7331l-2343 0 0 -13237 2343 0 0 876c298,-326 705,-590 1222,-795 515,-203 1052,-304 1608,-304 1263,0 2267,434 3015,1303 760,882 1140,2003 1140,3360 0,1426 -448,2606 -1344,3544 -896,937 -2064,1404 -3502,1404 -924,0 -1637,-148 -2139,-447l0 4296zm2097 -11261c-814,0 -1514,332 -2097,997l0 3707c557,353 1200,529 1934,529 775,0 1395,-251 1864,-753 468,-502 702,-1153 702,-1954 0,-761 -214,-1373 -641,-1833 -427,-462 -1015,-693 -1762,-693zm7718 6069c-909,-909 -1364,-2064 -1364,-3462 0,-1399 455,-2546 1364,-3443 911,-909 2119,-1363 3625,-1363 1494,0 2696,454 3605,1363 924,897 1384,2044 1384,3443 0,1385 -460,2538 -1384,3462 -923,896 -2124,1343 -3605,1343 -1506,0 -2714,-447 -3625,-1343zm1854 -5336c-476,488 -712,1113 -712,1874 0,760 233,1388 701,1883 469,496 1064,743 1782,743 733,0 1334,-244 1803,-733 469,-488 703,-1120 703,-1893 0,-761 -238,-1386 -713,-1874 -475,-489 -1073,-733 -1793,-733 -705,0 -1296,244 -1771,733zm13848 -2709l2341 0 0 9165 -2341 0 0 -3157c-680,353 -1440,530 -2282,530 -1140,0 -1978,-299 -2515,-896 -536,-598 -804,-1501 -804,-2709l0 -2933 2505 0 0 2647c0,1127 495,1692 1487,1692 638,0 1175,-123 1609,-367l0 -3972zm13646 9165l-2343 0 0 -3503 -4012 0 0 3503 -2342 0 0 -9165 2342 0 0 3463 4012 0 0 -3463 2343 0 0 9165zm5905 0l-3299 0 0 -9165 2342 0 0 2506 1141 0c1371,0 2385,284 3045,854 658,570 987,1345 987,2322 0,1045 -354,1888 -1059,2526 -706,638 -1758,957 -3157,957zm7861 0l-2342 0 0 -9165 2342 0 0 9165zm-7881 -4786l-937 0 0 2749 917 0c1180,0 1772,-454 1772,-1365 0,-922 -584,-1384 -1752,-1384zm17106 -1019l-4276 5805 -2342 0 0 -9165 2342 0 0 5805 4276 -5805 2343 0 0 9165 -2343 0 0 -5805zm-5253 -7942l2137 0c0,449 89,808 266,1080 176,271 440,407 794,407 312,0 553,-139 723,-417 170,-279 254,-635 254,-1070l2139 0c0,951 -279,1715 -836,2292 -556,576 -1316,864 -2280,864 -1060,0 -1856,-281 -2393,-844 -537,-564 -804,-1335 -804,-2312zm14520 13747l0 -9165c123,0 642,-17 1559,-50 916,-35 1598,-52 2046,-52 2770,0 4154,802 4154,2404 0,515 -162,967 -488,1354 -326,387 -733,615 -1222,683l0 40c1303,312 1955,1017 1955,2117 0,1848 -1453,2771 -4358,2771 -422,0 -1067,-21 -1936,-62 -216,0 -464,-3 -743,-10 -277,-7 -488,-13 -631,-20 -142,-7 -254,-10 -336,-10zm3809 -3890l-1466 0 0 2037c814,54 1330,80 1547,80 516,0 920,-95 1212,-284 291,-190 437,-449 437,-773 0,-708 -577,-1060 -1730,-1060zm0 -3482c-543,0 -1032,13 -1466,40l0 2016 1526 0c422,0 761,-95 1019,-285 257,-189 387,-448 387,-774 0,-665 -489,-997 -1466,-997zm9714 7372l-3299 0 0 -9165 2342 0 0 2506 1140 0c1371,0 2386,284 3046,854 658,570 987,1345 987,2322 0,1045 -354,1888 -1060,2526 -705,638 -1757,957 -3156,957zm7861 0l-2342 0 0 -9165 2342 0 0 9165zm-7881 -4786l-937 0 0 2749 917 0c1180,0 1772,-454 1772,-1365 0,-922 -585,-1384 -1752,-1384zm17676 2220l673 1649c-909,761 -2077,1140 -3503,1140 -1466,0 -2661,-441 -3585,-1323 -896,-869 -1343,-2029 -1343,-3482 0,-1359 441,-2499 1323,-3422 883,-923 2057,-1384 3523,-1384 1209,0 2234,399 3075,1200 842,801 1263,1820 1263,3056 0,542 -47,964 -143,1262l-6618 0c95,666 391,1188 886,1568 495,381 1117,571 1863,571 1019,0 1881,-278 2586,-835zm-3013 -4868c-1331,0 -2132,665 -2403,1996l4500 0c14,-583 -173,-1062 -560,-1435 -387,-374 -899,-561 -1537,-561zm9571 7657c-801,0 -1582,-142 -2342,-427 -761,-299 -1311,-665 -1650,-1100l1203 -1466c271,312 658,577 1160,794 502,218 977,326 1426,326 597,0 1058,-102 1384,-306 326,-203 489,-475 489,-814 0,-312 -123,-564 -367,-753 -243,-191 -584,-286 -1018,-286l-1711 0 0 -1567 1610 0c366,0 661,-106 886,-316 223,-211 334,-479 334,-804 0,-665 -535,-999 -1607,-999 -843,0 -1677,354 -2506,1059l-977 -1405c869,-1032 2180,-1547 3930,-1547 1182,0 2087,226 2719,682 631,455 947,1096 947,1924 0,447 -149,856 -448,1222 -298,367 -712,638 -1242,814l0 41c610,123 1085,377 1426,765 339,387 508,851 508,1394 0,856 -377,1531 -1130,2026 -754,497 -1761,743 -3024,743zm7453 1916l-2179 0 0 -4319 1160 0c720,-964 1147,-2558 1283,-4785l143 -2200 6761 0 0 6985 1527 0 0 4319 -2199 0 0 -2139 -6496 0 0 2139zm2586 -9104l-60 936c-163,1765 -530,3048 -1100,3849l3400 0 0 -4785 -2240 0zm11976 6965l0 -9165c123,0 642,-17 1559,-50 916,-35 1597,-52 2046,-52 2770,0 4154,802 4154,2404 0,515 -162,967 -488,1354 -326,387 -733,615 -1223,683l0 40c1304,312 1956,1017 1956,2117 0,1848 -1453,2771 -4359,2771 -421,0 -1066,-21 -1935,-62 -216,0 -465,-3 -743,-10 -277,-7 -488,-13 -631,-20 -143,-7 -254,-10 -336,-10zm3809 -3890l-1467 0 0 2037c814,54 1331,80 1547,80 517,0 921,-95 1213,-284 291,-190 437,-449 437,-773 0,-708 -577,-1060 -1730,-1060zm0 -3482c-543,0 -1032,13 -1467,40l0 2016 1527 0c422,0 761,-95 1019,-285 257,-189 387,-448 387,-774 0,-665 -489,-997 -1466,-997zm12789 550l-3013 0 0 -2343 8349 0 0 2343 -2993 0 0 6822 -2343 0 0 -6822zm13910 4256l672 1649c-909,761 -2076,1140 -3502,1140 -1466,0 -2661,-441 -3585,-1323 -896,-869 -1344,-2029 -1344,-3482 0,-1359 442,-2499 1324,-3422 883,-923 2056,-1384 3523,-1384 1209,0 2234,399 3075,1200 841,801 1263,1820 1263,3056 0,542 -48,964 -143,1262l-6619 0c96,666 392,1188 887,1568 495,381 1117,571 1863,571 1019,0 1880,-278 2586,-835zm-3013 -4868c-1331,0 -2132,665 -2403,1996l4500 0c14,-583 -174,-1062 -560,-1435 -387,-374 -900,-561 -1537,-561zm11384 -1731l2340 0 0 9165 -2340 0 0 -3157c-680,353 -1441,530 -2282,530 -1140,0 -1979,-299 -2516,-896 -535,-598 -804,-1501 -804,-2709l0 -2933 2506 0 0 2647c0,1127 495,1692 1486,1692 638,0 1175,-123 1610,-367l0 -3972zm12137 6599l672 1649c-909,761 -2076,1140 -3502,1140 -1466,0 -2661,-441 -3585,-1323 -896,-869 -1344,-2029 -1344,-3482 0,-1359 442,-2499 1324,-3422 883,-923 2056,-1384 3523,-1384 1209,0 2234,399 3075,1200 841,801 1263,1820 1263,3056 0,542 -48,964 -143,1262l-6619 0c96,666 392,1188 887,1568 495,381 1117,571 1863,571 1019,0 1880,-278 2586,-835zm-3013 -4868c-1331,0 -2132,665 -2403,1996l4500 0c14,-583 -174,-1062 -560,-1435 -387,-374 -900,-561 -1537,-561zm15029 7434l-2342 0 0 -3503 -4012 0 0 3503 -2343 0 0 -9165 2343 0 0 3463 4012 0 0 -3463 2342 0 0 9165zm9225 -5805l-4276 5805 -2342 0 0 -9165 2342 0 0 5805 4276 -5805 2342 0 0 9165 -2342 0 0 -5805zm11567 0l-4276 5805 -2342 0 0 -9165 2342 0 0 5805 4276 -5805 2343 0 0 9165 -2343 0 0 -5805zm14318 -3360l2341 0 0 9165 -2341 0 0 -3157c-679,353 -1440,530 -2281,530 -1140,0 -1979,-299 -2516,-896 -535,-598 -804,-1501 -804,-2709l0 -2933 2506 0 0 2647c0,1127 495,1692 1486,1692 638,0 1175,-123 1609,-367l0 -3972zm5662 2363l-590 -1710c991,-585 2069,-876 3237,-876 1277,0 2207,311 2791,936 583,625 875,1582 875,2872l0 5580 -2037 0 0 -1060c-542,788 -1446,1182 -2707,1182 -870,0 -1566,-255 -2088,-763 -523,-510 -784,-1192 -784,-2048 0,-950 306,-1683 916,-2199 611,-516 1419,-774 2424,-774 828,0 1521,198 2076,590 28,-814 -91,-1411 -356,-1791 -264,-381 -716,-571 -1354,-571 -706,0 -1507,210 -2403,632zm2343 4949c786,0 1378,-279 1770,-836l0 -937c-379,-298 -916,-447 -1607,-447 -435,0 -788,101 -1060,304 -271,205 -407,483 -407,836 0,326 122,588 367,784 244,197 556,296 937,296zm13317 -1223l1100 1712c-773,1058 -1989,1587 -3645,1587 -1480,0 -2682,-441 -3605,-1323 -910,-869 -1364,-2029 -1364,-3482 0,-1372 447,-2512 1343,-3422 897,-923 2031,-1384 3402,-1384 1629,0 2857,414 3686,1242l-1100 1853c-625,-597 -1385,-896 -2280,-896 -680,0 -1277,244 -1793,733 -502,462 -753,1086 -753,1874 0,788 257,1425 774,1913 542,476 1167,713 1873,713 909,0 1697,-372 2362,-1120zm3686 -3726l-590 -1710c992,-585 2070,-876 3237,-876 1278,0 2207,311 2791,936 583,625 875,1582 875,2872l0 5580 -2036 0 0 -1060c-543,788 -1446,1182 -2708,1182 -870,0 -1566,-255 -2088,-763 -523,-510 -784,-1192 -784,-2048 0,-950 306,-1683 917,-2199 610,-516 1418,-774 2423,-774 828,0 1521,198 2077,590 27,-814 -91,-1411 -357,-1791 -264,-381 -716,-571 -1354,-571 -705,0 -1506,210 -2403,632zm2343 4949c786,0 1378,-279 1771,-836l0 -937c-380,-298 -917,-447 -1608,-447 -435,0 -788,101 -1059,304 -272,205 -407,483 -407,836 0,326 121,588 366,784 244,197 556,296 937,296zm-247307 24365l-2342 0 0 -6965 -3910 0 0 6965 -2342 0 0 -9164 8594 0 0 9164zm3400 -1120c-909,-909 -1364,-2063 -1364,-3462 0,-1398 455,-2546 1364,-3442 911,-909 2119,-1364 3625,-1364 1494,0 2696,455 3606,1364 923,896 1384,2044 1384,3442 0,1386 -461,2539 -1384,3462 -924,897 -2125,1344 -3606,1344 -1506,0 -2714,-447 -3625,-1344zm1855 -5335c-477,488 -713,1113 -713,1873 0,761 233,1389 701,1884 469,496 1064,743 1782,743 734,0 1334,-244 1803,-733 469,-488 703,-1120 703,-1894 0,-760 -238,-1385 -713,-1873 -475,-489 -1072,-733 -1793,-733 -705,0 -1296,244 -1770,733zm15741 3380l1099 1711c-773,1058 -1988,1588 -3645,1588 -1479,0 -2682,-442 -3605,-1323 -909,-869 -1364,-2030 -1364,-3483 0,-1371 447,-2511 1344,-3422 896,-922 2030,-1384 3401,-1384 1630,0 2858,414 3686,1243l-1100 1853c-624,-598 -1385,-896 -2280,-896 -680,0 -1277,244 -1792,733 -503,462 -754,1085 -754,1873 0,788 257,1426 774,1914 543,476 1167,713 1873,713 909,0 1697,-373 2363,-1120zm11242 3075l-2342 0 0 -6822 -2423 0 -62 977c-176,1657 -430,2920 -764,3789 -332,869 -753,1456 -1262,1760 -509,306 -1211,467 -2108,480l-203 -2281c299,13 577,-67 834,-245 299,-216 564,-671 795,-1364 231,-693 380,-1561 448,-2606l143 -2852 6944 0 0 9164zm9795 -2566l673 1650c-909,760 -2077,1140 -3503,1140 -1466,0 -2661,-442 -3585,-1323 -896,-869 -1343,-2030 -1343,-3483 0,-1358 441,-2498 1323,-3422 883,-922 2057,-1384 3523,-1384 1209,0 2234,400 3075,1201 842,801 1263,1820 1263,3055 0,543 -47,964 -143,1263l-6618 0c95,665 391,1188 886,1567 495,381 1117,572 1863,572 1019,0 1881,-279 2586,-836zm-3013 -4868c-1331,0 -2132,666 -2403,1996l4500 0c14,-583 -173,-1062 -560,-1434 -387,-374 -899,-562 -1537,-562zm11445 6314c-910,-909 -1364,-2063 -1364,-3462 0,-1398 454,-2546 1364,-3442 910,-909 2118,-1364 3625,-1364 1494,0 2696,455 3605,1364 924,896 1384,2044 1384,3442 0,1386 -460,2539 -1384,3462 -924,897 -2124,1344 -3605,1344 -1507,0 -2715,-447 -3625,-1344zm1854 -5335c-476,488 -713,1113 -713,1873 0,761 234,1389 702,1884 469,496 1063,743 1782,743 733,0 1333,-244 1802,-733 470,-488 703,-1120 703,-1894 0,-760 -238,-1385 -713,-1873 -474,-489 -1072,-733 -1792,-733 -706,0 -1296,244 -1771,733zm15660 10528l-2342 0 0 -3849 -123 0c-1574,0 -2797,-447 -3665,-1344 -869,-883 -1304,-2036 -1304,-3462 0,-1303 442,-2430 1324,-3380 896,-951 2104,-1426 3625,-1426l143 0 0 -4868 2342 0 0 4868 162 0c1534,0 2736,455 3605,1364 883,911 1324,2057 1324,3442 0,1453 -431,2617 -1294,3493 -861,876 -2073,1313 -3635,1313l-162 0 0 3849zm162 -11261l-162 0 0 5233 81 0c801,0 1419,-234 1853,-702 435,-469 653,-1111 653,-1925 0,-760 -215,-1385 -643,-1873 -427,-489 -1021,-733 -1782,-733zm-5090 2606c0,801 221,1439 661,1914 441,476 1062,713 1863,713l62 0 0 -5233 -163 0c-788,0 -1388,236 -1803,713 -414,474 -620,1105 -620,1893zm12849 3462c-910,-909 -1364,-2063 -1364,-3462 0,-1398 454,-2546 1364,-3442 910,-909 2118,-1364 3625,-1364 1494,0 2696,455 3605,1364 924,896 1384,2044 1384,3442 0,1386 -460,2539 -1384,3462 -923,897 -2124,1344 -3605,1344 -1507,0 -2715,-447 -3625,-1344zm1854 -5335c-476,488 -713,1113 -713,1873 0,761 234,1389 702,1884 469,496 1063,743 1782,743 733,0 1334,-244 1803,-733 469,-488 702,-1120 702,-1894 0,-760 -238,-1385 -712,-1873 -475,-489 -1073,-733 -1793,-733 -706,0 -1296,244 -1771,733zm11139 10528l-2342 0 0 -13237 2342 0 0 876c299,-326 706,-590 1222,-795 516,-204 1052,-305 1608,-305 1263,0 2267,435 3015,1303 760,882 1140,2004 1140,3360 0,1426 -447,2607 -1344,3545 -896,936 -2063,1404 -3502,1404 -924,0 -1637,-149 -2139,-447l0 4296zm2097 -11261c-814,0 -1514,332 -2097,997l0 3706c557,354 1201,530 1934,530 775,0 1395,-251 1864,-754 468,-502 702,-1153 702,-1954 0,-760 -214,-1372 -641,-1833 -427,-461 -1015,-692 -1762,-692zm9267 7188l-2343 0 0 -9164 2119 0 3116 3829 2953 -3829 2056 0 0 9164 -2342 0 0 -5601 -2709 3422 -61 0 -2789 -3422 0 5601zm18878 0l-2342 0 0 -6822 -2423 0 -62 977c-176,1657 -430,2920 -764,3789 -332,869 -753,1456 -1262,1760 -508,306 -1211,467 -2108,480l-203 -2281c299,13 577,-67 834,-245 299,-216 564,-671 795,-1364 231,-693 380,-1561 448,-2606l143 -2852 6944 0 0 9164zm9795 -2566l673 1650c-909,760 -2077,1140 -3503,1140 -1466,0 -2661,-442 -3585,-1323 -896,-869 -1343,-2030 -1343,-3483 0,-1358 441,-2498 1323,-3422 883,-922 2057,-1384 3523,-1384 1209,0 2234,400 3075,1201 842,801 1263,1820 1263,3055 0,543 -47,964 -143,1263l-6618 0c95,665 391,1188 886,1567 495,381 1117,572 1863,572 1019,0 1881,-279 2586,-836zm-3013 -4868c-1331,0 -2132,666 -2403,1996l4500 0c14,-583 -173,-1062 -560,-1434 -387,-374 -899,-562 -1537,-562zm15030 7434l-2343 0 0 -3502 -4012 0 0 3502 -2342 0 0 -9164 2342 0 0 3462 4012 0 0 -3462 2343 0 0 9164zm9225 -5804l-4277 5804 -2342 0 0 -9164 2342 0 0 5805 4277 -5805 2342 0 0 9164 -2342 0 0 -5804zm9429 -3360l2994 0 0 9164 -2343 0 0 -2749 -1303 0 -1893 2749 -2689 0 2443 -3258c-502,-177 -922,-498 -1262,-967 -340,-469 -508,-1029 -508,-1680 0,-1005 382,-1800 1150,-2383 766,-585 1903,-876 3411,-876zm-2058 3422c0,352 151,651 449,896 299,244 645,367 1038,367l1222 0 0 -2649 -1039 0c-515,0 -922,133 -1221,397 -298,266 -449,595 -449,989zm15215 5966c-801,0 -1582,-143 -2343,-427 -760,-299 -1310,-665 -1649,-1100l1202 -1466c271,312 658,577 1160,794 503,218 977,326 1426,326 598,0 1058,-103 1384,-306 326,-204 490,-475 490,-814 0,-312 -123,-564 -367,-754 -244,-190 -584,-285 -1019,-285l-1710 0 0 -1568 1609 0c367,0 661,-105 886,-316 224,-210 335,-479 335,-804 0,-665 -535,-998 -1608,-998 -843,0 -1677,353 -2505,1059l-977 -1406c869,-1032 2179,-1547 3930,-1547 1182,0 2087,227 2719,683 630,455 946,1095 946,1924 0,447 -148,856 -447,1222 -299,367 -713,638 -1243,814l0 40c611,123 1086,377 1426,765 339,387 508,852 508,1395 0,855 -376,1531 -1130,2026 -753,496 -1760,743 -3023,743zm7086 -7026l-590 -1710c991,-584 2069,-876 3237,-876 1277,0 2206,312 2791,937 583,625 875,1582 875,2872l0 5579 -2037 0 0 -1059c-542,788 -1446,1182 -2707,1182 -871,0 -1566,-255 -2089,-763 -522,-510 -783,-1193 -783,-2048 0,-950 306,-1683 916,-2200 611,-515 1419,-773 2423,-773 829,0 1521,197 2077,590 28,-814 -91,-1412 -356,-1791 -264,-381 -716,-572 -1354,-572 -706,0 -1507,211 -2403,632zm2342 4949c787,0 1379,-278 1771,-835l0 -937c-379,-299 -916,-447 -1608,-447 -434,0 -788,101 -1059,304 -271,205 -407,482 -407,836 0,326 121,587 367,783 244,198 555,296 936,296zm10855 -7311l2993 0 0 9164 -2342 0 0 -2749 -1304 0 -1893 2749 -2689 0 2443 -3258c-502,-177 -922,-498 -1262,-967 -339,-469 -508,-1029 -508,-1680 0,-1005 382,-1800 1150,-2383 766,-585 1903,-876 3412,-876zm-2058 3422c0,352 150,651 448,896 299,244 646,367 1038,367l1223 0 0 -2649 -1040 0c-515,0 -922,133 -1221,397 -298,266 -448,595 -448,989zm7657 5742l0 -9164c123,0 643,-17 1559,-51 916,-34 1598,-52 2046,-52 2770,0 4154,803 4154,2405 0,515 -162,967 -488,1354 -326,386 -733,614 -1222,682l0 41c1303,311 1955,1017 1955,2117 0,1847 -1453,2771 -4358,2771 -422,0 -1067,-22 -1936,-62 -216,0 -464,-3 -743,-10 -277,-8 -488,-13 -630,-21 -143,-7 -254,-10 -337,-10zm3809 -3889l-1466 0 0 2036c814,55 1330,81 1547,81 516,0 921,-95 1212,-284 292,-191 437,-449 437,-774 0,-707 -577,-1059 -1730,-1059zm0 -3483c-543,0 -1032,13 -1466,41l0 2016 1527 0c421,0 760,-95 1018,-286 257,-189 387,-447 387,-773 0,-666 -489,-998 -1466,-998zm12137 -1792l2953 0 -3523 4358 3952 4806 -3056 0 -3625 -4622 3299 -4542zm-3380 9164l-2342 0 0 -9164 2342 0 0 9164zm14764 -5804l-4276 5804 -2342 0 0 -9164 2342 0 0 5805 4276 -5805 2343 0 0 9164 -2343 0 0 -5804zm8045 876l-2485 0 0 -9328 2485 0 0 9328zm-2810 3401c0,-394 151,-743 457,-1049 306,-306 696,-459 1172,-459 407,0 756,153 1048,459 293,306 439,655 439,1049 0,448 -146,832 -439,1151 -292,319 -641,479 -1048,479 -476,0 -866,-160 -1172,-479 -306,-319 -457,-703 -457,-1151z"/>
   <g>
    <path fill="url(#id0)" d="M137636 0c40491,0 73315,32824 73315,73315 0,40491 -32824,73315 -73315,73315 -40491,0 -73315,-32824 -73315,-73315 0,-40491 32824,-73315 73315,-73315zm0 6111c37116,0 67204,30088 67204,67204 0,37116 -30088,67204 -67204,67204 -37116,0 -67205,-30088 -67205,-67204 0,-37116 30089,-67204 67205,-67204z"/>
    <g>
     <path fill="#00262D" d="M114037 81899l-22582 166c-1635,6142 -1159,4230 -1559,5874l13048 1 -642 2217 -12951 12c-396,1599 -1018,4106 -2024,8125l92722 -11 -1061 4354 33396 -12451 -18769 -33 609 -2197 17359 9 -26020 -11038 -1464 4974 -21153 40c-433,176 -2188,3403 -6137,3656 -4543,291 -5655,-3032 -6225,-3689l-22338 -7c-1349,-15 -1485,-153 -2189,690 -1302,1560 -2834,2749 -5110,3126 -4842,798 -6099,-2880 -6910,-3818zm77741 6059l-11973 0 -519 2230 11905 -13 587 -2217zm-14636 7l-11971 -1 -521 2229 11905 -11 587 -2217zm-14515 0l-13090 -1 -569 2229 13016 -11 643 -2217zm-15330 0l-13090 -1 -569 2229 13017 -11 642 -2217zm-15014 -13l-13090 0 -568 2230 13017 -13 641 -2217zm-15012 -12l-13090 -1 -569 2230 13017 -12 642 -2217z"/>
     <path fill="#00262D" d="M147878 43992l-33296 35 -3947 26726 33568 -73 3675 -26688zm-17784 6610c3736,457 6396,3857 5937,7597 -460,3739 -3863,6393 -7600,5934 -3735,-460 -6396,-3857 -5936,-7597 459,-3739 3864,-6395 7599,-5934zm-94 658c2803,345 4957,2455 5488,5077 -671,-2500 -2795,-4470 -5520,-4804 -2727,-335 -5268,1062 -6522,3326 1151,-2419 3750,-3944 6554,-3599zm489 9938c583,1496 1592,1455 1814,453 70,-316 65,-597 12,-916 -7,-48 -13,-94 -25,-145 -42,-219 -180,-532 -278,-747 -88,-192 -176,-390 -280,-593 -94,-197 -194,-410 -299,-601 -102,-180 -212,-394 -310,-587 -96,-205 -207,-390 -313,-592 -100,-199 -205,-395 -322,-586 -77,-134 -75,-196 -243,-270l-931 -376c-710,-301 -1763,-677 -2493,-907 -208,-65 -415,-118 -615,-133 -214,-11 -420,-11 -611,15 -407,55 -991,280 -1035,736 -44,480 504,821 894,983 388,164 814,213 1227,193 464,-22 763,-48 1210,-95 113,-10 185,-17 299,-35l906 -121c28,-6 129,-20 151,-20 70,7 114,68 102,122 -13,67 -268,295 -343,631 -16,52 -28,87 -29,149 -8,104 3,81 7,147 24,50 40,113 95,167 137,140 316,130 494,77 171,-90 310,-144 473,-315 75,-76 153,-182 237,-83 32,31 30,88 30,127 -3,43 -4,57 -4,111l-18 1011c-1,26 -4,31 -1,61 10,459 0,844 40,1313 11,276 65,553 159,826zm-2967 -2168c-1085,1376 -227,1987 1072,458 181,-218 326,-490 419,-719 73,-179 156,-569 -146,-621 -185,-30 -508,119 -690,262 -245,194 -434,347 -655,620zm-533 -1204c57,5 204,-17 254,-25l1289 -130c270,-19 341,-230 247,-390 -56,-95 -173,-128 -241,-120l-1277 214c-549,109 -520,-19 -651,358l-176 525c-110,320 -348,1022 -423,1312 -26,95 -113,138 -199,213 -263,224 -940,725 -1234,950 -88,65 -450,325 -507,385l49 -20c166,-82 765,-485 951,-596 322,-186 650,-411 975,-630 209,-146 209,-292 291,-495 58,-127 611,-1493 652,-1551zm1690 3119c139,-62 259,-118 384,-183 233,-111 783,-320 856,-421 49,-71 32,-243 41,-321l72 -1452c0,-65 17,-89 -13,-161 -107,-263 -494,-182 -491,108l22 1595c-18,37 -897,519 -1003,574 -171,88 -338,178 -504,271 -243,142 -283,90 -440,378 -166,314 -928,1862 -1029,2126l446 -756c138,-254 298,-501 447,-747 79,-127 155,-247 234,-379 118,-190 134,-265 274,-317l704 -315zm1827 -7539c-5,-90 -7,-345 -28,-410l-65 1113c-15,112 -15,235 -51,359 -27,7 -94,6 -134,15 -240,27 -450,72 -673,103 -339,51 -362,47 -274,325l253 794c62,185 117,468 238,538 78,48 214,2 247,-108 30,-92 -21,-167 -61,-257 -42,-95 -416,-974 -431,-1052 60,-26 166,-50 229,-65l352 -85c328,-94 396,33 407,-260 9,-238 15,-369 2,-609 -8,-111 -8,-261 -11,-401zm1998 2976c71,-30 130,-39 189,-56l381 -74c74,-12 120,-22 183,-35l745 -128c-175,-3 -1293,95 -1463,137 -286,71 -175,101 -201,333 -17,139 -52,612 -107,702 -218,-90 -818,-238 -1104,-329 -94,-28 -188,-70 -278,7 -88,74 -94,188 -5,270 65,56 207,72 286,85l1094 218c74,13 201,58 234,-56 16,-42 17,-100 16,-143 1,-51 8,-77 10,-135 -2,-34 5,-88 10,-127 3,-46 -3,-93 3,-131l7 -538zm-2120 -420c-310,486 452,1013 765,519 324,-509 -455,-1004 -765,-519zm-4145 2062c10,-56 0,-45 16,-105 8,-43 11,-49 29,-97 78,-277 -71,-330 -161,-283 -86,46 -77,153 -80,210l-65 614c-39,22 -810,266 -943,301 -78,26 -268,80 -323,114l222 -32c71,-12 142,-28 204,-42l821 -163c186,-36 173,-33 225,-300l55 -217zm3204 2858c50,-13 43,-6 98,-23 45,-18 51,-23 101,-41 263,-114 335,28 292,123 -35,89 -142,95 -200,104l-596 138c-24,38 -176,829 -199,967 -10,78 -46,275 -73,331l7 -222c8,-71 14,-140 20,-204l66 -838c15,-187 16,-172 272,-254l212 -81zm1978 -5572c-69,70 -141,153 -210,222 -71,78 -104,154 -29,222 144,127 306,-154 411,-283l1809 -2202 -1981 2041zm-9952 451c1221,-3921 3688,-6333 8118,-6350l538 -4379 -1346 2653c-4387,368 -7284,2695 -8772,6878l-2749 680 4211 518zm15481 3206c-1208,3922 -3645,6344 -8022,6366l-539 4384 1335 -2658c4331,-373 7195,-2708 8671,-6892l2715 -688 -4160 -512zm250 -1273c-235,-4100 -2038,-7034 -6334,-8127l538 -4377 663 2901c4172,1418 6413,4375 6843,8796l2500 1325 -1712 -209 -2498 -309zm-15890 -650c237,4099 2047,7036 6340,8121l-538 4385 -664 -2900c-4169,-1414 -6416,-4377 -6846,-8793l-2500 -1329 4208 516z"/>
     <path fill="#00262D" d="M164161 78526c486,48 4142,112 4416,19 700,-236 674,-2738 795,-3598 150,-1066 1110,-7535 997,-8103 -176,-892 -1903,-1418 -2368,-2309l-3429 -10123 -15649 68 -2609 18437 -20511 218c621,1326 2036,1668 1959,5428l22280 7 1166 -2540c1061,-2081 3500,-3956 6012,-4213 2318,-237 3738,186 5213,1660 1716,1714 1488,2192 1728,5049z"/>
     <path fill="#00262D" d="M125825 79307c412,-1470 -20,-2953 -811,-3954 -2742,-3471 -8329,-909 -9179,2940 -1501,6804 8066,7874 9990,1014z"/>
     <path fill="#00262D" d="M162202 79097c1529,-6742 -8470,-7528 -9969,-952 -715,3135 1421,5661 4367,5646 2898,-13 5051,-2261 5602,-4694z"/>
     <path fill="#00262D" d="M109310 61899c180,-795 270,-1626 390,-2348 157,-951 349,-1507 151,-2367l-14172 41c-277,485 -84,93 -284,658 -80,219 -78,251 -143,480l-857 3590 14915 -54z"/>
     <path fill="#00262D" d="M111185 48589l-17410 1c-427,586 -790,1951 -788,2901l17896 -26 302 -2876z"/>
     <path fill="#00262D" d="M110876 77697c997,-3131 1403,-3217 3299,-5192l-6734 146 -662 5046 4097 0z"/>
     <path fill="#00262D" d="M108337 67912l-9841 47c-303,668 -517,1836 -710,2786l10263 -42 288 -2791z"/>
     <polygon fill="#00262D" points="105704,74864 95862,74911 95152,77697 105415,77655 "/>
     <polygon fill="#00262D" points="110647,52443 103640,52409 103078,55318 110306,55310 "/>
    </g>
   </g>
  </g>
 </g>
</svg>
