<?xml version="1.0" encoding="UTF-8"?>
<!DOCTYPE svg PUBLIC "-//W3C//DTD SVG 1.1//EN" "http://www.w3.org/Graphics/SVG/1.1/DTD/svg11.dtd">
<!-- Creator: CorelDRAW X8 -->
<svg xmlns="http://www.w3.org/2000/svg" xml:space="preserve" width="217px" height="166px" version="1.1" shape-rendering="geometricPrecision" text-rendering="geometricPrecision" image-rendering="optimizeQuality" fill-rule="evenodd" clip-rule="evenodd"
viewBox="0 0 266531 204204"
 xmlns:xlink="http://www.w3.org/1999/xlink">
 <defs>
     <linearGradient id="id0" gradientUnits="userSpaceOnUse" x1="59666.9" y1="73611" x2="206889" y2="73611">
      <stop offset="0" stop-opacity="1" stop-color="#84C357"/>
      <stop offset="1" stop-opacity="1" stop-color="#6BBD65"/>
     </linearGradient>
 </defs>
 <g id="Слой_x0020_1">
  <metadata id="CorelCorpID_0Corel-Layer"/>
  <g id="_1256390448">
   <path fill="#434345" fill-rule="nonzero" d="M11410 177511l-2516 0 0 -11962 -6380 0 0 11962 -2514 0 0 -14313 11410 0 0 14313zm4087 -1124c-912,-913 -1369,-2072 -1369,-3477 0,-1404 457,-2556 1369,-3456 915,-912 2128,-1369 3640,-1369 1500,0 2707,457 3620,1369 927,900 1390,2052 1390,3456 0,1391 -463,2549 -1390,3477 -927,900 -2133,1349 -3620,1349 -1512,0 -2725,-449 -3640,-1349zm1862 -5357c-478,489 -715,1117 -715,1880 0,764 234,1394 704,1891 471,499 1068,747 1789,747 737,0 1339,-245 1810,-736 471,-490 706,-1125 706,-1902 0,-763 -239,-1391 -716,-1880 -477,-492 -1077,-737 -1800,-737 -708,0 -1301,245 -1778,737zm16931 6481l-2352 0 0 -6849 -2433 0 -62 981c-177,1663 -432,2931 -767,3803 -333,873 -756,1462 -1268,1768 -510,307 -1215,468 -2115,481l-204 -2289c300,13 579,-68 837,-247 300,-217 567,-673 799,-1369 231,-696 381,-1568 449,-2617l143 -2863 6973 0 0 9201zm11349 0l-2352 0 0 -3517 -4028 0 0 3517 -2352 0 0 -9201 2352 0 0 3476 4028 0 0 -3476 2352 0 0 9201zm3333 -6829l-593 -1717c995,-587 2078,-880 3250,-880 1283,0 2216,313 2803,941 585,627 878,1588 878,2883l0 5602 -2045 0 0 -1063c-545,791 -1452,1186 -2718,1186 -874,0 -1573,-256 -2097,-766 -525,-512 -787,-1197 -787,-2056 0,-954 307,-1690 920,-2209 613,-517 1425,-776 2433,-776 832,0 1527,198 2085,592 28,-817 -91,-1417 -358,-1798 -265,-383 -718,-574 -1359,-574 -708,0 -1513,212 -2412,635zm2351 4969c790,0 1384,-280 1778,-839l0 -941c-381,-300 -920,-449 -1614,-449 -436,0 -791,101 -1063,306 -273,205 -409,484 -409,839 0,327 122,589 368,786 245,199 558,298 940,298zm10899 -7341l3005 0 0 9201 -2352 0 0 -2760 -1308 0 -1902 2760 -2699 0 2453 -3272c-504,-177 -926,-500 -1268,-971 -340,-471 -510,-1033 -510,-1686 0,-1009 384,-1807 1155,-2393 769,-587 1911,-879 3426,-879zm-2067 3435c0,354 151,654 451,900 300,245 648,368 1042,368l1227 0 0 -2659 -1043 0c-518,0 -926,134 -1226,399 -300,266 -451,597 -451,992zm17770 -3435l2964 0 -3537 4376 3968 4825 -3068 0 -3640 -4641 3313 -4560zm-3394 9201l-2352 0 0 -9201 2352 0 0 9201zm8423 -1124c-913,-913 -1369,-2072 -1369,-3477 0,-1404 456,-2556 1369,-3456 915,-912 2128,-1369 3640,-1369 1500,0 2707,457 3620,1369 927,900 1390,2052 1390,3456 0,1391 -463,2549 -1390,3477 -927,900 -2133,1349 -3620,1349 -1512,0 -2725,-449 -3640,-1349zm1862 -5357c-478,489 -715,1117 -715,1880 0,764 234,1394 704,1891 471,499 1068,747 1789,747 736,0 1339,-245 1810,-736 471,-490 706,-1125 706,-1902 0,-763 -239,-1391 -716,-1880 -477,-492 -1077,-737 -1800,-737 -708,0 -1301,245 -1778,737zm17564 6481l-2352 0 0 -3517 -4028 0 0 3517 -2352 0 0 -9201 2352 0 0 3476 4028 0 0 -3476 2352 0 0 9201zm9509 4089l-2352 0 0 -3864 -123 0c-1581,0 -2809,-449 -3681,-1349 -872,-887 -1308,-2045 -1308,-3477 0,-1308 443,-2440 1328,-3393 900,-955 2113,-1432 3640,-1432l144 0 0 -4887 2352 0 0 4887 162 0c1540,0 2747,457 3620,1369 886,915 1328,2065 1328,3456 0,1460 -431,2628 -1298,3507 -865,880 -2082,1319 -3650,1319l-162 0 0 3864zm162 -11307l-162 0 0 5255 81 0c804,0 1424,-235 1860,-705 437,-471 655,-1115 655,-1933 0,-763 -216,-1391 -644,-1880 -429,-492 -1026,-737 -1790,-737zm-5111 2617c0,805 222,1445 664,1922 443,478 1066,716 1871,716l62 0 0 -5255 -164 0c-791,0 -1394,238 -1810,716 -416,477 -623,1110 -623,1901zm18749 -1227l-4293 5828 -2352 0 0 -9201 2352 0 0 5828 4293 -5828 2352 0 0 9201 -2352 0 0 -5828zm6053 7976l-2188 0 0 -4336 1165 0c723,-968 1152,-2569 1288,-4805l144 -2208 6788 0 0 7013 1533 0 0 4336 -2208 0 0 -2148 -6522 0 0 2148zm2597 -9141l-61 940c-164,1773 -532,3061 -1104,3865l3413 0 0 -4805 -2248 0zm14906 4417l675 1656c-913,764 -2085,1145 -3517,1145 -1472,0 -2672,-444 -3599,-1329 -900,-872 -1349,-2037 -1349,-3497 0,-1363 443,-2508 1329,-3435 886,-926 2064,-1390 3537,-1390 1214,0 2243,402 3088,1206 844,804 1267,1827 1267,3067 0,545 -47,968 -143,1268l-6645 0c95,668 392,1193 889,1574 497,382 1122,574 1871,574 1023,0 1888,-280 2597,-839zm-3026 -4888c-1336,0 -2140,668 -2412,2004l4518 0c14,-585 -174,-1066 -563,-1440 -388,-375 -902,-564 -1543,-564zm15090 7464l-2351 0 0 -3517 -4029 0 0 3517 -2351 0 0 -9201 2351 0 0 3476 4029 0 0 -3476 2351 0 0 9201zm10429 0l-7812 0 0 -9201 2352 0 0 7013 3782 0 0 -7013 2352 0 0 7013 1533 0 0 4336 -2207 0 0 -2148zm10407 -5828l-4293 5828 -2352 0 0 -9201 2352 0 0 5828 4293 -5828 2352 0 0 9201 -2352 0 0 -5828zm5685 -1001l-593 -1717c996,-587 2078,-880 3250,-880 1283,0 2216,313 2803,941 585,627 878,1588 878,2883l0 5602 -2045 0 0 -1063c-545,791 -1452,1186 -2718,1186 -874,0 -1572,-256 -2097,-766 -525,-512 -787,-1197 -787,-2056 0,-954 307,-1690 920,-2209 613,-517 1425,-776 2433,-776 832,0 1528,198 2085,592 28,-817 -91,-1417 -357,-1798 -266,-383 -719,-574 -1360,-574 -708,0 -1512,212 -2412,635zm2351 4969c790,0 1384,-280 1778,-839l0 -941c-381,-300 -920,-449 -1614,-449 -436,0 -791,101 -1063,306 -273,205 -409,484 -409,839 0,327 122,589 368,786 245,199 558,298 940,298zm14804 1860l-2352 0 0 -6849 -2433 0 -62 981c-177,1663 -432,2931 -767,3803 -333,873 -756,1462 -1268,1768 -510,307 -1215,468 -2115,481l-205 -2289c300,13 580,-68 838,-247 300,-217 567,-673 798,-1369 232,-696 381,-1568 450,-2617l143 -2863 6973 0 0 9201zm6052 0l-3435 0 0 -9201 2352 0 0 2515 1267 0c1377,0 2396,286 3056,858 663,572 993,1351 993,2332 0,1049 -355,1895 -1064,2535 -708,641 -1764,961 -3169,961zm-20 -4805l-1063 0 0 2761 1043 0c1185,0 1778,-457 1778,-1371 0,-926 -586,-1390 -1758,-1390zm14866 4805l-2352 0 0 -3517 -4028 0 0 3517 -2352 0 0 -9201 2352 0 0 3476 4028 0 0 -3476 2352 0 0 9201zm3414 -1124c-913,-913 -1370,-2072 -1370,-3477 0,-1404 457,-2556 1370,-3456 914,-912 2127,-1369 3640,-1369 1499,0 2706,457 3619,1369 928,900 1390,2052 1390,3456 0,1391 -462,2549 -1390,3477 -927,900 -2133,1349 -3619,1349 -1513,0 -2726,-449 -3640,-1349zm1862 -5357c-478,489 -716,1117 -716,1880 0,764 235,1394 704,1891 471,499 1068,747 1790,747 736,0 1339,-245 1810,-736 470,-490 705,-1125 705,-1902 0,-763 -239,-1391 -716,-1880 -476,-492 -1076,-737 -1799,-737 -709,0 -1302,245 -1778,737zm15804 3393l1105 1719c-777,1062 -1997,1594 -3661,1594 -1485,0 -2692,-444 -3619,-1329 -913,-872 -1370,-2037 -1370,-3497 0,-1376 449,-2521 1349,-3435 900,-926 2039,-1390 3416,-1390 1636,0 2869,416 3700,1248l-1104 1860c-627,-600 -1391,-900 -2289,-900 -683,0 -1283,245 -1800,737 -504,463 -756,1089 -756,1880 0,792 258,1432 776,1922 545,478 1173,716 1881,716 913,0 1704,-374 2372,-1125zm4866 -3761l-3025 0 0 -2352 8382 0 0 2352 -3005 0 0 6849 -2352 0 0 -6849zm10469 6849l-3435 0 0 -9201 2352 0 0 2515 1268 0c1376,0 2395,286 3056,858 662,572 992,1351 992,2332 0,1049 -355,1895 -1063,2535 -709,641 -1765,961 -3170,961zm-20 -4805l-1063 0 0 2761 1043 0c1185,0 1778,-457 1778,-1371 0,-926 -586,-1390 -1758,-1390zm-180305 21581l-4293 5828 -2352 0 0 -9202 2352 0 0 5828 4293 -5828 2352 0 0 9202 -2352 0 0 -5828zm13701 5828l-2352 0 0 -3517 -4028 0 0 3517 -2352 0 0 -9202 2352 0 0 3476 4028 0 0 -3476 2352 0 0 9202zm9509 4089l-2352 0 0 -3865 -123 0c-1581,0 -2809,-449 -3681,-1349 -872,-887 -1308,-2044 -1308,-3476 0,-1309 443,-2440 1328,-3394 900,-955 2113,-1431 3640,-1431l144 0 0 -4888 2352 0 0 4888 162 0c1540,0 2747,456 3620,1369 886,914 1328,2065 1328,3456 0,1459 -432,2627 -1298,3507 -865,879 -2082,1318 -3650,1318l-162 0 0 3865zm162 -11307l-162 0 0 5254 81 0c804,0 1424,-235 1860,-704 436,-471 655,-1116 655,-1933 0,-764 -216,-1391 -645,-1881 -429,-491 -1026,-736 -1789,-736zm-5111 2617c0,804 222,1445 664,1921 443,479 1066,716 1870,716l63 0 0 -5254 -164 0c-791,0 -1394,238 -1810,716 -416,477 -623,1110 -623,1901zm12901 3476c-913,-913 -1369,-2072 -1369,-3476 0,-1404 456,-2556 1369,-3456 914,-913 2127,-1369 3640,-1369 1500,0 2707,456 3620,1369 927,900 1389,2052 1389,3456 0,1391 -462,2549 -1389,3476 -928,900 -2133,1349 -3620,1349 -1513,0 -2726,-449 -3640,-1349zm1862 -5357c-478,490 -716,1117 -716,1881 0,764 235,1394 704,1891 471,498 1068,746 1790,746 736,0 1339,-245 1810,-736 471,-490 705,-1124 705,-1901 0,-764 -239,-1391 -715,-1881 -477,-491 -1077,-736 -1800,-736 -709,0 -1301,245 -1778,736zm11183 10571l-2351 0 0 -13291 2351 0 0 880c300,-328 709,-593 1228,-799 517,-204 1056,-305 1614,-305 1268,0 2276,436 3027,1308 764,885 1145,2011 1145,3373 0,1432 -449,2617 -1349,3559 -900,941 -2072,1410 -3517,1410 -927,0 -1643,-149 -2148,-449l0 4314zm2106 -11307c-817,0 -1520,333 -2106,1001l0 3721c560,355 1206,532 1942,532 778,0 1401,-252 1872,-756 470,-505 705,-1158 705,-1962 0,-764 -215,-1378 -644,-1841 -429,-463 -1018,-695 -1769,-695zm9304 7218l-2352 0 0 -9202 2128 0 3128 3845 2965 -3845 2065 0 0 9202 -2352 0 0 -5624 -2720 3436 -61 0 -2801 -3436 0 5624zm11266 -6830l-592 -1717c995,-587 2078,-879 3250,-879 1282,0 2216,313 2802,940 586,627 879,1588 879,2884l0 5602 -2045 0 0 -1064c-545,791 -1452,1187 -2718,1187 -874,0 -1573,-257 -2097,-767 -525,-511 -787,-1197 -787,-2056 0,-953 307,-1690 920,-2208 613,-518 1425,-777 2433,-777 832,0 1527,199 2085,593 28,-818 -91,-1417 -358,-1799 -265,-382 -718,-573 -1359,-573 -708,0 -1513,211 -2413,634zm2352 4969c790,0 1384,-280 1778,-839l0 -940c-381,-300 -920,-450 -1614,-450 -436,0 -791,102 -1064,306 -272,206 -408,484 -408,839 0,328 121,590 368,787 245,199 558,297 940,297zm14211 1861l-7812 0 0 -9202 2352 0 0 7014 3782 0 0 -7014 2352 0 0 7014 1533 0 0 4335 -2207 0 0 -2147zm10407 -5828l-4294 5828 -2351 0 0 -9202 2351 0 0 5828 4294 -5828 2352 0 0 9202 -2352 0 0 -5828zm11614 0l-4294 5828 -2351 0 0 -9202 2351 0 0 5828 4294 -5828 2352 0 0 9202 -2352 0 0 -5828z"/>
   <g>
    <path fill="#00262D" d="M145945 143822c-8710,1393 -14336,1926 -23229,437 -28897,-4856 -48478,-20345 -57018,-48100 -4944,-16067 -4950,-31034 771,-46289 2606,-6958 3132,-8594 7051,-13848 5678,-7617 4868,-7402 11405,-13290l7009 -7624c9377,-6554 19463,-12907 31337,-14411l1558 5764c-1371,155 -2813,325 -4353,499 -147,2269 12903,21519 10053,31306 -1195,4097 -1847,7731 625,11058 2395,3222 7259,8533 9557,11641 1109,1500 2019,2033 2736,4355 733,2375 165,4184 -1226,5168 -3443,2429 -8013,823 -7090,6957 583,3885 1948,4039 2188,4737 189,2146 -1276,3113 -2799,3557 592,1289 2163,2296 2086,4266 -59,1526 -1473,2465 -2538,3407 -2935,2594 -1228,4386 -31,8136 7054,22101 -19760,17144 -25885,18348 -5746,1127 -10955,6600 -11304,11843 1273,1029 2843,1724 4027,2407 10078,5800 24469,9011 36269,8216 -60,-1165 -1388,-4343 -1775,-5688 -2682,-9324 -1959,-9766 1220,-17836 1539,-3902 1362,-8849 1445,-13450 89,-4764 347,-9327 569,-14084 175,-3795 732,-9539 1668,-13169 540,-2110 994,-3859 3239,-4021 5530,-396 3779,6793 3734,10678 -68,6291 100,15200 578,21283 594,-997 884,-1917 2089,-2628 2126,-1252 7311,-1838 7631,5307 1597,-356 3896,-1999 6157,-726 2082,1174 1700,2958 2649,4704 4576,-145 6433,1443 6967,5557 220,1704 3,1216 955,2184 2050,2083 -742,12816 -1145,13012 -7915,3830 -17888,8060 -27180,10337z"/>
    <path fill="url(#id0)" d="M133278 0c40654,0 73611,32957 73611,73611 0,40654 -32957,73611 -73611,73611 -40654,0 -73611,-32957 -73611,-73611 0,-40654 32957,-73611 73611,-73611zm0 6135c37266,0 67476,30210 67476,67476 0,37266 -30210,67476 -67476,67476 -37266,0 -67476,-30210 -67476,-67476 0,-37266 30210,-67476 67476,-67476z"/>
   </g>
  </g>
 </g>
</svg>
