<?xml version="1.0" encoding="UTF-8"?>
<!DOCTYPE svg PUBLIC "-//W3C//DTD SVG 1.1//EN" "http://www.w3.org/Graphics/SVG/1.1/DTD/svg11.dtd">
<!-- Creator: CorelDRAW X8 -->
<svg xmlns="http://www.w3.org/2000/svg" xml:space="preserve" width="159px" height="162px" version="1.1" shape-rendering="geometricPrecision" text-rendering="geometricPrecision" image-rendering="optimizeQuality" fill-rule="evenodd" clip-rule="evenodd"
viewBox="0 0 150704 153131"
 xmlns:xlink="http://www.w3.org/1999/xlink">
 <defs>
     <linearGradient id="id0" gradientUnits="userSpaceOnUse" x1="17721.8" y1="56691.8" x2="131105" y2="56691.8">
      <stop offset="0" stop-opacity="1" stop-color="#84C357"/>
      <stop offset="1" stop-opacity="1" stop-color="#6BBD65"/>
     </linearGradient>
 </defs>
 <g id="Слой_x0020_1">
  <metadata id="CorelCorpID_0Corel-Layer"/>
  <g id="_1098405888">
   <path fill="#434345" fill-rule="nonzero" d="M0 136711l0 -11024 6440 0 0 1811 -4504 0 0 2457c431,-63 924,-94 1481,-94 1144,0 2047,299 2709,897 661,598 992,1407 992,2425 0,1145 -371,2029 -1111,2654 -740,625 -1786,936 -3141,936 -252,0 -808,-10 -1670,-31 -167,0 -346,-2 -535,-8 -189,-5 -333,-10 -433,-15 -100,-6 -176,-8 -228,-8zm3260 -5040c-400,0 -841,32 -1324,95l0 3134c515,42 924,63 1229,63 1355,0 2031,-547 2031,-1638 0,-515 -162,-919 -488,-1212 -326,-295 -808,-442 -1448,-442zm11447 3056l521 1275c-704,588 -1606,882 -2709,882 -1134,0 -2058,-342 -2772,-1024 -693,-671 -1039,-1569 -1039,-2692 0,-1051 341,-1932 1023,-2646 683,-714 1591,-1071 2724,-1071 936,0 1728,310 2379,929 650,619 976,1407 976,2362 0,420 -37,746 -110,977l-5118 0c73,514 302,918 685,1212 383,294 864,442 1441,442 788,0 1454,-216 1999,-646zm-2330 -3765c-1029,0 -1648,515 -1858,1544l3480 0c11,-451 -134,-822 -433,-1109 -299,-290 -695,-435 -1189,-435zm7402 5922c-620,0 -1224,-111 -1812,-331 -588,-231 -1013,-514 -1275,-850l929 -1134c210,241 509,447 898,614 388,169 755,252 1102,252 462,0 818,-79 1070,-236 253,-158 379,-367 379,-630 0,-241 -95,-436 -284,-582 -188,-148 -452,-221 -788,-221l-1322 0 0 -1212 1244 0c284,0 511,-82 685,-245 173,-163 259,-370 259,-621 0,-515 -414,-772 -1243,-772 -652,0 -1297,273 -1937,819l-756 -1087c672,-798 1685,-1197 3039,-1197 914,0 1614,176 2103,528 487,352 732,847 732,1488 0,346 -115,662 -346,945 -231,284 -552,493 -961,629l0 32c472,95 839,291 1102,591 263,299 393,659 393,1078 0,662 -291,1184 -874,1567 -582,384 -1361,575 -2337,575zm5541 -1039c-703,-703 -1054,-1596 -1054,-2677 0,-1082 351,-1969 1054,-2662 705,-703 1639,-1055 2804,-1055 1155,0 2084,352 2788,1055 714,693 1070,1580 1070,2662 0,1071 -356,1963 -1070,2677 -715,693 -1643,1039 -2788,1039 -1165,0 -2099,-346 -2804,-1039zm1434 -4126c-368,377 -551,860 -551,1449 0,588 181,1073 543,1456 362,384 822,575 1378,575 567,0 1031,-189 1394,-567 362,-377 543,-866 543,-1464 0,-589 -184,-1072 -551,-1449 -367,-378 -829,-567 -1386,-567 -546,0 -1002,189 -1370,567zm13448 4992l-1811 0 0 -5386 -3023 0 0 5386 -1812 0 0 -7087 6646 0 0 7087zm2567 -5260l-457 -1322c767,-452 1601,-678 2504,-678 987,0 1706,241 2158,725 451,483 676,1223 676,2220l0 4315 -1575 0 0 -819c-419,609 -1118,914 -2093,914 -673,0 -1211,-198 -1615,-591 -404,-394 -606,-921 -606,-1583 0,-735 237,-1301 709,-1701 472,-398 1097,-598 1873,-598 641,0 1177,153 1606,456 22,-629 -70,-1091 -275,-1385 -205,-294 -554,-442 -1047,-442 -546,0 -1165,163 -1858,489zm1811 3827c608,0 1066,-215 1369,-646l0 -725c-293,-231 -708,-345 -1243,-345 -336,0 -609,78 -819,235 -210,158 -315,373 -315,646 0,252 94,454 284,606 188,153 429,229 724,229zm10298 -945l851 1323c-598,818 -1538,1228 -2819,1228 -1144,0 -2074,-342 -2788,-1024 -703,-671 -1055,-1569 -1055,-2692 0,-1061 346,-1942 1039,-2646 693,-714 1571,-1071 2631,-1071 1260,0 2209,321 2850,961l-850 1433c-484,-462 -1072,-693 -1764,-693 -525,0 -987,189 -1386,567 -388,357 -582,839 -582,1449 0,609 198,1102 598,1479 419,369 903,552 1448,552 703,0 1313,-288 1827,-866zm9024 2378l-1811 0 0 -2709 -3103 0 0 2709 -1811 0 0 -7087 1811 0 0 2678 3103 0 0 -2678 1811 0 0 7087zm2629 -866c-703,-703 -1054,-1596 -1054,-2677 0,-1082 351,-1969 1054,-2662 705,-703 1639,-1055 2804,-1055 1155,0 2084,352 2787,1055 715,693 1071,1580 1071,2662 0,1071 -356,1963 -1071,2677 -714,693 -1642,1039 -2787,1039 -1165,0 -2099,-346 -2804,-1039zm1434 -4126c-368,377 -551,860 -551,1449 0,588 181,1073 542,1456 363,384 823,575 1379,575 567,0 1031,-189 1394,-567 362,-377 543,-866 543,-1464 0,-589 -184,-1072 -551,-1449 -367,-378 -829,-567 -1386,-567 -546,0 -1002,189 -1370,567zm10976 6646l-1685 0 0 -3339 897 0c557,-746 887,-1979 992,-3701l111 -1701 5228 0 0 5402 1181 0 0 3339 -1701 0 0 -1654 -5023 0 0 1654zm2000 -7040l-47 724c-126,1365 -410,2357 -850,2977l2629 0 0 -3701 -1732 0zm12394 5386l-1811 0 0 -5275 -1874 0 -48 755c-136,1281 -333,2258 -590,2930 -257,671 -583,1126 -977,1361 -393,237 -936,361 -1629,371l-158 -1764c231,10 447,-52 646,-189 231,-168 436,-519 614,-1055 179,-536 294,-1207 346,-2015l111 -2206 5370 0 0 7087zm5481 -7087l2314 0 0 7087 -1811 0 0 -2126 -1008 0 -1464 2126 -2079 0 1889 -2520c-388,-136 -713,-385 -976,-748 -263,-362 -393,-795 -393,-1299 0,-776 296,-1391 889,-1842 593,-452 1472,-678 2639,-678zm-1592 2646c0,273 116,504 347,693 231,189 499,284 803,284l945 0 0 -2048 -804 0c-398,0 -713,103 -944,307 -231,205 -347,460 -347,764zm15733 4441l-1811 0 0 -5275 -1874 0 -48 755c-136,1281 -332,2258 -590,2930 -257,671 -583,1126 -977,1361 -392,237 -936,361 -1629,371l-157 -1764c231,10 446,-52 645,-189 231,-168 436,-519 615,-1055 178,-536 293,-1207 346,-2015l110 -2206 5370 0 0 7087zm3937 0l-1921 0 0 -7087 1921 0 0 2567 1260 0c189,-839 603,-1506 1244,-2000 640,-493 1422,-740 2346,-740 1134,0 2053,352 2756,1055 704,693 1056,1580 1056,2662 0,1060 -358,1947 -1072,2661 -703,703 -1617,1055 -2740,1055 -955,0 -1756,-260 -2401,-779 -646,-520 -1053,-1221 -1221,-2103l-1228 0 0 2709zm3197 -3543c0,588 155,1052 464,1393 310,342 722,512 1236,512 515,0 930,-170 1245,-512 314,-341 472,-805 472,-1393 0,-589 -154,-1053 -465,-1394 -310,-342 -726,-511 -1252,-511 -503,0 -913,173 -1227,519 -316,347 -473,809 -473,1386zm7637 5197l-1685 0 0 -3339 897 0c557,-746 888,-1979 993,-3701l110 -1701 5228 0 0 5402 1181 0 0 3339 -1701 0 0 -1654 -5023 0 0 1654zm2000 -7040l-47 724c-126,1365 -409,2357 -850,2977l2629 0 0 -3701 -1732 0zm11480 3402l520 1275c-703,588 -1606,882 -2708,882 -1134,0 -2058,-342 -2772,-1024 -693,-671 -1039,-1569 -1039,-2692 0,-1051 341,-1932 1023,-2646 683,-714 1590,-1071 2724,-1071 935,0 1728,310 2378,929 651,619 977,1407 977,2362 0,420 -37,746 -111,977l-5118 0c74,514 303,918 686,1212 382,294 863,442 1440,442 788,0 1455,-216 2000,-646zm-2330 -3765c-1029,0 -1648,515 -1858,1544l3480 0c11,-451 -134,-822 -433,-1109 -299,-290 -696,-435 -1189,-435zm10015 1260l-3307 4489 -1811 0 0 -7087 1811 0 0 4489 3307 -4489 1811 0 0 7087 -1811 0 0 -4489zm-4062 -6141l1652 0c0,347 69,625 206,835 136,210 340,315 614,315 241,0 427,-108 559,-323 131,-215 196,-491 196,-827l1654 0c0,736 -215,1326 -646,1772 -430,446 -1018,669 -1763,669 -820,0 -1436,-218 -1851,-653 -415,-436 -621,-1032 -621,-1788zm-105353 22389l-3307 4488 -1811 0 0 -7086 1811 0 0 4488 3307 -4488 1811 0 0 7086 -1811 0 0 -4488zm14866 -2598l2141 0 -2345 3433 2535 3653 -2142 0 -2362 -3653 2173 -3433zm-2251 7086l-1811 0 0 -7086 1811 0 0 7086zm-6347 0l2503 -3653 -2361 -3433 2204 0 2110 3433 -2299 3653 -2157 0zm17181 -4488l-3307 4488 -1811 0 0 -7086 1811 0 0 4488 3307 -4488 1811 0 0 7086 -1811 0 0 -4488zm3826 4488l0 -7086c95,0 497,-13 1206,-39 708,-27 1235,-40 1582,-40 2142,0 3212,620 3212,1859 0,398 -125,748 -377,1047 -252,299 -567,475 -946,528l0 31c1008,241 1513,787 1513,1637 0,1428 -1124,2143 -3371,2143 -325,0 -824,-17 -1496,-48 -168,0 -359,-3 -575,-8 -214,-6 -377,-10 -488,-16 -110,-5 -196,-8 -260,-8zm2945 -3007l-1133 0 0 1574c629,43 1029,63 1196,63 400,0 712,-74 937,-220 226,-147 339,-347 339,-598 0,-547 -447,-819 -1339,-819zm0 -2693c-419,0 -797,10 -1133,31l0 1559 1180 0c326,0 588,-73 788,-221 199,-146 299,-346 299,-598 0,-514 -378,-771 -1134,-771zm5575 4834c-703,-703 -1055,-1595 -1055,-2677 0,-1081 352,-1968 1055,-2661 704,-704 1638,-1055 2803,-1055 1155,0 2085,351 2788,1055 714,693 1070,1580 1070,2661 0,1071 -356,1963 -1070,2677 -714,693 -1643,1039 -2788,1039 -1165,0 -2099,-346 -2803,-1039zm1434 -4125c-368,377 -551,860 -551,1448 0,588 180,1074 542,1456 363,384 822,575 1378,575 567,0 1031,-188 1394,-567 363,-377 543,-866 543,-1464 0,-588 -184,-1071 -551,-1448 -367,-379 -829,-567 -1386,-567 -546,0 -1002,188 -1369,567zm8109 -284l-2331 0 0 -1811 6456 0 0 1811 -2314 0 0 5275 -1811 0 0 -5275zm12141 5275l-1811 0 0 -2708 -3102 0 0 2708 -1811 0 0 -7086 1811 0 0 2677 3102 0 0 -2677 1811 0 0 7086zm4567 0l-2551 0 0 -7086 1811 0 0 1937 882 0c1060,0 1844,220 2354,661 509,441 764,1040 764,1796 0,807 -274,1459 -819,1952 -546,494 -1360,740 -2441,740zm6079 0l-1811 0 0 -7086 1811 0 0 7086zm-6095 -3700l-724 0 0 2126 709 0c913,0 1370,-352 1370,-1056 0,-713 -452,-1070 -1355,-1070zm12787 -3386l2095 0 -2363 3386 2520 3700 -2205 0 -1653 -2551 -1716 2551 -2095 0 2520 -3605 -2362 -3481 2220 0 1496 2347 1543 -2347z"/>
   <g>
    <path fill="url(#id0)" d="M74414 0c31309,0 56691,25382 56691,56692 0,31310 -25382,56692 -56691,56692 -31310,0 -56692,-25382 -56692,-56692 0,-31310 25382,-56692 56692,-56692zm0 4725c28700,0 51966,23266 51966,51967 0,28701 -23266,51966 -51966,51966 -28701,0 -51967,-23265 -51967,-51966 0,-28701 23266,-51967 51967,-51967z"/>
    <path fill="#00262D" fill-rule="nonzero" d="M53109 20425c-377,444 -486,1007 -568,1560 -22,153 -55,368 -99,610l-9 26c11,-145 15,-290 6,-429l-18 -35c9,-182 19,-346 37,-478 133,-954 720,-1704 1484,-2124 -289,237 -556,544 -833,870zm-1751 6386c-715,808 -1312,1794 -1728,2545 257,-609 629,-1192 1034,-1748l37 -17c53,-20 65,-66 52,-104 78,-106 156,-211 236,-314 134,-135 266,-273 388,-417l-19 55zm-2064 4297l-1 -7c102,-280 239,-561 383,-832 34,-32 67,-65 101,-96 -164,310 -326,621 -483,935zm-285 -512c-40,33 -87,62 -129,93 52,-340 129,-671 244,-982 125,-336 319,-715 555,-1103 -243,526 -416,1068 -482,1596 -64,132 -128,264 -188,396zm99 880c-106,216 -209,432 -308,652l-19 78c1,-71 -2,-142 0,-213 119,-352 254,-696 398,-1036l14 91c-31,141 -61,284 -85,428zm-476 -609c12,-394 63,-781 163,-1146 85,-170 166,-322 239,-449 176,-306 370,-640 581,-982l51 -36c-132,202 -253,394 -360,567 -380,617 -558,1304 -629,2017l-45 29zm-601 3045l-38 89c-287,-762 -140,-1764 149,-2684 68,-37 133,-77 200,-115 10,279 50,555 114,829 -195,613 -339,1235 -425,1881zm327 -3204c-13,115 -18,229 -19,343 -47,29 -91,60 -139,88 49,-147 103,-290 158,-431zm-741 757l-37 21c94,-355 219,-716 400,-1099 230,-484 532,-951 863,-1404l55 -39c-377,617 -733,1248 -1063,1902 -91,182 -164,392 -218,619zm-751 416c-72,43 -144,84 -214,126l24 42c50,-25 98,-48 146,-72 -14,35 -30,67 -46,102 -174,411 -394,775 -597,1144 -387,-1285 129,-2465 973,-3478 353,-76 695,-192 1028,-358 -502,804 -929,1614 -1314,2494zm647 -2537c154,-54 309,-113 465,-176 -38,26 -73,53 -111,78 -158,105 -326,188 -501,256 49,-54 97,-106 147,-158zm1862 -1567c-273,291 -530,597 -758,928l-89 69c-312,175 -626,333 -924,475 549,-557 1178,-1052 1771,-1472zm986 -1213c43,-34 87,-66 129,-101 -99,120 -198,239 -295,361 -162,135 -330,265 -504,388 -181,128 -358,256 -534,383 407,-335 813,-674 1204,-1031zm63063 50241c-1249,-1668 -929,-3969 -927,-5926 3,-1033 -280,-1849 -377,-2861 -83,-862 -69,-1744 -215,-2605 -309,-1822 -767,-3057 -1751,-4588 -400,-621 -1001,-1106 -1340,-1764 -34,-66 -72,-138 -110,-211 315,-1119 1101,-1796 1891,-2732 574,-681 853,-2351 -575,-2208 -1687,167 -2731,1371 -3556,2739 -222,371 -540,1190 -688,1982 -554,238 -1333,284 -1907,381 -756,127 -1177,478 -1707,998 -1602,1571 -3069,3275 -4454,5043 -1052,1343 -1905,2832 -3050,4104 -487,543 -918,1219 -1527,1642 -895,-880 -1787,-1738 -2746,-2556 -2225,-1897 -4957,-3167 -7080,-5201 -831,-795 -1770,-1466 -2602,-2260 -1028,-984 -1797,-2217 -2842,-3199 -868,-815 -1599,-1706 -2369,-2605 -163,-191 -308,-394 -446,-602 414,-618 620,-1365 436,-2031 -226,-821 -952,-1472 -1600,-1950 -721,-531 -1255,-832 -1740,-1630 -395,-650 -905,-1225 -1341,-1848 -707,-1011 -1457,-2008 -2256,-2944 -323,-379 -689,-1096 -1189,-1413 71,-493 156,-1020 41,-1440 -227,-823 -540,-1601 -732,-2430 -148,-637 -909,-1077 -1372,-1440 -732,-572 -46,-1418 -362,-2131 -206,-466 -151,-376 -454,-737 -544,-643 -390,-1879 -445,-2675 -19,-270 -56,-539 -98,-808 508,1205 1199,2660 2645,1903 72,-37 41,-158 -41,-154 -1616,103 -2400,-2808 -2832,-4009 -158,-438 -301,-847 -450,-1243 -417,-1434 -1136,-2885 -2114,-3893 -1079,-1643 -2292,-3149 -4042,-4187 -1504,-892 -3502,-505 -4474,937 -523,775 -655,2263 -656,3199 -76,200 -157,399 -251,595 -452,649 -1036,1212 -1724,1739 -997,762 -2069,1187 -3136,1816l12 21c684,-322 1470,-564 2173,-856 596,-248 1101,-761 1604,-1159 109,-87 217,-176 323,-269 -110,162 -229,318 -350,474 -262,259 -536,502 -827,719 -593,446 -1244,871 -1887,1241 -847,489 -2191,353 -3150,418l0 47c960,64 1913,175 2858,-39 52,-13 102,-31 152,-46 -295,140 -598,256 -907,346l10 33c103,-21 199,-52 297,-80 -743,284 -1521,417 -2309,335 -34,-4 -40,50 -8,58 1290,298 2649,-106 3756,-843 -582,449 -1130,925 -1629,1506 -40,46 -78,94 -117,144 -809,171 -1715,104 -2504,145l0 47c866,43 1647,73 2377,-25 -746,1020 -1199,2434 -646,3578 -216,410 -394,835 -443,1341l34 5c82,-446 267,-835 483,-1209 82,143 174,282 291,414l27 -21c-98,-176 -177,-351 -241,-522 304,-506 649,-990 856,-1552 -143,768 82,1653 167,2383l12 0c52,-964 71,-1772 272,-2610l43 -23c-168,837 -82,1864 318,2602 -77,188 -150,376 -214,558 -210,593 -412,1176 -643,1767 -263,672 -1161,1436 -1604,1999 -997,1267 -2117,2546 -2880,3971 -451,842 -1022,1648 -1581,2422 -350,485 -1041,1470 -1699,1875 -728,-559 -1512,-924 -2451,-1115 -828,-170 -1104,1016 -1517,1475 -342,378 -1137,887 -967,1502 191,695 1790,715 2307,714 1354,-1 2228,168 3266,-788 1182,-1086 2964,-1539 3974,-2857 1541,-2011 4361,-3329 5609,-5580 32,216 88,431 185,650 223,500 520,1033 928,1426 81,333 135,676 147,1046 24,664 125,2125 -371,2626 -23,24 -33,58 -32,91 -460,385 -1023,733 -1453,1085 -664,543 -1309,1257 -1682,2040 -795,1668 -741,3404 -764,5207 -8,644 290,1444 414,2059 311,1549 308,2617 -763,3950 -779,968 -1997,1814 -3191,2193 -991,314 -1918,-209 -2884,-139l-66 22c-89,6 -184,48 -235,100l-9 21 -6 16 6 14 9 22c652,641 878,1556 1685,2193 515,407 1348,547 1979,682 547,116 1250,66 1514,732 57,141 97,299 203,411 1323,1389 4878,1650 6616,345 211,619 401,1249 580,1900 225,826 247,1681 266,2531 -80,64 -276,140 -929,218 -376,45 -857,-89 -1223,11 -412,114 -762,530 -762,978 0,288 226,655 350,896 492,951 428,1905 203,2897 -274,1214 -390,2342 -242,3584 88,741 712,3742 2062,3371 527,-144 704,-1394 804,-1745 152,-522 310,-1026 497,-1523 175,445 325,968 335,1003 333,1136 575,2129 556,3330 -31,1985 -24,3968 -39,5952 -5,718 736,2291 1373,2664 631,370 1839,-315 2427,-472 2354,-630 -276,-3762 -248,-4902 13,-484 654,-2415 167,-2809 -414,-334 -761,-98 -1072,216 167,-2536 583,-5054 556,-7614 -7,-621 -139,-1209 -254,-1817 -199,-1048 -121,-2122 -112,-3183 257,-416 499,-841 687,-1295 673,-1620 1520,-3259 2415,-4768 1446,-2434 3087,-5101 3639,-7917 503,-2571 428,-5638 -417,-8124 -533,-1569 -953,-3140 -1780,-4586l-33 -59c34,-731 400,-1353 553,-2058 75,-346 150,-687 246,-1028 82,-291 261,-517 378,-779 82,23 163,44 246,60 129,685 206,2035 428,2331 274,365 556,616 922,898 580,444 1108,1170 1719,1556 1060,672 2328,1685 3161,2617 604,675 1588,1606 2452,1918 -79,872 -633,1824 -495,2664 118,721 718,1660 1522,1792 698,115 1420,-226 1966,-776 70,98 144,194 223,286 735,860 1434,1707 2238,2511 1004,1004 1919,2040 2829,3131 851,1019 1965,1785 2952,2665 1941,1729 4186,3075 6294,4586 1222,877 2224,1938 3303,2965l75 76c-149,51 -306,86 -477,103 -686,66 -1205,302 -1775,668 -543,-443 -1058,-953 -1723,-1195 -774,-280 -1608,-143 -2259,335 -61,45 -55,124 1,157 -27,810 581,1729 1107,2293 125,132 280,344 456,570l-14 1c-84,10 -84,121 0,131 -215,-26 -1039,2812 -1059,3115 -90,1458 1128,2276 1113,3659 -9,775 -480,1997 -946,2563 -174,210 -451,397 -488,696 -134,1091 473,1533 1130,2355 391,488 1200,1625 1933,1628 1071,5 1794,-405 2745,-865 596,-289 839,-1961 964,-2502 96,-418 167,-841 226,-1265 203,-8 402,-37 578,-76 392,-86 781,-110 1164,-152 51,437 124,871 192,1294 184,1133 293,2342 851,3362 308,564 732,661 1321,523 431,-101 1926,-1918 1992,-1897 1644,524 3025,-1082 2083,-2569 -301,-475 -940,-918 -1493,-596 -242,142 -1514,854 -2058,1373 -67,-512 -114,-1037 278,-1299 792,-532 3954,-1786 4482,-384 444,1180 206,2846 218,4090 7,855 420,3212 -602,3655 -924,401 -2280,1143 -1606,2460 577,1128 2234,1612 3291,855 403,-291 523,-692 684,-1153 435,-1248 501,-2534 964,-3786 741,-2005 1865,-3485 1448,-5716 -222,-1187 -391,-2396 -410,-3603 -23,-1469 434,-2691 1020,-4009 394,-886 808,-1641 1321,-2429 963,1219 481,3392 1398,4673 578,809 1562,1979 2428,2486 543,319 1108,63 1311,-484 469,-1263 -184,-2369 -919,-3352z"/>
   </g>
  </g>
 </g>
</svg>
