<?xml version="1.0" encoding="UTF-8"?>
<!DOCTYPE svg PUBLIC "-//W3C//DTD SVG 1.1//EN" "http://www.w3.org/Graphics/SVG/1.1/DTD/svg11.dtd">
<!-- Creator: CorelDRAW X8 -->
<svg xmlns="http://www.w3.org/2000/svg" xml:space="preserve" width="145px" height="166px" version="1.1" shape-rendering="geometricPrecision" text-rendering="geometricPrecision" image-rendering="optimizeQuality" fill-rule="evenodd" clip-rule="evenodd"
viewBox="0 0 111525 128216"
 xmlns:xlink="http://www.w3.org/1999/xlink">
 <defs>
     <linearGradient id="id0" gradientUnits="userSpaceOnUse" x1="9522.83" y1="46239.7" x2="102002" y2="46239.7">
      <stop offset="0" stop-opacity="1" stop-color="#84C357"/>
      <stop offset="1" stop-opacity="1" stop-color="#6BBD65"/>
     </linearGradient>
 </defs>
 <g id="Слой_x0020_1">
  <metadata id="CorelCorpID_0Corel-Layer"/>
  <g id="_806907424">
   <polygon fill="#434345" fill-rule="nonzero" points="7167,111449 5587,111449 5587,103935 1579,103935 1579,111449 0,111449 0,102457 7167,102457 "/>
   <path id="1" fill="#434345" fill-rule="nonzero" d="M10712 114017l-1478 0 0 -8348 1478 0 0 552c188,-206 445,-372 771,-501 325,-129 663,-192 1014,-192 796,0 1430,274 1901,822 480,556 719,1263 719,2119 0,899 -282,1643 -847,2235 -566,591 -1302,886 -2209,886 -583,0 -1033,-94 -1349,-282l0 2709zm1322 -7102c-513,0 -955,209 -1322,629l0 2337c351,223 757,334 1219,334 489,0 880,-158 1176,-475 295,-317 443,-727 443,-1232 0,-480 -135,-866 -404,-1156 -270,-292 -640,-437 -1112,-437z"/>
   <path id="2" fill="#434345" fill-rule="nonzero" d="M16902 110742c-573,-573 -860,-1301 -860,-2183 0,-882 287,-1606 860,-2171 574,-574 1336,-860 2287,-860 942,0 1700,286 2273,860 583,565 873,1289 873,2171 0,873 -290,1601 -873,2183 -582,566 -1340,848 -2273,848 -951,0 -1713,-282 -2287,-848zm1170 -3365c-301,308 -450,702 -450,1182 0,479 148,875 442,1187 296,314 671,469 1125,469 462,0 841,-154 1136,-462 296,-308 444,-706 444,-1194 0,-480 -150,-874 -450,-1182 -299,-308 -676,-462 -1130,-462 -446,0 -818,154 -1117,462z"/>
   <path id="3" fill="#434345" fill-rule="nonzero" d="M27949 114017l-1478 0 0 -2427 -77 0c-993,0 -1764,-282 -2312,-848 -548,-557 -822,-1284 -822,-2183 0,-822 279,-1533 835,-2132 565,-600 1327,-899 2286,-899l90 0 0 -3071 1478 0 0 3071 102 0c967,0 1725,286 2273,860 557,574 835,1297 835,2171 0,916 -271,1650 -816,2202 -543,553 -1308,829 -2292,829l-102 0 0 2427zm102 -7102l-102 0 0 3300 51 0c505,0 894,-147 1168,-442 274,-296 412,-701 412,-1214 0,-480 -136,-874 -405,-1182 -270,-308 -645,-462 -1124,-462zm-3211 1644c0,505 139,907 417,1207 279,300 670,449 1175,449l39 0 0 -3300 -103 0c-497,0 -875,149 -1136,449 -262,300 -392,698 -392,1195z"/>
   <path id="4" fill="#434345" fill-rule="nonzero" d="M36977 109830l424 1041c-573,479 -1309,719 -2209,719 -925,0 -1678,-279 -2261,-835 -565,-548 -847,-1280 -847,-2196 0,-857 278,-1576 834,-2159 558,-581 1298,-872 2222,-872 763,0 1409,252 1940,757 531,505 797,1148 797,1927 0,342 -31,608 -91,796l-4174 0c60,420 247,749 559,989 312,240 704,360 1175,360 643,0 1186,-175 1631,-527zm-1900 -3070c-840,0 -1345,420 -1516,1259l2838 0c9,-368 -109,-670 -353,-905 -244,-236 -567,-354 -969,-354z"/>
   <path id="5" fill="#434345" fill-rule="nonzero" d="M43413 109509l693 1079c-488,668 -1254,1002 -2299,1002 -933,0 -1691,-279 -2274,-835 -573,-548 -860,-1280 -860,-2196 0,-865 282,-1584 847,-2159 566,-581 1281,-872 2146,-872 1027,0 1802,261 2325,783l-694 1169c-394,-377 -874,-565 -1438,-565 -429,0 -806,154 -1131,462 -316,291 -475,685 -475,1182 0,497 162,899 488,1207 342,300 736,449 1181,449 574,0 1071,-235 1491,-706z"/>
   <path id="6" fill="#434345" fill-rule="nonzero" d="M49359 109509l694 1079c-488,668 -1255,1002 -2300,1002 -933,0 -1691,-279 -2273,-835 -574,-548 -861,-1280 -861,-2196 0,-865 283,-1584 848,-2159 565,-581 1281,-872 2145,-872 1028,0 1803,261 2325,783l-694 1169c-394,-377 -873,-565 -1438,-565 -428,0 -805,154 -1130,462 -317,291 -475,685 -475,1182 0,497 162,899 488,1207 342,300 736,449 1181,449 573,0 1070,-235 1490,-706z"/>
   <polygon id="7" fill="#434345" fill-rule="nonzero" points="55408,107788 52711,111449 51234,111449 51234,105669 52711,105669 52711,109330 55408,105669 56886,105669 56886,111449 55408,111449 "/>
   <path id="8" fill="#434345" fill-rule="nonzero" d="M59030 110742c-573,-573 -860,-1301 -860,-2183 0,-882 287,-1606 860,-2171 575,-574 1336,-860 2287,-860 942,0 1700,286 2274,860 582,565 872,1289 872,2171 0,873 -290,1601 -872,2183 -583,566 -1340,848 -2274,848 -951,0 -1712,-282 -2287,-848zm1170 -3365c-300,308 -450,702 -450,1182 0,479 148,875 443,1187 295,314 670,469 1124,469 462,0 841,-154 1137,-462 295,-308 443,-706 443,-1194 0,-480 -150,-874 -450,-1182 -299,-308 -676,-462 -1130,-462 -445,0 -818,154 -1117,462z"/>
   <polygon id="9" fill="#434345" fill-rule="nonzero" points="71233,111449 69756,111449 69756,109239 67225,109239 67225,111449 65748,111449 65748,105669 67225,105669 67225,107852 69756,107852 69756,105669 71233,105669 "/>
   <path id="10" fill="#434345" fill-rule="nonzero" d="M73326 107159l-372 -1079c625,-369 1305,-552 2042,-552 805,0 1391,196 1760,590 368,394 552,998 552,1812l0 3519 -1285 0 0 -668c-342,496 -912,745 -1707,745 -549,0 -988,-161 -1317,-482 -330,-321 -495,-751 -495,-1291 0,-599 193,-1061 578,-1387 385,-325 895,-488 1529,-488 522,0 959,124 1310,372 17,-513 -58,-890 -225,-1130 -167,-240 -452,-360 -854,-360 -445,0 -950,133 -1516,399zm1478 3121c496,0 869,-176 1117,-527l0 -591c-240,-188 -578,-282 -1014,-282 -274,0 -497,64 -669,192 -171,129 -256,304 -256,527 0,206 76,370 231,494 154,125 350,187 591,187z"/>
   <path id="11" fill="#434345" fill-rule="nonzero" d="M84103 111449l-1478 0 0 -4303 -1528 0 -39 616c-111,1045 -271,1842 -482,2390 -209,547 -475,918 -796,1110 -321,193 -764,294 -1329,302l-128 -1438c188,8 364,-43 526,-155 188,-136 356,-423 501,-860 146,-437 240,-985 282,-1644l91 -1798 4380 0 0 5780z"/>
   <path id="12" fill="#434345" fill-rule="nonzero" d="M87905 111449l-2159 0 0 -5780 1478 0 0 1580 796 0c865,0 1505,179 1920,539 416,359 623,848 623,1464 0,659 -223,1191 -668,1593 -445,402 -1108,604 -1990,604zm-13 -3019l-668 0 0 1734 655 0c745,0 1117,-286 1117,-861 0,-581 -368,-873 -1104,-873z"/>
   <polygon id="13" fill="#434345" fill-rule="nonzero" points="97230,111449 95753,111449 95753,109239 93222,109239 93222,111449 91745,111449 91745,105669 93222,105669 93222,107852 95753,107852 95753,105669 97230,105669 "/>
   <path id="14" fill="#434345" fill-rule="nonzero" d="M99374 110742c-573,-573 -860,-1301 -860,-2183 0,-882 287,-1606 860,-2171 575,-574 1337,-860 2287,-860 942,0 1700,286 2274,860 582,565 873,1289 873,2171 0,873 -291,1601 -873,2183 -583,566 -1340,848 -2274,848 -950,0 -1712,-282 -2287,-848zm1170 -3365c-300,308 -450,702 -450,1182 0,479 148,875 443,1187 296,314 671,469 1124,469 462,0 841,-154 1137,-462 296,-308 443,-706 443,-1194 0,-480 -150,-874 -450,-1182 -299,-308 -676,-462 -1130,-462 -445,0 -817,154 -1117,462z"/>
   <path id="15" fill="#434345" fill-rule="nonzero" d="M110626 109830l424 1041c-574,479 -1310,719 -2209,719 -925,0 -1679,-279 -2261,-835 -565,-548 -848,-1280 -848,-2196 0,-857 279,-1576 835,-2159 557,-581 1297,-872 2222,-872 763,0 1409,252 1940,757 530,505 796,1148 796,1927 0,342 -30,608 -90,796l-4174 0c60,420 246,749 559,989 312,240 704,360 1175,360 642,0 1186,-175 1631,-527zm-1901 -3070c-839,0 -1344,420 -1515,1259l2838 0c9,-368 -109,-670 -353,-905 -244,-236 -567,-354 -970,-354z"/>
   <path id="16" fill="#434345" fill-rule="nonzero" d="M15553 124941c-573,-573 -860,-1302 -860,-2184 0,-882 287,-1605 860,-2171 574,-573 1336,-860 2287,-860 942,0 1700,287 2273,860 583,566 873,1289 873,2171 0,874 -290,1601 -873,2184 -582,565 -1339,847 -2273,847 -951,0 -1713,-282 -2287,-847zm1170 -3365c-301,307 -450,702 -450,1181 0,480 148,876 442,1188 296,313 671,469 1125,469 462,0 841,-154 1136,-462 296,-308 444,-707 444,-1195 0,-479 -150,-874 -450,-1181 -299,-309 -676,-463 -1130,-463 -445,0 -818,154 -1117,463z"/>
   <path id="17" fill="#434345" fill-rule="nonzero" d="M26612 116515l770 1208c-204,257 -462,445 -770,564 -274,95 -617,189 -1027,283 -403,78 -737,184 -1002,322 -711,333 -1126,1053 -1247,2157l27 0c179,-317 458,-575 835,-777 376,-202 774,-302 1194,-302 796,0 1434,257 1914,771 479,522 719,1212 719,2067 0,831 -283,1538 -847,2120 -566,574 -1294,860 -2184,860 -968,0 -1734,-329 -2299,-988 -557,-660 -835,-1550 -835,-2672 0,-2466 727,-4016 2183,-4650 317,-137 668,-239 1054,-308 436,-85 757,-169 963,-250 206,-82 389,-217 552,-405zm-3173 5921c9,583 151,1058 425,1426 273,368 638,552 1091,552 445,0 805,-146 1079,-436 274,-291 411,-660 411,-1105 0,-454 -127,-822 -379,-1105 -253,-282 -601,-423 -1046,-423 -386,0 -720,100 -1003,301 -282,201 -475,465 -578,790z"/>
   <path id="18" fill="#434345" fill-rule="nonzero" d="M29810 124941c-573,-573 -860,-1302 -860,-2184 0,-882 287,-1605 860,-2171 574,-573 1336,-860 2287,-860 942,0 1700,287 2273,860 583,566 873,1289 873,2171 0,874 -290,1601 -873,2184 -582,565 -1340,847 -2273,847 -951,0 -1713,-282 -2287,-847zm1170 -3365c-301,307 -450,702 -450,1181 0,480 147,876 442,1188 296,313 671,469 1125,469 462,0 841,-154 1136,-462 296,-308 444,-707 444,-1195 0,-479 -150,-874 -450,-1181 -299,-309 -676,-463 -1130,-463 -446,0 -818,154 -1117,463z"/>
   <path id="19" fill="#434345" fill-rule="nonzero" d="M38005 128216l-1477 0 0 -8349 1477 0 0 553c188,-206 445,-372 771,-502 325,-128 663,-192 1014,-192 796,0 1430,274 1901,822 480,556 719,1264 719,2119 0,900 -282,1644 -847,2236 -565,590 -1302,885 -2209,885 -583,0 -1032,-93 -1349,-282l0 2710zm1322 -7103c-513,0 -954,210 -1322,629l0 2338c351,223 757,334 1220,334 488,0 880,-158 1176,-475 294,-317 442,-727 442,-1233 0,-479 -135,-865 -404,-1156 -270,-291 -640,-437 -1112,-437z"/>
   <path id="20" fill="#434345" fill-rule="nonzero" d="M47356 119867l1682 0 -2273 5780c-412,1002 -779,1679 -1105,2030 -317,360 -694,539 -1131,539 -410,0 -825,-149 -1245,-450l475 -1117c222,137 424,205 604,205 351,0 646,-299 886,-898l129 -309 -2672 -5780 1772 0 1349 3160c17,43 111,321 283,835 51,-317 120,-600 205,-848l1041 -3147z"/>
   <path id="21" fill="#434345" fill-rule="nonzero" d="M50117 126996l-1374 0 0 -2723 732 0c454,-608 723,-1614 809,-3018l90 -1388 4264 0 0 4406 963 0 0 2723 -1387 0 0 -1349 -4097 0 0 1349zm1631 -5741l-38 590c-103,1113 -334,1923 -693,2428l2144 0 0 -3018 -1413 0z"/>
   <path id="22" fill="#434345" fill-rule="nonzero" d="M57079 124941c-574,-573 -860,-1302 -860,-2184 0,-882 286,-1605 860,-2171 574,-573 1336,-860 2286,-860 942,0 1701,287 2274,860 583,566 873,1289 873,2171 0,874 -290,1601 -873,2184 -583,565 -1340,847 -2274,847 -950,0 -1712,-282 -2286,-847zm1169 -3365c-300,307 -449,702 -449,1181 0,480 147,876 442,1188 296,313 671,469 1124,469 463,0 841,-154 1137,-462 296,-308 443,-707 443,-1195 0,-479 -150,-874 -449,-1181 -300,-309 -677,-463 -1131,-463 -445,0 -817,154 -1117,463z"/>
   <path id="23" fill="#434345" fill-rule="nonzero" d="M63796 125647l0 -5780c78,0 405,-11 983,-32 578,-21 1008,-32 1291,-32 1747,0 2620,506 2620,1516 0,325 -102,610 -308,854 -206,244 -462,388 -771,430l0 26c822,197 1233,642 1233,1335 0,1165 -916,1748 -2749,1748 -265,0 -672,-14 -1220,-39 -137,0 -293,-2 -469,-7 -175,-4 -308,-8 -398,-12 -90,-5 -160,-7 -212,-7zm2402 -2453l-924 0 0 1285c513,34 839,51 975,51 326,0 581,-61 765,-180 184,-120 276,-283 276,-488 0,-446 -364,-668 -1092,-668zm0 -2196c-342,0 -650,8 -924,25l0 1272 963 0c265,0 479,-60 642,-180 162,-120 244,-282 244,-488 0,-420 -308,-629 -925,-629z"/>
   <path id="24" fill="#434345" fill-rule="nonzero" d="M70694 121357l-372 -1078c625,-369 1305,-553 2041,-553 806,0 1392,197 1761,591 367,394 551,998 551,1811l0 3519 -1284 0 0 -668c-342,497 -912,746 -1708,746 -548,0 -987,-161 -1317,-482 -329,-321 -494,-752 -494,-1291 0,-599 193,-1062 578,-1388 385,-325 895,-488 1528,-488 523,0 960,125 1310,373 17,-514 -57,-890 -225,-1130 -166,-240 -451,-360 -854,-360 -445,0 -950,133 -1515,398zm1477 3122c496,0 870,-176 1117,-527l0 -591c-239,-189 -578,-282 -1014,-282 -274,0 -497,63 -668,192 -171,129 -257,304 -257,527 0,205 77,370 232,494 153,125 350,187 590,187z"/>
   <polygon id="25" fill="#434345" fill-rule="nonzero" points="81676,125647 80199,125647 80199,123438 77668,123438 77668,125647 76191,125647 76191,119867 77668,119867 77668,122051 80199,122051 80199,119867 81676,119867 "/>
   <polygon id="26" fill="#434345" fill-rule="nonzero" points="87494,121986 84797,125647 83320,125647 83320,119867 84797,119867 84797,123528 87494,119867 88971,119867 88971,125647 87494,125647 "/>
   <path id="27" fill="#434345" fill-rule="nonzero" d="M95149 124029l424 1040c-573,480 -1310,719 -2209,719 -925,0 -1678,-278 -2261,-834 -565,-548 -847,-1280 -847,-2197 0,-856 278,-1575 834,-2158 557,-581 1297,-873 2222,-873 763,0 1409,252 1940,758 531,505 796,1147 796,1927 0,342 -30,608 -90,796l-4174 0c60,420 247,749 559,988 312,241 704,361 1175,361 643,0 1186,-176 1631,-527zm-1900 -3070c-840,0 -1345,419 -1516,1259l2838 0c9,-368 -109,-670 -353,-905 -244,-236 -567,-354 -969,-354z"/>
   <g>
    <path fill="url(#id0)" d="M55763 0c25537,0 46239,20702 46239,46240 0,25537 -20702,46239 -46239,46239 -25538,0 -46240,-20702 -46240,-46239 0,-25538 20702,-46240 46240,-46240zm0 3854c23409,0 42385,18976 42385,42386 0,23409 -18976,42385 -42385,42385 -23410,0 -42386,-18976 -42386,-42385 0,-23410 18976,-42386 42386,-42386z"/>
    <g>
     <path fill="#00262D" d="M41968 55347l18 13059 28235 1 0 -8716 -6 -1986 6 -14685c0,-297 -61,-411 -318,-669 -642,-647 -1292,-1288 -1936,-1932 -126,-131 -162,-226 -403,-241 -738,-42 -3572,31 -4421,31 -752,0 -1837,132 -2326,-236 -516,-389 -725,-1186 -214,-1787 488,-573 1245,-439 2142,-437 837,3 1693,5 2529,-9 -130,-242 -1337,-1392 -1696,-1770 -201,-210 -201,-170 -533,-167 -464,5 -928,2 -1392,2 -4095,0 -8337,37 -12413,-1 -401,-4 -443,-26 -631,173l-1637 1745c829,-6 3283,-109 3841,140 1039,466 936,1977 -195,2300 -492,141 -3125,28 -3860,28 -2099,1 -2149,-178 -2624,306l-1952 1986c-252,258 -198,340 -197,824l1 9831 -18 2210zm18632 -3385c618,23 1854,37 2350,-120 208,-185 481,-520 665,-714 209,-223 483,-489 717,-723 560,-560 1077,-939 1468,-1321 -70,261 -1336,1728 -1601,2032 -304,351 -544,601 -872,965 -436,483 -1940,148 -2633,137 152,428 220,805 330,1241l1774 -139c458,-10 731,418 1139,860 402,433 1578,1656 1768,2166 -736,-552 -1301,-1088 -1949,-1737 -1220,-1221 -561,-886 -2702,-1050 37,294 109,503 160,817 52,324 207,364 416,523 495,377 3033,2321 3085,2608 -15,1053 -71,2113 -188,3128 -184,-344 -184,-1506 -197,-1986 -39,-1293 109,-863 -671,-1560l-2319 -2129c104,1447 262,1826 247,3490 -10,1162 -205,2260 -627,3129 -398,820 -991,1479 -1881,1846 -2621,1082 -3228,1096 -5821,44 -1967,-800 -2570,-2788 -2627,-4820 -50,-1803 170,-2145 228,-3559l-306 256c-593,614 -1319,1244 -1961,1808 -769,676 -506,301 -605,1509 -39,484 7,1641 -175,1977 -101,-973 -239,-2177 -177,-3183 138,-236 1701,-1506 1997,-1743 315,-252 693,-539 1041,-801 371,-281 325,-506 424,-967 28,-130 76,-301 16,-354 -12,-7 -1425,82 -1610,120 -191,40 -756,723 -927,896 -689,695 -1247,1174 -1944,1731 104,-470 1686,-2076 2177,-2591 159,-165 302,-407 576,-429 610,-48 1260,132 1818,142l328 -1248c-2618,195 -2090,324 -3004,-648l-1981 -2388c10,-13 20,-56 22,-42 1,5 42,-65 58,1l77 85c647,632 1142,988 1913,1809 159,170 324,335 483,511 215,237 228,371 584,380 656,17 1283,90 1941,91 286,-383 553,-757 998,-1002 464,-256 985,-373 1596,-393 -46,-214 -373,-495 -525,-644 -216,-209 -686,-99 -993,-83 -778,39 -1494,-57 -2254,-50 14,-577 -3,-1204 29,-1772 15,-274 155,-346 335,-511 147,-137 292,-272 462,-430 214,-199 1637,-1592 1826,-1665 -246,226 -476,524 -744,808l-1147 1237c-77,82 -368,370 -389,407 -125,217 -32,1219 -30,1545l2921 -3c139,185 273,369 424,577 140,193 246,497 470,577 233,-414 -118,-843 530,-1625 -281,-245 -633,-418 -911,-680 -364,-342 162,-682 399,-909 199,-189 746,-841 971,-347 200,437 -468,638 -630,975 171,132 332,249 505,378 409,309 167,165 674,173 523,9 265,166 696,-158 150,-113 406,-277 541,-401 -179,-225 -767,-562 -666,-906 205,-693 1133,413 1359,623 555,517 -519,949 -936,1291 405,681 436,751 451,1579 364,13 511,-469 902,-980 154,-201 185,-157 481,-163 444,-9 2313,44 2565,-25 7,-264 75,-1272 15,-1448 -1760,-1908 -3544,-3699 -385,-765 157,146 276,265 434,409 378,348 251,481 279,1427l-28 754c-359,149 -2547,64 -3092,35 -146,185 -611,541 -672,758 328,131 789,52 1428,353 326,154 989,665 1087,1004zm8132 1427c-29,-625 -53,-1322 -97,-1974 -133,-1969 -160,-4139 -306,-5954 -182,-2287 253,-1542 -923,-3241 -410,-592 -855,-1067 -386,-1299 309,-153 843,460 1193,790 1302,1233 1269,880 1269,1844l5 10426c0,307 81,742 -170,873 -365,189 -516,-116 -529,-474 -11,-335 -39,-645 -56,-991z"/>
     <path fill="#00262D" d="M66211 77023c893,-112 1528,-297 2324,-915 227,-177 443,-396 655,-638 423,-480 871,-1350 961,-1975 32,-231 43,-508 67,-746l7 -3509c-89,23 -59,36 -70,-65 -338,-199 -1235,-96 -1700,-96l-25371 0c-699,1 -1087,-158 -1098,443 -23,1211 -123,3096 139,4229 448,1940 2250,3271 4384,3268 1274,-1 2549,1 3823,0 692,0 14532,-60 15258,15l425 -5 196 -6zm177 -7003c647,-2 2690,-36 3102,20l33 2944 -591 -2647 -2544 -317z"/>
     <path fill="#00262D" d="M61740 31873c-404,58 -396,-363 -484,-676 -396,-1404 -1431,-2519 -2776,-3041 -249,-96 -691,-190 -900,-287 -290,-136 -315,-511 28,-629 416,-145 1554,205 1927,357 2606,1061 2863,4182 2205,4276zm-12219 3192c73,204 393,213 684,213l9908 4c464,2 928,0 1391,0 383,0 973,61 1057,-323 82,-375 0,-2152 0,-2675 0,-1742 107,-2879 -1153,-4273 -1173,-1299 -2450,-1404 -4074,-1405 -1548,-1 -3868,-192 -5105,326 -1274,533 -2146,1497 -2567,2890 -146,485 -246,3718 -185,4866 10,189 25,322 44,377z"/>
     <path fill="#00262D" d="M71172 68466c-152,85 -364,158 -495,284 508,717 53,1467 292,1977 342,20 1504,-674 1788,-874 1615,-1142 2740,-3315 2749,-5278l5 -33340 -1962 9c-1,13362 -6,21486 -1,29539 0,924 10,1897 0,2808 -22,1949 -328,3721 -2376,4875z"/>
     <path fill="#00262D" d="M61161 20424c-4,554 151,1512 -152,1881 -1017,1238 -3493,1014 -4967,1073 -1260,51 -2690,29 -3698,-346 -521,-193 -962,-432 -1230,-811 -287,-406 -182,-1188 -187,-1814l10234 17zm-2189 -1217c-304,0 -536,-139 -547,-429 -14,-349 213,-451 547,-451l1986 0c777,0 696,879 0,879l-1986 1zm-9422 814c0,533 7,1927 153,2359 635,1865 3221,2357 5098,2356l1722 -36c406,36 876,38 1308,25 1338,-44 3114,-406 4010,-1338 586,-608 642,-878 646,-1977l46 -2532c0,-1080 174,-1133 -930,-1132l-10426 0c-447,0 -884,-46 -1193,-2 -264,36 -434,138 -434,390l0 1887z"/>
     <path fill="#00262D" d="M36232 44836l-258 -237 -100 -10c-2550,-2251 -1217,-6462 2203,-6719 881,-65 2013,-5 2921,-5l4370 1c361,3 380,43 591,-175 357,-370 1647,-1595 1757,-1842 -1437,68 -3030,7 -4484,7 -1472,0 -2945,0 -4419,0 -1588,0 -2469,192 -3588,880 -3146,1935 -3564,6471 -1047,9020 1480,1500 2898,1745 4934,1745 61,0 2069,29 2092,-29 6,-13 23,-7 32,-13 81,-76 136,-1922 -25,-1968 -9,-2 -25,-10 -36,-12 -11,-3 -25,-8 -38,-10l-486 -8c-199,0 -398,0 -596,0 -1462,0 -2013,110 -3296,-308l-527 -317z"/>
     <path fill="#00262D" d="M30655 64454c-292,2202 365,4266 2077,5588 1357,1048 2467,1281 4096,1281l4489 -7 2 -2055 -5083 10c-480,1 -918,-94 -1428,-310 -3434,-1461 -2975,-7285 1854,-7297l4622 -10 0 -1985 -3065 1c-3458,0 -7006,586 -7564,4784z"/>
     <path fill="#00262D" d="M73235 27004l2859 -38c74,-760 381,-1518 426,-2296 170,-2895 101,-6250 77,-9171 -3,-311 -131,-430 -309,-584 -776,-672 -2006,-527 -2912,-200 -580,209 -762,234 -776,633 -100,2926 174,6366 266,9340 17,674 251,1630 369,2316zm2542 -2875c-346,-1601 -463,-6877 73,-8324l-73 8324z"/>
     <path fill="white" d="M61161 20424l-10234 -17c5,626 -100,1408 187,1814 268,379 709,618 1230,811 1008,375 2438,397 3698,346 1474,-59 3950,165 4967,-1073 303,-369 148,-1327 152,-1881z"/>
     <path fill="white" d="M67020 40921c-469,232 -24,707 386,1299 1176,1699 741,954 923,3241 146,1815 173,3985 306,5954 44,652 68,1349 97,1974 17,346 45,656 56,991 13,358 164,663 529,474 251,-131 170,-566 170,-873l-5 -10426c0,-964 33,-611 -1269,-1844 -350,-330 -884,-943 -1193,-790z"/>
     <path fill="#00262D" d="M75903 28396c286,61 315,395 103,517 -133,75 -645,77 -839,36 -268,-56 -373,-320 -105,-495 163,-107 698,-89 841,-58zm-3669 -162c-4,538 5,1077 4,1617 -1,441 -59,810 385,840 843,57 2636,-10 3678,0 552,5 646,-32 643,-590 -11,-1981 220,-2313 -549,-2314l-3471 -2c-465,2 -671,-26 -690,449z"/>
     <path fill="#00262D" d="M52482 26199c245,-18 492,-108 777,-125 1012,-59 3511,-8 4670,-10 304,-1 639,-9 939,27 255,31 477,144 740,123 -32,-1311 181,-1225 -1182,-1225l-4816 0c-1159,0 -1245,-111 -1128,1210z"/>
     <path fill="white" d="M57608 27240c-343,118 -318,493 -28,629 209,97 651,191 900,287 1345,522 2380,1637 2776,3041 88,313 80,734 484,676 658,-94 401,-3215 -2205,-4276 -373,-152 -1511,-502 -1927,-357z"/>
     <path fill="#00262D" d="M73811 14018c536,4 406,-151 1561,-74l-1 -3059c1,-1218 -1509,-1152 -1558,-101 -48,1046 17,2175 -2,3234z"/>
     <path fill="none" d="M70218 72749c-73,154 29,13 -89,92 -124,83 -176,47 -276,162 -105,121 -83,278 -88,476l230 -3c23,-110 -12,-212 99,-354 66,82 49,25 68,174 3,19 -8,176 -11,199 -54,374 -289,782 -283,1002 -134,58 -89,-35 -90,171 -93,-25 -63,-37 -67,67 105,0 92,30 67,-67l76 -87c3,-8 6,-21 9,-40 4,-21 4,-30 5,-44l1268 22c35,-53 33,-45 61,-131l31 -347c51,-1647 322,-1573 -925,-1589 -87,-469 11,-2838 -21,-3063 -16,-109 -30,-112 -57,-149 26,-96 38,-65 -70,-65 11,101 -19,88 70,65"/>
     <path fill="white" d="M58972 19207l1986 -1c696,0 777,-879 0,-879l-1986 0c-334,0 -561,102 -547,451 11,290 243,429 547,429z"/>
     <path fill="white" d="M75777 24129l73 -8324c-536,1447 -419,6723 -73,8324z"/>
     <path fill="white" d="M68932 70337l591 2647 -33 -2944c-412,-57 -2455,-22 -3102,-20l2544 317z"/>
     <path fill="white" d="M75062 28454c-268,175 -163,439 105,495 194,41 706,39 839,-36 212,-122 183,-456 -103,-517 -143,-31 -678,-49 -841,58z"/>
     <path fill="none" d="M53411 73501c146,-161 39,-287 145,-346 238,-132 292,195 273,-256 -1,0 -40,-73 -267,-57 -370,27 -354,362 -343,650"/>
     <rect fill="white" x="37737" y="59982" width="2833" height="623" rx="514" ry="371"/>
     <rect fill="white" x="42834" y="36247" width="2833" height="623" rx="514" ry="371"/>
    </g>
   </g>
  </g>
 </g>
</svg>
