<?xml version="1.0" encoding="UTF-8"?>
<!DOCTYPE svg PUBLIC "-//W3C//DTD SVG 1.1//EN" "http://www.w3.org/Graphics/SVG/1.1/DTD/svg11.dtd">
<!-- Creator: CorelDRAW X8 -->
<svg xmlns="http://www.w3.org/2000/svg" xml:space="preserve" width="125px" height="165px" version="1.1" shape-rendering="geometricPrecision" text-rendering="geometricPrecision" image-rendering="optimizeQuality" fill-rule="evenodd" clip-rule="evenodd"
viewBox="0 0 86614 114666"
 xmlns:xlink="http://www.w3.org/1999/xlink">
 <defs>
     <linearGradient id="id0" gradientUnits="userSpaceOnUse" x1="-0" y1="41689.1" x2="83378.3" y2="41689.1">
      <stop offset="0" stop-opacity="1" stop-color="#84C357"/>
      <stop offset="1" stop-opacity="1" stop-color="#6BBD65"/>
     </linearGradient>
     <linearGradient id="id1" gradientUnits="userSpaceOnUse" x1="81114.1" y1="41689.1" x2="2589.16" y2="41689.1">
      <stop offset="0" stop-opacity="1" stop-color="#6BBD65"/>
      <stop offset="1" stop-opacity="1" stop-color="#84C357"/>
     </linearGradient>
 </defs>
 <g id="Слой_x0020_1">
  <metadata id="CorelCorpID_0Corel-Layer"/>
  <g id="_1098422528">
   <path fill="#434345" fill-rule="nonzero" d="M1847 97718l0 2930 -1424 0 0 -8106c340,0 707,-4 1100,-12 401,-7 804,-11 1205,-11 571,0 1067,71 1488,214 421,143 746,340 978,591 232,251 402,524 510,822 108,297 162,623 162,978 0,734 -263,1355 -788,1865 -517,509 -1242,764 -2176,764 -471,0 -822,-12 -1055,-35zm1020 -3867l-1020 23 0 2489c410,39 745,58 1008,58 456,0 821,-112 1095,-336 274,-224 411,-548 411,-972 0,-841 -498,-1262 -1494,-1262zm4145 2929l-335 -972c564,-333 1177,-498 1841,-498 726,0 1254,177 1587,532 331,356 497,900 497,1633l0 3173 -1158 0 0 -602c-308,448 -822,672 -1539,672 -495,0 -891,-145 -1188,-434 -297,-290 -446,-678 -446,-1165 0,-540 174,-957 522,-1250 347,-293 806,-440 1377,-440 471,0 865,112 1181,335 16,-463 -51,-802 -202,-1018 -151,-217 -407,-325 -770,-325 -401,0 -857,120 -1367,359zm1332 2814c448,0 784,-158 1007,-475l0 -532c-215,-170 -521,-255 -914,-255 -247,0 -448,58 -602,173 -155,117 -232,274 -232,476 0,185 69,334 209,445 138,113 316,168 532,168zm7539 -7180l694 1089c-184,232 -417,402 -694,509 -247,86 -556,170 -927,255 -362,70 -664,166 -903,290 -641,301 -1015,950 -1124,1945l24 0c162,-285 413,-519 753,-700 339,-182 698,-272 1076,-272 718,0 1294,231 1726,695 432,470 649,1092 649,1863 0,750 -256,1387 -764,1912 -510,517 -1167,775 -1969,775 -873,0 -1564,-297 -2073,-891 -502,-595 -753,-1398 -753,-2409 0,-2224 656,-3620 1968,-4192 286,-123 603,-216 951,-278 393,-77 682,-152 868,-225 185,-74 351,-196 498,-366zm-2861 5339c8,525 136,953 383,1286 247,331 575,497 983,497 402,0 727,-131 974,-393 247,-263 370,-595 370,-996 0,-410 -114,-741 -341,-997 -229,-254 -543,-381 -944,-381 -347,0 -649,90 -904,271 -254,182 -428,420 -521,713zm5744 2258c-517,-517 -776,-1173 -776,-1969 0,-795 259,-1447 776,-1957 518,-517 1205,-775 2061,-775 850,0 1533,258 2050,775 526,510 787,1162 787,1957 0,788 -261,1444 -787,1969 -525,510 -1208,764 -2050,764 -856,0 -1543,-254 -2061,-764zm1054 -3034c-270,278 -405,633 -405,1065 0,433 133,790 399,1071 267,283 605,423 1013,423 417,0 759,-139 1025,-417 267,-277 400,-637 400,-1077 0,-432 -135,-787 -405,-1065 -270,-278 -610,-417 -1020,-417 -401,0 -737,139 -1007,417zm5963 -208l-1713 0 0 -1332 4747 0 0 1332 -1702 0 0 3879 -1332 0 0 -3879zm4389 11l-336 -972c564,-333 1177,-498 1841,-498 726,0 1255,177 1587,532 332,356 498,900 498,1633l0 3173 -1158 0 0 -602c-309,448 -823,672 -1540,672 -495,0 -890,-145 -1187,-434 -297,-290 -446,-678 -446,-1165 0,-540 174,-957 521,-1250 347,-293 807,-440 1378,-440 471,0 865,112 1181,335 16,-463 -52,-802 -203,-1018 -150,-217 -407,-325 -770,-325 -401,0 -856,120 -1366,359zm1332 2814c447,0 784,-158 1007,-475l0 -532c-216,-170 -521,-255 -914,-255 -247,0 -448,58 -603,173 -154,117 -231,274 -231,476 0,185 69,334 208,445 139,113 316,168 533,168zm7712 -405l382 938c-517,432 -1181,648 -1992,648 -833,0 -1513,-251 -2038,-752 -510,-494 -764,-1154 -764,-1981 0,-772 251,-1420 752,-1945 503,-525 1170,-787 2004,-787 687,0 1270,227 1748,683 479,455 718,1034 718,1737 0,308 -27,548 -81,718l-3763 0c54,378 222,675 504,891 281,217 635,325 1059,325 579,0 1069,-158 1471,-475zm-1714 -2768c-756,0 -1212,378 -1366,1135l2559 0c8,-332 -99,-604 -319,-816 -220,-212 -511,-319 -874,-319zm4933 4227l-1332 0 0 -5211 1205 0 1772 2177 1679 -2177 1169 0 0 5211 -1332 0 0 -3185 -1540 1946 -35 0 -1586 -1946 0 3185zm13213 0l-5095 0 0 -1065c934,-911 1579,-1572 1934,-1980 957,-1097 1436,-2019 1436,-2768 0,-332 -89,-590 -266,-776 -178,-185 -433,-278 -764,-278 -595,0 -985,363 -1171,1089l-1111 -498c108,-595 380,-1064 816,-1408 437,-343 975,-515 1616,-515 725,0 1289,208 1690,625 402,410 603,908 603,1495 0,417 -89,861 -267,1331 -177,456 -382,853 -613,1193 -240,355 -521,702 -846,1042 -277,309 -533,571 -764,787 -116,109 -305,271 -567,487l3369 0 0 1239zm5756 0l-1332 0 0 -1876 -3706 0 0 -984 3127 -5246 1528 0 -2929 4898 1980 0 0 -2003 1332 0 0 2003 1042 0 0 1332 -1042 0 0 1876zm7400 -5211l1331 0 0 5211 -1331 0 0 -1795c-386,201 -819,301 -1297,301 -648,0 -1125,-169 -1431,-509 -304,-340 -457,-854 -457,-1541l0 -1667 1425 0 0 1505c0,641 281,962 845,962 363,0 668,-70 915,-209l0 -2258zm3220 1343l-336 -972c564,-333 1177,-498 1841,-498 726,0 1255,177 1587,532 331,356 497,900 497,1633l0 3173 -1158 0 0 -602c-308,448 -822,672 -1539,672 -495,0 -891,-145 -1188,-434 -297,-290 -445,-678 -445,-1165 0,-540 174,-957 521,-1250 347,-293 806,-440 1378,-440 471,0 865,112 1181,335 15,-463 -52,-802 -203,-1018 -150,-217 -407,-325 -770,-325 -401,0 -857,120 -1366,359zm1332 2814c447,0 783,-158 1007,-475l0 -532c-216,-170 -522,-255 -915,-255 -247,0 -448,58 -602,173 -154,117 -231,274 -231,476 0,185 69,334 208,445 139,113 316,168 533,168zm7573 -695l625 974c-440,601 -1131,902 -2073,902 -841,0 -1525,-251 -2050,-752 -517,-494 -776,-1154 -776,-1981 0,-779 255,-1427 765,-1945 509,-525 1154,-787 1934,-787 926,0 1625,235 2096,706l-626 1054c-355,-340 -787,-510 -1296,-510 -387,0 -727,139 -1019,417 -286,263 -429,617 -429,1065 0,449 146,811 440,1089 309,270 664,405 1065,405 517,0 965,-212 1344,-637zm2096 -2119l-336 -972c564,-333 1177,-498 1841,-498 726,0 1254,177 1587,532 331,356 497,900 497,1633l0 3173 -1158 0 0 -602c-308,448 -822,672 -1539,672 -495,0 -891,-145 -1188,-434 -297,-290 -445,-678 -445,-1165 0,-540 173,-957 521,-1250 347,-293 806,-440 1378,-440 471,0 864,112 1180,335 16,-463 -51,-802 -202,-1018 -150,-217 -407,-325 -770,-325 -401,0 -857,120 -1366,359zm1331 2814c448,0 784,-158 1007,-475l0 -532c-215,-170 -521,-255 -914,-255 -247,0 -448,58 -602,173 -154,117 -232,274 -232,476 0,185 69,334 209,445 139,113 316,168 532,168zm-79303 7081l-3497 0 0 -1332 5095 0 0 892 -2872 7214 -1459 0 2733 -6774zm5779 7991l-1239 0 0 -2456 659 0c410,-548 653,-1455 730,-2721l81 -1251 3845 0 0 3972 868 0 0 2456 -1250 0 0 -1217 -3694 0 0 1217zm1470 -5177l-34 533c-93,1003 -301,1733 -625,2188l1933 0 0 -2721 -1274 0zm9300 3960l-1332 0 0 -1991 -2281 0 0 1991 -1332 0 0 -5211 1332 0 0 1969 2281 0 0 -1969 1332 0 0 5211zm5570 -1459l382 938c-517,433 -1181,649 -1992,649 -833,0 -1513,-251 -2038,-753 -510,-494 -764,-1154 -764,-1980 0,-772 251,-1421 753,-1946 502,-524 1169,-787 2003,-787 687,0 1270,227 1749,683 478,455 718,1035 718,1737 0,309 -27,548 -82,718l-3763 0c54,379 222,676 504,891 281,217 635,325 1059,325 580,0 1069,-158 1471,-475zm-1714 -2768c-756,0 -1212,379 -1366,1135l2559 0c8,-331 -99,-604 -319,-816 -220,-212 -511,-319 -874,-319zm7365 927l-2432 3300 -1332 0 0 -5211 1332 0 0 3301 2432 -3301 1332 0 0 5211 -1332 0 0 -3300zm-2987 -4516l1215 0c0,255 50,459 151,614 100,154 250,231 451,231 178,0 315,-79 412,-237 96,-159 144,-361 144,-608l1216 0c0,541 -158,975 -475,1303 -316,327 -748,491 -1297,491 -602,0 -1055,-160 -1360,-480 -306,-320 -457,-759 -457,-1314zm8256 7816l0 -5211c70,0 365,-10 887,-28 521,-20 908,-30 1163,-30 1575,0 2362,456 2362,1367 0,293 -92,550 -277,770 -186,220 -417,350 -695,388l0 23c741,177 1112,579 1112,1204 0,1050 -827,1576 -2479,1576 -239,0 -606,-13 -1100,-36 -123,0 -265,-1 -423,-5 -158,-4 -277,-8 -359,-12 -81,-4 -144,-6 -191,-6zm2166 -2211l-834 0 0 1158c463,31 757,46 880,46 294,0 523,-55 689,-162 166,-108 249,-255 249,-440 0,-402 -328,-602 -984,-602zm0 -1980c-309,0 -587,7 -834,23l0 1146 868 0c240,0 433,-54 580,-163 146,-107 220,-254 220,-439 0,-379 -279,-567 -834,-567zm11048 4191l-1332 0 0 -1991 -2281 0 0 1991 -1332 0 0 -5211 1332 0 0 1969 2281 0 0 -1969 1332 0 0 5211zm5570 -1459l383 938c-517,433 -1181,649 -1992,649 -834,0 -1513,-251 -2039,-753 -509,-494 -764,-1154 -764,-1980 0,-772 251,-1421 753,-1946 502,-524 1169,-787 2003,-787 688,0 1270,227 1749,683 478,455 718,1035 718,1737 0,309 -27,548 -81,718l-3764 0c54,379 223,676 504,891 282,217 635,325 1060,325 579,0 1069,-158 1470,-475zm-1713 -2768c-757,0 -1213,379 -1367,1135l2559 0c8,-331 -98,-604 -318,-816 -220,-212 -512,-319 -874,-319zm4041 5444l-1239 0 0 -2456 660 0c409,-548 652,-1455 729,-2721l82 -1251 3844 0 0 3972 869 0 0 2456 -1251 0 0 -1217 -3694 0 0 1217zm1471 -5177l-35 533c-92,1003 -301,1733 -625,2188l1934 0 0 -2721 -1274 0zm8442 2501l382 938c-517,433 -1181,649 -1991,649 -834,0 -1514,-251 -2039,-753 -509,-494 -764,-1154 -764,-1980 0,-772 251,-1421 753,-1946 502,-524 1169,-787 2003,-787 688,0 1270,227 1749,683 478,455 718,1035 718,1737 0,309 -27,548 -81,718l-3764 0c54,379 222,676 504,891 281,217 635,325 1059,325 580,0 1070,-158 1471,-475zm-1714 -2768c-756,0 -1212,379 -1366,1135l2559 0c8,-331 -99,-604 -319,-816 -219,-212 -511,-319 -874,-319zm8188 4227l-1332 0 0 -3879 -1378 0 -35 556c-100,942 -245,1660 -434,2154 -189,494 -428,828 -718,1001 -289,174 -689,265 -1198,273l-116 -1297c170,7 328,-39 474,-139 170,-124 321,-382 452,-776 132,-394 216,-888 255,-1482l81 -1622 3949 0 0 5211zm2895 0l-1413 0 0 -5211 1413 0 0 1888 927 0c139,-617 443,-1108 914,-1471 471,-363 1046,-544 1726,-544 834,0 1509,259 2026,776 518,509 776,1162 776,1957 0,779 -262,1432 -787,1957 -517,517 -1190,776 -2015,776 -703,0 -1292,-192 -1766,-573 -475,-383 -774,-898 -898,-1546l-903 0 0 1991zm2351 -2605c0,432 114,774 341,1025 228,251 531,376 909,376 379,0 684,-125 915,-376 232,-251 348,-593 348,-1025 0,-433 -114,-774 -342,-1025 -228,-251 -534,-376 -921,-376 -370,0 -671,127 -902,382 -233,255 -348,595 -348,1019z"/>
   <g>
    <path fill="url(#id0)" d="M41689 0c23024,0 41689,18665 41689,41689 0,23024 -18665,41689 -41689,41689 -23024,0 -41689,-18665 -41689,-41689 0,-23024 18665,-41689 41689,-41689zm0 3475c21106,0 38215,17109 38215,38214 0,21106 -17109,38215 -38215,38215 -21105,0 -38214,-17109 -38214,-38215 0,-21105 17109,-38214 38214,-38214z"/>
    <polygon fill="url(#id1)" points="2589,39849 81114,39849 81114,43529 2589,43529 "/>
    <path fill="#00262D" fill-rule="nonzero" d="M38642 35495l-17207 0 0 -4569c25,-25 646,-622 1865,-1789l2093 -2094c458,-507 1066,-1142 1828,-1903 863,-914 1472,-1637 1828,-2171l1256 -1941c888,-1345 1333,-2728 1333,-4150 0,-1751 -813,-2627 -2438,-2627 -735,0 -1319,235 -1750,705 -432,469 -826,1186 -1181,2150l-4758 -2169c456,-2005 1402,-3573 2836,-4702 1434,-1130 3280,-1694 5540,-1694 2461,0 4377,698 5748,2094 1396,1396 2094,3096 2094,5101 0,5051 -2969,9860 -8909,14429l9822 0 0 5330zm19721 0l-5711 0 0 -5711 -12106 0 0 -4263 9518 -16676 6548 0 -8719 15229 4759 0 0 -5711 5711 0 0 5711 3122 0 0 5710 -3122 0 0 5711z"/>
    <polygon fill="#00262D" fill-rule="nonzero" points="43402,53952 32704,53952 32704,48241 50217,48241 50217,52125 41193,74891 34950,74891 "/>
   </g>
  </g>
 </g>
</svg>
