<?xml version="1.0" encoding="UTF-8"?>
<!DOCTYPE svg PUBLIC "-//W3C//DTD SVG 1.1//EN" "http://www.w3.org/Graphics/SVG/1.1/DTD/svg11.dtd">
<!-- Creator: CorelDRAW X8 -->
<svg xmlns="http://www.w3.org/2000/svg" xml:space="preserve" width="175px" height="148px" version="1.1" shape-rendering="geometricPrecision" text-rendering="geometricPrecision" image-rendering="optimizeQuality" fill-rule="evenodd" clip-rule="evenodd"
viewBox="0 0 177400 150378"
 xmlns:xlink="http://www.w3.org/1999/xlink">
 <defs>
     <linearGradient id="id0" gradientUnits="userSpaceOnUse" x1="27807.2" y1="60893.4" x2="149594" y2="60893.4">
      <stop offset="0" stop-opacity="1" stop-color="#84C357"/>
      <stop offset="1" stop-opacity="1" stop-color="#6BBD65"/>
     </linearGradient>
 </defs>
 <g id="Слой_x0020_1">
  <metadata id="CorelCorpID_0Corel-Layer"/>
  <g id="_1098396736">
   <path fill="#434345" fill-rule="nonzero" d="M2080 146995l-2080 0 0 -11841 6681 0 0 1946 -4601 0 0 9895zm4398 -5649l-491 -1421c824,-485 1719,-727 2689,-727 1061,0 1833,259 2318,778 485,519 727,1313 727,2385l0 4634 -1692 0 0 -880c-450,655 -1201,982 -2248,982 -723,0 -1301,-212 -1735,-634 -434,-423 -651,-990 -651,-1701 0,-789 254,-1398 761,-1827 508,-428 1179,-642 2013,-642 688,0 1263,164 1725,490 23,-676 -76,-1172 -296,-1488 -219,-316 -595,-474 -1124,-474 -587,0 -1252,175 -1996,525zm1945 4110c653,0 1145,-231 1471,-694l0 -778c-315,-248 -761,-372 -1335,-372 -361,0 -655,84 -880,253 -226,171 -338,401 -338,694 0,271 100,488 304,651 203,164 462,246 778,246zm7239 4922l-1945 0 0 -10995 1945 0 0 728c248,-271 586,-490 1015,-660 428,-169 874,-253 1336,-253 1049,0 1883,360 2504,1082 631,732 947,1664 947,2791 0,1184 -372,2164 -1116,2944 -745,778 -1714,1166 -2909,1166 -768,0 -1360,-124 -1777,-372l0 3569zm1742 -9354c-676,0 -1258,276 -1742,829l0 3078c463,294 997,440 1606,440 644,0 1159,-209 1549,-626 388,-417 583,-958 583,-1623 0,-632 -178,-1140 -533,-1522 -354,-384 -842,-576 -1463,-576zm6343 322l-490 -1421c823,-485 1719,-727 2689,-727 1060,0 1832,259 2318,778 484,519 726,1313 726,2385l0 4634 -1691 0 0 -880c-451,655 -1201,982 -2249,982 -723,0 -1300,-212 -1734,-634 -434,-423 -651,-990 -651,-1701 0,-789 254,-1398 761,-1827 507,-428 1178,-642 2013,-642 688,0 1263,164 1724,490 23,-676 -75,-1172 -296,-1488 -219,-316 -594,-474 -1124,-474 -586,0 -1251,175 -1996,525zm1946 4110c653,0 1144,-231 1470,-694l0 -778c-315,-248 -761,-372 -1335,-372 -361,0 -654,84 -880,253 -225,171 -338,401 -338,694 0,271 101,488 305,651 202,164 461,246 778,246zm12516 1539l-1945 0 0 -2909 -3332 0 0 2909 -1946 0 0 -7612 1946 0 0 2876 3332 0 0 -2876 1945 0 0 7612zm3873 -5666l-2503 0 0 -1946 6935 0 0 1946 -2486 0 0 5666 -1946 0 0 -5666zm11316 845l-3552 4821 -1945 0 0 -7612 1945 0 0 4822 3552 -4822 1945 0 0 7612 -1945 0 0 -4821zm7832 -2791l2486 0 0 7612 -1945 0 0 -2283 -1083 0 -1572 2283 -2233 0 2029 -2707c-417,-146 -766,-413 -1049,-803 -282,-389 -422,-854 -422,-1395 0,-834 318,-1495 955,-1979 637,-485 1582,-728 2834,-728zm-1709 2843c0,292 125,540 373,744 248,203 535,304 862,304l1015 0 0 -2199 -863 0c-428,0 -766,110 -1014,329 -248,221 -373,494 -373,822zm14699 -2843l2453 0 -2926 3620 3282 3992 -2538 0 -3011 -3839 2740 -3773zm-2807 7612l-1945 0 0 -7612 1945 0 0 7612zm7358 -5649l-491 -1421c824,-485 1719,-727 2689,-727 1061,0 1833,259 2318,778 485,519 727,1313 727,2385l0 4634 -1692 0 0 -880c-450,655 -1201,982 -2248,982 -723,0 -1301,-212 -1735,-634 -434,-423 -651,-990 -651,-1701 0,-789 254,-1398 761,-1827 507,-428 1179,-642 2013,-642 688,0 1263,164 1725,490 23,-676 -76,-1172 -296,-1488 -220,-316 -595,-474 -1125,-474 -586,0 -1251,175 -1995,525zm1945 4110c653,0 1145,-231 1471,-694l0 -778c-315,-248 -761,-372 -1335,-372 -361,0 -655,84 -880,253 -226,171 -338,401 -338,694 0,271 100,488 304,651 203,164 462,246 778,246zm9489 -6073l1944 0 0 7612 -1944 0 0 -2621c-565,292 -1196,440 -1895,440 -947,0 -1644,-249 -2090,-745 -444,-496 -667,-1247 -667,-2250l0 -2436 2081 0 0 2199c0,936 411,1405 1234,1405 530,0 976,-102 1337,-305l0 -3299zm10081 5481l558 1370c-755,632 -1724,947 -2909,947 -1218,0 -2210,-367 -2977,-1099 -745,-722 -1116,-1686 -1116,-2893 0,-1128 366,-2075 1099,-2842 733,-766 1708,-1149 2926,-1149 1004,0 1855,332 2554,997 699,665 1049,1512 1049,2538 0,450 -39,800 -119,1048l-5497 0c79,553 325,987 736,1302 411,317 928,475 1548,475 846,0 1562,-231 2148,-694zm-2503 -4043c-1105,0 -1770,552 -1996,1657l3738 0c12,-484 -144,-882 -465,-1191 -322,-310 -747,-466 -1277,-466zm6884 508l-2503 0 0 -1946 6935 0 0 1946 -2486 0 0 5666 -1946 0 0 -5666zm11350 3112l914 1421c-643,879 -1652,1319 -3028,1319 -1229,0 -2227,-367 -2994,-1099 -756,-722 -1133,-1686 -1133,-2893 0,-1138 371,-2085 1116,-2842 744,-766 1686,-1149 2825,-1149 1353,0 2374,344 3062,1032l-914 1539c-519,-496 -1151,-745 -1894,-745 -564,0 -1061,203 -1489,609 -417,384 -625,902 -625,1556 0,655 213,1185 642,1590 451,395 970,592 1556,592 755,0 1410,-309 1962,-930zm2470 2554l0 -7612c102,0 533,-14 1294,-42 761,-28 1327,-43 1700,-43 2300,0 3450,667 3450,1997 0,428 -134,803 -405,1125 -271,321 -609,510 -1016,567l0 33c1083,259 1625,845 1625,1759 0,1534 -1207,2301 -3620,2301 -350,0 -886,-18 -1608,-51 -180,0 -386,-3 -617,-9 -230,-6 -405,-10 -524,-16 -119,-6 -211,-9 -279,-9zm3163 -3230l-1218 0 0 1691c676,46 1105,67 1285,67 429,0 765,-79 1007,-236 242,-158 363,-373 363,-643 0,-587 -479,-879 -1437,-879zm0 -2893c-451,0 -857,11 -1218,34l0 1674 1268 0c350,0 632,-79 847,-237 213,-157 321,-372 321,-642 0,-553 -406,-829 -1218,-829zm5920 474l-490 -1421c824,-485 1719,-727 2689,-727 1061,0 1833,259 2318,778 484,519 726,1313 726,2385l0 4634 -1691 0 0 -880c-451,655 -1201,982 -2249,982 -722,0 -1300,-212 -1734,-634 -434,-423 -651,-990 -651,-1701 0,-789 254,-1398 761,-1827 507,-428 1178,-642 2013,-642 688,0 1263,164 1725,490 22,-676 -76,-1172 -296,-1488 -220,-316 -595,-474 -1125,-474 -586,0 -1251,175 -1996,525zm1946 4110c653,0 1145,-231 1471,-694l0 -778c-316,-248 -762,-372 -1336,-372 -361,0 -654,84 -880,253 -225,171 -338,401 -338,694 0,271 101,488 305,651 202,164 461,246 778,246zm9201 -6462l-1032 -1606 3028 -2267 1405 0 0 11874 -1946 0 0 -9100 -1455 1099zm9862 -3975c1318,0 2306,542 2959,1624 665,1095 999,2571 999,4432 0,1917 -334,3405 -999,4465 -665,1061 -1641,1591 -2926,1591 -1297,0 -2289,-536 -2977,-1608 -687,-1070 -1031,-2553 -1031,-4448 0,-1906 338,-3391 1014,-4457 677,-1066 1664,-1599 2961,-1599zm-1896 6056c0,2830 644,4246 1929,4246 665,0 1141,-334 1429,-999 288,-665 432,-1748 432,-3247 0,-1489 -147,-2565 -440,-3231 -293,-665 -778,-998 -1454,-998 -666,0 -1148,341 -1447,1024 -299,682 -449,1751 -449,3205zm11266 -6056c1318,0 2306,542 2959,1624 666,1095 999,2571 999,4432 0,1917 -333,3405 -999,4465 -665,1061 -1641,1591 -2926,1591 -1297,0 -2289,-536 -2977,-1608 -687,-1070 -1031,-2553 -1031,-4448 0,-1906 338,-3391 1014,-4457 677,-1066 1664,-1599 2961,-1599zm-1895 6056c0,2830 643,4246 1928,4246 666,0 1141,-334 1429,-999 288,-665 432,-1748 432,-3247 0,-1489 -147,-2565 -440,-3231 -293,-665 -778,-998 -1454,-998 -666,0 -1147,341 -1447,1024 -299,682 -448,1751 -448,3205zm10537 -34c-980,0 -1781,-277 -2402,-829 -620,-552 -930,-1285 -930,-2199 0,-902 310,-1629 930,-2181 621,-553 1422,-830 2402,-830 970,0 1765,277 2386,830 630,563 947,1291 947,2181 0,903 -317,1635 -947,2199 -621,552 -1416,829 -2386,829zm-1505 -3028c0,440 141,793 423,1058 282,265 642,398 1082,398 451,0 818,-133 1099,-398 282,-265 424,-618 424,-1058 0,-428 -144,-775 -432,-1040 -288,-265 -651,-397 -1091,-397 -440,0 -800,132 -1082,397 -282,265 -423,612 -423,1040zm8981 9151c-980,0 -1781,-276 -2402,-828 -619,-553 -930,-1286 -930,-2200 0,-901 311,-1629 930,-2181 621,-553 1422,-830 2402,-830 970,0 1765,277 2386,830 630,563 947,1291 947,2181 0,903 -317,1635 -947,2200 -621,552 -1416,828 -2386,828zm-1505 -3028c0,440 141,793 423,1057 282,265 643,398 1082,398 451,0 818,-133 1100,-398 281,-264 423,-617 423,-1057 0,-428 -144,-775 -432,-1040 -287,-265 -651,-397 -1091,-397 -439,0 -800,132 -1082,397 -282,265 -423,612 -423,1040zm-5937 3045l-1116 -778 8542 -11434 1099 829 -8525 11383z"/>
   <g>
    <path fill="url(#id0)" d="M88701 0c33630,0 60893,27263 60893,60893 0,33631 -27263,60894 -60893,60894 -33631,0 -60894,-27263 -60894,-60894 0,-33630 27263,-60893 60894,-60893zm0 5075c30827,0 55818,24990 55818,55818 0,30828 -24991,55818 -55818,55818 -30828,0 -55819,-24990 -55819,-55818 0,-30828 24991,-55818 55819,-55818z"/>
    <g>
     <path fill="#00262D" d="M67429 55297c-808,-2718 -1071,-4361 -1046,-7382 34,-4125 1573,-8630 3767,-11828 2517,-3670 5716,-6399 10088,-8240 5991,-2522 13037,-2075 18560,757 2761,1416 4483,2896 6404,4910 516,542 853,976 1305,1560 2529,3262 4086,7337 4391,11483 423,5772 -1041,11092 -4523,15573 -7136,9184 -20326,11586 -30239,4828 -1340,-913 -2986,-2301 -4061,-3559 -1876,-2194 -3795,-5243 -4646,-8102zm-3526 9662c136,706 235,1596 307,2350 260,2715 2821,5256 5272,5635 4024,621 4485,56 7125,3725 885,1231 1480,1762 3016,2412 1312,556 3202,714 4587,215 1285,-463 2525,-1307 4023,-1428 3696,-300 5578,3634 10672,633 647,-382 1048,-754 1458,-1261 780,-965 1335,-2086 2459,-2969 1140,-896 2464,-1007 4234,-1209 2889,-329 5172,-2161 5975,-4890 235,-801 321,-3892 858,-4524 125,-423 534,-1031 937,-1438 441,-446 807,-734 1335,-1109l1110 -821c1182,-863 1898,-2139 2291,-3602 767,-2863 -402,-4157 -1163,-6243 -1648,-4520 2966,-5783 827,-11102 -1064,-2652 -4067,-3410 -5269,-5747 -519,-1007 -577,-2188 -733,-3477 -284,-2337 -1264,-3919 -3207,-5180 -3100,-2012 -5850,279 -8693,-3830 -568,-822 -1193,-1699 -1950,-2282 -1568,-1203 -4258,-1888 -6562,-958 -2372,959 -3585,1978 -6515,758 -813,-339 -2059,-1017 -2977,-1140 -1343,-181 -2655,35 -3716,458 -2630,1047 -2821,2521 -4288,4083 -2177,2319 -4073,1541 -6236,2132 -2017,553 -3641,2144 -4459,3940 -1236,2716 735,5254 -4140,8366 -1778,1135 -2825,3300 -2885,5498 -40,1486 381,2315 862,3389 1280,2869 1136,3776 -78,6512 -492,1107 -874,1882 -776,3376 90,1355 415,2289 962,3270 1726,3094 4618,2700 5337,6458z"/>
     <path fill="#00262D" d="M106496 76291c-2237,-142 -2727,1885 -4086,3376 -1135,1247 -2931,2272 -4605,2709 -2454,644 -3125,175 -4521,251 -787,2368 -1584,4802 -2322,7168 -760,2438 -762,1377 -34,3707 435,1391 3099,9957 3586,10525 1033,1207 1978,-1096 2338,-1775l3253 -6190c839,-1591 1098,-2721 2231,-2195 2681,1247 5288,2630 7933,3911 498,242 1075,564 1593,752 665,241 1377,202 1473,-526 69,-529 -522,-2320 -990,-3758l-5849 -17955z"/>
     <path fill="#00262D" d="M65102 94126c-1135,3593 2123,1487 3784,677l6761 -3342c905,-452 1197,-232 1593,483 1538,2786 3063,5726 4499,8576 503,998 1469,2167 2246,480l6349 -19493c-1879,-1252 -3579,263 -5246,818 -3491,1162 -8030,-160 -10367,-2938 -544,-649 -942,-1357 -1473,-1997 -280,-340 -513,-639 -919,-820 -344,-154 -1020,-306 -1447,-279l-5780 17835z"/>
     <path fill="#6FBE63" d="M85218 50129c-392,-149 -4298,-4593 -5539,-5272 -4027,-2203 -8055,2963 -4718,6375l5430 5434c1545,1541 2273,2740 4300,2959 2040,220 2877,-551 3899,-1547 3884,-3788 7938,-7914 11775,-11763 622,-626 1187,-1188 1811,-1811 3853,-3844 -489,-8434 -4104,-6810 -928,416 -1340,916 -2016,1595 -1215,1219 -2394,2394 -3622,3622 -2261,2263 -5081,4979 -7216,7218z"/>
     <path fill="#545454" d="M113040 39666c-377,175 -359,844 175,492 169,-111 350,-169 297,-376 -59,-231 -300,-195 -472,-116z"/>
    </g>
   </g>
  </g>
 </g>
</svg>
