<?xml version="1.0" encoding="UTF-8" standalone="no"?>
<!-- Creator: CorelDRAW X8 -->

<svg
   xmlns:dc="http://purl.org/dc/elements/1.1/"
   xmlns:cc="http://creativecommons.org/ns#"
   xmlns:rdf="http://www.w3.org/1999/02/22-rdf-syntax-ns#"
   xmlns:svg="http://www.w3.org/2000/svg"
   xmlns="http://www.w3.org/2000/svg"
   xmlns:sodipodi="http://sodipodi.sourceforge.net/DTD/sodipodi-0.dtd"
   xmlns:inkscape="http://www.inkscape.org/namespaces/inkscape"
   xml:space="preserve"
   width="75px"
   height="92px"
   version="1.1"
   shape-rendering="geometricPrecision"
   text-rendering="geometricPrecision"
   image-rendering="optimizeQuality"
   fill-rule="evenodd"
   clip-rule="evenodd"
   viewBox="0 0 30663 37566"
   id="svg2"
   inkscape:version="0.91 r13725"
   sodipodi:docname="green-mouse.svg"><metadata
     id="metadata15"><rdf:RDF><cc:Work
         rdf:about=""><dc:format>image/svg+xml</dc:format><dc:type
           rdf:resource="http://purl.org/dc/dcmitype/StillImage" /><dc:title></dc:title></cc:Work></rdf:RDF></metadata><defs
     id="defs13" /><sodipodi:namedview
     pagecolor="#ffffff"
     bordercolor="#666666"
     borderopacity="1"
     objecttolerance="10"
     gridtolerance="10"
     guidetolerance="10"
     inkscape:pageopacity="0"
     inkscape:pageshadow="2"
     inkscape:window-width="1280"
     inkscape:window-height="743"
     id="namedview11"
     showgrid="false"
     inkscape:zoom="2.5652174"
     inkscape:cx="-19.610169"
     inkscape:cy="46"
     inkscape:window-x="0"
     inkscape:window-y="0"
     inkscape:window-maximized="1"
     inkscape:current-layer="Слой_x0020_1" /><g
     id="Слой_x0020_1"
     style="fill:#ff0000"><metadata
       id="CorelCorpID_0Corel-Layer" /><g
       id="_1098398016"
       style="fill:#6ec559;fill-opacity:1"
       transform="matrix(0.8660254,-0.50000001,0.49999999,0.8660254,-7337.4603,10182.154)"><path
         d="m 26872,27916 c 449,-1250 733,-2512 880,-3713 153,-1203 182,-2341 193,-3368 13,-1026 36,-1949 210,-2703 160,-761 502,-1323 874,-1718 374,-396 766,-617 1023,-776 272,-141 417,-216 417,-216 l 22,-12 c 153,-79 215,-264 139,-421 -77,-163 -272,-233 -434,-158 0,0 -164,74 -468,217 -297,164 -751,390 -1228,845 -471,449 -937,1155 -1160,2025 -242,865 -303,1840 -367,2867 -67,1028 -120,2122 -304,3251 -176,1130 -482,2293 -938,3442 -450,1150 -1069,2279 -1785,3365 -723,1070 -1578,2070 -2579,2878 -996,811 -2132,1435 -3330,1794 -1195,362 -2442,470 -3634,361 -2389,-231 -4523,-1252 -5972,-2470 -726,-610 -1305,-1255 -1689,-1878 -221,-354 -376,-692 -486,-1006 -544,-203 -1061,-437 -1523,-711 l -29,-17 c -132,-82 -259,-182 -388,-273 0,170 10,351 34,544 77,726 362,1563 863,2376 499,815 1189,1626 2070,2341 1741,1430 4209,2581 7014,2760 1394,90 2857,-76 4243,-538 1388,-460 2679,-1223 3777,-2171 1106,-945 2013,-2074 2761,-3254 730,-1180 1347,-2409 1794,-3663 z"
         id="path7"
         style="fill:#6ec559;fill-rule:nonzero;fill-opacity:1"
         inkscape:connector-curvature="0" /><path
         d="m 21568,17621 c -1177,-394 -2279,-1163 -3098,-2272 -1162,-1574 -637,-3288 105,-4293 -152,1147 150,2424 962,3524 1510,2043 4149,2674 5898,1412 1750,-1261 359,-3288 -1149,-5330 -380,-514 -730,-979 -1071,-1369 1480,-5293 837,-8139 -542,-8979 -1403,-854 -4297,-86 -8428,3828 -245,-52 -497,-100 -763,-151 -2495,-471 -4925,-841 -5302,1282 -376,2123 1339,4225 3834,4696 1300,245 2543,-9 3502,-598 -397,1249 -1731,2269 -3730,1892 -1549,-293 -2858,-1108 -3743,-2196 -3302,2393 -6488,4705 -7522,6925 -1752,3750 1181,10373 4879,12691 3755,2220 10987,1785 13514,-1493 1460,-1891 2059,-5643 2654,-9569 z M 17084,4606 c -366,-223 -485,-696 -265,-1057 220,-362 695,-472 1061,-249 368,224 487,696 266,1058 -220,361 -694,472 -1062,248 z m 4054,1573 c 220,-362 693,-473 1062,-249 365,222 487,696 267,1058 -220,361 -698,471 -1063,248 -368,-223 -486,-696 -266,-1057 z"
         id="path9"
         style="fill:#6ec559;fill-rule:nonzero;fill-opacity:1"
         inkscape:connector-curvature="0" /></g></g></svg>