<?xml version="1.0" encoding="UTF-8" standalone="no"?>
<!-- Creator: CorelDRAW X8 -->

<svg
   xmlns:dc="http://purl.org/dc/elements/1.1/"
   xmlns:cc="http://creativecommons.org/ns#"
   xmlns:rdf="http://www.w3.org/1999/02/22-rdf-syntax-ns#"
   xmlns:svg="http://www.w3.org/2000/svg"
   xmlns="http://www.w3.org/2000/svg"
   xmlns:sodipodi="http://sodipodi.sourceforge.net/DTD/sodipodi-0.dtd"
   xmlns:inkscape="http://www.inkscape.org/namespaces/inkscape"
   xml:space="preserve"
   width="5px"
   height="11px"
   version="1.1"
   shape-rendering="geometricPrecision"
   text-rendering="geometricPrecision"
   image-rendering="optimizeQuality"
   fill-rule="evenodd"
   clip-rule="evenodd"
   viewBox="0 0 134 304"
   id="svg2"
   inkscape:version="0.91 r13725"
   sodipodi:docname="green-mole.svg"><metadata
     id="metadata12"><rdf:RDF><cc:Work
         rdf:about=""><dc:format>image/svg+xml</dc:format><dc:type
           rdf:resource="http://purl.org/dc/dcmitype/StillImage" /><dc:title></dc:title></cc:Work></rdf:RDF></metadata><defs
     id="defs10" /><sodipodi:namedview
     pagecolor="#ffffff"
     bordercolor="#666666"
     borderopacity="1"
     objecttolerance="10"
     gridtolerance="10"
     guidetolerance="10"
     inkscape:pageopacity="0"
     inkscape:pageshadow="2"
     inkscape:window-width="1280"
     inkscape:window-height="743"
     id="namedview8"
     showgrid="false"
     inkscape:zoom="21.454545"
     inkscape:cx="2.5"
     inkscape:cy="5.5"
     inkscape:window-x="0"
     inkscape:window-y="0"
     inkscape:window-maximized="1"
     inkscape:current-layer="Слой_x0020_1" /><g
     id="Слой_x0020_1"><metadata
       id="CorelCorpID_0Corel-Layer" /><path
       fill="white"
       fill-rule="nonzero"
       d="M67 304c3,0 6,0 10,-1 13,-3 27,-13 38,-28 13,-16 21,-39 19,-65 -1,-14 -4,-28 -11,-43 0,0 -5,-23 -9,-44 -3,-16 -6,-31 -6,-31 -1,-4 -1,-9 -2,-13 -3,-21 -7,-31 -12,-40 -9,-15 -16,-15 -21,-30 0,-1 -1,-2 -1,-4 0,0 0,0 0,0 -1,-1 -1,-2 -1,-3 0,0 -1,-1 -1,-1 0,-1 -1,0 -3,-1 -1,1 -2,0 -3,1 0,0 0,1 0,1 -1,1 -1,2 -1,3 0,0 0,0 0,0 -1,2 -1,3 -2,4 -5,15 -12,15 -20,30 -6,9 -10,19 -13,40 0,4 -1,9 -1,13 0,0 -3,15 -7,31 -4,21 -9,44 -9,44 -6,14 -10,28 -11,42 -1,26 6,48 18,65 13,19 31,30 47,30 1,0 2,0 2,0zm17 -263c2,-1 6,2 8,7 2,5 2,10 0,10 -2,1 -5,-2 -7,-6 -3,-5 -3,-10 -1,-11zm-35 11c-2,4 -6,7 -8,6 -2,0 -2,-5 1,-10 2,-5 5,-8 7,-7 2,1 2,6 0,11z"
       id="path6"
       style="fill:#6ec559;fill-opacity:1" /></g></svg>