<?xml version="1.0" encoding="UTF-8" standalone="no"?>
<!-- Creator: CorelDRAW X8 -->

<svg
   xmlns:dc="http://purl.org/dc/elements/1.1/"
   xmlns:cc="http://creativecommons.org/ns#"
   xmlns:rdf="http://www.w3.org/1999/02/22-rdf-syntax-ns#"
   xmlns:svg="http://www.w3.org/2000/svg"
   xmlns="http://www.w3.org/2000/svg"
   xmlns:sodipodi="http://sodipodi.sourceforge.net/DTD/sodipodi-0.dtd"
   xmlns:inkscape="http://www.inkscape.org/namespaces/inkscape"
   xml:space="preserve"
   width="15px"
   height="13px"
   version="1.1"
   shape-rendering="geometricPrecision"
   text-rendering="geometricPrecision"
   image-rendering="optimizeQuality"
   fill-rule="evenodd"
   clip-rule="evenodd"
   viewBox="0 0 1233 1044"
   id="svg11"
   inkscape:version="0.91 r13725"
   sodipodi:docname="green-rat.svg"><metadata
     id="metadata21"><rdf:RDF><cc:Work
         rdf:about=""><dc:format>image/svg+xml</dc:format><dc:type
           rdf:resource="http://purl.org/dc/dcmitype/StillImage" /><dc:title></dc:title></cc:Work></rdf:RDF></metadata><defs
     id="defs19" /><sodipodi:namedview
     pagecolor="#ffffff"
     bordercolor="#666666"
     borderopacity="1"
     objecttolerance="10"
     gridtolerance="10"
     guidetolerance="10"
     inkscape:pageopacity="0"
     inkscape:pageshadow="2"
     inkscape:window-width="1280"
     inkscape:window-height="743"
     id="namedview17"
     showgrid="false"
     inkscape:zoom="18.153846"
     inkscape:cx="7.5"
     inkscape:cy="6.5"
     inkscape:window-x="0"
     inkscape:window-y="0"
     inkscape:window-maximized="1"
     inkscape:current-layer="Слой_x0020_1" /><g
     id="Слой_x0020_1"><metadata
       id="CorelCorpID_0Corel-Layer" /><path
       fill="white"
       d="M1061 95l-2 6c-1,1 2,0 -2,1 0,0 -2,0 -2,0l-61 -6c-12,0 -47,2 -57,6 0,-5 8,-21 8,-32 -2,3 -3,10 -5,16 -2,4 -5,12 -6,16l-8 2c0,-9 2,-20 1,-28l-4 28c-3,2 -7,4 -11,4 -1,-5 -1,-8 -2,-12l-3 -8c0,0 -1,-1 -1,-2 -1,-2 0,0 -1,-2 1,7 5,18 3,25l-15 6c-4,2 -11,6 -15,7 -10,-10 -20,-19 -35,-23 -9,-2 -30,-2 -37,3 -4,3 -4,5 -6,9 -9,-2 -15,-5 -24,-3 -6,1 -15,6 -19,10 -8,8 -11,40 -10,49 -7,-2 -17,-7 -24,-11 -21,-10 -55,-19 -79,-23 -45,-6 -73,-13 -118,3 -26,10 -44,20 -67,34 -22,14 -40,27 -59,44 -4,4 -34,33 -34,33 -1,3 -5,7 -7,10 -2,2 -1,1 -3,2 0,1 -21,27 -24,31 -44,59 -77,107 -99,180 -4,16 -14,50 -17,67 -5,30 1,22 -17,39 -26,23 -58,35 -87,53 -27,16 -72,50 -90,77 -13,19 -20,45 -22,69 -1,18 1,35 5,52 2,8 4,15 8,22 15,38 43,80 75,104 34,25 90,39 132,47 71,13 165,11 239,11 29,0 58,-2 87,-3 177,-5 271,-13 447,28 11,2 28,8 37,8 0,-6 -16,-13 -21,-15 -27,-13 -51,-23 -81,-30 -18,-4 -46,-10 -67,-13 -81,-13 -126,-17 -212,-19 -74,-2 -154,3 -227,-1 -66,-3 -148,-4 -210,-20 -22,-5 -42,-11 -61,-21 -17,-10 -33,-21 -46,-37 -13,-15 -24,-33 -32,-52 -8,-19 -13,-49 -5,-70 6,-19 17,-37 33,-48 11,-8 48,-23 61,-22 2,1 5,6 6,9 7,12 13,17 24,23 47,29 83,5 127,-1 89,-14 74,-29 127,-51 6,8 -4,22 5,35 8,12 16,12 30,11 28,-3 33,-14 74,-5 2,20 -10,24 -8,30 3,9 31,8 37,8 37,-1 82,-19 118,-13 17,3 47,17 62,11l4 6c7,-2 2,-10 2,-10 -1,-5 3,-2 -3,-9 16,-2 15,1 22,2 6,1 6,-2 11,0 5,2 5,5 9,5 3,-10 -8,-12 -12,-18 15,2 11,6 19,-1 7,3 6,6 11,9 3,-21 -11,-12 -18,-20l1 -3c10,-1 8,1 16,5 0,-15 -18,-13 -23,-16 -4,-2 -5,-2 -10,-2 -16,0 -31,4 -48,3 -28,-1 -18,-1 -47,1 -10,1 -24,4 -34,4l-12 0c0,0 0,-1 0,-1 2,-5 3,-1 13,-3 7,-2 6,-1 13,0 -5,-12 -15,-12 -27,-14 -11,-2 -23,-6 -34,-8 0,-2 22,-38 24,-43 7,-12 14,-40 22,-47 8,-9 19,-3 27,-5 22,-5 36,-15 55,-3 42,25 23,18 69,45 5,3 10,7 14,11 4,3 7,9 11,14 7,10 33,53 39,58 0,3 0,3 -1,5 -1,2 -1,3 -3,4 -4,0 -15,1 -14,6 0,0 0,0 1,0 5,-1 2,-1 10,-1l3 4c4,-1 5,-4 8,-7 3,3 5,5 9,6 3,1 5,2 9,3 12,10 20,9 32,11 3,1 3,2 5,4 5,4 4,-2 15,4 3,3 2,3 4,6 2,-3 3,-8 0,-11 -3,-5 -6,-1 -7,-8l4 -1c3,-1 3,-1 5,-3 3,-2 4,-3 8,-4 6,1 7,5 12,8 6,-2 2,-3 10,-3 8,0 4,0 10,2 0,-13 -22,-3 -21,-16 12,0 10,-1 15,2 -1,-8 -11,-7 -18,-8 -3,-2 -7,-4 -10,-5 -15,7 -14,7 -33,3 -24,-5 -22,-14 -29,-35 -4,-11 -8,-23 -11,-34 -7,-29 -1,-54 3,-82 2,2 7,11 9,15 6,11 3,10 3,21 0,8 -3,16 -1,23 3,6 -2,13 -6,17 8,0 11,-4 13,-11 2,-6 2,-3 5,-7 2,-2 3,-5 5,-8 7,3 7,14 6,20 12,-9 2,-22 7,-33 2,1 0,-2 3,7 10,29 0,23 1,32 0,4 2,3 3,7 0,7 -4,10 -7,15 10,-4 12,-10 13,-12 3,-5 7,-4 5,-20 -1,-14 -3,-32 -6,-45 -1,-7 -1,-14 -3,-21 -2,-7 -7,-9 -12,-13 -9,-6 -22,-14 -27,-24 1,-4 9,-18 12,-20 24,-39 22,-106 25,-110 11,-7 15,-10 21,-22 4,-9 10,-19 15,-28 11,-22 25,-27 44,-42 34,-28 57,-45 80,-82 1,-1 1,-1 2,-2 1,-1 1,-2 3,-3 -1,4 0,1 -2,4 1,11 -3,23 -5,34 -3,13 -26,97 -26,97 2,-1 1,0 2,-2l4 -10c11,-32 21,-70 27,-103l1 3c4,21 9,104 10,106 4,-7 -6,-91 -9,-108 -1,-8 -1,-10 0,-18 1,-7 2,-8 9,-12 5,14 6,18 6,33 0,27 -1,53 -2,79 0,12 -1,29 0,40 2,-3 3,-60 4,-69l1 0c3,-2 1,-41 1,-46 0,-13 -5,-30 -4,-42 3,-3 7,-5 9,-9l2 -3c0,0 0,0 0,0 11,6 33,37 40,49l23 43c3,5 5,11 8,15 1,-2 0,-3 -2,-7l-10 -23c-6,-10 -10,-18 -16,-28 -15,-25 -21,-30 -38,-49 6,1 19,7 25,10 10,5 18,8 26,14l21 14c0,0 0,0 1,0 5,4 16,15 20,16 -5,-6 -11,-11 -17,-16 -23,-17 -54,-34 -80,-42 0,-14 4,-28 8,-41 4,-16 11,-19 -7,-26l-5 -3 48 -58c-6,2 -35,42 -43,51 -3,3 -4,6 -8,7l3 -18c1,-10 1,-10 6,-18 3,-6 13,-25 13,-30l-14 27c-1,3 0,2 -3,4 0,-9 2,-27 -3,-34 0,6 1,14 1,20 0,27 -4,23 -16,46 -10,1 -12,1 -22,-4 5,-14 15,-29 19,-44 -5,5 -18,41 -23,43 3,-7 5,-17 7,-25 3,-8 4,-17 5,-26 0,-4 1,-3 2,-6l1 -22c1,-12 -1,-19 -2,-30 0,7 1,18 1,27l-1 12c-3,20 -1,13 -6,39 -2,8 -5,18 -6,25l-3 -25c-1,-9 -3,-16 -4,-24 -2,-7 -14,-38 -19,-35 8,7 15,29 16,38 4,18 5,31 5,51l-12 -4c-2,-12 -7,-39 -13,-49 -8,-13 -15,-28 -29,-35 4,6 9,9 13,14 4,5 8,11 10,17 10,19 7,22 6,44zm57 19c2,-3 4,-6 6,-8 1,-3 3,-7 6,-9l-5 19 -7 -2zm-56 -11c0,-4 1,-10 1,-14 1,-3 1,-9 3,-12l5 27 -9 -1z"
       id="path15"
       style="fill:#6ec559;fill-opacity:1" /></g></svg>