<?xml version="1.0" encoding="UTF-8"?>
<!DOCTYPE svg PUBLIC "-//W3C//DTD SVG 1.1//EN" "http://www.w3.org/Graphics/SVG/1.1/DTD/svg11.dtd">
<!-- Creator: CorelDRAW X8 -->
<svg xmlns="http://www.w3.org/2000/svg" xml:space="preserve" width="5px" height="11px" version="1.1" shape-rendering="geometricPrecision" text-rendering="geometricPrecision" image-rendering="optimizeQuality" fill-rule="evenodd" clip-rule="evenodd"
viewBox="0 0 134 304"
 xmlns:xlink="http://www.w3.org/1999/xlink">
 <g id="Слой_x0020_1">
  <metadata id="CorelCorpID_0Corel-Layer"/>
  <path fill="white" fill-rule="nonzero" d="M67 304c3,0 6,0 10,-1 13,-3 27,-13 38,-28 13,-16 21,-39 19,-65 -1,-14 -4,-28 -11,-43 0,0 -5,-23 -9,-44 -3,-16 -6,-31 -6,-31 -1,-4 -1,-9 -2,-13 -3,-21 -7,-31 -12,-40 -9,-15 -16,-15 -21,-30 0,-1 -1,-2 -1,-4 0,0 0,0 0,0 -1,-1 -1,-2 -1,-3 0,0 -1,-1 -1,-1 0,-1 -1,0 -3,-1 -1,1 -2,0 -3,1 0,0 0,1 0,1 -1,1 -1,2 -1,3 0,0 0,0 0,0 -1,2 -1,3 -2,4 -5,15 -12,15 -20,30 -6,9 -10,19 -13,40 0,4 -1,9 -1,13 0,0 -3,15 -7,31 -4,21 -9,44 -9,44 -6,14 -10,28 -11,42 -1,26 6,48 18,65 13,19 31,30 47,30 1,0 2,0 2,0zm17 -263c2,-1 6,2 8,7 2,5 2,10 0,10 -2,1 -5,-2 -7,-6 -3,-5 -3,-10 -1,-11zm-35 11c-2,4 -6,7 -8,6 -2,0 -2,-5 1,-10 2,-5 5,-8 7,-7 2,1 2,6 0,11z"/>
 </g>
</svg>
