<?xml version="1.0" encoding="UTF-8"?>
<!DOCTYPE svg PUBLIC "-//W3C//DTD SVG 1.1//EN" "http://www.w3.org/Graphics/SVG/1.1/DTD/svg11.dtd">
<!-- Creator: CorelDRAW X8 -->
<svg xmlns="http://www.w3.org/2000/svg" xml:space="preserve" width="133px" height="101px" version="1.1" shape-rendering="geometricPrecision" text-rendering="geometricPrecision" image-rendering="optimizeQuality" fill-rule="evenodd" clip-rule="evenodd"
viewBox="0 0 94702 72070"
 xmlns:xlink="http://www.w3.org/1999/xlink">
 <g id="Слой_x0020_1">
  <metadata id="CorelCorpID_0Corel-Layer"/>
  <g id="_1445975376">
   <path fill="#434345" fill-rule="nonzero" d="M83142 0l-71561 0c-6388,0 -11581,5193 -11581,11581l0 48909c0,6388 5193,11580 11581,11580l71540 0c6388,0 11581,-5192 11581,-11580l0 -48890c19,-6387 -5173,-11600 -11560,-11600zm6289 60490c0,3469 -2821,6290 -6289,6290l-71561 0c-3469,0 -6290,-2821 -6290,-6290l0 -48890c0,-3468 2821,-6290 6290,-6290l71540 0c3469,0 6290,2822 6290,6290l0 48890 20 0z"/>
   <path fill="#434345" fill-rule="nonzero" d="M59725 35428l23161 -20770c1079,-981 1176,-2646 196,-3744 -979,-1078 -2646,-1174 -3742,-195l-31940 28668 -6232 -5566c-18,-19 -38,-39 -38,-59 -138,-136 -275,-254 -432,-372l-25355 -22691c-1097,-979 -2764,-882 -3743,215 -980,1098 -881,2763 215,3744l23437 20946 -23338 21848c-1059,1001 -1118,2666 -118,3744 530,548 1234,842 1939,842 648,0 1294,-235 1804,-706l23690 -22161 6426 5741c511,450 1137,666 1765,666 626,0 1274,-234 1764,-685l6603 -5918 23553 22377c509,490 1175,726 1822,726 705,0 1391,-275 1920,-824 999,-1057 961,-2743 -98,-3742l-23259 -22084z"/>
  </g>
 </g>
</svg>
