<?xml version="1.0" encoding="UTF-8"?>
<!DOCTYPE svg PUBLIC "-//W3C//DTD SVG 1.1//EN" "http://www.w3.org/Graphics/SVG/1.1/DTD/svg11.dtd">
<!-- Creator: CorelDRAW X8 -->
<svg xmlns="http://www.w3.org/2000/svg" xml:space="preserve" width="121px" height="107px" version="1.1" shape-rendering="geometricPrecision" text-rendering="geometricPrecision" image-rendering="optimizeQuality" fill-rule="evenodd" clip-rule="evenodd"
viewBox="0 0 78365 69390"
 xmlns:xlink="http://www.w3.org/1999/xlink">
 <g id="Слой_x0020_1">
  <metadata id="CorelCorpID_0Corel-Layer"/>
  <g id="_1445977328">
   <path fill="#434345" fill-rule="nonzero" d="M37445 44536c496,437 1117,656 1738,656 622,0 1241,-219 1738,-656 629,-554 15406,-13726 15406,-27386 0,-9456 -7690,-17150 -17144,-17150 -9454,0 -17145,7694 -17145,17150 0,13660 14777,26832 15407,27386zm1738 -31867c2455,0 4445,2006 4445,4481 0,2477 -1990,4482 -4445,4482 -2455,0 -4445,-2007 -4445,-4482 0,-2475 1990,-4481 4445,-4481z"/>
   <path fill="#434345" fill-rule="nonzero" d="M72126 44529l-1985 -6960c-322,-1128 -1354,-1908 -2529,-1908l-14174 0c-512,761 -1053,1527 -1625,2296 -3972,5337 -8011,8947 -8460,9343 -1153,1015 -2633,1574 -4170,1574 -1535,0 -3017,-559 -4172,-1576 -447,-394 -4486,-4005 -8459,-9341 -572,-769 -1111,-1535 -1624,-2296l-14175 0c-1174,0 -2206,780 -2529,1908l-2367 8294 52912 9692 13357 -11026z"/>
   <path fill="#434345" fill-rule="nonzero" d="M78265 66037l-5075 -17783 -25175 21136 27721 0c825,0 1602,-389 2099,-1047 496,-658 655,-1512 430,-2306z"/>
   <path fill="#434345" fill-rule="nonzero" d="M12875 50892l-8032 -1472 -4742 16617c-225,794 -67,1648 430,2306 496,658 1273,1045 2099,1045l10245 0 0 -18496z"/>
   <polygon fill="#434345" fill-rule="nonzero" points="16556,51567 16556,69388 42289,69388 55109,58628 "/>
  </g>
 </g>
</svg>
