<?xml version="1.0" encoding="UTF-8"?>
<!DOCTYPE svg PUBLIC "-//W3C//DTD SVG 1.1//EN" "http://www.w3.org/Graphics/SVG/1.1/DTD/svg11.dtd">
<!-- Creator: CorelDRAW X8 -->
<svg xmlns="http://www.w3.org/2000/svg" xml:space="preserve" width="107px" height="107px" version="1.1" shape-rendering="geometricPrecision" text-rendering="geometricPrecision" image-rendering="optimizeQuality" fill-rule="evenodd" clip-rule="evenodd"
viewBox="0 0 61442 61443"
 xmlns:xlink="http://www.w3.org/1999/xlink">
 <g id="Слой_x0020_1">
  <metadata id="CorelCorpID_0Corel-Layer"/>
  <path fill="#434345" fill-rule="nonzero" d="M52437 9002c-12003,-12003 -31453,-12003 -43442,0 -11544,11543 -11979,30008 -1289,42076l318 255c-1161,2505 -3155,5594 -6320,7151 -1048,511 -807,2070 344,2248 3460,536 8426,-64 13063,-3564l64 53c11774,6920 27173,5338 37288,-4777 11977,-11990 11977,-31453 -26,-43442zm-7763 22295c-615,-3574 -2299,-6819 -4866,-9399 -2706,-2707 -6143,-4417 -9934,-4953l382 -2733c4380,612 8365,2593 11493,5734 2975,2975 4929,6742 5645,10879l-2720 472zm-3831 12567c-677,689 -1392,1328 -2031,2044 -931,1045 -2108,1376 -3436,1302 -1941,-103 -3742,-756 -5465,-1596 -3844,-1867 -7127,-4457 -9871,-7727 -2031,-2414 -3703,-5044 -4814,-8019 -536,-1443 -918,-2911 -804,-4470 76,-957 435,-1774 1135,-2450 768,-729 1482,-1482 2235,-2224 983,-969 2211,-958 3192,0 615,601 1201,1201 1800,1802 589,586 1177,1161 1751,1748 1023,1036 1023,2235 0,3268 -728,743 -1456,1483 -2210,2198 -190,191 -217,345 -114,587 485,1174 1202,2221 1992,3192 1596,1967 3409,3717 5581,5071 459,292 970,496 1455,765 242,142 422,90 613,-115 729,-753 1482,-1492 2222,-2235 983,-970 2208,-970 3179,0 1201,1188 2389,2376 3576,3577 1021,1047 1021,2272 14,3282zm-11327 -19845l382 -2732c2643,369 5045,1570 6935,3458 1801,1803 2975,4063 3397,6552l-2720 474c-332,-1927 -1241,-3677 -2630,-5069 -1469,-1471 -3322,-2402 -5364,-2683z"/>
 </g>
</svg>
