<?xml version="1.0" encoding="UTF-8"?>
<!DOCTYPE svg PUBLIC "-//W3C//DTD SVG 1.1//EN" "http://www.w3.org/Graphics/SVG/1.1/DTD/svg11.dtd">
<!-- Creator: CorelDRAW X8 -->
<svg xmlns="http://www.w3.org/2000/svg" xml:space="preserve" width="110px" height="101px" version="1.1" shape-rendering="geometricPrecision" text-rendering="geometricPrecision" image-rendering="optimizeQuality" fill-rule="evenodd" clip-rule="evenodd"
viewBox="0 0 64332 59475"
 xmlns:xlink="http://www.w3.org/1999/xlink">
 <g id="Слой_x0020_1">
  <metadata id="CorelCorpID_0Corel-Layer"/>
  <g id="_1445922608">
   <path fill="#434345" fill-rule="nonzero" d="M64206 25109c-226,-474 -701,-774 -1228,-774l-4004 0c-2553,-13828 -14683,-24335 -29240,-24335 -16394,0 -29734,13340 -29734,29734 0,16400 13340,29741 29734,29741 10586,0 20452,-5695 25759,-14865 747,-1288 305,-2946 -991,-3695 -1288,-748 -2946,-307 -3689,988 -4344,7499 -12418,12165 -21079,12165 -13413,0 -24327,-10913 -24327,-24334 0,-13413 10914,-24328 24327,-24328 11556,0 21240,8108 23706,18921l-3977 0c-527,0 -1003,308 -1223,782 -227,475 -154,1035 188,1437l6757 8114c253,308 634,481 1035,481 402,0 781,-173 1036,-481l6763 -8114c334,-402 408,-962 187,-1437z"/>
   <path fill="#434345" fill-rule="nonzero" d="M29734 6756c-1490,0 -2699,1210 -2699,2707l0 16400c-1224,856 -2026,2275 -2026,3871 0,2612 2118,4732 4732,4732 716,0 1383,-167 1991,-455l9404 5427c428,249 889,368 1350,368 936,0 1844,-488 2346,-1357 742,-1290 300,-2941 -989,-3688l-9417 -5434c-127,-1430 -870,-2682 -1985,-3464l0 -16400c0,-1490 -1209,-2707 -2707,-2707zm0 25010c-1115,0 -2025,-910 -2025,-2032 0,-1116 910,-2024 2025,-2024 1123,0 2032,908 2032,2024 0,1122 -909,2032 -2032,2032z"/>
  </g>
 </g>
</svg>
