<?xml version="1.0" encoding="UTF-8" standalone="no"?>
<!-- Creator: CorelDRAW X8 -->

<svg
   xmlns:dc="http://purl.org/dc/elements/1.1/"
   xmlns:cc="http://creativecommons.org/ns#"
   xmlns:rdf="http://www.w3.org/1999/02/22-rdf-syntax-ns#"
   xmlns:svg="http://www.w3.org/2000/svg"
   xmlns="http://www.w3.org/2000/svg"
   xmlns:sodipodi="http://sodipodi.sourceforge.net/DTD/sodipodi-0.dtd"
   xmlns:inkscape="http://www.inkscape.org/namespaces/inkscape"
   xml:space="preserve"
   width="18px"
   height="13px"
   version="1.1"
   shape-rendering="geometricPrecision"
   text-rendering="geometricPrecision"
   image-rendering="optimizeQuality"
   fill-rule="evenodd"
   clip-rule="evenodd"
   viewBox="0 0 1936 1386"
   id="svg2"
   inkscape:version="0.91 r13725"
   sodipodi:docname="borsh.svg"><metadata
     id="metadata12"><rdf:RDF><cc:Work
         rdf:about=""><dc:format>image/svg+xml</dc:format><dc:type
           rdf:resource="http://purl.org/dc/dcmitype/StillImage" /></cc:Work></rdf:RDF></metadata><defs
     id="defs10" /><sodipodi:namedview
     pagecolor="#ffffff"
     bordercolor="#666666"
     borderopacity="1"
     objecttolerance="10"
     gridtolerance="10"
     guidetolerance="10"
     inkscape:pageopacity="0"
     inkscape:pageshadow="2"
     inkscape:window-width="1280"
     inkscape:window-height="743"
     id="namedview8"
     showgrid="false"
     inkscape:zoom="17"
     inkscape:cx="9"
     inkscape:cy="6.5"
     inkscape:window-x="0"
     inkscape:window-y="0"
     inkscape:window-maximized="1"
     inkscape:current-layer="svg2" /><g
     id="Слой_x0020_1"
     style="fill:#64c24d;fill-opacity:1"><metadata
       id="CorelCorpID_0Corel-Layer" /><path
       fill="white"
       d="M1101 1386l-12 0c0,-29 0,-59 -1,-89 -1,-27 -14,-210 -19,-224l-32 -3 7 19c-9,-1 -13,-4 -17,-9 -8,20 13,194 15,231 2,26 3,51 3,75l-12 0c-3,-115 -11,-266 -27,-291 -25,10 -10,49 -15,78 -7,35 -20,31 -40,48 -7,26 -6,52 -30,66 -28,15 -50,-9 -66,-21 -26,7 -98,63 -109,-39l-41 2c-25,-31 -19,-30 -18,-71 -22,-22 -38,-43 -36,-76 2,-14 7,-31 14,-42 16,-23 20,-6 34,-21 -1,0 -2,-1 -3,-2 -57,-24 -49,7 -54,25 -11,35 -38,38 -56,53 -22,26 -12,40 -53,58 -42,18 -49,12 -79,-12 -15,-4 -55,33 -90,18 -29,-11 -31,-51 -34,-79 -36,-9 -48,-30 -45,-69 5,-51 29,-13 12,-87 -10,-47 42,-115 91,-94l16 3c6,-17 -20,-19 -37,-24 -65,-20 -65,-22 -92,14 -17,21 -25,10 -45,18 -18,35 -21,84 -74,62 -13,-6 -14,-23 -26,-33l-10 6c-36,14 -48,7 -71,-15 -6,-46 -24,-26 -41,-56 -14,-27 -8,-43 8,-63 -7,-20 -23,-42 -10,-65 13,-23 37,-15 60,-17 0,-16 0,-31 1,-47 2,-28 4,-25 13,-31 30,-18 39,-8 66,2 25,-15 31,-43 73,-29 34,12 28,38 44,59 15,19 41,17 53,48 5,13 8,32 5,49 -3,16 -11,18 -23,28 20,9 6,2 25,-3 4,8 2,9 11,14 4,2 15,4 20,5 32,8 103,32 112,31 73,-12 57,28 85,51 5,4 11,6 14,10 3,3 5,7 9,12 22,4 33,-7 52,12 21,21 22,12 50,18 36,8 94,32 103,28l5 -30c-127,16 -93,-76 -96,-84 -26,-32 -44,-27 -37,-80 -34,-16 -9,-12 -29,-33 -10,-10 -26,-18 -38,-26 -82,-64 -9,-3 -80,-37 -21,11 -18,20 -49,27 -75,17 -39,-41 -64,-59 -49,-17 -19,-8 -49,-34 -32,-6 -51,-6 -54,-45 -3,-49 -17,-20 -18,-79 12,-11 12,-20 33,-25 31,-9 27,11 44,2 12,-18 5,-49 26,-67 28,-23 45,-7 72,-4 0,0 94,-78 110,13 60,-18 44,-14 71,22 9,12 9,13 8,28 -15,-3 -11,-13 -21,-28 -6,-10 -5,-16 -40,-15 -4,10 -6,0 -11,17 -77,11 4,69 17,86 -20,13 -23,16 -12,46 3,10 15,39 18,45 50,4 67,-64 29,-98 -21,3 -20,12 -31,-6 4,-9 2,-6 13,-10 51,-23 14,-14 40,-26 -1,16 -8,29 -1,45 43,106 -30,73 -49,127 -5,16 -6,22 6,34 13,13 46,36 62,35 -3,-30 -5,-53 13,-81 21,-36 26,-27 62,-27 14,-29 2,-17 26,-49 35,-1 53,2 68,38l10 18c41,-36 92,-23 106,28 5,19 0,24 19,15 -2,-27 -31,-101 -42,-128 -34,-76 -4,-39 -62,-70 -9,-5 -11,-12 -21,-20 -33,-2 -65,14 -95,-13 -17,-18 -3,-24 -12,-54 -4,-1 -2,0 -9,0 -1,0 -2,0 -3,0 -25,1 -15,-6 -44,-9 -23,-6 -24,-24 -23,-48 2,-34 19,-26 22,-50 -22,-17 -43,-20 -37,-59 5,-31 20,-39 49,-42 0,-31 -4,-65 22,-85 20,-17 45,-8 63,22l13 -13c7,-5 8,-6 16,-10 66,-36 66,44 75,49 26,6 40,-1 59,21 18,22 10,39 12,65 22,11 58,1 65,77 5,59 -20,71 -54,85 1,61 -18,67 -22,85 -5,25 107,292 129,394l28 178c11,-12 47,-134 51,-159l-10 -8c-17,-16 -13,-60 -14,-81 -31,-16 -41,-14 -41,-59 -4,-23 -60,-22 5,-131 -10,-25 -9,-49 10,-71 27,-30 27,-15 59,-17l16 -18 55 5 8 -43c-36,-6 -41,-38 -55,-61 -29,2 -46,11 -54,-32 -7,-42 4,-47 14,-79 -40,-58 3,-60 23,-101 3,-15 -30,-37 -10,-79 6,-12 7,-14 20,-18 16,-4 16,-1 27,-22 52,-8 69,27 82,37 12,-3 20,-13 32,-24 53,-5 37,32 56,61 12,-6 18,-10 32,-7 64,9 40,61 46,78 6,13 14,4 29,23 9,12 11,21 8,36 -13,54 -34,51 -37,60 -3,9 19,85 -61,85l-17 1c-1,-1 -2,1 -3,1 -12,20 -4,30 -22,53 -26,5 -42,8 -65,-7l-13 67c14,15 12,7 43,39 23,-8 15,-12 43,-9 21,12 43,51 45,77 4,38 -2,18 15,50 22,44 2,107 -31,132 -28,21 -29,98 -100,51 -70,80 -69,5 -93,1 -10,16 -21,70 -27,92 -10,38 -23,60 -34,93 23,-9 149,-115 190,-147l163 -171 95 -123 -23 -21c-7,-49 1,-35 11,-68 0,-22 -44,-29 -1,-97 -6,-17 -13,-20 -16,-47 -5,-48 20,-35 46,-72 47,-67 68,30 70,33 17,-4 26,-26 83,-18 38,6 35,30 46,53 30,19 51,35 53,76 14,15 27,24 37,43 1,21 -4,55 -15,74 -16,28 -36,14 -57,18 -13,19 -17,42 -40,59 -20,14 -53,9 -69,-9 -40,28 -45,28 -92,11 -30,52 -47,64 -77,106 -14,19 -24,36 -38,54 -12,13 -37,33 -42,45 -15,8 0,-1 -13,10l-38 34c-16,12 -47,38 -53,53 -7,0 -91,70 -105,80 -28,21 -98,61 -114,79l63 0c39,-52 97,-38 122,-81 16,-6 31,-2 34,-11 9,3 7,5 6,-4 25,0 31,-21 51,-4l-25 12c-10,3 -18,5 -20,11 5,9 -2,6 10,9 17,2 72,-25 78,-25 21,-3 5,-1 11,2 -10,21 -25,8 -28,22 -2,5 -1,5 -2,10l-29 2c-24,31 -1,6 -11,60 -8,3 -7,-10 -7,8l7 -5 9 2 -14 18 4 15 12 7c19,-10 18,-25 51,-39l0 -25 -7 -36c31,6 17,17 21,49 5,5 8,6 11,8 27,18 50,19 37,68 -7,23 -25,52 -42,64 -1,29 -10,53 -33,72 -33,28 -55,12 -72,1 -16,12 -12,27 -34,41 -81,50 -83,-22 -92,-41l-27 -2c-56,-68 -20,-76 -15,-96 -3,-21 -5,-10 -11,-28 -3,-11 -2,-22 -5,-33l-69 0c-34,38 -10,68 -5,158 2,40 3,87 2,131zm582 -512c17,-11 34,-26 58,-12 7,4 30,42 33,51 -5,16 -12,32 -28,39 -16,8 -42,2 -53,-12 -1,-14 4,-17 -1,-33 -5,-17 -7,-12 -9,-33zm-38 13l22 2c5,14 5,9 9,20 -6,42 -49,91 -84,52 -39,-42 1,-94 52,-93 3,5 7,2 1,19zm-128 1c-14,11 -37,17 -55,24 -52,17 -51,10 -55,32 38,-6 111,-37 148,-54l11 8c-44,26 -87,32 -97,49 7,4 -3,5 10,5 7,0 10,-2 15,-5 14,-5 7,-4 24,-8 14,-10 24,-14 42,-15 7,74 72,85 115,28 87,41 73,11 113,-34 28,2 74,6 72,-30 -22,2 -26,23 -62,15 -14,-13 -8,-19 -17,-30 -10,-13 -20,-4 -15,-25 10,-8 16,-6 27,-8 22,-6 9,-2 24,-14 12,12 5,9 31,11 15,22 11,11 11,51 13,-5 2,6 13,-13 15,-24 26,-3 49,-32 18,-23 20,-57 4,-84 -14,-24 -20,-70 -28,-78 -19,-23 -41,-41 -72,-40l-20 19c-24,-11 -65,-56 -90,-19 -2,2 -4,6 -5,8l-5 9c0,0 -1,2 -2,3 -27,-7 -38,-28 -73,-16l-10 24 -24 4c-32,42 -32,46 -17,96 -10,19 -26,17 -40,43 -17,31 6,35 2,67l-24 9zm51 -13c-29,-26 -20,-81 22,-87 43,-7 79,27 71,71 -19,-3 -30,-9 -49,0 -21,9 -19,16 -44,16zm109 -51c27,-18 40,2 58,19 -37,0 -43,9 -66,29 1,-11 6,-40 8,-48zm159 -46c16,-8 18,0 35,-14 13,-12 15,-15 35,-15 39,52 3,119 -37,91 5,-16 4,0 8,-19 -37,3 -28,5 -44,-7l3 -36zm-121 -22c18,-7 25,1 43,-2 11,-2 21,-12 31,-18 4,29 10,26 29,42l-2 28c-5,1 2,1 -11,3 -27,2 -15,-5 -42,14 -15,-9 -16,-16 -21,-20 -8,-6 -17,-6 -30,-11l3 -36zm-20 9l0 30 -21 16c-15,-8 -9,-10 -24,-22 -8,-6 -18,-11 -27,-16 20,-23 44,-28 72,-8zm121 -7c-36,-28 -6,-54 4,-100 40,-3 74,22 74,62 -3,1 -18,8 -20,9 -11,3 -10,-1 -24,4 -12,9 -18,24 -34,25zm-216 9c-29,-22 -15,-57 -3,-82l23 0 7 17c16,-3 3,7 15,-10 3,6 9,13 14,28l-15 7 2 18c-14,8 -14,12 -33,13 -10,12 -1,7 -10,9zm120 -42c-1,-30 -13,-60 9,-82 25,-5 52,13 67,34 1,25 -15,51 -34,63 -27,3 -23,-2 -42,-15zm-21 -7c-17,20 -9,18 -36,20 6,-76 -24,-48 -30,-78 14,-8 35,-4 50,7 20,15 16,27 16,51zm-956 -363c-2,-16 0,-39 13,-49 20,-16 -9,17 35,-28 18,6 26,5 40,19 -9,58 8,33 2,67 -24,13 -73,11 -90,-9zm28 -96l0 16c-40,22 -45,29 -98,18 -34,-19 -3,-60 17,-75 27,3 19,16 55,8l26 33zm77 -103c2,-7 2,-5 -6,-3 -10,-3 -15,-3 -15,-17 -1,-20 36,-46 36,-46 48,-7 70,10 64,60l-30 15c10,-21 10,0 14,-26 -18,-2 -4,-11 -22,7 -17,17 -3,15 -41,10zm-7 23c20,-2 15,-4 35,3l2 64 -13 2c-10,1 -3,-1 -6,6 -45,-2 -31,14 -51,20 -40,-3 -21,-34 -56,-56 2,-14 2,-17 10,-26l18 20 30 -5c14,20 3,25 30,42 -1,-32 -7,-29 -22,-54l23 -16zm56 58c-4,-12 -7,-20 -6,-34 2,-20 9,-17 17,-25 55,1 70,-7 82,34 4,14 8,26 6,41 -3,27 -26,54 -55,46 6,-29 9,-5 10,-28l-25 1c-12,-13 -22,-18 -29,-35zm380 986c0,-10 -8,-32 34,-29 20,25 5,32 29,52 -1,71 -140,74 -76,-27l13 4zm-519 -6c21,-2 18,3 24,-13 4,-14 2,-19 22,-18 84,7 50,111 -31,80 -9,-21 -13,-26 -15,-49zm115 8c7,-31 18,-30 43,-36 36,16 27,60 2,83 -23,1 -38,1 -48,-22 7,-17 1,-2 13,-17l-10 -8zm509 28c-54,-51 -38,-156 43,-59l18 -9c4,4 19,8 -5,41 -8,11 -17,18 -26,28l-30 -1zm-117 -112c16,32 8,40 -11,65 -13,16 -19,52 -49,28 -45,-36 2,-100 60,-93zm-564 59c-9,-71 64,-87 76,-25 -8,7 -14,8 -21,15 -2,4 -23,49 -55,10zm83 -46c7,-5 35,-13 44,-11 8,13 11,19 9,34l-53 -12 0 -11zm121 25c-35,6 -21,7 -42,24l-8 -13c-9,-12 -7,1 -5,-44 7,-8 14,-11 28,-11 6,12 5,15 13,25 6,8 9,9 14,19zm61 0c-2,2 -22,8 -29,6 -31,-9 -33,-48 -29,-72l27 -2c1,0 1,-1 2,-2 1,-1 2,-3 2,-5l29 0c15,22 18,26 14,55 -7,36 -5,22 -26,41l10 -21zm308 -48c-11,-10 -3,4 -9,-10 4,-2 -7,-7 10,0 23,8 52,9 52,9 19,10 3,34 8,53 3,15 8,11 9,33 -14,-6 -11,-22 -29,-39l-30 6c-1,-14 3,-27 -2,-40 -1,-2 -8,-10 -9,-12zm65 -53c24,-7 18,1 35,21 16,18 15,16 16,42l-30 -1c-18,-31 -24,-10 -21,-62zm67 70c-16,-68 26,-24 47,-83 23,2 20,6 38,16 7,32 -7,67 -33,85 -19,1 -40,-9 -52,-18zm-576 -62c20,-3 11,1 33,-7 10,14 6,13 20,25 12,9 14,8 8,22 -18,-1 -9,-11 -26,-9 -5,1 -20,7 -27,9 -13,-10 -15,-23 -8,-40zm-363 42c1,-20 4,-8 6,-21 2,-11 0,-16 1,-25 1,-15 10,-26 24,-32 32,-13 52,9 70,31 16,38 -68,95 -101,47zm223 12c-33,-26 -36,-81 5,-99 33,20 -9,6 30,44 6,6 22,23 26,29 -11,7 -19,5 -34,11 -14,7 -12,12 -27,15zm-274 -99c14,6 20,12 27,26 10,22 10,18 5,38 -5,17 -1,24 -22,34 -89,38 -81,-46 -77,-56 11,-30 41,-35 67,-42zm399 53c1,16 -2,21 -11,33l-17 1c-13,-15 -18,-41 -14,-62l9 12c22,3 31,-5 33,16zm386 46c-19,-21 -17,-58 12,-67 16,17 4,22 28,29l-4 -26c16,-5 23,8 27,29 -16,10 -44,32 -63,35zm-112 -52c-1,-13 -2,-8 16,-17 39,-18 51,-6 87,-4 -6,10 -4,12 -19,16 -30,7 -51,-13 -84,5zm-113 5c-1,-3 -8,7 -3,-15 2,-12 16,-13 23,-15 1,-1 11,-4 11,-5 33,-13 23,-6 28,-2 -13,6 -26,4 -34,16 -8,14 -6,27 -25,21zm306 18c-9,-12 -5,-24 -17,-39 -10,-13 -20,-11 -31,-25 18,-7 48,-9 59,5 9,11 3,9 18,25 9,9 8,16 9,32l-38 2zm-188 -66c14,-38 34,-42 63,-66 23,-18 45,-37 68,-55 48,-38 88,-68 132,-112 50,-49 135,-140 177,-195 15,-20 34,-61 59,-63 5,32 -26,58 -45,82 -92,122 -41,76 -172,194 -43,39 -88,82 -134,116 -24,17 -50,32 -73,49 -22,16 -49,36 -75,50zm-369 6c-10,-12 -13,-9 -8,-25 0,0 7,-17 32,5 8,6 13,12 18,19 -6,10 -9,28 -28,24 -12,-12 -2,-9 -14,-23zm229 -36c17,6 47,19 50,31 -9,8 -13,6 -26,12l-24 -43zm243 48c0,-37 36,-40 86,-58l1 23c-95,-4 -43,26 -87,35zm-297 -28c1,-1 1,-3 1,-3l1 -9 11 -8c37,5 61,40 39,73 -1,0 -2,-1 -3,-1l-10 -7c-3,5 -7,11 -10,16 -21,0 -39,3 -48,-20 -12,-28 2,-30 19,-41zm-485 -34c14,-5 39,-28 47,-21 6,6 5,25 6,33 2,18 -1,7 -6,27l25 -4c-5,7 -24,28 -29,30 -17,-28 -21,-24 -43,-43l0 -22zm-88 63c-27,-12 -33,-37 -25,-66 9,-30 28,-38 59,-36 10,9 14,16 25,27 13,15 17,12 16,34l-75 41zm981 -23c-21,-29 -8,-59 28,-63l28 29 -10 47 -22 -14c-17,0 -11,3 -24,1zm-507 23c-17,-10 -17,-34 -24,-56l24 10c-1,20 3,-13 -1,5 -1,7 -3,-4 -2,11 2,13 6,9 3,30zm63 -20c-6,17 -4,28 -22,25 -8,0 -16,-12 -20,-16 -3,-40 -6,-30 1,-62 10,6 15,3 25,-1 35,36 27,22 16,54zm-280 32c-11,-28 -25,-15 -36,-46 -7,-20 11,-37 19,-52l65 7 -8 17 11 11c-4,27 -20,64 -51,63zm172 -90c-13,22 -86,8 -111,4 6,-19 28,-9 49,-9 20,1 43,1 62,5zm-260 -33c13,-2 23,0 36,-5 18,-8 2,-9 27,-9 2,33 -1,24 -16,47 -10,15 -9,25 -22,41l-25 -4c-5,-8 -13,-45 -12,-55l12 -15zm167 7c-9,-12 -6,-19 -6,-35l99 35c16,7 11,5 25,14l-118 -14zm-88 -8c-10,-41 16,-82 16,-82 0,0 64,-5 53,94 -27,5 -48,9 -69,-12zm272 -12c1,-1 5,-3 6,-4 2,0 8,-2 10,-3 15,-6 40,-24 55,-19 13,9 89,97 97,112l-174 -82 6 -4zm-468 -10c25,-22 15,-4 62,-5 22,-1 29,-5 46,11l-13 26c-17,4 -25,-1 -41,3 -36,9 -11,25 -58,-12l4 -23zm665 110c-5,-4 -43,-55 -52,-66 -18,-22 -45,-39 -51,-67 19,8 44,40 57,57 32,40 62,51 46,76zm-262 -87l-127 -45c5,-3 -11,-11 31,0 63,15 186,64 235,90l-32 15c-14,-13 -23,-34 -47,-37 -53,-8 -12,-7 -60,-23zm184 -53c4,-11 14,-22 18,-35 5,-13 5,-28 10,-40 19,2 15,10 20,30 11,41 21,86 24,128 -22,-9 -26,-23 -40,-40 -9,-11 -28,-28 -32,-43zm-458 -69c20,5 45,21 53,40 17,104 -113,58 -70,2l3 -34 14 -8zm-76 -13c17,4 42,17 44,37 1,16 -9,47 -23,53 -52,24 -53,-60 -21,-90zm-92 44c10,-21 9,-1 25,-23 16,2 18,4 30,15 -7,26 -10,13 -10,48l10 -7 4 13 -17 -4 -21 40 -19 0 -7 -16c-12,14 -2,7 -17,12 -22,-30 -8,-53 4,-83l18 5zm612 -50l24 18c2,16 -4,45 -17,57 -14,11 -42,17 -58,9 -13,-30 -2,-50 13,-70 18,4 11,-1 30,0l8 -14zm-71 96c-66,53 -127,9 -61,-50 -1,-23 -10,-10 5,-26 35,11 36,30 57,48l-1 28zm-102 -34c-25,4 -57,4 -73,-15 -21,-22 -7,-39 1,-59 22,2 38,-1 50,16 14,-5 31,-3 49,-2 4,22 -16,43 -27,60zm239 -55c10,-12 16,-20 21,-40 18,30 43,208 33,242 -17,-3 -16,-27 -19,-43 -14,-71 -13,-77 -35,-159zm-960 18c13,-14 25,-17 42,-38 39,-46 48,24 13,69 -31,-1 -51,6 -55,-31zm461 -15c-17,-7 -24,-4 -35,7l-29 -18 9 -9c22,7 18,-4 45,-2l10 22zm-338 -42c76,95 1,124 -19,114 -19,-22 -22,-44 -6,-70l-4 -36c9,-8 17,-8 29,-8zm692 -22c14,-8 6,-8 24,-16l19 11c18,21 -4,69 -42,87 -23,-14 3,-10 -36,-29l-6 -4c1,-24 2,-30 37,-29l4 -20zm-660 -21c16,-2 48,7 61,13 9,37 8,47 -14,74l-30 -1c-9,-12 -1,-7 -20,-34 -11,-14 -10,-23 -9,-41l12 -11zm723 3c45,-16 53,-37 72,-28 10,5 56,105 -37,99 -4,-13 -5,-3 0,-15 -32,-1 -42,-24 -35,-56zm-646 15c11,0 141,26 151,44 -34,12 -50,0 -83,-10 -64,-20 -67,-2 -68,-34zm1062 -15c10,49 -54,107 -72,23 -4,-14 8,-28 14,-38 26,-4 39,-3 58,15zm-533 -34c4,33 -3,29 20,56l-30 33c-24,1 -26,3 -44,-13l5 -64 49 -12zm-804 59c20,-24 17,-14 45,-21 18,-5 28,-9 41,11 -3,12 -21,21 -33,31l5 17c-15,10 -25,20 -43,6 -11,-10 -17,-26 -15,-44zm1211 -41l27 -1c8,13 12,7 15,22 4,22 -8,94 -48,79 -35,-31 -25,-45 -12,-87l12 2 6 -15zm-89 72c-12,-39 -17,-73 26,-89 5,4 12,11 15,13 14,9 6,-2 16,11 2,9 -9,48 -19,60l-38 5zm-399 -24c-36,25 -73,6 -78,-37l13 -9 -3 -20c19,-19 40,9 56,22l20 -5 -8 49zm-613 -53c8,-7 7,-4 15,-9 18,-14 24,-25 35,-36 35,2 28,14 37,48l-17 -4c-11,40 -37,51 -71,22l1 -21zm102 -50c10,-8 34,-22 45,-28 26,7 54,45 37,72 -16,24 -72,10 -88,-4l6 -40zm-211 17c24,-25 68,4 90,18l-9 22 -69 3c-12,-14 -16,-24 -12,-43zm1243 22c-4,-34 29,-61 53,-53l11 53c-21,0 -29,2 -47,9l-17 -9zm-76 -15c-3,-23 1,-44 22,-53 10,9 14,18 22,27 12,13 16,13 10,35 -30,14 -31,3 -54,-9zm200 -83c22,41 30,59 7,103 -3,5 -6,11 -10,16 -6,6 -4,5 -12,8 2,-29 -10,-20 -27,-22 -31,-86 7,-45 12,-93l30 -12zm-256 100c-58,-3 -54,-57 12,-90 18,17 22,44 24,68 -21,1 -26,5 -36,22zm-208 -66c54,-81 113,29 60,56 -14,7 -25,6 -39,15 -33,19 -71,-12 -41,-66l20 -5zm-74 84c-19,-44 1,-8 8,-49l22 -6c1,27 2,36 16,54 -6,14 -17,22 -31,26 -11,-11 -8,-8 -15,-25zm-83 -31c-20,8 -30,-5 -48,-11 -17,-5 -30,-10 -42,-26 -12,-17 -12,-36 -5,-57 21,-64 61,-32 63,-27 5,43 7,43 38,63 -2,19 -4,37 -6,58zm-630 -8c-22,2 -30,-8 -44,-21l5 -20c-1,-1 -3,-2 -3,-2 -1,-1 -2,-2 -3,-2l-6 -3c-8,-6 -2,-4 -3,-5l2 -37c18,-13 47,-21 56,2 13,30 6,22 27,50 1,24 -6,36 -31,38zm1105 -80c26,1 28,-2 45,11 0,19 -8,31 -22,42 -39,-8 -33,-23 -32,-44l9 -9zm-455 88c4,-57 -1,-31 15,-56l-11 -9 9 -10c11,14 15,30 32,51 -17,19 -17,28 -45,24zm-114 -7c-28,3 -39,-9 -59,-25 -8,-7 -15,-13 -23,-20 -12,-9 -14,-8 -17,-19 19,0 34,21 50,32 15,11 39,18 49,32zm-248 -51c-12,-22 -17,-43 6,-57 27,-16 22,-19 40,-36l16 5c8,15 10,48 8,66 -16,17 -47,36 -70,22zm391 -34c33,-27 24,-45 60,-54 34,-9 55,25 57,54 -3,11 -63,55 -64,56 -32,12 -55,-26 -53,-56zm340 -9c15,-14 39,-36 58,-37 17,20 9,33 5,55 -3,1 -65,39 -63,-18zm-902 36c-63,0 21,13 -62,15l-7 -24 -17 8 -7 -23c9,-14 2,-8 16,-12l-3 -18c44,-28 87,1 80,54zm1042 -36c39,-38 13,-44 29,-87 34,-5 57,40 57,70 -7,8 -11,8 -17,16 -6,8 -4,12 -12,21 -37,42 -60,23 -57,-20zm-148 -52c26,45 -62,112 -78,88 -11,-18 0,-116 78,-88zm-403 10c5,-46 60,-61 77,8 6,22 -57,94 -71,30l18 -9 -24 -29zm-234 -7c31,-49 62,9 66,29 5,27 -11,44 -34,50 -34,-9 -39,-28 -24,-60l-8 -19zm-117 -27c28,-3 47,-17 53,21 -9,7 -19,13 -29,20 -10,8 -12,14 -23,21 -16,-3 -27,-9 -31,-26 12,-22 27,-10 30,-36zm1312 -17c2,-4 2,-9 7,-16 8,-10 22,-14 37,-10 65,18 30,109 -21,100 -26,-5 -36,-53 -36,-61l13 -13zm-1256 5c28,-11 5,-2 19,-22 18,-3 32,0 46,12 1,23 3,14 -10,34l-42 1c-11,-10 -10,-9 -13,-25zm-144 4c52,-26 12,0 78,-11 -1,1 -7,7 -8,7 -1,1 -2,2 -2,3l-12 14c-8,8 -11,11 -17,20 -38,-2 -39,-13 -39,-33zm787 8c-5,-37 -1,-54 37,-60l7 15 19 0c-1,71 -21,46 -63,45zm561 -38c15,-2 10,-4 24,5 1,2 5,75 5,75 -15,32 -85,30 -58,-24 22,-45 3,-24 23,-35l6 -21zm-486 -34c26,-11 51,5 63,26 0,43 -18,75 -64,73 -7,-18 -3,-78 1,-99zm64 102c-2,-26 3,-19 12,-34 14,-23 -4,-9 5,-29 17,-8 32,4 42,20 34,54 2,63 -2,70 -5,6 -2,7 -11,17 -33,3 -44,-13 -46,-44zm337 -73c20,-5 18,0 34,-2 19,-1 3,-9 26,-2 2,15 0,28 -9,39 -4,4 -11,8 -14,11l-11 16c-23,-5 -18,-8 -35,-18 2,-29 -1,-29 9,-44zm-1185 -24c62,28 37,3 73,0 2,20 -8,37 -27,43 -23,8 -30,-9 -46,-18l0 -25zm1435 57c-14,-12 -25,-40 -23,-62 2,-19 5,-16 20,-23 15,-6 17,-9 32,-11 20,28 24,30 1,93l-30 3zm-1296 -24c5,-4 15,-8 19,-13 16,-16 -5,-9 14,-14 6,12 -3,8 -3,27 -1,15 3,20 5,30l-34 -11 -1 -19zm-220 3c-6,-11 -17,-21 -14,-40 3,-12 15,-22 27,-24 51,-8 84,81 33,63l-4 -17c-30,3 -17,10 -42,18zm1336 -22c-4,-16 9,-47 18,-59 33,-4 58,26 53,58l-15 11c-37,-14 -19,-7 -56,-10zm-1128 -42c4,-4 -1,0 7,-7 7,6 1,-1 7,6 20,23 0,38 -7,46l-43 -12c-11,-35 7,-31 30,-26l6 -7zm1235 -17c9,6 35,22 40,28 -8,23 -6,26 2,46 -28,-7 -21,-22 -61,-18l-7 -33 26 -23zm-181 -27c61,3 10,22 63,14 13,29 8,34 -8,55 -23,1 -21,-3 -45,1 -17,-23 -34,-43 -10,-70zm-1196 34c0,-34 6,-67 46,-62 20,3 26,2 30,24 2,15 7,29 7,42 -20,19 -11,0 -18,31 -21,1 -27,2 -40,-13 -4,-5 -7,-10 -11,-13l-11 -7c-1,-2 -2,-2 -3,-2zm1419 -2c-71,-14 -25,-80 -4,-82 27,7 42,38 44,65 -25,6 -20,11 -40,17zm-126 -60c4,-2 14,9 29,11 17,2 26,-4 39,-1 9,19 7,33 -9,48 -28,-2 -45,-33 -76,-13 -2,-8 13,-39 17,-45zm-400 20c9,17 -9,67 -13,94 -28,-6 -5,-54 -7,-83l20 -11zm71 20c-38,1 -55,-3 -53,-46 5,-86 27,-83 64,-16 12,20 -2,45 -11,62zm-861 -49c29,-15 27,-16 63,-13 12,23 3,36 -11,57 -26,40 -69,24 -62,-24l14 -2 -4 -18zm766 -71c18,46 35,82 -11,101 -42,-22 -45,-79 -11,-106l22 5zm-392 53c2,-25 3,-46 30,-54 13,-4 19,-3 28,6 18,18 -2,14 25,13 1,37 21,17 13,63 -5,28 -16,30 -27,52 -23,-2 -44,-7 -60,-23l4 -45 -13 -12zm769 43c-8,-2 -14,-2 -22,-4 -39,-11 -54,-75 -7,-85 4,13 5,32 15,43 14,15 79,12 31,54 -12,-4 -7,-4 -17,-8zm49 -68c63,-55 119,-14 102,18 -9,16 -44,29 -62,29 -35,1 -35,-23 -40,-47zm-305 24c-2,-21 -13,-50 7,-63 14,-8 50,3 65,8 14,47 -26,78 -72,55zm269 -84c18,21 28,62 4,80 -19,-5 -15,-7 -27,-20l4 -20 -15 -19c8,-12 15,-20 34,-21zm-482 75c-10,-20 -16,-36 -10,-56 5,-17 16,-41 36,-39 50,2 10,82 -8,97l-18 -2zm178 -44c-11,-9 -13,-3 -25,-10 -5,-10 -2,-15 -7,-26 -7,-14 -6,0 -11,-20 45,-3 33,3 65,23 1,16 -2,39 -9,52 -7,-10 -2,-11 -13,-19zm-99 -88c11,10 9,17 19,27 18,17 66,41 21,80 -27,-25 2,-26 -52,-39 -9,-24 -8,-23 -19,-44 4,-5 0,-1 8,-9l16 -12c4,-3 6,-3 7,-3zm153 25c15,-43 32,-2 59,-43l29 16c1,1 9,60 -51,66 -12,-22 -19,-16 -37,-39zm-29 -30c4,7 10,11 14,19 3,7 5,19 9,26 4,8 6,8 12,18l-22 3c-11,-13 -14,-23 -25,-33 -16,-15 -20,-8 -37,-17l8 -36 30 -3c8,11 5,12 11,23zm-208 24c-11,-23 -15,-22 6,-46 12,-13 24,-29 38,-33 21,9 26,30 25,53 -21,22 -37,28 -69,26zm-492 -35c1,-73 54,-29 99,-26 20,72 -12,58 -31,53 -10,-2 -13,4 -26,3 -19,-2 -29,-18 -42,-30zm127 -51c40,29 9,-6 43,29l-1 26c-6,19 -46,29 -57,-32l15 -23zm450 50l-12 -39c49,15 17,18 68,-1 7,27 25,47 -2,75 -20,0 -17,3 -33,-18 -10,-12 -8,-7 -21,-17zm206 -44c-2,40 -28,54 -66,54 -12,-29 -21,-46 8,-67l-7 -11c10,-17 24,-22 43,-14 16,5 23,19 22,38zm-696 3c-70,-23 -32,-84 -21,-92 47,-28 63,62 41,87 -10,-2 -4,-3 -15,-14l-5 19zm420 -75c14,-14 1,-10 20,-11 6,13 2,15 11,30 9,17 8,11 5,31 -32,3 -36,-22 -36,-50zm168 93c-42,-13 -27,-30 -32,-65 -5,-31 9,-51 41,-52 28,60 20,58 9,95 -5,15 -4,15 -18,22zm-535 -101c45,-23 69,-22 68,36 -19,14 -26,14 -39,35 -36,3 -49,-26 -24,-44 -5,-12 -6,-13 -5,-27zm417 34c-5,-32 -23,-35 0,-62 53,-4 72,51 68,96 -11,11 -11,12 -26,15 -22,-9 -38,-26 -42,-49z"
       id="path6"
       style="fill:#64c24d;fill-opacity:1" /></g></svg>