<?xml version="1.0" encoding="UTF-8"?>
<!DOCTYPE svg PUBLIC "-//W3C//DTD SVG 1.1//EN" "http://www.w3.org/Graphics/SVG/1.1/DTD/svg11.dtd">
<!-- Creator: CorelDRAW X8 -->
<svg xmlns="http://www.w3.org/2000/svg" xml:space="preserve" width="69px" height="72px" version="1.1" shape-rendering="geometricPrecision" text-rendering="geometricPrecision" image-rendering="optimizeQuality" fill-rule="evenodd" clip-rule="evenodd"
viewBox="0 0 28901 29886"
 xmlns:xlink="http://www.w3.org/1999/xlink">
 <g id="Слой_x0020_1">
  <metadata id="CorelCorpID_0Corel-Layer"/>
  <g id="_1098428448">
   <path fill="white" fill-rule="nonzero" d="M16020 15492c0,0 5341,-5663 10349,-3910 1919,673 2973,2817 2355,4791 -443,1414 -1624,2357 -2964,2530 977,985 1393,2487 950,3901 -618,1974 -2675,3029 -4594,2357 -5007,-1753 -6096,-9669 -6096,-9669z"/>
   <path fill="white" fill-rule="nonzero" d="M12881 14393c0,0 -5342,5664 -10349,3910 -1919,-672 -2973,-2817 -2355,-4790 443,-1414 1625,-2357 2964,-2531 -977,-985 -1393,-2487 -950,-3901 619,-1973 2675,-3029 4594,-2357 5007,1754 6096,9669 6096,9669z"/>
   <path fill="white" fill-rule="nonzero" d="M15597 203c1376,481 2307,1719 2497,3108 936,-995 2382,-1400 3756,-918 1919,672 2974,2816 2356,4790 -1613,5150 -9250,6146 -9250,6146 0,0 -5565,-5619 -3952,-10770 618,-1973 2674,-3028 4593,-2356z"/>
   <path fill="white" fill-rule="nonzero" d="M10808 26575c-937,994 -2383,1400 -3758,918 -1919,-672 -2973,-2817 -2355,-4790 1613,-5151 9250,-6146 9250,-6146 0,0 5565,5619 3952,10769 -618,1974 -2675,3029 -4594,2357 -1374,-482 -2306,-1719 -2495,-3108z"/>
  </g>
 </g>
</svg>
