<?xml version="1.0" encoding="UTF-8" standalone="no"?>
<!-- Creator: CorelDRAW X8 -->

<svg
   xmlns:dc="http://purl.org/dc/elements/1.1/"
   xmlns:cc="http://creativecommons.org/ns#"
   xmlns:rdf="http://www.w3.org/1999/02/22-rdf-syntax-ns#"
   xmlns:svg="http://www.w3.org/2000/svg"
   xmlns="http://www.w3.org/2000/svg"
   xmlns:sodipodi="http://sodipodi.sourceforge.net/DTD/sodipodi-0.dtd"
   xmlns:inkscape="http://www.inkscape.org/namespaces/inkscape"
   xml:space="preserve"
   width="11px"
   height="13px"
   version="1.1"
   shape-rendering="geometricPrecision"
   text-rendering="geometricPrecision"
   image-rendering="optimizeQuality"
   fill-rule="evenodd"
   clip-rule="evenodd"
   viewBox="0 0 717 847"
   id="svg4216"
   inkscape:version="0.91 r13725"
   sodipodi:docname="white-Sornyak.svg"><metadata
     id="metadata4226"><rdf:RDF><cc:Work
         rdf:about=""><dc:format>image/svg+xml</dc:format><dc:type
           rdf:resource="http://purl.org/dc/dcmitype/StillImage" /><dc:title></dc:title></cc:Work></rdf:RDF></metadata><defs
     id="defs4224" /><sodipodi:namedview
     pagecolor="#ffffff"
     bordercolor="#666666"
     borderopacity="1"
     objecttolerance="10"
     gridtolerance="10"
     guidetolerance="10"
     inkscape:pageopacity="0"
     inkscape:pageshadow="2"
     inkscape:window-width="1280"
     inkscape:window-height="743"
     id="namedview4222"
     showgrid="false"
     inkscape:zoom="18.153846"
     inkscape:cx="-2.6800848"
     inkscape:cy="6.3898305"
     inkscape:window-x="0"
     inkscape:window-y="0"
     inkscape:window-maximized="1"
     inkscape:current-layer="Слой_x0020_1" /><g
     id="Слой_x0020_1"><metadata
       id="CorelCorpID_0Corel-Layer" /><path
       fill="white"
       fill-rule="nonzero"
       d="M318 359c0,0 100,150 34,254 -25,39 -79,52 -120,28 -30,-18 -45,-49 -42,-80 -27,16 -63,18 -92,1 -42,-25 -55,-77 -29,-116 65,-104 249,-87 249,-87zm82 203c1,2 2,5 3,8 2,3 4,7 6,10 3,7 8,15 14,22 5,8 12,16 19,24 7,9 16,17 25,25 9,8 18,15 28,22 11,8 21,14 32,21 22,13 46,24 68,33 22,9 43,16 62,22 18,5 33,9 44,12 5,1 9,2 12,2 1,0 2,1 3,1 0,0 1,0 1,0 0,0 0,0 0,0l0 0 -26 83c0,0 -1,0 -2,0 -1,0 -2,-1 -4,-2 -3,-1 -7,-3 -13,-6 -12,-5 -28,-13 -46,-23 -19,-10 -40,-22 -62,-37 -21,-15 -44,-32 -64,-50 -10,-10 -20,-19 -29,-29 -10,-10 -18,-21 -26,-31 -8,-10 -14,-21 -20,-31 -6,-10 -11,-20 -15,-29 -4,-9 -7,-18 -9,-26 -1,-4 -2,-7 -3,-11 -1,-3 -2,-6 -2,-9 -1,-6 -2,-10 -2,-13 -1,-3 -1,-5 -1,-5 0,0 1,2 2,5 1,2 2,7 5,12zm182 -93c17,27 19,61 1,90 -25,40 -79,52 -120,28 -108,-63 -90,-241 -90,-241 0,0 155,-96 263,-32 41,24 54,76 29,116 -18,28 -51,42 -83,39zm-223 -175c0,0 -99,-150 -33,-254 25,-39 79,-52 120,-28 29,18 44,49 41,80 28,-16 64,-18 93,-1 41,25 54,77 29,116 -65,104 -250,87 -250,87zm-346 -71c18,-28 51,-43 83,-40 -18,-26 -19,-61 -1,-89 25,-40 79,-52 120,-28 108,63 90,241 90,241 0,0 -156,96 -263,32 -41,-24 -54,-76 -29,-116z"
       id="path4220"
       style="fill:#ffffff;fill-opacity:1" /></g></svg>