<?xml version="1.0" encoding="UTF-8" standalone="no"?>
<!-- Creator: CorelDRAW X8 -->

<svg
   xmlns:dc="http://purl.org/dc/elements/1.1/"
   xmlns:cc="http://creativecommons.org/ns#"
   xmlns:rdf="http://www.w3.org/1999/02/22-rdf-syntax-ns#"
   xmlns:svg="http://www.w3.org/2000/svg"
   xmlns="http://www.w3.org/2000/svg"
   xmlns:sodipodi="http://sodipodi.sourceforge.net/DTD/sodipodi-0.dtd"
   xmlns:inkscape="http://www.inkscape.org/namespaces/inkscape"
   xml:space="preserve"
   width="60px"
   height="112px"
   version="1.1"
   shape-rendering="geometricPrecision"
   text-rendering="geometricPrecision"
   image-rendering="optimizeQuality"
   fill-rule="evenodd"
   clip-rule="evenodd"
   viewBox="0 0 18763 35335"
   id="svg6108"
   inkscape:version="0.91 r13725"
   sodipodi:docname="green-Blokha.svg"><metadata
     id="metadata6149"><rdf:RDF><cc:Work
         rdf:about=""><dc:format>image/svg+xml</dc:format><dc:type
           rdf:resource="http://purl.org/dc/dcmitype/StillImage" /><dc:title></dc:title></cc:Work></rdf:RDF></metadata><defs
     id="defs6147" /><sodipodi:namedview
     pagecolor="#ffffff"
     bordercolor="#666666"
     borderopacity="1"
     objecttolerance="10"
     gridtolerance="10"
     guidetolerance="10"
     inkscape:pageopacity="0"
     inkscape:pageshadow="2"
     inkscape:window-width="1280"
     inkscape:window-height="743"
     id="namedview6145"
     showgrid="false"
     inkscape:zoom="2.1071429"
     inkscape:cx="-39.525424"
     inkscape:cy="56"
     inkscape:window-x="0"
     inkscape:window-y="0"
     inkscape:window-maximized="1"
     inkscape:current-layer="Слой_x0020_1" /><g
     id="Слой_x0020_1"><metadata
       id="CorelCorpID_0Corel-Layer" /><g
       id="_1179922512"
       style="fill:#6ec559;fill-opacity:1"><path
         fill="white"
         fill-rule="nonzero"
         d="M13456 6891c27,275 34,532 32,763l-15 209 -2 28c-1,2 -1,0 -3,3l-111 106c-135,121 -280,237 -424,352 123,515 196,996 247,1419 290,-275 618,-570 988,-958 55,-60 105,-111 166,-189 27,-36 56,-71 97,-136l53 -86c30,-57 60,-144 75,-219 19,-100 11,-123 12,-130l-1 -52 -1 -105 -4 -210c-19,-332 -59,-643 -112,-935 -109,-592 -261,-1146 -375,-1658 -21,-106 -72,-300 -67,-326 -1,26 18,-116 52,-208 65,-207 158,-416 243,-606 169,-386 350,-696 458,-933 114,-230 180,-399 180,-399l5 -16c6,-15 11,-28 14,-43 46,-188 -70,-376 -258,-422 -187,-45 -376,71 -422,259 0,0 -24,102 -133,320 -110,213 -270,530 -490,908 -106,192 -222,399 -334,651 -51,136 -117,236 -144,518 0,232 31,293 45,452 75,544 177,1103 229,1643zm6 1099c0,-4 2,-5 2,-9l-2 37c-2,28 -4,41 0,-28z"
         id="path6113"
         style="fill:#6ec559;fill-opacity:1" /><path
         fill="white"
         fill-rule="nonzero"
         d="M10097 2156c14,84 45,144 42,239 4,87 7,169 11,245l-2 6c-11,34 -20,66 -29,95 -4,14 -6,23 -10,35 245,18 475,70 693,151 0,-23 2,-42 3,-68 1,-31 2,-63 5,-98l1 -131 -6 -26 -16 -55c-21,-73 -44,-153 -68,-237 -16,-82 -75,-187 -116,-283 -82,-176 -169,-366 -257,-552 -79,-178 -102,-361 -155,-539 51,-169 98,-327 140,-463 90,-285 150,-475 150,-475 0,0 -107,180 -267,450 -39,67 -82,140 -126,218 -45,90 -96,131 -140,273 9,194 -11,426 28,636 41,197 81,393 119,579z"
         id="path6115"
         style="fill:#6ec559;fill-opacity:1" /><path
         fill="white"
         fill-rule="nonzero"
         d="M1970 21969l7 -11 26 -92 6 -28 10 -52 23 -103 47 -215c32,-143 65,-290 97,-440 139,-596 286,-1233 433,-1868 79,-314 159,-628 237,-936 91,-336 135,-505 233,-790l43 -101c102,-46 181,-95 308,-140 164,-68 330,-121 494,-177 74,-573 200,-1099 339,-1542 -182,65 -375,138 -590,226 -239,100 -493,205 -774,348 -132,58 -298,163 -452,257 -49,32 -128,100 -184,157l-90 93 -42 48 -10 11 -4 6c-88,158 -25,46 -45,83l-5 13 -72 219c-89,296 -192,747 -240,1042 -55,323 -112,650 -168,977 -98,652 -195,1304 -288,1915 -21,152 -43,303 -62,451l-31 216 -14 108 -6 47c-112,246 -219,482 -317,697 -200,452 -419,729 -557,967 -139,227 -228,351 -229,351l-28 39c-4,6 -8,12 -11,17 -102,161 -55,373 106,476 160,100 373,53 475,-108 0,0 94,-147 258,-408 152,-256 442,-632 680,-1059 123,-216 256,-448 397,-694zm1165 -4644l5 -14 -2 8c0,3 -3,4 -3,6z"
         id="path6117"
         style="fill:#6ec559;fill-opacity:1" /><path
         fill="white"
         fill-rule="nonzero"
         d="M7958 2859c2,45 4,80 6,117 216,-95 448,-154 694,-185 -5,-18 -8,-30 -15,-50 -9,-29 -18,-61 -28,-95l-2 -6c3,-76 7,-158 11,-245 -3,-95 28,-155 42,-239 37,-186 78,-382 118,-579 39,-210 20,-442 28,-636 -44,-142 -95,-183 -139,-273 -45,-78 -87,-151 -126,-218 -161,-270 -267,-450 -267,-450 0,0 59,190 150,475 41,136 89,294 140,463 -54,178 -76,361 -155,539 -89,186 -175,376 -257,552 -41,96 -101,201 -117,283 -23,84 -46,164 -67,237l-16 55 -7 26 2 131c2,35 3,67 5,98z"
         id="path6119"
         style="fill:#6ec559;fill-opacity:1" /><path
         fill="white"
         fill-rule="nonzero"
         d="M18697 23744l-27 -38c-1,0 -89,-124 -229,-351 -137,-238 -356,-515 -556,-967 -98,-215 -205,-451 -318,-697l-6 -47 -14 -108 -30 -216c-20,-148 -41,-299 -64,-451 -91,-611 -189,-1263 -287,-1915 -57,-327 -112,-654 -168,-977 -48,-295 -151,-746 -240,-1042l-72 -219 -5 -13c-20,-37 43,75 -45,-83l-4 -6 -11 -11 -41 -48 -89 -93c-57,-57 -136,-125 -185,-157 -154,-94 -320,-199 -452,-257 -280,-143 -535,-248 -774,-348 -161,-65 -298,-116 -440,-169 135,444 257,966 327,1536 120,41 238,77 355,126 128,45 208,94 310,140l42 101c98,285 142,454 233,790 78,308 157,622 237,936 147,635 295,1272 432,1868 33,150 67,297 98,440l47 215 22 103 11 52 7 28 25 92 7 11c141,246 274,478 397,694 239,427 529,803 680,1059 164,261 259,408 259,408 3,7 7,13 11,18 112,155 327,189 481,77 153,-111 188,-326 76,-481zm-3072 -6425l-2 -8 5 14c-1,-2 -3,-3 -3,-6z"
         id="path6121"
         style="fill:#6ec559;fill-opacity:1" /><path
         fill="white"
         fill-rule="nonzero"
         d="M17040 26241c-255,-359 -498,-635 -736,-908 -213,-234 -411,-450 -599,-658 -68,620 -222,1029 -357,1303 45,42 83,81 129,126 234,240 493,508 693,761 35,42 45,57 62,81l-8 35c-37,193 -76,387 -116,584 -81,389 -164,784 -246,1180 -169,791 -338,1583 -496,2326 -79,373 -155,735 -227,1078 -71,345 -123,711 -176,1025 -13,178 -76,271 -44,500 0,93 122,399 181,475 143,247 274,421 371,564 202,286 257,424 258,424 1,3 4,9 6,11 73,161 261,232 421,158 159,-74 229,-262 156,-421 0,0 -106,-238 -317,-533 -102,-152 -235,-322 -332,-509 -29,-50 -48,-96 -52,-117 -7,-14 -13,-28 -22,-42l-12 -102c-7,-46 52,-240 76,-361 66,-280 137,-584 213,-907 90,-335 186,-690 284,-1058 200,-739 415,-1527 629,-2316 106,-396 212,-792 315,-1182 51,-193 100,-386 149,-575l37 -143c13,24 41,-290 -36,-444 -72,-155 -144,-274 -204,-355zm-787 597l-3 16c6,-49 17,-77 3,-16z"
         id="path6123"
         style="fill:#6ec559;fill-opacity:1" /><path
         fill="white"
         fill-rule="nonzero"
         d="M3819 2621c0,0 66,169 180,399 108,237 289,547 457,933 86,190 179,399 244,606 34,92 52,234 52,208 6,26 -46,220 -66,326 -115,512 -267,1066 -376,1658 -53,292 -93,603 -112,935l-4 210 -1 105 0 52c1,7 -8,30 11,130 16,75 45,162 75,219l53 86c40,65 70,100 98,136 61,78 111,129 164,189 409,427 772,748 1081,1046 9,8 16,14 25,24 50,-424 119,-915 240,-1439 -181,-144 -364,-294 -534,-444l-111 -106c-1,-3 -1,-1 -2,-3l-3 -28 -14 -209c-3,-231 4,-488 31,-763 52,-540 154,-1099 229,-1643 14,-159 45,-220 45,-452 -27,-282 -93,-382 -144,-518 -111,-252 -227,-459 -334,-651 -220,-378 -380,-695 -490,-908 -109,-218 -134,-320 -134,-320 -3,-14 -8,-31 -14,-46 -70,-179 -272,-268 -452,-197 -180,68 -269,271 -199,451l5 14zm1482 5397l-2 -37c0,4 2,5 2,9 4,69 2,56 0,28z"
         id="path6125"
         style="fill:#6ec559;fill-opacity:1" /><path
         fill="white"
         fill-rule="nonzero"
         d="M3623 32149c-71,-343 -147,-705 -226,-1078 -158,-743 -327,-1535 -496,-2326 -82,-396 -165,-791 -247,-1180 -39,-197 -78,-391 -115,-584l-8 -35c17,-24 27,-39 62,-81 201,-253 459,-521 693,-761 79,-77 145,-142 220,-216 -134,-292 -279,-706 -332,-1338 -13,16 -26,28 -40,43 -208,230 -436,478 -675,740 -237,273 -482,549 -735,908 -61,81 -133,200 -205,355 -76,154 -49,468 -36,444l37 143c49,189 98,382 148,575 104,390 210,786 316,1182 214,789 428,1577 629,2316 98,368 194,723 284,1058 76,323 147,627 213,907 24,121 83,315 76,361l-12 102c-9,14 -15,28 -20,42 -6,21 -25,67 -54,117 -96,187 -230,357 -332,509 -212,295 -318,533 -318,533 0,2 -4,9 -5,11 -66,163 12,349 174,414 163,67 349,-10 415,-173 0,0 56,-138 258,-424 98,-143 229,-317 371,-564 59,-76 181,-382 181,-475 32,-229 -31,-322 -44,-500 -53,-314 -104,-680 -177,-1025zm-1109 -5295l-4 -16c-14,-61 -3,-33 4,16z"
         id="path6127"
         style="fill:#6ec559;fill-opacity:1" /><path
         fill="white"
         fill-rule="nonzero"
         d="M12898 26596c-1577,0 -3090,-431 -3466,-545 -500,142 -2991,801 -4991,374 301,1298 680,2005 1197,2426l7619 0c517,-421 896,-1131 1198,-2430 -500,123 -1031,175 -1557,175z"
         id="path6129"
         style="fill:#6ec559;fill-opacity:1" /><path
         fill="white"
         fill-rule="nonzero"
         d="M13480 14160c-141,-1528 -459,-2355 -665,-2814l-6735 0c-206,459 -524,1286 -667,2814l8067 0z"
         id="path6131"
         style="fill:#6ec559;fill-opacity:1" /><path
         fill="white"
         fill-rule="nonzero"
         d="M12574 10487c-102,-795 -176,-1814 -597,-2820 -1199,-30 -2407,-23 -3580,-9 -493,5 -987,10 -1480,13 -421,1005 -494,2022 -596,2816l6253 0z"
         id="path6133"
         style="fill:#6ec559;fill-opacity:1" /><path
         fill="white"
         fill-rule="nonzero"
         d="M3964 22670c-264,1603 -60,2356 137,2786 2048,690 5218,-255 5253,-265l84 -26 83 27c35,12 3262,1040 5289,232 190,-437 378,-1195 120,-2754 -21,-132 -37,-229 -49,-305l-10867 0c-12,76 -28,173 -50,305z"
         id="path6135"
         style="fill:#6ec559;fill-opacity:1" /><path
         fill="white"
         fill-rule="nonzero"
         d="M6862 29709c602,544 1699,1415 2585,1451 886,-36 1984,-907 2586,-1451l-5171 0z"
         id="path6137"
         style="fill:#6ec559;fill-opacity:1" /><path
         fill="white"
         fill-rule="nonzero"
         d="M14928 21505c176,-1430 -82,-2338 -316,-2812l-10329 0c-235,474 -493,1382 -316,2812l10961 0z"
         id="path6139"
         style="fill:#6ec559;fill-opacity:1" /><path
         fill="white"
         fill-rule="nonzero"
         d="M8390 6797c1140,-13 2313,-19 3483,8 110,-235 191,-510 191,-877 0,-1216 -911,-2316 -2146,-2316 0,0 -227,0 -471,0 -243,0 -470,0 -470,0 -1235,0 -2145,1100 -2145,2316 0,369 80,645 191,880 456,-2 913,-5 1367,-11z"
         id="path6141"
         style="fill:#6ec559;fill-opacity:1" /><path
         fill="white"
         fill-rule="nonzero"
         d="M14331 17832c-28,-1183 -392,-2254 -625,-2813l-8518 0c-232,559 -597,1630 -624,2813l9767 0z"
         id="path6143"
         style="fill:#6ec559;fill-opacity:1" /></g></g></svg>