<?xml version="1.0" encoding="UTF-8" standalone="no"?>
<!-- Creator: CorelDRAW X8 -->

<svg
   xmlns:dc="http://purl.org/dc/elements/1.1/"
   xmlns:cc="http://creativecommons.org/ns#"
   xmlns:rdf="http://www.w3.org/1999/02/22-rdf-syntax-ns#"
   xmlns:svg="http://www.w3.org/2000/svg"
   xmlns="http://www.w3.org/2000/svg"
   xmlns:sodipodi="http://sodipodi.sourceforge.net/DTD/sodipodi-0.dtd"
   xmlns:inkscape="http://www.inkscape.org/namespaces/inkscape"
   xml:space="preserve"
   width="8px"
   height="13px"
   version="1.1"
   shape-rendering="geometricPrecision"
   text-rendering="geometricPrecision"
   image-rendering="optimizeQuality"
   fill-rule="evenodd"
   clip-rule="evenodd"
   viewBox="0 0 325 531"
   id="svg7243"
   inkscape:version="0.91 r13725"
   sodipodi:docname="green-mokrica.svg"><metadata
     id="metadata7292"><rdf:RDF><cc:Work
         rdf:about=""><dc:format>image/svg+xml</dc:format><dc:type
           rdf:resource="http://purl.org/dc/dcmitype/StillImage" /><dc:title></dc:title></cc:Work></rdf:RDF></metadata><defs
     id="defs7290" /><sodipodi:namedview
     pagecolor="#ffffff"
     bordercolor="#666666"
     borderopacity="1"
     objecttolerance="10"
     gridtolerance="10"
     guidetolerance="10"
     inkscape:pageopacity="0"
     inkscape:pageshadow="2"
     inkscape:window-width="1280"
     inkscape:window-height="743"
     id="namedview7288"
     showgrid="false"
     inkscape:zoom="18.153846"
     inkscape:cx="4"
     inkscape:cy="6.5"
     inkscape:window-x="0"
     inkscape:window-y="0"
     inkscape:window-maximized="1"
     inkscape:current-layer="Слой_x0020_1" /><g
     id="Слой_x0020_1"><metadata
       id="CorelCorpID_0Corel-Layer" /><g
       id="_1635231792"
       style="fill:#6ec559;fill-opacity:1"><path
         fill="white"
         fill-rule="nonzero"
         d="M220 477c-5,-3 -11,-6 -17,-10 -3,-2 -6,-4 -9,-6 -3,-2 -6,-5 -8,-8 -2,-1 -3,-2 -4,-3l-4 -5 -3 -4c-1,-2 -1,-3 -2,-5 -1,-2 -2,-4 -2,-5 -1,0 -2,1 -3,1 -1,0 -2,1 -3,1l-1 0 -1 1 -2 -1 -1 0c0,0 -1,0 -1,0 -2,-1 -3,-2 -5,-2 0,1 -1,3 -2,5 -1,2 -1,3 -2,5l-3 4 -3 5c-2,1 -3,2 -4,3 -3,3 -6,6 -9,8 -3,2 -6,4 -9,6 -6,4 -12,7 -17,10 -10,5 -17,9 -17,9 -1,0 -1,0 -1,1 1,0 1,0 1,0 0,0 7,-3 18,-8 5,-2 11,-5 18,-9 3,-2 6,-3 10,-5 3,-2 6,-5 9,-8 2,-1 3,-2 5,-3l4 -5 3 -5c1,-1 2,-3 3,-5 1,-1 1,-1 1,-2l4 93c0,1 0,1 0,1 1,0 1,0 2,-1l3 -90c0,2 1,3 2,4l3 5 4 5c2,1 3,2 5,3 3,3 6,6 9,8 4,2 7,3 10,5 7,4 13,7 18,9 11,5 18,8 18,8 0,0 1,0 1,0 0,-1 0,-1 -1,-1 0,0 -6,-4 -17,-9z"
         id="path7248"
         style="fill:#6ec559;fill-opacity:1" /><path
         fill="white"
         fill-rule="nonzero"
         d="M205 181c2,-1 3,-2 4,-2 3,-2 5,-3 8,-4 2,-2 4,-4 6,-6 1,-1 2,-2 3,-3 1,-1 1,-2 2,-2 3,-4 4,-6 4,-6 1,-1 1,-2 0,-3 -1,0 -2,0 -2,1l-1 0c0,0 -2,2 -4,5 -1,0 -2,1 -2,2 -1,1 -2,2 -3,2 -2,2 -4,3 -6,5 -3,1 -5,2 -7,3 -1,0 -2,1 -3,1 0,0 0,0 0,0 0,2 0,5 1,7 0,0 0,0 0,0z"
         id="path7250"
         style="fill:#6ec559;fill-opacity:1" /><path
         fill="white"
         fill-rule="nonzero"
         d="M237 209l0 0c0,0 -2,1 -6,2 -1,1 -4,1 -6,1 -2,1 -5,1 -7,1 -4,1 -7,1 -11,1 0,2 0,4 0,6 4,0 7,-1 12,-2 2,0 5,-1 7,-1 2,-1 5,-1 6,-2 4,-2 6,-3 6,-3 1,0 2,-1 1,-1 0,-1 -1,-2 -2,-2z"
         id="path7252"
         style="fill:#6ec559;fill-opacity:1" /><path
         fill="white"
         fill-rule="nonzero"
         d="M206 263c2,1 4,3 6,5 2,2 4,4 6,6 1,2 3,4 4,5 2,4 3,7 3,7 0,1 1,1 3,1 1,0 2,-2 1,-3 0,0 -1,-3 -3,-7 -1,-2 -2,-4 -4,-7 -1,-2 -3,-4 -5,-7 -3,-2 -5,-4 -7,-5 -2,-2 -4,-3 -6,-4 0,3 -1,6 -1,8 1,0 2,1 3,1z"
         id="path7254"
         style="fill:#6ec559;fill-opacity:1" /><path
         fill="white"
         fill-rule="nonzero"
         d="M121 174c-1,0 -2,-1 -3,-1 -2,-1 -4,-2 -7,-3 -2,-2 -4,-3 -6,-5 -1,0 -2,-1 -2,-2 -1,-1 -2,-2 -3,-2 -2,-3 -4,-5 -4,-5l0 0c-1,-1 -2,-1 -3,-1 -1,1 -1,2 0,3 0,0 1,2 4,6 1,0 2,1 2,2 1,1 2,2 3,3 2,2 4,4 6,6 3,1 6,2 8,4 1,0 3,1 4,2 0,0 0,0 0,0 1,-2 1,-5 2,-7 0,0 -1,0 -1,0z"
         id="path7256"
         style="fill:#6ec559;fill-opacity:1" /><path
         fill="white"
         fill-rule="nonzero"
         d="M99 217c2,0 5,1 7,1 5,1 9,2 12,2 0,-2 0,-4 0,-6 -4,0 -7,0 -11,-1 -2,0 -5,0 -7,-1 -2,0 -4,0 -6,-1 -4,-1 -6,-2 -6,-2l0 0c-1,0 -2,1 -2,1 -1,1 0,2 1,2 0,0 2,1 6,3 1,1 4,1 6,2z"
         id="path7258"
         style="fill:#6ec559;fill-opacity:1" /><path
         fill="white"
         fill-rule="nonzero"
         d="M108 263c-2,3 -4,5 -5,7 -2,3 -3,5 -4,7 -2,4 -3,7 -3,7 0,1 0,2 1,3 2,0 3,0 3,-1 0,0 1,-3 3,-7 1,-1 3,-3 4,-5 2,-2 4,-4 6,-6 2,-2 4,-4 6,-5 1,0 2,-1 3,-1 0,-2 0,-5 -1,-8 -2,1 -4,2 -5,4 -3,1 -5,3 -8,5z"
         id="path7260"
         style="fill:#6ec559;fill-opacity:1" /><path
         fill="white"
         fill-rule="nonzero"
         d="M200 107l0 0c0,-1 0,-2 -1,-2 -1,-1 -2,0 -2,0 0,0 -1,2 -2,5 -1,2 -3,6 -4,9 -1,2 -2,3 -3,4 -1,2 -2,2 -2,3 0,0 -1,0 -1,0 2,1 3,2 4,4 0,-1 1,-1 1,-1 1,-1 2,-2 2,-3 1,-1 2,-3 3,-5 1,-4 2,-7 3,-10 1,-2 2,-4 2,-4z"
         id="path7262"
         style="fill:#6ec559;fill-opacity:1" /><path
         fill="white"
         fill-rule="nonzero"
         d="M133 126c1,1 1,2 2,3 0,0 1,0 1,1 1,-2 3,-3 4,-4 0,0 0,0 0,0 -1,-1 -2,-1 -3,-3 -1,-1 -2,-2 -3,-4 -1,-3 -2,-7 -4,-9 -1,-3 -2,-5 -2,-5 0,0 -1,-1 -2,0 -1,0 -1,1 -1,2l0 0c0,0 1,2 2,4 1,3 2,6 3,10 1,2 2,4 3,5z"
         id="path7264"
         style="fill:#6ec559;fill-opacity:1" /><path
         fill="white"
         fill-rule="nonzero"
         d="M325 6c0,0 -4,-1 -10,-2 -3,-1 -7,-2 -11,-3 -5,0 -10,-1 -15,-1 -6,0 -12,0 -18,2 -6,0 -13,3 -19,5 -6,4 -13,7 -19,11 -6,4 -11,9 -17,14 -5,6 -9,11 -14,17 -4,6 -8,13 -11,18 -7,12 -13,24 -17,34 -2,7 -4,12 -6,17 3,1 5,1 8,2 1,-5 3,-10 5,-16 4,-10 9,-22 15,-34 3,-6 7,-12 11,-17 4,-6 8,-12 13,-17 5,-5 10,-11 16,-15 5,-4 11,-7 17,-10 6,-3 12,-6 19,-6 6,-2 11,-2 17,-2 5,-1 10,0 15,0 4,0 8,2 11,2 6,2 9,3 9,3l0 0c1,0 1,-1 1,-1 0,0 0,-1 0,-1z"
         id="path7266"
         style="fill:#6ec559;fill-opacity:1" /><path
         fill="white"
         fill-rule="nonzero"
         d="M106 36c4,5 9,11 13,17 4,5 7,11 11,17 6,12 11,24 14,34 3,6 4,11 6,16 2,-1 5,-1 7,-2 -2,-5 -4,-10 -6,-17 -4,-10 -10,-22 -16,-34 -4,-5 -7,-12 -12,-18 -4,-6 -9,-11 -14,-17 -5,-5 -11,-10 -17,-14 -6,-4 -12,-7 -18,-11 -7,-2 -13,-5 -20,-5 -6,-2 -12,-2 -17,-2 -6,0 -11,1 -15,1 -5,1 -9,2 -12,3 -6,1 -9,2 -9,2 -1,0 -1,1 -1,1 0,0 1,1 1,1l0 0c0,0 3,-1 10,-3 3,0 6,-2 11,-2 4,0 9,-1 15,0 5,0 11,0 17,2 6,0 12,3 18,6 6,3 12,6 18,10 6,4 11,10 16,15z"
         id="path7268"
         style="fill:#6ec559;fill-opacity:1" /><path
         fill="white"
         fill-rule="nonzero"
         d="M140 145c0,4 1,7 2,10 2,0 3,0 4,0 9,-1 17,-1 17,-1 0,0 7,0 16,1 1,0 3,0 4,0 1,-3 2,-6 2,-10 -1,-6 -5,-13 -12,-16 -2,0 -5,-1 -8,-1 0,0 -1,0 -1,0 -1,0 -1,0 -1,0 -1,0 -1,0 -2,0 0,0 0,0 -1,0 -3,0 -5,1 -7,1 -8,3 -12,9 -13,16z"
         id="path7270"
         style="fill:#6ec559;fill-opacity:1" /><path
         fill="white"
         fill-rule="nonzero"
         d="M196 219c0,-2 0,-3 0,-5 0,-6 0,-12 0,-17 -11,-2 -27,-2 -33,-2 -7,0 -23,0 -34,2 0,5 0,11 0,17 0,2 0,3 0,5 0,2 1,4 1,6 14,-2 32,-2 33,-2 0,0 18,0 32,2 1,-2 1,-4 1,-6z"
         id="path7272"
         style="fill:#6ec559;fill-opacity:1" /><path
         fill="white"
         fill-rule="nonzero"
         d="M190 269c-9,-2 -21,-2 -27,-2 -7,0 -19,0 -28,2 1,8 3,15 4,22 10,-2 23,-2 24,-2 0,0 13,0 23,2 1,-7 3,-14 4,-22z"
         id="path7274"
         style="fill:#6ec559;fill-opacity:1" /><path
         fill="white"
         fill-rule="nonzero"
         d="M182 326c-6,0 -14,-1 -19,-1 -6,0 -14,1 -20,1 0,9 1,17 1,25 9,-1 19,-1 19,-1 0,0 9,0 18,1 0,-8 1,-16 1,-25z"
         id="path7276"
         style="fill:#6ec559;fill-opacity:1" /><path
         fill="white"
         fill-rule="nonzero"
         d="M183 308c1,-3 1,-6 1,-9 -6,-1 -15,-2 -21,-2 -7,0 -16,1 -22,2 0,3 1,6 1,9 0,4 0,7 0,10 10,-1 21,-1 21,-1 0,0 11,0 20,1 0,-3 0,-6 0,-10z"
         id="path7278"
         style="fill:#6ec559;fill-opacity:1" /><path
         fill="white"
         fill-rule="nonzero"
         d="M192 258c0,-2 0,-4 1,-7 0,-5 1,-12 2,-18 -10,-1 -25,-2 -32,-2 -7,0 -22,1 -33,2 1,6 2,13 2,19 1,2 1,4 1,6 0,1 1,2 1,3 12,-2 28,-2 29,-2 0,0 16,0 29,2 0,-1 0,-2 0,-3z"
         id="path7280"
         style="fill:#6ec559;fill-opacity:1" /><path
         fill="white"
         fill-rule="nonzero"
         d="M150 393c1,5 2,11 3,16 1,5 3,8 5,10 0,0 0,0 1,1 0,0 0,0 0,0 1,1 2,1 4,2 1,-1 2,-1 3,-2 1,0 1,-1 1,-1 1,0 1,-1 1,-1 2,-2 3,-5 4,-9 1,-5 2,-11 3,-16 -4,0 -9,0 -12,0 -4,0 -9,0 -13,0z"
         id="path7282"
         style="fill:#6ec559;fill-opacity:1" /><path
         fill="white"
         fill-rule="nonzero"
         d="M180 359c-6,-1 -13,-1 -17,-1 -5,0 -12,0 -18,1 1,9 2,18 4,26 7,0 14,0 14,0 0,0 6,0 14,0 1,-8 2,-17 3,-26z"
         id="path7284"
         style="fill:#6ec559;fill-opacity:1" /><path
         fill="white"
         fill-rule="nonzero"
         d="M163 162c-3,0 -7,1 -12,1 -4,0 -9,0 -14,1 0,0 0,0 0,0 -2,4 -3,8 -4,13 -1,2 -1,4 -2,7 0,1 0,2 -1,4 0,0 0,0 0,0 15,-1 32,-1 33,-1 0,0 17,0 32,1 0,0 0,0 0,0 -1,-2 -1,-3 -1,-4 -1,-3 -1,-5 -1,-7 -2,-5 -3,-9 -5,-13 0,0 0,0 0,0 -5,-1 -10,-1 -14,-1 -5,0 -9,-1 -11,-1z"
         id="path7286"
         style="fill:#6ec559;fill-opacity:1" /></g></g></svg>