<?xml version="1.0" encoding="UTF-8" standalone="no"?>
<!-- Creator: CorelDRAW X8 -->

<svg
   xmlns:dc="http://purl.org/dc/elements/1.1/"
   xmlns:cc="http://creativecommons.org/ns#"
   xmlns:rdf="http://www.w3.org/1999/02/22-rdf-syntax-ns#"
   xmlns:svg="http://www.w3.org/2000/svg"
   xmlns="http://www.w3.org/2000/svg"
   xmlns:sodipodi="http://sodipodi.sourceforge.net/DTD/sodipodi-0.dtd"
   xmlns:inkscape="http://www.inkscape.org/namespaces/inkscape"
   xml:space="preserve"
   width="11px"
   height="13px"
   version="1.1"
   shape-rendering="geometricPrecision"
   text-rendering="geometricPrecision"
   image-rendering="optimizeQuality"
   fill-rule="evenodd"
   clip-rule="evenodd"
   viewBox="0 0 645 730"
   id="svg7566"
   inkscape:version="0.91 r13725"
   sodipodi:docname="green-muha.svg"><metadata
     id="metadata7576"><rdf:RDF><cc:Work
         rdf:about=""><dc:format>image/svg+xml</dc:format><dc:type
           rdf:resource="http://purl.org/dc/dcmitype/StillImage" /><dc:title></dc:title></cc:Work></rdf:RDF></metadata><defs
     id="defs7574" /><sodipodi:namedview
     pagecolor="#ffffff"
     bordercolor="#666666"
     borderopacity="1"
     objecttolerance="10"
     gridtolerance="10"
     guidetolerance="10"
     inkscape:pageopacity="0"
     inkscape:pageshadow="2"
     inkscape:window-width="1280"
     inkscape:window-height="743"
     id="namedview7572"
     showgrid="false"
     inkscape:zoom="18.153846"
     inkscape:cx="-2.5699153"
     inkscape:cy="6.5"
     inkscape:window-x="0"
     inkscape:window-y="0"
     inkscape:window-maximized="1"
     inkscape:current-layer="svg7566" /><g
     id="Слой_x0020_1"
     style="fill:#6ec559;fill-opacity:1"><metadata
       id="CorelCorpID_0Corel-Layer" /><path
       fill="white"
       d="M1 171c2,9 3,11 21,16 10,4 17,6 28,9 44,11 61,27 86,62 4,6 11,16 14,22 13,27 9,22 36,24 1,9 2,4 -1,9 0,0 -5,7 -6,7 -12,14 -28,10 -48,34 -38,45 -15,95 -80,131 -24,13 -65,9 -46,46 31,-1 79,-39 92,-56 6,-8 20,-40 23,-52 4,-19 9,-41 29,-45 -6,21 -19,41 -27,61 -23,58 -57,147 -57,209 0,30 14,63 30,80 29,5 41,-9 55,-22 13,-12 27,-26 40,-39l27 -32c3,-5 4,-8 7,-13 10,-14 24,-41 33,-49 8,2 11,8 28,18 14,7 17,10 37,8 65,-5 43,-24 65,-25 8,10 13,21 21,33 27,42 40,54 77,89 15,14 45,49 72,27 14,-12 21,-69 21,-93 0,-30 -42,-160 -56,-191 -6,-14 -24,-46 -24,-59 10,4 12,8 17,18 12,23 14,61 34,80 22,21 65,62 96,47 -2,-40 -29,-27 -56,-44 -11,-6 -21,-13 -29,-21 -11,-10 -11,-20 -16,-37 -32,-115 -89,-78 -87,-119 64,-2 12,-65 133,-106 10,-3 20,-6 31,-10 7,-3 23,-7 19,-17 -8,-10 -73,12 -83,16 -14,6 -29,20 -42,28 -10,6 -11,11 -17,19 -10,16 -17,27 -30,40 -14,1 -34,4 -44,-6 -9,-8 -13,-17 -14,-34 -1,-19 -9,-29 1,-44 5,-8 17,-26 18,-33 1,-6 -5,-33 -6,-42 -5,-39 37,-83 31,-114 -14,-2 -25,32 -33,50 -22,49 -16,60 -18,110 -8,7 -6,9 -16,14 -27,-8 4,-26 6,-42 6,-45 -23,-34 -45,-58 -11,-11 -23,-10 -44,-8 -9,4 0,9 -31,23 -14,6 -25,12 -25,29 0,34 20,36 20,45 -2,6 -6,9 -11,11 -15,-6 -19,-25 -19,-45 0,-44 1,-40 -16,-80 -5,-12 -18,-43 -26,-50 -20,2 2,37 10,57 13,32 15,33 11,71 -4,48 -3,28 16,62 7,13 3,17 1,32 -3,14 -1,27 -8,38 -8,13 -48,23 -60,4 -31,-46 -22,-47 -93,-81 -18,-9 -31,-16 -50,-15l-16 1c-6,1 -4,1 -6,2z"
       id="path7570"
       style="fill:#6ec559;fill-opacity:1" /></g></svg>