<?xml version="1.0" encoding="UTF-8" standalone="no"?>
<!-- Creator: CorelDRAW X8 -->

<svg
   xmlns:dc="http://purl.org/dc/elements/1.1/"
   xmlns:cc="http://creativecommons.org/ns#"
   xmlns:rdf="http://www.w3.org/1999/02/22-rdf-syntax-ns#"
   xmlns:svg="http://www.w3.org/2000/svg"
   xmlns="http://www.w3.org/2000/svg"
   xmlns:sodipodi="http://sodipodi.sourceforge.net/DTD/sodipodi-0.dtd"
   xmlns:inkscape="http://www.inkscape.org/namespaces/inkscape"
   xml:space="preserve"
   width="12px"
   height="13px"
   version="1.1"
   shape-rendering="geometricPrecision"
   text-rendering="geometricPrecision"
   image-rendering="optimizeQuality"
   fill-rule="evenodd"
   clip-rule="evenodd"
   viewBox="0 0 733 796"
   id="svg6244"
   inkscape:version="0.91 r13725"
   sodipodi:docname="green-drevotoch.svg"><metadata
     id="metadata6273"><rdf:RDF><cc:Work
         rdf:about=""><dc:format>image/svg+xml</dc:format><dc:type
           rdf:resource="http://purl.org/dc/dcmitype/StillImage" /><dc:title></dc:title></cc:Work></rdf:RDF></metadata><defs
     id="defs6271" /><sodipodi:namedview
     pagecolor="#ffffff"
     bordercolor="#666666"
     borderopacity="1"
     objecttolerance="10"
     gridtolerance="10"
     guidetolerance="10"
     inkscape:pageopacity="0"
     inkscape:pageshadow="2"
     inkscape:window-width="1280"
     inkscape:window-height="743"
     id="namedview6269"
     showgrid="false"
     inkscape:zoom="18.153846"
     inkscape:cx="-2.0699153"
     inkscape:cy="6.5"
     inkscape:window-x="0"
     inkscape:window-y="0"
     inkscape:window-maximized="1"
     inkscape:current-layer="svg6244" /><g
     id="Слой_x0020_1"
     style="fill:#6ec559;fill-opacity:1"><metadata
       id="CorelCorpID_0Corel-Layer" /><g
       id="_1635229616"
       style="fill:#6ec559;fill-opacity:1"><path
         fill="white"
         fill-rule="nonzero"
         d="M66 54c2,5 4,10 4,16 1,5 2,11 3,16l0 5 4 2 37 24c13,7 25,15 36,23l3 1 3 9c1,7 4,13 5,20 1,7 3,13 4,20l3 16c-7,12 -3,27 8,34l2 1 44 27c14,9 29,18 44,27 3,2 6,4 9,6 4,-3 7,-6 10,-9l-2 -7c-1,-4 -8,-21 -8,-36 -9,-7 -19,-13 -28,-20l-42 -31c0,-1 -1,-1 -2,-1 0,-1 -1,-1 -2,-1l-3 -13c-2,-7 -5,-14 -7,-21 -2,-8 -5,-15 -8,-22l-5 -11 0 -1 -1 0 0 -1 -1 -2 0 0 -1 -1c-4,-4 -4,-3 -5,-4l-5 -3c-13,-8 -26,-14 -39,-21l-35 -17c-1,-5 -2,-9 -3,-13 -2,-6 -5,-12 -7,-18 -1,-4 -5,-6 -9,-5 -5,1 -7,6 -6,10l0 1z"
         id="path6249"
         style="fill:#6ec559;fill-opacity:1" /><path
         fill="white"
         fill-rule="nonzero"
         d="M459 249c-1,15 -7,32 -9,36l-2 7c3,3 7,6 10,9 3,-2 6,-4 9,-6 16,-8 30,-18 45,-27l43 -26 3 -2c0,0 1,-1 1,-1 11,-8 13,-23 7,-34l2 -15c1,-7 3,-13 4,-20 2,-7 4,-13 6,-20l2 -8 3 -2c11,-8 24,-16 36,-23l37 -24 4 -2 0 -5c1,-5 2,-11 3,-16 1,-6 3,-11 4,-16l0 -1c1,-4 -1,-8 -4,-10 -5,-1 -9,1 -11,5 -2,6 -5,12 -6,18 -2,4 -3,8 -3,13l-36 17c-12,7 -25,13 -38,21l-6 3c-1,1 -1,0 -5,4l-1 1 0 0 -1 2 0 1 0 0 -1 1 -5 11c-3,7 -6,14 -8,22 -2,7 -5,14 -6,21l-3 13c-2,0 -3,0 -4,1l-22 16 -22 16c-8,7 -17,13 -26,20z"
         id="path6251"
         style="fill:#6ec559;fill-opacity:1" /><path
         fill="white"
         fill-rule="nonzero"
         d="M726 530l-33 -3c-3,-2 -5,-3 -8,-6 -3,-2 -6,-4 -8,-7 -3,-3 -6,-5 -9,-8l-8 -9c-1,-1 -2,-2 -3,-3 -3,-1 -5,-2 -8,-2l-70 -110c2,-10 -2,-20 -12,-24l-91 -38c14,18 26,36 31,46 0,1 0,1 0,2l39 25 2 2c1,0 2,1 3,1 6,3 12,2 17,0l51 113c0,1 1,1 1,2 3,5 8,7 13,8 1,2 3,3 5,5l10 6c4,3 8,5 12,7 3,2 8,4 12,6 3,2 8,4 13,6l3 1 1 0 37 -4c4,0 7,-3 7,-7 1,-4 -2,-8 -7,-9z"
         id="path6253"
         style="fill:#6ec559;fill-opacity:1" /><path
         fill="white"
         fill-rule="nonzero"
         d="M185 395l2 -2 39 -25c0,-1 0,-1 1,-2 4,-10 16,-28 30,-45l-91 37c-1,1 -2,1 -3,2 -8,5 -11,14 -9,22l-70 110c-4,0 -8,2 -10,5l-9 9c-3,3 -6,5 -9,8 -2,3 -5,5 -8,7 -3,3 -5,4 -8,6l-33 3c-4,1 -7,4 -7,8 0,4 3,8 7,8l37 4 2 0 2 -1c5,-2 10,-4 14,-6 4,-2 8,-4 12,-6 3,-2 8,-4 11,-7l10 -6c2,-1 3,-2 4,-3 0,-1 1,-2 1,-2 6,-1 11,-4 14,-10l51 -113c7,3 14,3 20,-1z"
         id="path6255"
         style="fill:#6ec559;fill-opacity:1" /><path
         fill="white"
         fill-rule="nonzero"
         d="M598 790c0,0 -5,-8 -15,-18 -5,-4 -12,-10 -15,-14 -1,-1 -1,-2 -1,-2l0 -2 0 0c0,1 0,0 0,0l0 -1 0 -1c0,-4 0,-8 0,-13 2,-24 4,-48 5,-61 7,-3 13,-10 13,-19l0 -1 1 -102c1,0 3,-1 3,-2 10,-9 11,-24 1,-34 0,0 -6,-7 -16,-18 -10,-11 -22,-26 -33,-42 -6,-7 -11,-13 -17,-19 3,18 4,38 4,57 1,1 1,2 2,3 4,8 7,15 10,21 6,13 9,22 9,22l1 2c1,3 3,5 5,7 1,2 3,3 4,4l-15 99c0,1 0,2 0,3 0,0 0,1 0,1 -2,3 -3,7 -2,10l0 0c0,0 1,9 2,22 0,13 1,30 2,48 0,4 0,8 1,13l1 5 0 1c0,1 0,0 0,1l0 1 1 1c1,3 3,6 5,8 8,8 15,10 20,14 11,6 18,11 18,11 1,1 3,2 5,1 2,-2 2,-4 1,-6l0 0z"
         id="path6257"
         style="fill:#6ec559;fill-opacity:1" /><path
         fill="white"
         fill-rule="nonzero"
         d="M159 502c-9,11 -16,18 -16,18 -2,2 -4,5 -5,8 -4,10 0,22 9,28l1 102 0 2c0,0 0,1 1,2 1,8 6,13 12,16 1,4 1,8 2,14 1,13 2,30 3,47 1,5 1,9 1,13l0 1 0 1c0,0 -1,1 0,0l0 0 -1 2c0,0 0,1 -1,2 -3,4 -10,10 -15,14 -10,10 -15,18 -15,18l0 0c-1,1 -1,3 1,5 1,2 4,2 6,0 0,0 6,-5 17,-11 5,-4 12,-6 20,-14 2,-2 4,-5 5,-8l1 -1 0 -1c1,-1 0,0 0,-1l1 -1 0 -5c1,-4 1,-9 1,-13 1,-18 2,-35 3,-48 1,-13 2,-22 2,-22 0,0 0,-2 0,-3 0,-2 -2,-5 -3,-7 0,-1 0,-3 0,-4l-15 -99c4,-3 7,-6 9,-11l1 -2c0,0 3,-9 9,-22 3,-6 7,-13 11,-21 0,-1 0,-2 1,-3 0,-19 1,-39 4,-57 -6,6 -11,12 -16,19 -12,16 -24,31 -34,42z"
         id="path6259"
         style="fill:#6ec559;fill-opacity:1" /><path
         fill="white"
         fill-rule="nonzero"
         d="M393 112c7,-1 14,-2 21,-3 15,-2 30,-4 45,-5l3 0 2 -2c3,-4 3,-5 4,-8l2 -6 3 -11 7 -23c2,-7 4,-14 7,-21 1,-3 3,-6 5,-8 1,-2 3,-3 3,-3 6,-2 9,-8 7,-14 -2,-6 -9,-9 -15,-7 -8,3 -11,8 -14,12 -2,5 -4,9 -5,13 -3,8 -5,16 -6,24l-5 23 -2 11 -1 6c0,0 0,0 0,1 -14,2 -28,5 -42,8 -6,1 -13,3 -19,4 0,3 0,5 0,8 0,0 0,0 0,1z"
         id="path6261"
         style="fill:#6ec559;fill-opacity:1" /><path
         fill="white"
         fill-rule="nonzero"
         d="M239 22c-1,0 1,1 3,3 1,2 3,5 4,8 3,7 6,14 8,21l6 23 3 11 2 6c1,3 1,4 5,8l1 2 3 0c15,1 30,3 46,5 7,1 13,2 20,3 0,-1 0,-1 0,-1 0,-3 0,-5 0,-8 -6,-1 -12,-3 -19,-4 -13,-3 -27,-6 -41,-8 -1,-1 -1,-1 -1,-1l-1 -6 -2 -11 -4 -23c-2,-8 -4,-16 -6,-24 -2,-4 -4,-8 -6,-13 -3,-4 -6,-9 -14,-12 -6,-2 -13,1 -15,7 -2,6 2,12 8,14z"
         id="path6263"
         style="fill:#6ec559;fill-opacity:1" /><path
         fill="white"
         fill-rule="nonzero"
         d="M499 412c-3,-14 -7,-27 -11,-38 -4,-9 -12,-21 -22,-33 -6,-8 -13,-16 -21,-24 -1,-2 -3,-3 -5,-5 -6,-5 -11,-9 -15,-13 -2,0 -5,0 -7,0 -7,0 -16,0 -25,0 -2,0 -4,0 -6,0 -7,0 -14,0 -20,0 -7,0 -14,0 -21,0 -2,0 -4,0 -6,0 -9,0 -18,0 -24,0 -3,0 -5,0 -7,0 -5,4 -10,8 -15,13 -2,2 -4,3 -6,5 -7,8 -14,16 -21,24 -10,12 -18,24 -22,33 -4,11 -8,24 -10,38 -4,14 -6,30 -7,47 -7,73 2,159 21,199 8,18 67,72 115,80 1,0 2,0 2,0 0,0 1,-1 1,-4 0,3 0,4 0,4 1,0 1,0 2,0 49,-8 108,-62 116,-80 18,-40 27,-126 21,-199 -2,-17 -4,-33 -7,-47z"
         id="path6265"
         style="fill:#6ec559;fill-opacity:1" /><path
         fill="white"
         fill-rule="nonzero"
         d="M337 142c2,5 4,7 6,9 -3,3 -21,33 -25,39 -18,32 -23,56 -23,56 0,6 2,14 4,20 1,7 3,12 3,12 0,0 1,0 1,0 3,1 7,1 13,1 13,0 33,-1 51,-1 17,0 37,1 50,1 6,0 11,0 13,-1 0,0 1,0 1,0 0,0 2,-5 4,-12 2,-6 3,-14 3,-20 0,0 -4,-24 -23,-56 -4,-6 -22,-36 -25,-39 2,-2 4,-4 6,-9 1,-2 -4,-22 -14,-32 -4,-5 -9,-8 -15,-8 -6,0 -11,3 -16,8 -10,10 -15,30 -14,32z"
         id="path6267"
         style="fill:#6ec559;fill-opacity:1" /></g></g></svg>