<?xml version="1.0" encoding="UTF-8" standalone="no"?>
<!-- Creator: CorelDRAW X8 -->

<svg
   xmlns:dc="http://purl.org/dc/elements/1.1/"
   xmlns:cc="http://creativecommons.org/ns#"
   xmlns:rdf="http://www.w3.org/1999/02/22-rdf-syntax-ns#"
   xmlns:svg="http://www.w3.org/2000/svg"
   xmlns="http://www.w3.org/2000/svg"
   xmlns:sodipodi="http://sodipodi.sourceforge.net/DTD/sodipodi-0.dtd"
   xmlns:inkscape="http://www.inkscape.org/namespaces/inkscape"
   xml:space="preserve"
   width="12px"
   height="13px"
   version="1.1"
   shape-rendering="geometricPrecision"
   text-rendering="geometricPrecision"
   image-rendering="optimizeQuality"
   fill-rule="evenodd"
   clip-rule="evenodd"
   viewBox="0 0 738 796"
   id="svg2"
   inkscape:version="0.91 r13725"
   sodipodi:docname="green-klop.svg"><metadata
     id="metadata31"><rdf:RDF><cc:Work
         rdf:about=""><dc:format>image/svg+xml</dc:format><dc:type
           rdf:resource="http://purl.org/dc/dcmitype/StillImage" /><dc:title></dc:title></cc:Work></rdf:RDF></metadata><defs
     id="defs29" /><sodipodi:namedview
     pagecolor="#ffffff"
     bordercolor="#666666"
     borderopacity="1"
     objecttolerance="10"
     gridtolerance="10"
     guidetolerance="10"
     inkscape:pageopacity="0"
     inkscape:pageshadow="2"
     inkscape:window-width="681"
     inkscape:window-height="480"
     id="namedview27"
     showgrid="false"
     inkscape:zoom="18.153846"
     inkscape:cx="6"
     inkscape:cy="6.5"
     inkscape:window-x="0"
     inkscape:window-y="0"
     inkscape:window-maximized="0"
     inkscape:current-layer="svg2" /><g
     id="Слой_x0020_1"
     style="fill:#6ec559;fill-opacity:1"><metadata
       id="CorelCorpID_0Corel-Layer" /><g
       id="_1635236752"
       style="fill:#6ec559;fill-opacity:1"><path
         fill="white"
         fill-rule="nonzero"
         d="M425 192c4,-7 8,-13 12,-20 4,-8 11,-16 16,-24 6,-8 12,-15 18,-22l20 -21c14,-14 28,-27 42,-41l1 -1 0 -2c2,-19 3,-38 5,-57 0,0 0,0 0,0 1,-2 -1,-4 -3,-4 -2,0 -3,1 -3,4 -2,18 -5,36 -7,54 -14,12 -28,24 -42,37l-21 20c-7,8 -14,15 -20,23 -6,8 -13,15 -19,24 -5,8 -11,16 -15,25 5,1 10,3 16,5z"
         id="path7"
         style="fill:#6ec559;fill-opacity:1" /><path
         fill="white"
         fill-rule="nonzero"
         d="M202 63l1 1c14,14 28,27 42,41l20 21c6,7 13,14 18,22 6,8 12,16 16,24 4,7 9,14 12,21 6,-2 12,-4 17,-5 -5,-9 -11,-17 -16,-26 -5,-9 -12,-16 -18,-24 -7,-8 -14,-15 -20,-23l-22 -20c-14,-13 -28,-25 -42,-37 -2,-18 -5,-36 -6,-54 0,-1 0,-1 0,-1 -1,-2 -2,-3 -4,-3 -2,0 -3,2 -3,4 2,19 3,38 5,57l0 2z"
         id="path9"
         style="fill:#6ec559;fill-opacity:1" /><path
         fill="white"
         fill-rule="nonzero"
         d="M164 206l8 50c0,3 2,5 4,7l1 0 50 34c7,-7 15,-13 21,-18l-58 -33 -10 -46 0 0c0,-1 -1,-2 -1,-3l-17 -27c-2,-4 -6,-5 -10,-3 -4,3 -5,8 -3,12l15 27z"
         id="path11"
         style="fill:#6ec559;fill-opacity:1" /><path
         fill="white"
         fill-rule="nonzero"
         d="M511 297l51 -34 0 0c2,-2 4,-4 5,-7l8 -50 14 -27c2,-4 1,-9 -2,-12 -4,-2 -8,-1 -11,3l-17 27c0,1 0,2 -1,3l0 0 -10 46 -58 33c7,5 14,11 21,18z"
         id="path13"
         style="fill:#6ec559;fill-opacity:1" /><path
         fill="white"
         fill-rule="nonzero"
         d="M627 486l-1 0 -69 -52c1,14 2,28 2,42l46 30 -19 199 0 1c0,2 0,4 2,6l30 38c2,2 6,3 9,0 2,-2 3,-7 1,-10l-26 -36 30 -203c1,-6 -1,-11 -5,-15z"
         id="path15"
         style="fill:#6ec559;fill-opacity:1" /><path
         fill="white"
         fill-rule="nonzero"
         d="M729 345l-35 15 -97 -46c-3,-1 -6,-1 -9,0l-1 1 -47 24c4,10 7,21 10,33l44 -29 97 33 1 0c1,1 3,1 4,0l38 -17c3,-2 5,-6 4,-10 -1,-3 -5,-6 -9,-4z"
         id="path17"
         style="fill:#6ec559;fill-opacity:1" /><path
         fill="white"
         fill-rule="nonzero"
         d="M189 372c2,-12 5,-23 10,-33l-48 -24 -1 -1c-2,-1 -6,-1 -9,0l-96 46 -36 -15c-3,-1 -7,0 -8,4 -2,4 0,8 3,10l38 17c2,1 3,1 5,0l0 0 97 -33 45 29z"
         id="path19"
         style="fill:#6ec559;fill-opacity:1" /><path
         fill="white"
         fill-rule="nonzero"
         d="M133 506l46 -30c0,-14 1,-28 2,-42l-69 52 0 0c-4,3 -7,9 -6,15l30 203 -25 36c-2,3 -2,8 0,10 3,3 7,2 9,0l30 -38c2,-2 3,-4 2,-6l0 -1 -19 -199z"
         id="path21"
         style="fill:#6ec559;fill-opacity:1" /><path
         fill="white"
         fill-rule="nonzero"
         d="M368 307l83 -32c2,-12 3,-28 -2,-36 -9,-16 -43,-26 -60,-28l-1 -7c0,-7 -12,-17 -19,-18 -7,1 -19,11 -19,18l-1 7c-17,2 -51,12 -59,28 -6,9 -5,25 -2,38l80 30z"
         id="path23"
         style="fill:#6ec559;fill-opacity:1" /><path
         fill="white"
         fill-rule="nonzero"
         d="M530 383c-15,-59 -50,-82 -69,-91l-90 34c-1,1 -2,1 -3,1 -1,0 -2,0 -3,-1l-89 -33c-20,9 -53,33 -67,90 -23,96 -9,226 45,323 23,40 78,61 90,72 10,9 18,16 23,18 5,-2 14,-9 24,-18 11,-11 71,-32 93,-72 54,-97 68,-227 46,-323z"
         id="path25"
         style="fill:#6ec559;fill-opacity:1" /></g></g></svg>