<?xml version="1.0" encoding="UTF-8"?>
<!DOCTYPE svg PUBLIC "-//W3C//DTD SVG 1.1//EN" "http://www.w3.org/Graphics/SVG/1.1/DTD/svg11.dtd">
<!-- Creator: CorelDRAW X8 -->
<svg xmlns="http://www.w3.org/2000/svg" xml:space="preserve" width="13px" height="13px" version="1.1" shape-rendering="geometricPrecision" text-rendering="geometricPrecision" image-rendering="optimizeQuality" fill-rule="evenodd" clip-rule="evenodd"
viewBox="0 0 842 863"
 xmlns:xlink="http://www.w3.org/1999/xlink">
 <g id="Слой_x0020_1">
  <metadata id="CorelCorpID_0Corel-Layer"/>
  <g id="_1635223152">
   <path fill="white" fill-rule="nonzero" d="M106 203c13,12 25,27 38,40l37 41 1 2 3 1c19,10 38,19 58,27 1,1 3,2 5,2 7,-12 14,-23 23,-35 -1,0 -1,0 -2,0 -4,-1 -9,-2 -14,-4 -18,-5 -37,-11 -54,-18l-39 -34c-14,-13 -29,-25 -42,-38 0,0 0,0 0,-1 -4,-4 -11,-3 -15,1 -4,4 -4,11 0,15l1 1z"/>
   <path fill="white" fill-rule="nonzero" d="M513 21l0 0c7,3 13,5 19,8 6,3 13,5 18,9 12,6 23,14 34,23 11,8 20,18 29,28 5,5 9,11 13,16 3,5 6,9 9,14 -2,12 -11,25 -21,37 -10,13 -23,24 -36,35 -17,14 -36,27 -54,39 9,8 18,17 26,26 16,-14 32,-28 48,-43 12,-13 25,-26 36,-41 10,-16 22,-32 22,-55l0 -3 -1 -2c-4,-7 -8,-13 -13,-19 -4,-6 -9,-11 -14,-17 -10,-11 -21,-21 -32,-30 -11,-9 -23,-18 -36,-25 -6,-4 -12,-7 -19,-11 -6,-3 -13,-6 -20,-9 0,0 0,0 0,0 -6,-2 -12,0 -14,6 -3,5 0,11 6,14z"/>
   <path fill="white" fill-rule="nonzero" d="M587 277c-5,2 -10,3 -14,4 -1,0 -1,0 -2,0 8,12 16,23 23,35 2,0 4,-1 5,-2 20,-8 39,-17 57,-27l3 -1 2 -2 37 -41c13,-13 24,-28 38,-40l0 -1c1,0 1,0 1,0 4,-5 4,-11 0,-15 -5,-5 -11,-4 -16,0 -12,13 -27,25 -41,38l-39 34c-18,7 -36,13 -54,18z"/>
   <path fill="white" fill-rule="nonzero" d="M208 172c11,15 24,28 36,41 15,15 31,29 48,43 8,-9 17,-18 26,-26 -19,-12 -37,-25 -54,-39 -13,-11 -26,-22 -36,-35 -10,-12 -19,-25 -21,-37 3,-5 6,-9 9,-14 4,-5 8,-11 13,-16 9,-10 18,-20 29,-28 10,-9 21,-17 33,-23 6,-4 13,-6 19,-9 6,-3 12,-5 18,-8l1 0c1,0 1,0 1,-1 5,-2 7,-8 5,-14 -3,-5 -9,-7 -14,-5 -7,3 -14,6 -20,9 -7,4 -13,7 -19,11 -13,7 -25,16 -36,25 -12,9 -22,19 -32,30 -5,6 -10,11 -14,17 -5,6 -9,12 -13,19l-2 2 0 3c1,23 12,39 23,55z"/>
   <path fill="white" fill-rule="nonzero" d="M840 257c-3,-5 -9,-7 -14,-4l-3 2 -15 8c-5,3 -10,7 -15,9l-34 17c-21,10 -43,20 -65,30 -22,4 -45,7 -68,10 -8,1 -16,1 -24,1 7,13 14,26 19,40 4,-1 8,-1 11,-2 24,-4 47,-10 71,-16l2 0 2 -1c22,-12 44,-25 65,-38l33 -19c5,-4 11,-8 16,-12l16 -11c5,-4 6,-10 3,-14z"/>
   <path fill="white" fill-rule="nonzero" d="M749 514c-1,-2 -1,-2 -1,-3l0 -1 -1 -2 -1 -2c-3,-9 -7,-17 -12,-26 -19,-33 -48,-54 -72,-69 -12,-6 -22,-11 -31,-16 7,20 12,40 16,60 19,11 38,26 52,47 4,6 7,12 10,19l1 1 0 0c0,1 1,3 1,3 0,0 0,1 0,3 0,3 0,7 0,11 1,15 -1,33 -3,50 -8,68 -26,136 -46,183 -10,23 -21,42 -29,54 -9,11 -14,17 -14,17 -4,5 -5,12 0,16 4,5 11,5 16,0l0 0c0,0 7,-6 17,-19 10,-13 22,-33 34,-57 24,-49 46,-118 58,-189 3,-18 6,-36 6,-55 0,-5 1,-9 0,-15 0,-2 0,-6 -1,-10z"/>
   <path fill="white" fill-rule="nonzero" d="M209 826c-8,-12 -19,-31 -29,-54 -20,-47 -38,-115 -46,-183 -2,-17 -4,-35 -4,-50 0,-4 0,-8 1,-11 0,-2 0,-3 0,-3 0,0 1,-2 1,-3l0 0 1 -1c3,-7 6,-13 10,-19 13,-21 33,-36 52,-47 4,-20 9,-40 16,-60 -9,5 -19,10 -31,16 -24,15 -53,36 -72,69 -5,9 -9,17 -13,26l0 2 -1 2 0 1c-1,1 -1,1 -1,3 -1,4 -1,8 -1,10 -1,6 -1,10 0,15 0,19 3,37 6,55 12,71 34,140 58,189 11,24 24,44 34,57 10,13 17,19 17,19l0 1c4,4 11,4 16,-1 4,-4 4,-11 0,-16 0,0 -6,-6 -14,-17z"/>
   <path fill="white" fill-rule="nonzero" d="M136 352l3 0c24,6 47,12 71,16 3,1 7,1 11,2 5,-14 12,-27 19,-40 -8,0 -16,0 -25,-1 -22,-3 -45,-6 -67,-10 -22,-10 -44,-20 -65,-30l-34 -17c-5,-2 -10,-6 -15,-9l-15 -9 -3 -1c-5,-3 -11,-2 -14,3 -3,5 -2,11 2,15l17 11c5,4 11,8 16,12l32 19c22,13 44,26 66,38l1 1z"/>
   <path fill="white" fill-rule="nonzero" d="M502 240c-16,13 -40,21 -64,23 -3,-1 -6,-1 -9,-1 -2,0 -5,0 -8,1 -3,-1 -6,-1 -9,-1 -2,0 -5,0 -8,1 -24,-2 -48,-10 -64,-23 -84,70 -132,188 -132,295 0,142 64,264 213,264 148,0 213,-122 213,-264 0,-107 -48,-225 -132,-295z"/>
   <path fill="white" fill-rule="nonzero" d="M419 247c1,0 1,0 2,0 0,0 1,0 1,0 30,0 65,-15 65,-34 0,-6 -3,-10 -7,-12 2,-4 2,-8 2,-11 0,-30 -19,-84 -48,-92 1,25 14,62 6,97 -6,1 -13,1 -19,2 -6,-1 -13,-1 -19,-2 -8,-35 5,-72 6,-97 -29,8 -49,62 -49,92 0,3 1,7 2,11 -4,2 -6,6 -6,12 0,19 35,34 64,34z"/>
  </g>
 </g>
</svg>
