<?xml version="1.0" encoding="UTF-8"?>
<!DOCTYPE svg PUBLIC "-//W3C//DTD SVG 1.1//EN" "http://www.w3.org/Graphics/SVG/1.1/DTD/svg11.dtd">
<!-- Creator: CorelDRAW X8 -->
<svg xmlns="http://www.w3.org/2000/svg" xml:space="preserve" width="12px" height="13px" version="1.1" shape-rendering="geometricPrecision" text-rendering="geometricPrecision" image-rendering="optimizeQuality" fill-rule="evenodd" clip-rule="evenodd"
viewBox="0 0 716 796"
 xmlns:xlink="http://www.w3.org/1999/xlink">
 <g id="Слой_x0020_1">
  <metadata id="CorelCorpID_0Corel-Layer"/>
  <g id="_1163025216">
   <path fill="white" fill-rule="nonzero" d="M220 71l12 104c0,2 1,4 3,5l0 0 83 71c1,-7 2,-14 4,-19 -1,-2 -3,-4 -4,-6l-70 -56 -14 -103 0 0c-1,-2 -2,-3 -3,-5l-80 -61c-2,-1 -5,-1 -7,1 -2,2 -2,6 1,8l75 61z"/>
   <path fill="white" fill-rule="nonzero" d="M482 180l1 0c1,-1 2,-3 2,-5l11 -104 76 -62c2,-1 3,-5 1,-7 -2,-2 -5,-3 -7,-1l-80 61c-1,1 -2,3 -3,5l0 0 -14 103 -70 56c-1,2 -2,4 -4,6 2,5 3,12 4,19l83 -71z"/>
   <path fill="white" fill-rule="nonzero" d="M202 512l0 -1 -4 -76c-6,4 -12,8 -18,12l5 62 -110 114c-3,2 -3,6 0,8 2,2 5,2 8,0l116 -113c2,-2 3,-4 3,-6z"/>
   <path fill="white" fill-rule="nonzero" d="M533 509l4 -56c-6,-4 -12,-8 -18,-11l-3 69 0 1c0,2 0,4 2,6l117 113c2,2 6,2 8,0 2,-3 2,-6 0,-8l-110 -114z"/>
   <path fill="white" fill-rule="nonzero" d="M457 583l11 -183c-7,-7 -14,-13 -20,-20l-7 205 0 0c0,1 1,3 1,4l114 205c1,2 4,3 6,2 3,-2 4,-5 2,-7l-107 -206z"/>
   <path fill="white" fill-rule="nonzero" d="M249 396l11 187 -107 206c-1,2 0,5 2,7 3,1 6,0 7,-2l113 -205c1,-1 1,-3 1,-4l0 0 -7 -208c-6,6 -13,12 -20,19z"/>
   <path fill="white" fill-rule="nonzero" d="M715 431c-29,-43 -142,-162 -337,-174 -1,-16 -6,-28 -11,-37 10,-1 20,-36 -1,-43 -1,-21 -7,-84 -7,-84 0,0 -6,63 -7,84 -23,8 -11,43 -2,43 -5,9 -9,21 -11,37 -195,12 -308,131 -338,174 -9,13 49,27 64,27 144,0 240,-145 273,-193 0,2 0,4 0,6 0,24 2,22 8,46 -33,63 -20,209 13,290 33,-81 45,-227 13,-290 6,-24 7,-22 7,-46 0,-2 0,-3 0,-5 34,49 129,192 273,192 14,0 73,-14 63,-27z"/>
  </g>
 </g>
</svg>
