<?xml version="1.0" encoding="UTF-8"?>
<!DOCTYPE svg PUBLIC "-//W3C//DTD SVG 1.1//EN" "http://www.w3.org/Graphics/SVG/1.1/DTD/svg11.dtd">
<!-- Creator: CorelDRAW X8 -->
<svg xmlns="http://www.w3.org/2000/svg" xml:space="preserve" width="12px" height="13px" version="1.1" shape-rendering="geometricPrecision" text-rendering="geometricPrecision" image-rendering="optimizeQuality" fill-rule="evenodd" clip-rule="evenodd"
viewBox="0 0 739 796"
 xmlns:xlink="http://www.w3.org/1999/xlink">
 <g id="Слой_x0020_1">
  <metadata id="CorelCorpID_0Corel-Layer"/>
  <g id="_1635231120">
   <path fill="white" fill-rule="nonzero" d="M417 21c1,4 3,8 4,11 3,7 7,14 11,20 7,10 14,20 22,29 0,0 -1,1 -1,1 -2,2 -4,4 -7,6 -5,4 -11,8 -17,13 -3,2 -6,5 -10,7 7,8 12,17 16,25 4,-4 8,-8 12,-12 5,-5 10,-10 15,-16 3,-2 5,-5 8,-9 1,-2 3,-4 4,-6l2 -4c0,-2 1,-4 1,-6l0 -5 -4 -3c-10,-8 -20,-18 -28,-29 -3,-6 -7,-11 -9,-17 -4,-6 -5,-12 -6,-18l-1 -2c0,0 0,0 0,0 -1,-4 -5,-7 -10,-6 -4,2 -6,6 -5,10l3 11z"/>
   <path fill="white" fill-rule="nonzero" d="M263 86l2 4c1,2 3,4 4,6 2,4 5,7 8,9 5,6 10,11 15,16 4,4 8,8 12,12 4,-8 9,-17 16,-25 -4,-2 -7,-5 -10,-7 -6,-5 -12,-9 -17,-13 -3,-2 -5,-4 -7,-6 -1,0 -1,-1 -1,-1 8,-9 15,-19 22,-29 4,-6 8,-13 11,-20 1,-3 3,-7 4,-11l3 -11c0,0 0,0 0,0 1,-4 -1,-9 -6,-10 -4,-1 -8,2 -9,6l-1 2c-1,6 -2,12 -6,18 -2,6 -6,11 -9,17 -8,11 -18,21 -28,29l-4 3 0 5c0,2 1,4 1,6z"/>
   <path fill="white" fill-rule="nonzero" d="M423 302c3,10 6,22 8,39 1,-2 3,-4 4,-6l32 -41c11,-14 23,-27 35,-40 10,-14 23,-25 34,-37 24,-5 48,-11 72,-19 12,-4 24,-8 36,-14 6,-3 12,-6 17,-10 6,-3 12,-8 17,-13 0,0 0,-1 0,-1 3,-3 2,-7 -1,-10 -3,-2 -7,-1 -10,1l0 1c-3,4 -8,8 -13,11 -5,3 -11,5 -16,8 -12,4 -23,8 -35,11 -24,7 -49,12 -74,15l0 0c-2,0 -3,1 -5,2 -13,13 -28,25 -40,38 -13,13 -26,26 -38,39l-23 26z"/>
   <path fill="white" fill-rule="nonzero" d="M77 174c6,4 12,7 18,10 12,6 24,10 36,14 24,8 47,14 72,19 11,12 23,23 34,37 12,13 24,26 35,40l32 41c1,2 3,4 4,6 2,-17 4,-29 7,-39l-22 -26c-13,-13 -25,-26 -38,-39 -12,-13 -27,-25 -41,-38 -1,-1 -2,-2 -4,-2l0 0c-25,-3 -50,-8 -74,-15 -12,-3 -24,-7 -35,-11 -6,-3 -11,-5 -16,-8 -5,-3 -10,-7 -13,-11l0 -1c0,0 -1,0 -1,0 -2,-3 -7,-3 -10,0 -2,2 -3,7 0,10 5,5 11,10 16,13z"/>
   <path fill="white" fill-rule="nonzero" d="M566 684c-2,-11 -4,-20 -5,-32l-4 -35 -6 -70 0 -1c0,-3 -2,-6 -5,-8l-36 -27 -18 -13c-6,-5 -12,-8 -18,-12l-45 -27c-2,12 -6,23 -10,31l40 22c6,4 13,7 18,11l18 12 31 21 8 64 5 35c2,12 5,25 8,37 0,1 0,1 1,2l0 1 79 97 1 1c2,4 7,4 10,2 4,-3 5,-8 2,-11l-74 -100z"/>
   <path fill="white" fill-rule="nonzero" d="M733 484l-114 -29 -105 -79c-3,-2 -5,-3 -8,-3l-2 0 -28 0c-10,1 -20,1 -30,2 -4,0 -9,0 -13,1 0,10 0,20 0,32 1,-1 2,-1 2,-1 5,0 9,-1 14,-2 9,-1 19,-1 28,-2l24 -1 106 72 1 0c1,1 2,2 3,2l118 24c4,1 8,-2 10,-6 1,-4 -2,-9 -6,-10z"/>
   <path fill="white" fill-rule="nonzero" d="M131 474l0 0 107 -72 24 1c9,1 19,1 28,2 5,1 9,2 14,2 0,0 1,0 2,1 -1,-12 0,-22 0,-32 -5,-1 -9,-1 -13,-1 -10,-1 -20,-1 -30,-2l-28 0 -2 0c-3,0 -5,1 -8,3l-105 79 -114 29c-4,1 -7,5 -6,10 1,4 5,7 10,6l117 -24c2,0 3,-1 4,-2z"/>
   <path fill="white" fill-rule="nonzero" d="M320 490c-4,-8 -8,-19 -10,-31l-45 27c-6,4 -12,7 -18,12l-18 13 -37 27c-2,2 -4,5 -4,8l0 1 -7 70 -3 35c-1,12 -4,21 -5,32l-74 100c-3,3 -2,8 1,11 4,2 8,2 11,-2l1 -1 79 -97 0 -1c1,-1 1,-1 1,-2 3,-12 6,-25 8,-37l5 -35 8 -64 31 -21 18 -12c5,-4 12,-7 18,-11l40 -22z"/>
   <path fill="white" fill-rule="nonzero" d="M369 758c64,-19 84,-65 84,-109 0,-100 -51,-96 -69,-136 9,-11 28,-35 30,-85 6,-158 -28,-134 -31,-171 -1,-10 -2,-17 -2,-22 32,0 53,-10 46,-69 -5,-32 -33,-67 -58,-67 -25,0 -52,36 -57,67 -7,59 14,69 46,69 -1,5 -1,12 -2,22 -3,37 -37,13 -31,171 2,50 21,74 30,85 -18,40 -69,36 -69,136 0,44 20,90 83,109z"/>
  </g>
 </g>
</svg>
