<?xml version="1.0" encoding="UTF-8"?>
<!DOCTYPE svg PUBLIC "-//W3C//DTD SVG 1.1//EN" "http://www.w3.org/Graphics/SVG/1.1/DTD/svg11.dtd">
<!-- Creator: CorelDRAW X8 -->
<svg xmlns="http://www.w3.org/2000/svg" xml:space="preserve" width="15px" height="13px" version="1.1" shape-rendering="geometricPrecision" text-rendering="geometricPrecision" image-rendering="optimizeQuality" fill-rule="evenodd" clip-rule="evenodd"
viewBox="0 0 1164 995"
 xmlns:xlink="http://www.w3.org/1999/xlink">
 <g id="Слой_x0020_1">
  <metadata id="CorelCorpID_0Corel-Layer"/>
  <g id="_1635235312">
   <path fill="white" fill-rule="nonzero" d="M403 5c1,-4 5,-6 8,-5 0,0 0,0 0,0 0,0 4,2 10,4 3,1 7,2 11,3 5,1 9,3 14,6 5,3 10,6 16,9 5,3 10,8 15,13 5,4 11,9 15,14 5,6 10,11 14,17 8,12 17,24 23,37 6,11 11,23 16,33 -2,0 -4,1 -6,2 -5,1 -9,2 -12,4 -4,-9 -8,-20 -14,-31 -5,-12 -13,-24 -20,-36 -4,-5 -8,-11 -12,-16 -4,-5 -9,-10 -13,-14 -5,-4 -9,-9 -14,-12 -5,-3 -10,-6 -14,-8 -8,-6 -17,-7 -23,-9 -5,-1 -8,-2 -8,-2l-2 -1c-3,-1 -5,-5 -4,-8z"/>
   <path fill="white" fill-rule="nonzero" d="M625 138c5,1 8,2 12,4 4,-9 8,-20 14,-31 5,-12 12,-24 19,-36 4,-5 8,-11 12,-16 4,-6 9,-10 14,-14 5,-4 8,-9 14,-12 4,-3 9,-6 13,-8 9,-6 18,-7 23,-9 6,-1 9,-2 9,-2l1 -1c0,0 0,0 0,0 4,-1 6,-5 5,-8 -2,-4 -5,-6 -9,-5 0,0 -3,2 -9,4 -4,1 -7,2 -12,3 -4,1 -9,3 -13,6 -5,3 -11,6 -16,9 -6,3 -10,8 -16,13 -5,4 -11,9 -15,14 -4,6 -9,11 -14,17 -8,12 -16,24 -22,36 -7,12 -12,24 -16,34 2,0 4,1 6,2z"/>
   <path fill="white" fill-rule="nonzero" d="M295 110l36 19 58 133c1,2 3,4 5,6l1 1 52 36c8,-11 18,-20 30,-26l-60 -37 -67 -126 0 0c-1,-2 -3,-4 -5,-5l-41 -18c-5,-2 -10,0 -13,4 -2,5 0,11 4,13z"/>
   <path fill="white" fill-rule="nonzero" d="M686 279c12,6 23,15 30,26l52 -36 1 -1c2,-2 4,-4 5,-6l58 -133 36 -19c5,-2 7,-7 5,-12 -3,-5 -8,-7 -13,-5l-41 18c-2,1 -4,3 -5,5l0 0 -68 126 -60 37z"/>
   <path fill="white" fill-rule="nonzero" d="M836 749l0 -152c0,-5 -2,-9 -5,-12l-1 0 -148 -127c-5,7 -10,14 -14,21 5,6 11,12 18,19 12,13 25,27 38,44l80 63 11 149 0 1c0,3 2,6 5,8l39 23c4,2 10,1 13,-3 2,-4 1,-10 -3,-13l-33 -21z"/>
   <path fill="white" fill-rule="nonzero" d="M440 542c12,-17 25,-31 38,-44 6,-7 12,-13 18,-19 -5,-7 -10,-14 -14,-21l-149 127 0 0c-3,3 -5,7 -5,12l0 152 -33 21c-4,3 -6,9 -3,13 2,4 8,6 12,3l40 -23c2,-2 4,-5 4,-8l1 -1 10 -149 81 -63z"/>
   <path fill="white" fill-rule="nonzero" d="M957 629l-27 -10 -51 -107c-47,-18 -113,-53 -172,-90 -1,1 -2,3 -3,4l148 104 61 102 0 1c1,2 3,4 6,4l32 10c4,1 9,-1 11,-6 2,-5 -1,-10 -5,-12z"/>
   <path fill="white" fill-rule="nonzero" d="M284 513l-50 106 -27 10c-5,2 -7,7 -6,12 2,5 7,7 12,6l32 -10c2,0 4,-2 5,-4l1 -1 61 -102 147 -104c-1,-1 -2,-3 -3,-4 -59,37 -125,72 -172,91z"/>
   <path fill="white" fill-rule="nonzero" d="M686 563l-208 0c-7,14 -12,31 -16,52l241 0c-4,-21 -10,-38 -17,-52z"/>
   <path fill="white" fill-rule="nonzero" d="M582 995c8,1 28,-15 49,-43l-98 0c22,28 41,44 49,43z"/>
   <path fill="white" fill-rule="nonzero" d="M534 482c-9,13 -18,24 -27,36l151 0c-9,-12 -19,-23 -28,-36 18,-39 54,-70 63,-104 20,-69 -30,-81 -89,-89 0,0 1,0 1,-1 0,-40 61,-16 73,-84 3,-14 -10,-29 -45,-29 -15,0 -3,-7 -19,-6 -11,-10 -31,-7 -32,-7 -2,0 -22,-3 -33,7 -15,-1 -3,6 -19,6 -34,0 -47,15 -45,29 13,68 74,44 74,84 0,1 0,1 1,1 -60,8 -108,20 -89,89 9,34 45,65 63,104z"/>
   <path fill="white" fill-rule="nonzero" d="M467 810l231 0c4,-17 7,-34 9,-53l-250 0c2,19 5,36 10,53z"/>
   <path fill="white" fill-rule="nonzero" d="M504 907l156 0c9,-16 17,-33 24,-53l-203 0c7,20 15,37 23,53z"/>
   <path fill="white" fill-rule="nonzero" d="M708 660l-252 0c-1,14 -2,30 -2,48l0 4 256 0 0 -4c0,-18 0,-34 -2,-48z"/>
   <path fill="white" fill-rule="nonzero" d="M996 456c-78,0 -219,-43 -301,-70 91,61 206,116 235,116 38,0 108,-20 126,-54 -20,5 -40,8 -60,8z"/>
   <path fill="white" fill-rule="nonzero" d="M692 346c-17,0 -35,-1 -53,-2 16,14 34,27 54,40 3,-12 2,-25 -1,-38z"/>
   <path fill="white" fill-rule="nonzero" d="M639 341c21,-8 266,-84 368,-84 271,0 141,175 -11,175 -109,0 -357,-91 -357,-91z"/>
   <path fill="white" fill-rule="nonzero" d="M471 347c-2,12 -1,24 2,36 19,-13 37,-26 52,-39 -19,1 -37,2 -54,3z"/>
   <path fill="white" fill-rule="nonzero" d="M168 456c-20,0 -40,-3 -59,-8 17,34 87,54 126,54 28,0 144,-55 234,-116 -82,27 -223,70 -301,70z"/>
   <path fill="white" fill-rule="nonzero" d="M525 341c-21,-8 -266,-84 -368,-84 -270,0 -141,175 11,175 109,0 357,-91 357,-91z"/>
  </g>
 </g>
</svg>
