<?xml version="1.0" encoding="UTF-8"?>
<!DOCTYPE svg PUBLIC "-//W3C//DTD SVG 1.1//EN" "http://www.w3.org/Graphics/SVG/1.1/DTD/svg11.dtd">
<!-- Creator: CorelDRAW X8 -->
<svg xmlns="http://www.w3.org/2000/svg" xml:space="preserve" width="10px" height="13px" version="1.1" shape-rendering="geometricPrecision" text-rendering="geometricPrecision" image-rendering="optimizeQuality" fill-rule="evenodd" clip-rule="evenodd"
viewBox="0 0 525 664"
 xmlns:xlink="http://www.w3.org/1999/xlink">
 <g id="Слой_x0020_1">
  <metadata id="CorelCorpID_0Corel-Layer"/>
  <g id="_1635234608">
   <path fill="white" fill-rule="nonzero" d="M254 204c-17,-2 -34,-5 -43,-15 -74,90 -49,384 38,405 2,0 2,-9 5,-23l0 -367z"/>
   <path fill="white" fill-rule="nonzero" d="M182 189c3,1 6,2 8,4l1 0c4,-7 8,-13 14,-19 -1,-1 -1,-2 -1,-4 0,0 0,-1 0,-1l-3 -1c-3,-2 -7,-2 -10,-3 -4,-1 -7,-2 -11,-3 -3,0 -7,-1 -10,-1 -1,0 -2,0 -3,-1l-7 -23c-3,-11 -7,-22 -10,-32l0 0c-1,-2 -2,-3 -3,-3 -5,-4 -10,-9 -16,-12l-16 -11c-3,-2 -7,-2 -9,1 -2,3 -1,7 2,9l0 1 16 10c5,3 9,7 13,10 2,10 5,21 6,31l5 32c0,4 4,8 9,9l1 0c3,1 6,1 8,2 3,0 6,1 9,2 2,1 5,2 7,3zm-45 -80l0 0c0,0 0,0 0,0z"/>
   <path fill="white" fill-rule="nonzero" d="M124 273c-4,1 -7,4 -8,8l-11 41c-3,13 -7,26 -11,40 -1,3 -2,6 -3,9l-4 9 -1 4 0 0c-3,0 -6,0 -9,0 -14,-2 -27,-4 -41,-8l0 -1c0,0 0,0 0,0 -2,0 -5,1 -5,4 -1,2 0,5 3,5 14,4 27,8 41,11 4,0 7,1 12,1l1 0c1,0 3,0 4,-1 1,0 2,-1 2,-1l1 0 0 -1 0 0c1,0 -1,2 1,-1l0 0 0 0 3 -5 5 -10c1,-4 3,-7 4,-10 5,-13 10,-27 15,-40l12 -32 25 -3c1,-9 2,-18 4,-27l-40 8 0 0z"/>
   <path fill="white" fill-rule="nonzero" d="M164 630l0 0 0 0 0 -1 0 -2 -2 -14c-1,-9 -2,-18 -3,-27l-4 -27c-5,-34 -10,-69 -15,-104 0,0 0,0 0,0 0,-1 1,-2 3,-3 2,-2 5,-5 8,-7 3,-3 6,-5 8,-7 -1,-11 -2,-22 -2,-33 -1,1 -1,1 -2,1 -7,6 -14,12 -21,18 -4,3 -8,6 -11,11 -2,2 -4,4 -5,7 -2,3 -4,7 -4,13 0,1 0,1 0,2 8,35 15,70 22,105l6 27c2,9 3,17 5,26l2 12 0 2c0,1 -1,1 -1,1 0,1 0,1 -1,1l-2 3c-6,6 -12,13 -18,19 -3,2 -3,6 -1,9 3,2 7,2 9,0 7,-6 14,-12 20,-19l3 -2c1,-1 2,-3 3,-4 1,-2 2,-3 2,-4l1 0 0 0c0,-5 0,-2 0,-3z"/>
   <path fill="white" fill-rule="nonzero" d="M523 182c-1,-8 -2,-16 -4,-24 -3,-17 -8,-34 -14,-50 -8,-17 -16,-33 -27,-48 -11,-14 -24,-27 -39,-38 -15,-11 -31,-19 -50,-21 -17,-3 -36,2 -50,9 -15,7 -27,17 -36,28 -19,20 -30,41 -36,56 -2,5 -4,9 -5,13 -1,-4 -3,-8 -5,-13 -6,-15 -17,-36 -35,-56 -10,-11 -22,-21 -36,-28 -15,-7 -33,-12 -51,-9 -18,2 -35,10 -50,21 -15,11 -28,24 -39,38 -11,15 -19,31 -26,48 -6,16 -12,33 -14,50 -2,8 -3,16 -4,24 -1,8 -2,16 -2,24 -1,16 1,30 1,43 2,14 4,26 6,37 3,10 4,20 7,27 5,15 8,23 8,23 1,2 3,3 4,3 2,-1 3,-3 3,-5l-1 0c0,0 -2,-8 -7,-23 -3,-7 -4,-16 -7,-27 -2,-10 -3,-22 -5,-35 0,-13 -2,-28 0,-43 0,-7 1,-15 2,-23 1,-7 2,-15 4,-23 3,-16 8,-32 15,-48 7,-15 15,-31 26,-44 11,-14 23,-26 37,-35 13,-9 29,-16 43,-18 32,-4 58,14 74,33 17,19 27,38 33,52 3,7 4,12 6,16 0,0 0,1 0,1 9,-2 18,-2 27,0 0,0 0,-1 0,-1 1,-4 3,-9 6,-16 5,-14 15,-33 32,-52 17,-19 43,-37 74,-33 14,2 30,9 44,18 14,9 26,21 37,35 10,13 18,29 26,44 6,16 12,32 15,48 2,8 3,16 4,23 1,8 2,16 2,23 1,15 0,30 0,43 -2,13 -3,25 -5,35 -3,11 -5,20 -7,27 -5,15 -8,23 -8,23l0 0c-1,2 0,4 2,5 2,0 4,-1 5,-3 0,0 3,-8 8,-23 2,-7 4,-17 7,-27 2,-11 3,-23 5,-37 1,-13 2,-27 1,-43 0,-8 0,-16 -1,-24z"/>
   <path fill="white" fill-rule="nonzero" d="M488 375l0 1c-13,4 -27,6 -40,8 -3,0 -7,0 -9,0l-1 0 -1 -4 -3 -9c-1,-3 -3,-6 -3,-9 -4,-14 -8,-27 -12,-40l-10 -41c-1,-4 -4,-7 -8,-8l-1 0 -40 -8c2,9 4,18 5,27l25 3 11 32c5,13 10,27 15,40 2,3 3,6 5,10l5 10 2 5 0 0 0 0c3,3 1,1 2,1l0 0 0 1 0 0c0,0 2,1 3,1 1,1 2,1 3,1l2 0c4,0 8,-1 11,-1 15,-3 28,-7 42,-11 0,0 0,0 0,0 2,0 4,-3 3,-6 -1,-2 -3,-3 -6,-3z"/>
   <path fill="white" fill-rule="nonzero" d="M402 435c-4,-5 -7,-8 -11,-11 -7,-6 -14,-12 -22,-18 0,0 -1,0 -1,-1 -1,11 -2,22 -3,33 3,2 6,4 8,7 4,2 7,5 9,7 1,1 2,2 3,3 0,0 0,0 0,0 -5,35 -11,70 -16,104l-3 27c-2,9 -3,18 -4,27l-1 14 0 2 0 1 0 0 0 0c0,1 -1,-2 0,3l0 0 0 0c1,1 1,2 3,4 1,1 2,3 3,4l2 2c7,7 14,13 20,19 3,2 7,2 9,0 2,-3 2,-7 0,-9 -6,-6 -13,-13 -18,-19l-2 -3c-1,0 -1,0 -1,-1 -1,0 -1,0 -1,-1l0 -2 2 -12c2,-9 3,-17 5,-26l5 -27c7,-35 15,-70 22,-105 1,-1 1,-1 1,-2 0,-6 -2,-10 -4,-13 -2,-3 -4,-5 -5,-7z"/>
   <path fill="white" fill-rule="nonzero" d="M270 204l0 368 0 0c3,13 4,22 5,22 87,-21 113,-316 38,-405 -10,10 -27,15 -43,15z"/>
   <path fill="white" fill-rule="nonzero" d="M306 170c0,-19 -21,-41 -44,-39 0,0 -1,0 -1,0 -28,0 -42,25 -42,39 0,11 34,17 43,17 9,0 44,-6 44,-17z"/>
   <path fill="white" fill-rule="nonzero" d="M368 182c4,-1 8,-4 9,-9l4 -32c2,-10 4,-21 6,-31 5,-3 9,-7 14,-10l15 -10 1 -1c3,-2 3,-6 2,-9 -2,-3 -6,-3 -9,-1l-17 11c-6,3 -11,8 -16,12 -1,0 -2,1 -2,3l0 0c-4,10 -8,21 -11,32l-7 23c-1,1 -1,1 -2,1 -4,0 -7,1 -11,1 -3,1 -7,2 -10,3 -3,1 -7,1 -10,3l-3 1c0,0 0,1 0,1 0,2 -1,3 -1,4 5,6 10,12 14,19l0 0c3,-2 5,-3 8,-4 3,-1 5,-2 8,-3 3,-1 5,-2 8,-2 3,-1 6,-1 8,-2l2 0zm19 -73l0 0 0 0c0,0 0,0 0,0z"/>
  </g>
 </g>
</svg>
