<?xml version="1.0" encoding="UTF-8"?>
<!DOCTYPE svg PUBLIC "-//W3C//DTD SVG 1.1//EN" "http://www.w3.org/Graphics/SVG/1.1/DTD/svg11.dtd">
<!-- Creator: CorelDRAW X8 -->
<svg xmlns="http://www.w3.org/2000/svg" xml:space="preserve" width="43px" height="58px" version="1.1" shape-rendering="geometricPrecision" text-rendering="geometricPrecision" image-rendering="optimizeQuality" fill-rule="evenodd" clip-rule="evenodd"
viewBox="0 0 11467 15355"
 xmlns:xlink="http://www.w3.org/1999/xlink">
 <g id="Слой_x0020_1">
  <metadata id="CorelCorpID_0Corel-Layer"/>
  <path fill="#00262D" fill-rule="nonzero" d="M11306 7377l-10726 -7313c-114,-76 -260,-85 -381,-22 -123,64 -199,187 -199,324l0 14625c0,135 76,260 199,323 52,28 112,41 171,41 74,0 147,-21 210,-65l10726 -7312c102,-68 161,-180 161,-299 0,-122 -59,-234 -161,-302zm-10565 6918l0 -13233 9704 6617 -9704 6616z"/>
 </g>
</svg>
