<?xml version="1.0" encoding="UTF-8"?>
<!DOCTYPE svg PUBLIC "-//W3C//DTD SVG 1.1//EN" "http://www.w3.org/Graphics/SVG/1.1/DTD/svg11.dtd">
<!-- Creator: CorelDRAW X8 -->
<svg xmlns="http://www.w3.org/2000/svg" xml:space="preserve" width="43px" height="58px" version="1.1" shape-rendering="geometricPrecision" text-rendering="geometricPrecision" image-rendering="optimizeQuality" fill-rule="evenodd" clip-rule="evenodd"
viewBox="0 0 11335 15356"
 xmlns:xlink="http://www.w3.org/1999/xlink">
 <defs>
   <linearGradient id="id0" gradientUnits="userSpaceOnUse" x1="-0" y1="7677.53" x2="11335.2" y2="7677.53">
    <stop offset="0" stop-opacity="1" stop-color="#6BBD65"/>
    <stop offset="1" stop-opacity="1" stop-color="#73CB37"/>
   </linearGradient>
 </defs>
 <g id="Слой_x0020_1">
  <metadata id="CorelCorpID_0Corel-Layer"/>
  <path fill="url(#id0)" fill-rule="nonzero" d="M11176 7377l-10603 -7313c-112,-76 -257,-85 -376,-22 -122,64 -197,187 -197,324l0 14626c0,135 75,260 197,323 51,28 110,41 169,41 73,0 145,-21 207,-65l10603 -7312c100,-68 159,-181 159,-300 0,-121 -59,-234 -159,-302zm-10444 6918l0 -13233 9592 6617 -9592 6616z"/>
 </g>
</svg>
