<?xml version="1.0" encoding="UTF-8"?>
<!DOCTYPE svg PUBLIC "-//W3C//DTD SVG 1.1//EN" "http://www.w3.org/Graphics/SVG/1.1/DTD/svg11.dtd">
<!-- Creator: CorelDRAW X8 -->
<svg xmlns="http://www.w3.org/2000/svg" xml:space="preserve" width="43px" height="58px" version="1.1" shape-rendering="geometricPrecision" text-rendering="geometricPrecision" image-rendering="optimizeQuality" fill-rule="evenodd" clip-rule="evenodd"
viewBox="0 0 9415 12607"
 xmlns:xlink="http://www.w3.org/1999/xlink">
 <g id="Слой_x0020_1">
  <metadata id="CorelCorpID_0Corel-Layer"/>
  <path fill="white" fill-rule="nonzero" d="M132 6057l8807 -6004c93,-63 214,-70 313,-19 101,53 163,154 163,267l0 12008c0,111 -62,213 -163,265 -43,23 -92,33 -141,33 -61,0 -120,-17 -172,-52l-8807 -6004c-83,-56 -132,-148 -132,-246 0,-100 49,-192 132,-248zm8675 5680l0 -10865 -7968 5433 7968 5432z"/>
 </g>
</svg>
