<?xml version="1.0" encoding="UTF-8" standalone="no"?>
<!-- Creator: CorelDRAW X8 -->

<svg
   xmlns:dc="http://purl.org/dc/elements/1.1/"
   xmlns:cc="http://creativecommons.org/ns#"
   xmlns:rdf="http://www.w3.org/1999/02/22-rdf-syntax-ns#"
   xmlns:svg="http://www.w3.org/2000/svg"
   xmlns="http://www.w3.org/2000/svg"
   xmlns:sodipodi="http://sodipodi.sourceforge.net/DTD/sodipodi-0.dtd"
   xmlns:inkscape="http://www.inkscape.org/namespaces/inkscape"
   xml:space="preserve"
   width="43px"
   height="58px"
   version="1.1"
   shape-rendering="geometricPrecision"
   text-rendering="geometricPrecision"
   image-rendering="optimizeQuality"
   fill-rule="evenodd"
   clip-rule="evenodd"
   viewBox="0 0 9415 12607"
   id="svg2"
   inkscape:version="0.91 r13725"
   sodipodi:docname="white-right.svg"><metadata
     id="metadata12"><rdf:RDF><cc:Work
         rdf:about=""><dc:format>image/svg+xml</dc:format><dc:type
           rdf:resource="http://purl.org/dc/dcmitype/StillImage" /><dc:title></dc:title></cc:Work></rdf:RDF></metadata><defs
     id="defs10" /><sodipodi:namedview
     pagecolor="#ffffff"
     bordercolor="#666666"
     borderopacity="1"
     objecttolerance="10"
     gridtolerance="10"
     guidetolerance="10"
     inkscape:pageopacity="0"
     inkscape:pageshadow="2"
     inkscape:window-width="1280"
     inkscape:window-height="743"
     id="namedview8"
     showgrid="false"
     inkscape:zoom="4.0689655"
     inkscape:cx="7.1187527"
     inkscape:cy="29"
     inkscape:window-x="0"
     inkscape:window-y="0"
     inkscape:window-maximized="1"
     inkscape:current-layer="svg2" /><g
     id="Слой_x0020_1"
     style="fill:#ffffff"
     transform="matrix(-1,0,0,-1,9415,12607.194)"><metadata
       id="CorelCorpID_0Corel-Layer" /><path
       d="M 132,6057 8939,53 c 93,-63 214,-70 313,-19 101,53 163,154 163,267 l 0,12008 c 0,111 -62,213 -163,265 -43,23 -92,33 -141,33 -61,0 -120,-17 -172,-52 L 132,6551 C 49,6495 0,6403 0,6305 0,6205 49,6113 132,6057 Z m 8675,5680 0,-10865 -7968,5433 7968,5432 z"
       id="path6"
       style="fill:#ffffff;fill-rule:nonzero"
       inkscape:connector-curvature="0" /></g></svg>