<?xml version="1.0" encoding="UTF-8"?>
<!DOCTYPE svg PUBLIC "-//W3C//DTD SVG 1.1//EN" "http://www.w3.org/Graphics/SVG/1.1/DTD/svg11.dtd">
<!-- Creator: CorelDRAW X8 -->
<svg xmlns="http://www.w3.org/2000/svg" xml:space="preserve" width="72px" height="82px" version="1.1" shape-rendering="geometricPrecision" text-rendering="geometricPrecision" image-rendering="optimizeQuality" fill-rule="evenodd" clip-rule="evenodd"
viewBox="0 0 27392 31348"
 xmlns:xlink="http://www.w3.org/1999/xlink">
 <g id="Слой_x0020_1">
  <metadata id="CorelCorpID_0Corel-Layer"/>
  <g id="_1274748960">
   <path fill="#00262D" fill-rule="nonzero" d="M25537 29863l-6780 0 0 -20087 7151 0 0 19716c0,205 -166,371 -371,371zm1855 -346l0 -27686c-13,-1012 -840,-1831 -1855,-1831l-23681 0c-1024,0 -1856,832 -1856,1856l0 27637c0,1023 832,1855 1856,1855l23681 0c1015,0 1842,-819 1855,-1831zm-25908 -24l0 -8933 7152 0 0 9303 -6780 0c-205,0 -372,-166 -372,-370zm0 -19717l7152 0 0 9299 -7152 0 0 -9299zm15788 9299l-7151 0 0 -9299 7151 0 0 9299zm0 10788l-7151 0 0 -9303 7151 0 0 9303zm-15416 -28378l23681 0c205,0 371,166 371,371l0 6435 -24424 0 0 -6435c0,-205 167,-371 372,-371z"/>
   <path fill="#00262D" fill-rule="nonzero" d="M6896 13683l-1094 0 0 -1093c0,-410 -332,-742 -742,-742 -410,0 -742,332 -742,742l0 1093 -1093 0c-410,0 -742,332 -742,742 0,410 332,742 742,742l1093 0 0 1094c0,410 332,742 742,742 410,0 742,-332 742,-742l0 -1094 1094 0c409,0 742,-332 742,-742 0,-410 -333,-742 -742,-742z"/>
   <path fill="#00262D" fill-rule="nonzero" d="M11824 15167l3744 0c410,0 743,-332 743,-742 0,-410 -333,-742 -743,-742l-3744 0c-410,0 -742,332 -742,742 0,410 332,742 742,742z"/>
   <path fill="#00262D" fill-rule="nonzero" d="M6110 25214l896 -897c290,-289 290,-759 0,-1049 -290,-290 -760,-290 -1050,0l-896 896 -896 -896c-290,-290 -760,-290 -1050,0 -290,290 -290,759 0,1049l896 897 -896 895c-290,290 -290,761 0,1050 145,145 335,218 525,218 190,0 380,-73 525,-218l896 -896 896 896c145,145 335,218 525,218 190,0 380,-73 525,-218 290,-289 290,-760 0,-1050l-896 -895z"/>
   <path fill="#00262D" fill-rule="nonzero" d="M11750 27160c145,144 335,217 525,217 190,0 380,-73 525,-217l2842 -2843c290,-289 290,-759 0,-1049 -290,-290 -760,-290 -1050,0l-2842 2841c-290,290 -290,761 0,1051z"/>
   <path fill="#00262D" fill-rule="nonzero" d="M12275 23160c350,0 633,283 633,633 0,349 -283,633 -633,633 -349,0 -633,-284 -633,-633 0,-350 284,-633 633,-633z"/>
   <path fill="#00262D" fill-rule="nonzero" d="M15117 26001c350,0 633,284 633,633 0,350 -283,633 -633,633 -349,0 -633,-283 -633,-633 0,-349 284,-633 633,-633z"/>
   <path fill="#00262D" fill-rule="nonzero" d="M24208 17782l-3794 0c-410,0 -742,332 -742,742 0,410 332,742 742,742l3794 0c410,0 742,-332 742,-742 0,-410 -332,-742 -742,-742z"/>
   <path fill="#00262D" fill-rule="nonzero" d="M24208 20372l-3794 0c-410,0 -742,333 -742,743 0,409 332,742 742,742l3794 0c410,0 742,-333 742,-742 0,-410 -332,-743 -742,-743z"/>
  </g>
 </g>
</svg>
