<?xml version="1.0" encoding="UTF-8"?>
<!DOCTYPE svg PUBLIC "-//W3C//DTD SVG 1.1//EN" "http://www.w3.org/Graphics/SVG/1.1/DTD/svg11.dtd">
<!-- Creator: CorelDRAW X8 -->
<svg xmlns="http://www.w3.org/2000/svg" xml:space="preserve" width="82px" height="82px" version="1.1" shape-rendering="geometricPrecision" text-rendering="geometricPrecision" image-rendering="optimizeQuality" fill-rule="evenodd" clip-rule="evenodd"
viewBox="0 0 39161 39160"
 xmlns:xlink="http://www.w3.org/1999/xlink">
 <g id="Слой_x0020_1">
  <metadata id="CorelCorpID_0Corel-Layer"/>
  <g id="_1274749536">
   <path fill="#00262D" fill-rule="nonzero" d="M9790 10606l0 9790c0,145 -38,288 -113,414l-7719 13115c-669,1138 -290,2604 848,3273 369,217 789,331 1216,330l14857 0c1288,0 2333,-1045 2332,-2334 0,-449 -130,-890 -374,-1267l-8469 -13088c-85,-132 -131,-286 -130,-443l0 -9790 -2448 0zm9089 28554l-14857 0c-2221,0 -4022,-1801 -4021,-4022 0,-717 191,-1421 555,-2040l7602 -12924 0 -10384c0,-451 366,-816 816,-816l4079 0c451,0 816,365 816,816l0 10361 8339 12890c1189,1840 662,4295 -1178,5483 -641,415 -1388,635 -2151,636l0 0z"/>
   <path fill="#00262D" fill-rule="nonzero" d="M9790 35896l-5667 0c-451,1 -817,-364 -817,-814 0,-146 38,-289 113,-415l6927 -11775 1406 826 -6204 10547 4242 0 0 1631z"/>
   <path fill="#00262D" fill-rule="nonzero" d="M24475 20396c-901,0 -1631,730 -1631,1632l0 13052c0,1353 1095,2448 2447,2448l7342 0c1352,0 2448,-1095 2448,-2448l0 -11421c0,-216 86,-423 239,-577l2110 -2109c132,-132 132,-346 0,-478 -63,-64 -149,-99 -239,-99l-12716 0zm8158 18764l-7342 0c-2252,-3 -4076,-1828 -4079,-4080l0 -13052c0,-1803 1461,-3264 3263,-3264l12716 0c1088,1 1970,883 1969,1972 -1,521 -207,1021 -576,1390l-1871 1871 0 11083c-3,2252 -1828,4077 -4080,4080z"/>
   <path fill="#00262D" fill-rule="nonzero" d="M32633 35896l-3263 0 0 -1631 2447 0 0 -10606 1632 0 0 11421c0,451 -365,816 -816,816z"/>
   <path fill="#00262D" fill-rule="nonzero" d="M29130 17643c-1822,-2272 -4394,-3820 -7255,-4367 -385,-73 -663,-410 -663,-801l0 -10843 -4079 0 0 11033c0,372 -252,698 -612,790 -1072,277 -2101,698 -3059,1251l-816 -1412c901,-521 1859,-939 2855,-1246l0 -11232c0,-450 365,-816 816,-816l5711 0c450,0 816,366 816,816l0 11001c2981,723 5638,2412 7558,4805l-1272 1021z"/>
   <path fill="#00262D" fill-rule="nonzero" d="M34673 13053c-676,0 -1224,548 -1224,1224 0,676 548,1224 1224,1224 676,0 1224,-548 1224,-1224 0,-676 -548,-1224 -1224,-1224zm0 4079c-1577,0 -2856,-1278 -2856,-2855 0,-1577 1279,-2855 2856,-2855 1577,0 2856,1278 2856,2855 0,1577 -1279,2855 -2856,2855z"/>
   <path fill="#00262D" fill-rule="nonzero" d="M31817 7343c-450,0 -815,365 -815,815 0,451 365,816 815,816 451,0 816,-365 816,-816 0,-450 -365,-815 -816,-815zm0 3263c-1351,0 -2447,-1096 -2447,-2448 0,-1351 1096,-2447 2447,-2447 1353,0 2448,1096 2448,2447 0,1352 -1095,2448 -2448,2448z"/>
   <path fill="#00262D" fill-rule="nonzero" d="M2855 8158c-675,0 -1223,549 -1223,1224 0,676 548,1224 1223,1224 676,0 1225,-548 1225,-1224 0,-675 -549,-1224 -1225,-1224zm0 4079c-1576,0 -2855,-1278 -2855,-2855 0,-1577 1279,-2855 2855,-2855 1578,0 2856,1278 2856,2855 0,1577 -1278,2855 -2856,2855z"/>
   <path fill="#00262D" fill-rule="nonzero" d="M6527 2448c-451,0 -816,365 -816,816 0,450 365,816 816,816 451,0 816,-366 816,-816 0,-451 -365,-816 -816,-816zm0 3263c-1352,0 -2447,-1096 -2447,-2447 0,-1352 1095,-2448 2447,-2448 1352,0 2447,1096 2447,2448 0,1351 -1095,2447 -2447,2447z"/>
   <polygon fill="#434345" fill-rule="nonzero" points="24475,25291 26923,25291 26923,23659 24475,23659 "/>
   <polygon fill="#434345" fill-rule="nonzero" points="24475,28554 26107,28554 26107,26923 24475,26923 "/>
   <polygon fill="#00262D" fill-rule="nonzero" points="24475,31817 26923,31817 26923,30186 24475,30186 "/>
   <polygon fill="#00262D" fill-rule="nonzero" points="24475,35080 26107,35080 26107,33449 24475,33449 "/>
   <polygon fill="#00262D" fill-rule="nonzero" points="1632,16316 3264,16316 3264,14685 1632,14685 "/>
   <polygon fill="#00262D" fill-rule="nonzero" points="4080,20396 5711,20396 5711,18764 4080,18764 "/>
   <polygon fill="#00262D" fill-rule="nonzero" points="17949,23659 19580,23659 19580,22028 17949,22028 "/>
   <polygon fill="#00262D" fill-rule="nonzero" points="16317,20396 17949,20396 17949,18764 16317,18764 "/>
   <polygon fill="#00262D" fill-rule="nonzero" points="15501,17132 17133,17132 17133,15501 15501,15501 "/>
   <polygon fill="#00262D" fill-rule="nonzero" points="16317,35080 17949,35080 17949,33449 16317,33449 "/>
   <polygon fill="#00262D" fill-rule="nonzero" points="13869,31817 15501,31817 15501,30186 13869,30186 "/>
  </g>
 </g>
</svg>
