<?xml version="1.0" encoding="UTF-8"?>
<!DOCTYPE svg PUBLIC "-//W3C//DTD SVG 1.1//EN" "http://www.w3.org/Graphics/SVG/1.1/DTD/svg11.dtd">
<!-- Creator: CorelDRAW X8 -->
<svg xmlns="http://www.w3.org/2000/svg" xml:space="preserve" width="77px" height="82px" version="1.1" shape-rendering="geometricPrecision" text-rendering="geometricPrecision" image-rendering="optimizeQuality" fill-rule="evenodd" clip-rule="evenodd"
viewBox="0 0 31848 34123"
 xmlns:xlink="http://www.w3.org/1999/xlink">
 <g id="Слой_x0020_1">
  <metadata id="CorelCorpID_0Corel-Layer"/>
  <g id="_1274740768">
   <path fill="#00262D" fill-rule="nonzero" d="M1138 13080l4549 0 0 1138 -4549 0 0 -1138zm2843 -5118l6825 0 0 3981 -6825 0 0 -3981zm2275 -6824l2274 0 0 2843 -2274 0 0 -2843zm-296 3981l2866 0 1365 1706 -5596 0 1365 -1706zm8258 4216l1373 -1373 2941 0 2510 2510 0 1471 -6824 0 0 -2608zm3981 -3648l0 1138 -2275 0 0 -1138 2275 0zm0 -4549l2843 0 0 1433 -2474 1979 -4310 0c285,-1958 1963,-3410 3941,-3412zm5118 1137l-1137 0 0 -1137 1137 0 0 1137zm569 11943l-7962 0 0 -1138 7962 0 0 1138zm-10237 -1138l1138 0 0 3981c-2,217 120,415 314,512l3412 1706c167,83 293,228 350,404 59,190 39,395 -57,570 -163,328 -563,461 -891,298 0,0 -1,-1 -1,-1l-2309 -1155c-282,-138 -623,-21 -761,262 -37,77 -57,162 -57,248l0 5687c0,628 -510,1137 -1138,1137l0 -5118 -1137 0 0 5118 -1138 0 0 -5118 -1137 0 0 5118 -1138 0 0 -5118 -1137 0 0 5118c-628,0 -1137,-509 -1137,-1137l0 -12512 6824 0zm7352 10806l-527 0c-1884,2 -3411,1528 -3413,3412l0 3412c1,388 69,773 199,1138l-12210 0 -2128 -16493 2765 0 0 10237c0,1256 1019,2275 2275,2275l5687 0c1256,0 2275,-1019 2275,-2275l0 -4767 1485 743c898,443 1985,74 2428,-823 2,-4 4,-8 6,-11 220,-437 257,-944 103,-1408 -151,-465 -483,-849 -921,-1066l-3101 -1550 0 -1355 6178 0 -1101 8531zm5254 1442c400,-200 842,-304 1290,-305l891 0c1256,0 2274,1019 2274,2275 0,1256 -1018,2275 -2274,2275l-891 0c-448,-1 -890,-105 -1290,-305 -1134,-563 -2466,-563 -3600,0 -401,200 -843,304 -1291,305l-890 0c-1257,0 -2275,-1019 -2275,-2275 0,-1256 1018,-2275 2275,-2275l890 0c448,1 890,105 1291,305 1134,563 2466,563 3600,0zm2181 7657l-891 0c-448,0 -890,-105 -1290,-305 -1134,-563 -2466,-563 -3600,0 -401,200 -843,305 -1291,305l-890 0c-1257,0 -2275,-1018 -2275,-2275l0 -876c623,564 1434,876 2275,876l890 0c625,0 1241,-146 1800,-424 813,-405 1768,-405 2581,0 560,278 1175,424 1800,424l891 0c840,0 1651,-312 2274,-876l0 876c0,1257 -1018,2275 -2274,2275zm-27867 -17630l1206 0 2210 17134c37,284 279,496 564,496l13388 0c645,723 1568,1137 2537,1138l890 0c625,-1 1241,-147 1800,-425 813,-405 1768,-405 2581,0 560,278 1175,424 1800,425l891 0c1883,-2 3410,-1529 3412,-3413l0 -3412c-2,-1884 -1529,-3410 -3412,-3412l-891 0c-625,1 -1240,146 -1800,425 -813,404 -1768,404 -2581,0 -325,-160 -669,-274 -1024,-342l1109 -8614 1206 0c314,0 568,-254 568,-568l0 -2275c0,-314 -254,-569 -568,-569l-2275 0 0 -1706c0,-151 -60,-295 -167,-402l-2677 -2677 0 -1766 862 -690 1473 2946 1018 -509 -1583 -3163 704 -564 2076 0c314,0 569,-254 569,-568l0 -2275c0,-314 -255,-569 -569,-569l-5687 0c-2826,3 -5115,2293 -5119,5119 0,314 255,568 569,568l1138 0 0 1471 -1540 1539c-106,107 -167,252 -167,402l0 2844 -1137 0 0 -4550c-1,-70 -15,-140 -42,-205 -10,-22 -22,-44 -35,-64 -14,-30 -29,-59 -47,-86l-2151 -2687 0 -3782c0,-314 -254,-569 -569,-569l-3412 0c-314,0 -568,255 -568,569l0 3782 -2151 2687c-18,27 -34,56 -48,86 -13,20 -24,42 -35,64 -27,65 -41,135 -42,205l0 4550 -2274 0c-315,0 -569,255 -569,569l0 2275c0,314 254,568 569,568z"/>
   <polygon fill="#00262D" fill-rule="nonzero" points="27867,27298 29004,27298 29004,26161 27867,26161 "/>
   <polygon fill="#00262D" fill-rule="nonzero" points="22180,27298 23317,27298 23317,26161 22180,26161 "/>
   <polygon fill="#00262D" fill-rule="nonzero" points="19905,27867 21042,27867 21042,26729 19905,26729 "/>
   <polygon fill="#00262D" fill-rule="nonzero" points="25592,27867 26729,27867 26729,26729 25592,26729 "/>
  </g>
 </g>
</svg>
