<?xml version="1.0" encoding="UTF-8"?>
<!DOCTYPE svg PUBLIC "-//W3C//DTD SVG 1.1//EN" "http://www.w3.org/Graphics/SVG/1.1/DTD/svg11.dtd">
<!-- Creator: CorelDRAW X8 -->
<svg xmlns="http://www.w3.org/2000/svg" xml:space="preserve" width="82px" height="82px" version="1.1" shape-rendering="geometricPrecision" text-rendering="geometricPrecision" image-rendering="optimizeQuality" fill-rule="evenodd" clip-rule="evenodd"
viewBox="0 0 38411 38411"
 xmlns:xlink="http://www.w3.org/1999/xlink">
 <g id="Слой_x0020_1">
  <metadata id="CorelCorpID_0Corel-Layer"/>
  <g id="_1274749600">
   <path fill="#00262D" fill-rule="nonzero" d="M38357 17027c71,-170 71,-362 0,-532 -35,-86 -86,-164 -150,-229l-8383 -8379c-272,-272 -712,-272 -985,0 -273,274 -273,714 0,986l7188 7188 -10884 0 0 -15361c0,-387 -315,-700 -700,-700l-23744 0 -4 0c-22,1 -38,11 -60,14 -38,4 -72,10 -110,20 -65,18 -126,41 -180,75 -21,14 -42,14 -59,24 -20,17 -37,37 -57,55 -14,10 -25,20 -35,33 -54,58 -99,120 -130,192 -7,13 -10,27 -16,41 -27,75 -47,155 -48,238l0 8 0 32126 0 8c1,81 21,161 51,237 10,27 24,48 38,71 23,52 54,96 92,140 20,21 40,42 61,61 41,35 85,66 137,94 23,12 47,27 75,36 13,4 20,14 34,17l15366 4890c64,20 132,30 197,31l10 0 7 0c144,-1 288,-49 406,-132 180,-134 286,-342 286,-567l0 -4191 7683 0c385,0 700,-310 700,-695l0 -15366 10884 0 -7188 7187c-273,274 -273,718 0,990 136,136 314,205 495,205 177,0 354,-69 490,-205l8383 -8382c64,-65 115,-140 150,-228zm-22991 19730l-13968 -4442 0 -30660 13968 4442 0 30660zm8378 -4630l-6984 0 0 -26542c0,-302 -197,-572 -487,-664l-11076 -3523 18547 0 0 30729z"/>
   <path fill="#00262D" fill-rule="nonzero" d="M14227 21698l-3492 -1395c-355,-142 -764,31 -907,389 -143,358 30,764 389,907l3491 1399c86,33 174,47 260,47 276,0 538,-163 647,-437 144,-358 -30,-766 -388,-910z"/>
  </g>
 </g>
</svg>
