<?xml version="1.0" encoding="UTF-8"?>
<!DOCTYPE svg PUBLIC "-//W3C//DTD SVG 1.1//EN" "http://www.w3.org/Graphics/SVG/1.1/DTD/svg11.dtd">
<!-- Creator: CorelDRAW X8 -->
<svg xmlns="http://www.w3.org/2000/svg" xml:space="preserve" width="82px" height="82px" version="1.1" shape-rendering="geometricPrecision" text-rendering="geometricPrecision" image-rendering="optimizeQuality" fill-rule="evenodd" clip-rule="evenodd"
viewBox="0 0 40496 40750"
 xmlns:xlink="http://www.w3.org/1999/xlink">
 <g id="Слой_x0020_1">
  <metadata id="CorelCorpID_0Corel-Layer"/>
  <path fill="#00262D" fill-rule="nonzero" d="M40272 18594l-6062 -5629 0 -9218 -6982 0 0 2738 -6982 -6485 -20025 18594c-279,262 -297,706 -35,988 263,284 703,297 986,35l2318 -2151 0 23284 33512 0 0 -23284 2319 2151c133,126 306,186 478,186 186,0 370,-74 511,-221 262,-282 245,-726 -38,-988zm-11646 -13452l4187 0 0 6528 -4187 -3890 0 -2638zm-12570 34214l0 -14708c0,-361 293,-654 655,-654l7071 0c361,0 654,293 654,654l0 14708 -8380 0zm19552 0l-9777 0 0 -14708c0,-1131 -918,-2051 -2049,-2051l-7071 0c-1132,0 -2048,920 -2048,2051l0 14708 -9778 0 0 -23186 15361 -14263 9972 9258 3992 3706 1398 1299 0 23186z"/>
 </g>
</svg>
