<?xml version="1.0" encoding="UTF-8"?>
<!DOCTYPE svg PUBLIC "-//W3C//DTD SVG 1.1//EN" "http://www.w3.org/Graphics/SVG/1.1/DTD/svg11.dtd">
<!-- Creator: CorelDRAW X8 -->
<svg xmlns="http://www.w3.org/2000/svg" xml:space="preserve" width="113px" height="83px" version="1.1" shape-rendering="geometricPrecision" text-rendering="geometricPrecision" image-rendering="optimizeQuality" fill-rule="evenodd" clip-rule="evenodd"
viewBox="0 0 66041 48430"
 xmlns:xlink="http://www.w3.org/1999/xlink">
 <g id="Слой_x0020_1">
  <metadata id="CorelCorpID_0Corel-Layer"/>
  <g id="_1274749920">
   <path fill="#00262D" d="M63839 42927c0,1823 -1478,3302 -3302,3302l-55034 0c-1824,0 -3302,-1479 -3302,-3302l0 -1101 23115 0 0 2201c0,608 492,1101 1100,1101l13208 0c608,0 1101,-493 1101,-1101l0 -2201 23114 0 0 1101zm-36322 -1101l11007 0 0 1101 -11007 0 0 -1101zm-23114 -38524c0,-608 492,-1100 1100,-1100l56135 0 0 37423 -57235 0 0 -36323zm60537 36323l-1101 0 0 -37423c0,-1216 -985,-2202 -2201,-2202l-56135 0c-1824,0 -3302,1479 -3302,3302l0 36323 -1101 0c-608,0 -1100,492 -1100,1100l0 2202c3,3038 2465,5500 5503,5503l55034 0c3038,-3 5500,-2465 5504,-5503l0 -2202c0,-608 -493,-1100 -1101,-1100z"/>
   <path fill="#00262D" d="M58336 36323l-50632 0 0 -30819 50632 0 0 30819zm2201 -33021l-55034 0 0 35222 55034 0 0 -35222z"/>
  </g>
 </g>
</svg>
