<?xml version="1.0" encoding="UTF-8"?>
<!DOCTYPE svg PUBLIC "-//W3C//DTD SVG 1.1//EN" "http://www.w3.org/Graphics/SVG/1.1/DTD/svg11.dtd">
<!-- Creator: CorelDRAW X8 -->
<svg xmlns="http://www.w3.org/2000/svg" xml:space="preserve" width="81px" height="82px" version="1.1" shape-rendering="geometricPrecision" text-rendering="geometricPrecision" image-rendering="optimizeQuality" fill-rule="evenodd" clip-rule="evenodd"
viewBox="0 0 35931 36548"
 xmlns:xlink="http://www.w3.org/1999/xlink">
 <g id="Слой_x0020_1">
  <metadata id="CorelCorpID_0Corel-Layer"/>
  <path fill="#00262D" fill-rule="nonzero" d="M30605 26071l238 -704c88,-267 -55,-554 -319,-643 -265,-88 -551,54 -641,319l-135 408c-1594,-1082 -2878,-1592 -2913,-1603 -128,-50 -272,-45 -396,14 -126,57 -222,163 -267,294 -1957,5713 -7931,5530 -8228,5520 -254,7 -6229,195 -8186,-5520 -45,-131 -141,-237 -267,-294 -124,-59 -267,-64 -396,-14 -32,11 -1319,521 -2913,1603l-136 -408c-89,-265 -375,-407 -640,-319 -264,89 -407,376 -318,643l237 706c-2503,1921 -5325,5155 -5325,9968 0,282 227,507 507,507 279,0 506,-225 506,-507 0,-4235 2407,-7153 4650,-8954l1732 5167 0 3787 21140 0 0 -3804 1730 -5153c2246,1802 4652,4722 4652,8957 0,282 228,507 507,507 279,0 507,-225 507,-507 0,-4813 -2825,-8047 -5326,-9970zm-21791 7905c-220,0 -400,-178 -400,-400 0,-223 177,-401 400,-401 220,0 400,178 400,401 0,222 -180,400 -400,400zm9149 0c-219,0 -399,-178 -399,-400 0,-223 180,-401 399,-401 223,0 403,178 403,401 0,222 -180,400 -403,400zm9153 0c-219,0 -400,-178 -400,-400 0,-223 178,-401 400,-401 223,0 401,178 401,401 0,222 -178,400 -401,400zm376 -1814l-19061 0 -1915 -5715c1030,-724 1947,-1201 2476,-1448 2386,5913 8927,5693 8949,5687 73,6 6610,226 8997,-5687 527,247 1446,724 2474,1448l-1920 5715zm-18636 -20467l1011 312 894 990c109,119 267,181 425,166 158,-15 301,-107 386,-243 10,-19 1245,-1825 6391,-1828 5101,3 6368,1789 6401,1833 83,134 225,221 380,238 15,0 32,0 47,0 144,0 279,-60 376,-166l894 -990 1011 -312c212,-67 358,-262 358,-484 0,-7393 -5113,-9792 -8203,-10306 2,-26 9,-45 9,-70 0,-460 -568,-835 -1273,-835 -701,0 -1272,375 -1272,838 0,19 8,41 10,61 -3076,507 -8201,2900 -8201,10312 0,222 143,417 356,484zm9093 -9896c84,0 8241,250 8466,9041l-783 242c-87,25 -166,77 -228,144l-615 684c-762,-682 -2662,-1826 -6826,-1831 -4160,5 -6061,1149 -6822,1831l-614 -684c-62,-67 -141,-117 -228,-144l-783 -242c224,-8791 8349,-9041 8433,-9041zm-6276 7717c56,0 116,-10 173,-30 3946,-1420 8292,-1420 12238,0 265,96 553,-42 650,-304 94,-262 -42,-554 -306,-647 -922,-334 -1868,-588 -2822,-774 155,-541 309,-1082 450,-1626 34,-130 15,-269 -55,-385 -69,-116 -180,-200 -311,-232 -2471,-623 -4977,-623 -7447,0 -131,32 -245,116 -314,232 -69,116 -89,255 -55,385 144,544 297,1085 452,1626 -956,186 -1900,440 -2824,774 -262,93 -397,383 -303,647 73,205 266,334 474,334zm3313 -3134c1979,-424 3978,-424 5958,0 -109,406 -225,809 -341,1212 -1749,-243 -3526,-243 -5276,0 -116,-403 -232,-809 -341,-1212zm-5811 13134c659,6145 5502,8915 8788,8915 3290,0 8133,-2770 8793,-8915 954,-492 2350,-1800 2283,-4100 -12,-407 -50,-1655 -900,-1976 -845,-321 -1740,575 -1910,756 -190,205 -180,526 25,717 205,190 524,180 717,-25 264,-285 689,-547 810,-502 3,0 220,140 247,1062 72,2454 -1846,3222 -1925,3252 -183,69 -312,238 -326,433 -111,1302 -420,2414 -850,3370 -1317,-2078 -4156,-3669 -6965,-3669l-75 0c-2644,27 -5617,1544 -6958,3511 -393,-919 -672,-1982 -773,-3212 -18,-195 -147,-364 -329,-433 -20,-8 -1997,-775 -1922,-3252 27,-922 242,-1062 244,-1062 112,-42 514,188 813,502 191,205 512,215 714,25 206,-191 215,-512 25,-717 -171,-181 -1063,-1075 -1911,-756 -849,321 -886,1569 -898,1976 -67,2300 1329,3608 2283,4100zm8722 331l66 0c2958,0 5600,1912 6394,3723 -1780,2822 -4748,3850 -6394,3850 -1675,0 -4718,-1065 -6485,-4008 865,-1729 3644,-3538 6419,-3565zm-7185 -5970c-477,7615 7336,3558 7251,3487 -80,71 7730,4077 7256,-3487 -4831,304 -9677,304 -14507,0zm3703 1505l-1391 1959c-98,141 -254,216 -412,216 -102,0 -205,-33 -294,-95 -228,-163 -282,-479 -119,-706l1391 -1960c161,-230 479,-282 707,-121 227,163 279,480 118,707zm2027 0l-952 1339c-98,141 -254,215 -412,215 -101,0 -205,-32 -294,-94 -227,-163 -282,-479 -119,-707l952 -1339c160,-230 476,-282 704,-121 229,163 281,480 121,707zm6837 -707c227,163 281,480 121,707l-1393 1959c-99,141 -255,216 -413,216 -102,0 -203,-33 -292,-95 -230,-163 -282,-479 -121,-706l1394 -1960c160,-227 476,-282 704,-121zm-3674 1460l951 -1339c163,-227 477,-282 704,-121 230,163 284,480 121,707l-951 1339c-99,141 -255,215 -412,215 -102,0 -204,-32 -294,-94 -228,-160 -283,-477 -119,-707zm-1642 11152c1777,0 3223,-1446 3223,-3222 0,-1774 -1446,-3220 -3223,-3220 -1773,0 -3219,1446 -3219,3220 0,1776 1446,3222 3219,3222zm-679 -3256l-1193 1193c-208,-339 -337,-732 -337,-1159 0,-443 137,-855 362,-1201l1168 1167zm-477 1907l1191 -1191 1170 1168c-347,228 -759,361 -1202,361 -427,-2 -822,-128 -1159,-338zm3029 -3030c211,336 339,732 339,1157 0,407 -118,786 -313,1114l-1147 -1148 1121 -1123zm-713 -716l-1125 1124 -1146 -1147c329,-194 707,-311 1111,-311 428,0 821,127 1160,334z"/>
 </g>
</svg>
