<?xml version="1.0" encoding="UTF-8"?>
<!DOCTYPE svg PUBLIC "-//W3C//DTD SVG 1.1//EN" "http://www.w3.org/Graphics/SVG/1.1/DTD/svg11.dtd">
<!-- Creator: CorelDRAW X8 -->
<svg xmlns="http://www.w3.org/2000/svg" xml:space="preserve" width="136px" height="136px" version="1.1" shape-rendering="geometricPrecision" text-rendering="geometricPrecision" image-rendering="optimizeQuality" fill-rule="evenodd" clip-rule="evenodd"
viewBox="0 0 102841 102841"
 xmlns:xlink="http://www.w3.org/1999/xlink">
 <defs>
    <linearGradient id="id0" gradientUnits="userSpaceOnUse" x1="-0" y1="51420.1" x2="102841" y2="51420.1">
     <stop offset="0" stop-opacity="1" stop-color="#84C357"/>
     <stop offset="1" stop-opacity="1" stop-color="#6BBD65"/>
    </linearGradient>
 </defs>
 <g id="Слой_x0020_1">
  <metadata id="CorelCorpID_0Corel-Layer"/>
  <g id="_1274747680">
   <path fill="url(#id0)" d="M51420 0c28399,0 51421,23022 51421,51420 0,28399 -23022,51421 -51421,51421 -28398,0 -51420,-23022 -51420,-51421 0,-28398 23022,-51420 51420,-51420zm0 4285c26033,0 47135,21103 47135,47135 0,26033 -21102,47135 -47135,47135 -26032,0 -47135,-21102 -47135,-47135 0,-26032 21103,-47135 47135,-47135z"/>
   <g>
    <path fill="#00262D" fill-rule="nonzero" d="M39193 56781c294,-186 598,-352 897,-530 380,-237 792,-386 1188,-585 401,-180 817,-314 1226,-475l1260 -384c848,-228 1701,-440 2560,-648l85 -20 48 -70c490,-710 969,-1429 1477,-2127 0,0 2,-1 2,-2 55,-80 44,-186 -25,-238 -70,-51 -172,-29 -228,52 -478,681 -982,1342 -1477,2009 -836,157 -1673,319 -2514,500l-1298 325c-431,145 -867,262 -1294,430 -421,184 -861,324 -1269,549 -393,211 -801,390 -1183,634 170,161 359,359 545,580z"/>
    <path fill="#00262D" fill-rule="nonzero" d="M33291 46633l26 84c256,844 506,1690 739,2535l308 1281c68,434 164,860 211,1298 29,442 109,872 98,1320 -4,359 11,716 -4,1074 284,46 547,106 777,169 21,-462 -34,-912 -53,-1367 -12,-466 -116,-915 -169,-1372 -72,-453 -192,-888 -286,-1332l-378 -1285c-269,-816 -553,-1620 -841,-2421 324,-765 639,-1534 983,-2291 1,-1 1,-3 1,-5 40,-88 6,-186 -76,-219 -80,-32 -177,14 -215,103 -345,791 -720,1569 -1085,2351l-36 77z"/>
    <path fill="#00262D" fill-rule="nonzero" d="M28553 51410l-806 2155c-46,123 -46,264 14,382l13 25 1245 2460c437,-124 847,-191 1223,-223l-1549 -2627 632 -2015 8 -26c14,-40 20,-82 18,-125l-38 -1469c-6,-197 -156,-344 -346,-330 -198,16 -363,196 -370,406l-44 1387z"/>
    <path fill="#00262D" fill-rule="nonzero" d="M40208 62834l2751 -173 30 -2c122,-8 245,-69 335,-180l1449 -1788 1173 -740c168,-106 245,-328 172,-504 -77,-185 -286,-253 -469,-152l-1286 711c-34,21 -69,47 -99,80l-17 19 -1418 1567 -3049 -6c162,341 312,729 428,1168z"/>
    <path fill="#00262D" fill-rule="nonzero" d="M40487 72940l-14 -32 -1539 -3599c-271,563 -562,1126 -870,1685l1117 2246 -5236 7419 -16 22c-59,83 -85,188 -68,290l354 2165c25,155 162,253 316,221 162,-34 279,-199 263,-366l-192 -2019 5780 -7354c151,-192 199,-457 105,-678z"/>
    <path fill="#00262D" fill-rule="nonzero" d="M47743 69676l-1742 -231 -2787 -3978c-79,-113 -206,-189 -357,-196l-60 -3 -2418 -110c-50,485 -171,1004 -348,1545l2425 -155 3071 3486 15 17c46,52 109,87 183,94l1888 189c164,15 326,-113 364,-290 38,-181 -66,-347 -234,-368z"/>
    <path fill="#00262D" fill-rule="nonzero" d="M25773 58545c377,-427 762,-795 1155,-1084l-1320 -2028 -34 -53c-76,-116 -199,-195 -348,-206l-4842 -387 -1082 -1386c-101,-129 -290,-140 -429,-21 -139,121 -171,329 -72,467l1119 1531c40,56 101,97 174,111l22 5 4562 881 1095 2170z"/>
    <path fill="#00262D" fill-rule="nonzero" d="M20568 62589l2501 -175c326,-548 665,-1084 1013,-1604l-3883 497 -35 4c-224,28 -436,192 -531,433l-3411 8710 -1839 858c-143,67 -227,238 -188,391 41,161 201,242 357,181l2045 -791c90,-35 172,-109 216,-209l10 -21 3745 -8274z"/>
    <path fill="#00262D" fill-rule="nonzero" d="M34333 60025l3974 615c394,-433 757,-1043 756,-1505 3,-815 -1100,-1978 -1714,-2428l113 -296c170,-296 -91,-939 -356,-1136 -303,-128 -989,-27 -1159,269l-197 248c-700,-301 -2261,-663 -2963,-248 -416,245 -766,910 -931,1489l2477 2992z"/>
    <path fill="#00262D" fill-rule="nonzero" d="M38991 66665c773,-2655 -81,-4371 -655,-5157l-4325 -669c-42,-6 -83,-20 -120,-41 -36,-20 -67,-48 -94,-81l-2777 -3352c-994,-79 -2850,107 -4687,2056 -3063,3252 -5444,8718 -5501,13797 -23,2069 1704,4158 1925,4829 192,582 368,1045 502,1268 260,2 749,-80 1346,-210 692,-149 3506,360 5278,-708 4350,-2623 7857,-7444 9108,-11732z"/>
   </g>
   <path fill="#00262D" d="M83157 53789l-37 176c-25,10 35,4 -52,15 -3,1 -63,-2 -71,-3l-1743 -158c-342,-6 -1345,60 -1635,176 -2,-157 248,-598 240,-920 -74,87 -89,277 -158,467 -41,113 -145,342 -174,456l-223 55c17,-254 55,-579 35,-819l-111 820c-77,52 -217,92 -321,91 -16,-118 -39,-214 -68,-327l-76 -240c-4,-7 -13,-30 -18,-37 -32,-56 -12,-22 -42,-58 28,200 152,513 95,708l-435 164c-118,52 -322,164 -427,190 -300,-281 -570,-544 -998,-652 -255,-64 -853,-61 -1069,97 -107,79 -115,149 -173,261 -241,-76 -418,-144 -680,-98 -178,32 -427,165 -549,298 -218,235 -303,1137 -290,1405 -194,-71 -480,-221 -673,-313 -616,-296 -1585,-561 -2261,-661 -1290,-188 -2086,-372 -3368,85 -755,270 -1266,569 -1930,973 -628,382 -1126,756 -1683,1243 -124,107 -969,964 -970,964 -30,80 -137,189 -200,258 -67,75 -22,31 -79,61 -8,51 -602,779 -687,893 -1276,1701 -2204,3068 -2823,5159 -135,456 -420,1436 -497,1894 -148,886 25,653 -497,1124 -738,666 -1654,1016 -2477,1512 -777,466 -2076,1440 -2585,2205 -368,553 -568,1282 -611,1992 -31,510 7,975 135,1471 60,231 121,421 211,641 433,1070 1239,2279 2159,2969 969,727 2561,1114 3782,1338 2039,375 4708,323 6823,311 837,-5 1658,-40 2491,-66 5079,-155 7757,-395 12798,786 296,70 781,220 1058,223 -5,-158 -454,-364 -603,-433 -766,-351 -1467,-650 -2320,-833 -530,-118 -1309,-297 -1914,-389 -2331,-354 -3596,-470 -6068,-533 -2115,-55 -4416,69 -6504,-31 -1875,-91 -4216,-125 -5995,-562 -633,-155 -1214,-316 -1744,-624 -495,-287 -934,-586 -1322,-1048 -355,-422 -676,-952 -900,-1477 -231,-544 -367,-1406 -167,-1998 187,-553 502,-1063 967,-1394 319,-226 1369,-658 1728,-633 74,51 140,172 186,254 196,354 353,488 672,680 1352,810 2382,143 3648,-48 2531,-379 2107,-812 3625,-1439 168,234 -107,619 141,992 233,350 446,346 853,304 822,-84 948,-377 2108,-125 57,561 -277,684 -214,854 93,251 884,225 1056,221 1069,-26 2337,-542 3386,-370 465,77 1328,481 1761,305l128 199c179,-64 39,-286 39,-288 -20,-158 103,-57 -85,-275 460,-43 444,44 646,66 171,20 149,-62 314,-4 123,45 124,136 245,144 89,-296 -212,-354 -337,-512 431,41 320,175 549,-24 191,74 176,159 309,238 92,-576 -320,-345 -519,-568l28 -70c296,-44 240,33 459,127 -12,-415 -506,-365 -648,-436 -119,-60 -166,-65 -303,-67 -459,-8 -876,106 -1354,88 -815,-30 -519,-42 -1353,30 -287,25 -686,93 -968,106l-337 -10c-5,-2 -12,-8 -19,-12 70,-156 103,-29 366,-95 225,-55 174,-32 380,9 -153,-355 -434,-339 -777,-402 -307,-56 -638,-187 -955,-227 -2,-65 610,-1095 690,-1244 182,-340 397,-1131 611,-1347 237,-239 549,-88 780,-136 619,-128 1026,-412 1573,-80 1193,722 668,518 1973,1292 133,87 279,186 401,299 112,102 212,272 303,399 223,311 945,1528 1124,1676 -3,70 -6,74 -32,137 -26,65 -34,94 -84,104 -118,1 -441,28 -411,169 25,13 3,16 50,8 148,-24 47,-32 288,-23l89 120c106,-37 140,-123 225,-193 67,62 130,118 237,146 102,28 167,62 272,99 329,293 559,266 917,304 83,50 72,79 140,126 141,101 118,-62 415,120 108,66 61,79 126,161 52,-86 96,-221 12,-325 -98,-120 -178,-18 -212,-203l116 -54c71,-23 78,-27 137,-62 97,-58 114,-102 235,-133 160,36 186,144 337,223 163,-44 55,-64 291,-75 225,-11 114,-4 284,72 -12,-370 -624,-93 -594,-470 350,-7 294,-39 423,65 -39,-236 -328,-213 -523,-227 -65,-59 -177,-136 -267,-156 -446,190 -414,198 -944,94 -704,-139 -636,-410 -839,-1004 -111,-324 -219,-658 -309,-989 -218,-813 -35,-1541 66,-2343 84,79 201,334 270,454 179,313 76,263 88,590 9,235 -88,459 -16,643 71,184 -60,395 -191,490 225,23 326,-115 378,-306 48,-169 45,-100 148,-193 65,-58 78,-145 140,-224 183,71 202,382 161,568 342,-257 71,-649 202,-949 70,35 -4,-64 80,186 284,854 9,656 38,924 12,103 73,98 77,215 7,199 -115,282 -182,419 290,-108 322,-275 368,-354 85,-145 184,-96 147,-573 -29,-375 -92,-918 -170,-1279 -43,-200 -41,-407 -96,-604 -55,-195 -196,-261 -352,-368 -260,-179 -626,-412 -768,-699 24,-102 254,-493 338,-550 707,-1132 635,-3032 722,-3150 325,-201 435,-299 594,-634 123,-258 303,-535 436,-799 317,-634 712,-778 1252,-1209 989,-793 1631,-1270 2292,-2328 31,-50 33,-39 69,-72 37,-34 26,-50 87,-82 -23,107 -7,18 -59,119 32,303 -81,646 -148,968 -79,384 -737,2767 -735,2774 54,-17 29,2 58,-59l98 -293c319,-901 607,-1996 771,-2934l29 74c123,598 268,2971 301,3038 119,-193 -186,-2591 -259,-3087 -36,-236 -24,-273 0,-506 21,-206 52,-250 239,-343 169,400 180,507 185,948 9,750 -30,1502 -51,2247 -9,332 -40,838 -4,1153 63,-89 78,-1716 101,-1975l37 -18c90,-54 36,-1153 31,-1311 -13,-362 -145,-852 -107,-1208 87,-66 189,-134 249,-232l55 -96c3,-4 9,-10 14,-15 296,186 926,1082 1126,1411l677 1233c67,134 125,323 222,438 36,-74 6,-90 -51,-218l-300 -646c-157,-290 -284,-531 -452,-806 -436,-717 -613,-843 -1102,-1409 176,25 546,208 735,300 267,128 505,237 745,394l593 398c4,2 10,6 13,9 153,100 478,424 587,444 -137,-162 -329,-305 -499,-435 -637,-487 -1523,-996 -2279,-1203 11,-420 122,-806 232,-1196 125,-444 318,-542 -203,-741l-126 -75 1343 -1656c-144,39 -998,1192 -1225,1459 -76,89 -102,171 -214,191l71 -523c34,-267 44,-267 169,-492 93,-168 383,-738 397,-870l-405 770c-43,85 -15,59 -92,123 8,-248 40,-775 -96,-966 -5,158 40,378 42,563 9,766 -109,647 -462,1314 -279,17 -352,38 -631,-102 129,-405 423,-833 534,-1266 -135,140 -497,1173 -635,1216 79,-198 136,-474 195,-692 67,-246 112,-504 135,-760 9,-105 33,-91 47,-171l45 -627c17,-335 -29,-537 -51,-861 -24,214 9,528 8,764l-27 367c-72,572 -10,349 -174,1114 -47,220 -134,494 -162,703l-76 -726c-34,-238 -82,-458 -133,-684 -41,-180 -385,-1085 -541,-1005 236,207 428,855 474,1101 98,524 138,896 148,1451l-363 -101c-58,-340 -206,-1136 -372,-1421 -217,-370 -434,-788 -832,-976 117,143 267,233 383,384 118,154 218,312 297,475 274,571 194,650 144,1277zm1656 529c56,-78 98,-157 148,-232 41,-62 96,-176 171,-231l-133 524 -186 -61zm-1605 -318c-8,-88 21,-275 32,-373 12,-114 9,-272 64,-355l146 761 -242 -33z"/>
   <g>
    <path fill="#00262D" fill-rule="nonzero" d="M51421 19097l-14034 11570c0,17 -2,42 -11,74 -8,32 -12,55 -12,72l0 11716c0,422 153,789 463,1097 309,310 675,465 1097,465l9374 0 0 -9373 6248 0 0 9373 9373 0c422,0 788,-155 1097,-463 310,-309 465,-677 465,-1099l0 -11716c0,-65 -9,-113 -25,-146l-14035 -11570z"/>
    <path fill="#00262D" fill-rule="nonzero" d="M70824 28031l-5345 -4443 0 -9958c0,-228 -72,-415 -219,-561 -147,-147 -333,-219 -562,-219l-4685 0c-229,0 -415,72 -562,219 -146,146 -219,333 -219,561l0 4760 -5955 -4979c-521,-423 -1139,-636 -1855,-636 -717,0 -1334,213 -1855,636l-17550 14620c-162,131 -251,305 -267,524 -16,220 40,411 170,574l1513 1806c130,146 302,236 512,269 196,16 392,-41 587,-171l16889 -14084 16890 14084c131,114 301,171 512,171l74 0c211,-33 381,-123 513,-269l1513 -1807c129,-162 188,-353 170,-573 -16,-219 -106,-393 -269,-524z"/>
   </g>
  </g>
 </g>
</svg>
