<?xml version="1.0" encoding="UTF-8"?>
<!DOCTYPE svg PUBLIC "-//W3C//DTD SVG 1.1//EN" "http://www.w3.org/Graphics/SVG/1.1/DTD/svg11.dtd">
<!-- Creator: CorelDRAW X8 -->
<svg xmlns="http://www.w3.org/2000/svg" xml:space="preserve" width="112px" height="82px" version="1.1" shape-rendering="geometricPrecision" text-rendering="geometricPrecision" image-rendering="optimizeQuality" fill-rule="evenodd" clip-rule="evenodd"
viewBox="0 0 74176 54454"
 xmlns:xlink="http://www.w3.org/1999/xlink">
 <g id="Слой_x0020_1">
  <metadata id="CorelCorpID_0Corel-Layer"/>
  <g id="_1274752288">
   <path fill="#00262D" fill-rule="nonzero" d="M64471 26456c157,78 322,115 485,115 399,0 783,-220 973,-601 269,-537 51,-1189 -486,-1458 -2524,-1262 -7257,-1277 -7456,-1277 -601,0 -1087,487 -1087,1087 0,600 486,1086 1087,1086 1221,1 4767,189 6484,1048z"/>
   <path fill="#00262D" fill-rule="nonzero" d="M61225 38185c83,3 167,3 250,3 825,0 1629,-124 2396,-362l0 437c0,217 27,430 78,634l-2478 2477 -2465 -2466c43,-195 67,-409 67,-645l0 -459c685,225 1405,359 2152,381zm-5637 -8346l0 -2031c0,-169 -40,-335 -115,-486l-671 -1343c-246,-492 -376,-1042 -376,-1592l0 -65c0,-2604 2118,-4722 4722,-4722l9370 0 0 4513c0,729 -173,1459 -498,2112l-549 1097c-75,151 -115,317 -115,486l0 2323c0,1605 -634,3105 -1787,4224 -1151,1117 -2673,1707 -4279,1657 -3144,-93 -5702,-2863 -5702,-6173zm-13957 12452c-6,9 -20,30 -55,33 -35,4 -53,-14 -61,-21l-2719 -2719 5127 -3505 1088 1143 -3380 5069zm-8943 11c-7,8 -25,26 -60,22 -36,-3 -49,-24 -55,-33l-3380 -5069 1088 -1143 5126 3504 -2719 2719zm3570 -8788c287,18 571,28 855,28 2077,0 4077,-497 5873,-1439l0 1984 -5884 4022 -5884 -4022 0 -2028c1523,823 3227,1337 5040,1455zm-9688 -13075l0 -2696c0,-163 -36,-325 -107,-472 -700,-1448 -1055,-2985 -1055,-4567l0 -2323c0,-4525 3683,-8208 8209,-8208l15178 0 0 10531c0,1582 -355,3119 -1054,4567 -71,147 -108,309 -108,472l0 3094c0,2943 -1183,5672 -3331,7685 -268,251 -546,487 -834,706 -7,5 -12,10 -18,14 -2013,1528 -4478,2270 -7051,2103 -5511,-357 -9829,-5147 -9829,-10906zm-16680 20564l-1010 -960c170,-319 264,-682 264,-1061l0 -1158c758,237 1564,364 2398,364 835,0 1640,-128 2399,-363l0 1157c0,379 94,742 265,1062l-1011 959c-926,881 -2378,881 -3305,0zm-6407 -5179c297,-775 490,-1664 620,-2602 599,1437 1603,2664 2868,3538l0 1303c-2033,-731 -3053,-1706 -3488,-2239zm1011 -9101c139,-1952 919,-3752 2197,-5066 1289,-1326 3012,-2057 4851,-2057 1840,0 3563,731 4852,2057 1279,1314 2059,3114 2198,5066 43,605 66,1311 90,2058 3,64 5,129 7,194 -1182,-1822 -3008,-3164 -5367,-3922 -2179,-700 -4053,-657 -4133,-655 -284,8 -554,127 -752,332l-1961 2033c-416,432 -403,1120 28,1536 433,417 1121,405 1537,-27l1631 -1692c1405,68 5925,594 7683,4465 -443,2852 -2894,4970 -5812,4970 -3245,0 -5884,-2640 -5884,-5884 0,-600 -487,-1086 -1086,-1086 -61,0 -121,6 -179,15 3,-92 6,-186 9,-279 24,-747 48,-1452 91,-2058zm11620 11344l0 -1297c1264,-869 2269,-2094 2869,-3541 130,935 322,1821 618,2595 -432,528 -1457,1512 -3487,2243zm54746 1915l-4487 -1282c-194,-56 -329,-235 -329,-437l0 -1497c365,-253 713,-536 1039,-852 1578,-1531 2446,-3585 2446,-5783l0 -2067 434 -867c476,-953 728,-2020 728,-3084l0 -5599c0,-601 -487,-1087 -1086,-1087l-10457 0c-3802,0 -6895,3093 -6895,6895l0 65c0,886 209,1772 605,2564l557 1113 0 1775c0,2813 1386,5336 3485,6855l0 1569c0,242 0,342 -897,599l-2190 626 -6333 -2304c22,-298 -78,-603 -297,-831l-2024 -2127 0 -3570c214,-176 425,-357 629,-548 2554,-2394 4019,-5773 4019,-9271l0 -2851c770,-1678 1161,-3453 1161,-5282l0 -11617c0,-601 -487,-1087 -1087,-1087l-16264 0c-5725,0 -10382,4657 -10382,10381l0 2323c0,1829 392,3605 1162,5283l0 2452c0,4062 1806,7721 4648,10134l0 3653 -2025 2127c-218,228 -318,533 -296,831l-6685 2432c-484,175 -934,414 -1343,703l-1050 -524c3125,-1361 4115,-3274 4163,-3369 152,-306 152,-666 0,-972 -784,-1566 -879,-4438 -955,-6745 -25,-768 -49,-1494 -95,-2140 -371,-5212 -4333,-9142 -9217,-9142 -4883,0 -8846,3930 -9216,9142 -46,646 -70,1372 -95,2140 -77,2307 -171,5179 -954,6745 -153,306 -153,666 0,972 47,95 1035,2004 4166,3366l-2916 1458c-1559,779 -2527,2347 -2527,4089l0 8027c0,601 486,1087 1086,1087 601,0 1087,-486 1087,-1087l0 -8027c0,-914 508,-1736 1326,-2145l3631 -1816 1263 1200c883,840 2016,1259 3149,1259 1133,0 2267,-419 3149,-1259l1264 -1200 1184 593c-558,892 -874,1937 -874,3033l0 8363c0,600 486,1086 1086,1086 600,0 1087,-486 1087,-1086l0 -8363c0,-1492 942,-2836 2344,-3346l7048 -2563 2934 4402c376,562 976,923 1649,990 75,7 150,11 224,11 595,0 1163,-234 1588,-659l1790 -1790 0 11318c0,601 487,1087 1087,1087 600,0 1086,-486 1086,-1087l0 -11318 1790 1790c425,425 994,659 1588,659 74,0 149,-4 224,-11 673,-67 1274,-427 1649,-990l2934 -4402 7049 2563c1401,510 2343,1855 2343,3346l0 8363c0,601 487,1087 1087,1087 600,0 1086,-486 1086,-1087l0 -8363c0,-1511 -600,-2927 -1607,-3975l269 -76c271,-78 640,-184 1011,-366l2774 2774 0 10006c0,601 487,1087 1086,1087 601,0 1087,-486 1087,-1087l0 -10006 2755 -2754c147,74 301,137 462,183l4488 1282c1024,293 1740,1241 1740,2307l0 8988c0,601 487,1087 1087,1087 600,0 1086,-486 1086,-1087l0 -8988c0,-2031 -1364,-3839 -3316,-4397z"/>
   <path fill="#00262D" fill-rule="nonzero" d="M68443 45310c-601,0 -1087,486 -1087,1086l0 6970c0,601 486,1087 1087,1087 599,0 1086,-486 1086,-1087l0 -6970c0,-600 -487,-1086 -1086,-1086z"/>
   <path fill="#00262D" fill-rule="nonzero" d="M5734 46746c-601,0 -1087,486 -1087,1087l0 5533c0,601 486,1087 1087,1087 599,0 1086,-486 1086,-1087l0 -5533c0,-601 -487,-1087 -1086,-1087z"/>
   <path fill="#00262D" fill-rule="nonzero" d="M30056 12525c0,-37 24,-68 56,-74 1401,-211 4180,-536 7060,-344 3388,226 5842,1076 7294,2527 424,425 1112,425 1536,0 425,-424 425,-1111 0,-1535 -4109,-4110 -12707,-3324 -16214,-2796 -1104,166 -1905,1101 -1905,2222l0 2503c0,600 486,1087 1086,1087 601,0 1087,-487 1087,-1087l0 -2503z"/>
   <path fill="#00262D" fill-rule="nonzero" d="M24322 47633c-600,0 -1087,487 -1087,1087l0 4647c0,600 487,1086 1087,1086 600,0 1086,-486 1086,-1086l0 -4647c0,-600 -486,-1087 -1086,-1087z"/>
   <path fill="#00262D" fill-rule="nonzero" d="M49881 47633c-600,0 -1086,487 -1086,1087l0 4647c0,600 486,1086 1086,1086 600,0 1087,-486 1087,-1086l0 -4647c0,-600 -487,-1087 -1087,-1087z"/>
  </g>
 </g>
</svg>
