<?xml version="1.0" encoding="UTF-8"?>
<!DOCTYPE svg PUBLIC "-//W3C//DTD SVG 1.1//EN" "http://www.w3.org/Graphics/SVG/1.1/DTD/svg11.dtd">
<!-- Creator: CorelDRAW X8 -->
<svg xmlns="http://www.w3.org/2000/svg" xml:space="preserve" width="15px" height="15px" version="1.1" shape-rendering="geometricPrecision" text-rendering="geometricPrecision" image-rendering="optimizeQuality" fill-rule="evenodd" clip-rule="evenodd"
viewBox="0 0 1347 1347"
 xmlns:xlink="http://www.w3.org/1999/xlink">
 <g id="Слой_x0020_1">
  <metadata id="CorelCorpID_0Corel-Layer"/>
  <g id="instagram-new-2016-seeklogo.com.eps">
   <path fill="#6BBD65" fill-rule="nonzero" d="M657 0c-168,0 -191,1 -261,4 -72,3 -121,15 -164,31 -44,18 -81,41 -119,78 -37,38 -60,75 -78,119 -16,43 -28,92 -31,164 -3,72 -4,95 -4,278 0,183 1,206 4,278 3,71 15,120 31,163 18,44 41,82 78,119 38,38 75,61 119,78 43,17 92,28 164,31 72,4 95,4 278,4 183,0 206,0 278,-4 71,-3 120,-14 163,-31 44,-17 82,-40 119,-78 38,-37 61,-75 78,-119 17,-43 28,-92 31,-163 4,-70 4,-94 4,-262l0 -33c0,-168 0,-191 -4,-261 -3,-72 -14,-121 -31,-164 -17,-44 -40,-81 -78,-119 -37,-37 -75,-60 -119,-78 -43,-16 -92,-28 -163,-31 -70,-3 -94,-4 -262,-4l-33 0zm17 121c180,0 201,1 272,4 66,3 101,14 125,23 31,13 54,27 78,51 23,23 38,46 50,77 9,24 20,60 23,126 3,70 4,92 4,272 0,180 -1,201 -4,272 -3,66 -14,101 -23,125 -12,31 -27,54 -50,78 -24,23 -47,38 -78,50 -24,9 -59,20 -125,23 -71,3 -92,4 -272,4 -180,0 -202,-1 -272,-4 -66,-3 -102,-14 -126,-23 -31,-12 -54,-27 -77,-50 -24,-24 -38,-47 -51,-78 -9,-24 -20,-59 -23,-125 -3,-71 -4,-92 -4,-272 0,-180 1,-202 4,-272 3,-66 14,-102 23,-126 13,-31 27,-54 51,-77 23,-24 46,-38 77,-51 24,-9 60,-20 126,-23 70,-3 92,-4 272,-4z"/>
   <path fill="#6BBD65" fill-rule="nonzero" d="M674 898c-124,0 -225,-100 -225,-224 0,-124 101,-225 225,-225 124,0 224,101 224,225 0,124 -100,224 -224,224zm0 -570c-191,0 -346,155 -346,346 0,191 155,346 346,346 191,0 346,-155 346,-346 0,-191 -155,-346 -346,-346z"/>
   <path fill="#6BBD65" fill-rule="nonzero" d="M1114 314c0,45 -36,81 -81,81 -44,0 -81,-36 -81,-81 0,-45 37,-81 81,-81 45,0 81,36 81,81z"/>
  </g>
 </g>
</svg>
