<?xml version="1.0" encoding="UTF-8"?>
<!DOCTYPE svg PUBLIC "-//W3C//DTD SVG 1.1//EN" "http://www.w3.org/Graphics/SVG/1.1/DTD/svg11.dtd">
<!-- Creator: CorelDRAW X8 -->
<svg xmlns="http://www.w3.org/2000/svg" xml:space="preserve" width="24px" height="14px" version="1.1" shape-rendering="geometricPrecision" text-rendering="geometricPrecision" image-rendering="optimizeQuality" fill-rule="evenodd" clip-rule="evenodd"
viewBox="0 0 3539 2019"
 xmlns:xlink="http://www.w3.org/1999/xlink">
 <g id="Слой_x0020_1">
  <metadata id="CorelCorpID_0Corel-Layer"/>
  <path fill="#6BBD65" fill-rule="nonzero" d="M1731 2011l212 0c0,0 64,-7 97,-43 30,-32 29,-93 29,-93 0,0 -4,-283 127,-325 130,-41 297,274 474,396 133,91 235,71 235,71l473 -6c0,0 247,-16 130,-210 -10,-16 -69,-144 -352,-407 -296,-275 -257,-230 101,-706 217,-290 304,-467 277,-543 -26,-72 -186,-53 -186,-53l-532 4c0,0 -40,-6 -69,12 -29,17 -47,57 -47,57 0,0 -84,224 -197,415 -237,402 -331,423 -370,399 -90,-59 -68,-234 -68,-359 0,-390 60,-553 -115,-595 -58,-14 -100,-23 -248,-24 -190,-3 -351,0 -442,45 -60,29 -107,95 -78,99 35,5 114,22 157,79 54,74 52,241 52,241 0,0 31,459 -73,516 -72,39 -170,-41 -381,-406 -109,-187 -190,-394 -190,-394 0,0 -16,-38 -44,-59 -34,-25 -82,-33 -82,-33l-506 3c0,0 -76,3 -103,36 -25,29 -2,90 -2,90 0,0 395,926 844,1393 411,428 877,400 877,400z"/>
 </g>
</svg>
