<?xml version="1.0" encoding="UTF-8"?>
<!DOCTYPE svg PUBLIC "-//W3C//DTD SVG 1.1//EN" "http://www.w3.org/Graphics/SVG/1.1/DTD/svg11.dtd">
<!-- Creator: CorelDRAW X8 -->
<svg xmlns="http://www.w3.org/2000/svg" xml:space="preserve" width="42px" height="17px" version="1.1" shape-rendering="geometricPrecision" text-rendering="geometricPrecision" image-rendering="optimizeQuality" fill-rule="evenodd" clip-rule="evenodd"
viewBox="0 0 10735 4480"
 xmlns:xlink="http://www.w3.org/1999/xlink">
 <g id="Слой_x0020_1">
  <metadata id="CorelCorpID_0Corel-Layer"/>
  <g id="_1138028576">
   <path fill="#6BBD65" fill-rule="nonzero" d="M10671 966c0,0 -63,-439 -255,-632 -243,-253 -516,-255 -641,-270 -867,-62 -2154,-64 -2234,-64l-4 0 -3 0 -4 0c-79,0 -1366,2 -2234,64 -125,15 -398,17 -641,270 -192,193 -254,632 -254,632 0,0 -64,516 -64,1031l0 483c0,516 64,1031 64,1031 0,0 62,439 254,632 243,254 563,246 706,272 511,49 2175,65 2175,65l1 0c41,0 1357,-3 2238,-67 125,-15 398,-16 641,-270 192,-193 255,-632 255,-632 0,0 61,-498 64,-1005l0 -534c-3,-507 -64,-1006 -64,-1006z"/>
   <path fill="#6BBD65" fill-rule="nonzero" d="M4007 3625l-408 0 0 -236c-154,177 -285,267 -427,267 -125,0 -212,-59 -256,-166 -26,-65 -45,-166 -45,-315l0 -1714 407 0 0 1607c0,91 0,129 0,150 10,60 35,82 87,82 78,0 148,-67 234,-189l0 -1650 408 0 0 2164z"/>
   <path fill="#6BBD65" fill-rule="nonzero" d="M2164 2982c21,215 -45,321 -172,321 -126,0 -192,-106 -171,-321l0 -857c-21,-214 45,-314 171,-314 127,0 194,100 172,314l0 857zm407 -814c0,-231 -46,-405 -129,-514 -108,-148 -278,-209 -450,-209 -194,0 -341,61 -449,209 -84,109 -129,285 -129,516l0 769c0,231 40,389 123,498 108,147 284,225 455,225 172,0 351,-78 459,-225 82,-109 120,-267 120,-498l0 -771z"/>
   <path fill="#6BBD65" fill-rule="nonzero" d="M964 2447l0 1178 -428 0 0 -1178c0,0 -445,-1445 -536,-1714l450 0 301 1128 299 -1128 450 0 -536 1714z"/>
   <path fill="#FEFEFE" fill-rule="nonzero" d="M9427 2060c0,-200 55,-255 185,-255 128,0 179,60 179,258l0 234 -364 0 0 -237zm772 558l0 -438c0,-229 -45,-396 -126,-504 -109,-147 -263,-225 -458,-225 -198,0 -352,78 -464,225 -83,108 -131,285 -131,514l0 749c0,228 53,387 135,494 112,147 267,220 470,220 202,0 362,-77 469,-232 47,-69 78,-147 91,-233 3,-39 13,-127 13,-252l0 -61 -407 0c0,156 1,248 -3,269 -22,104 -77,156 -173,156 -133,0 -189,-100 -188,-297l0 -385 772 0z"/>
   <path fill="#FEFEFE" fill-rule="nonzero" d="M8356 3004c0,214 -50,296 -163,296 -63,0 -137,-33 -202,-98l1 -1299c65,-64 138,-98 201,-98 113,0 163,63 163,277l0 922zm45 -1556c-143,0 -284,88 -410,242l1 -936 -386 0 0 2871 386 0 0 -216c130,161 271,244 409,244 155,0 267,-83 319,-242 26,-91 43,-231 43,-429l0 -857c0,-202 -26,-341 -52,-427 -52,-161 -155,-250 -310,-250z"/>
   <path fill="#FEFEFE" fill-rule="nonzero" d="M7285 3625l-408 0 0 -236c-154,177 -284,267 -427,267 -125,0 -212,-59 -256,-166 -26,-65 -45,-166 -45,-315l0 -1692 407 0 0 1585c0,91 0,129 0,150 10,60 35,82 87,82 78,0 148,-67 234,-189l0 -1628 408 0 0 2142z"/>
   <polygon fill="#FEFEFE" fill-rule="nonzero" points="5742,3625 5313,3625 5313,1161 4863,1161 4863,754 6213,754 6213,1161 5742,1161 "/>
  </g>
 </g>
</svg>
