<?xml version="1.0" encoding="UTF-8" standalone="no"?>
<!-- Creator: CorelDRAW X8 -->

<svg
   xmlns:dc="http://purl.org/dc/elements/1.1/"
   xmlns:cc="http://creativecommons.org/ns#"
   xmlns:rdf="http://www.w3.org/1999/02/22-rdf-syntax-ns#"
   xmlns:svg="http://www.w3.org/2000/svg"
   xmlns="http://www.w3.org/2000/svg"
   xmlns:sodipodi="http://sodipodi.sourceforge.net/DTD/sodipodi-0.dtd"
   xmlns:inkscape="http://www.inkscape.org/namespaces/inkscape"
   xml:space="preserve"
   width="16px"
   height="13px"
   version="1.1"
   shape-rendering="geometricPrecision"
   text-rendering="geometricPrecision"
   image-rendering="optimizeQuality"
   fill-rule="evenodd"
   clip-rule="evenodd"
   viewBox="0 0 1469 1169"
   id="svg4830"
   inkscape:version="0.91 r13725"
   sodipodi:docname="green-house.svg"><metadata
     id="metadata4840"><rdf:RDF><cc:Work
         rdf:about=""><dc:format>image/svg+xml</dc:format><dc:type
           rdf:resource="http://purl.org/dc/dcmitype/StillImage" /><dc:title></dc:title></cc:Work></rdf:RDF></metadata><defs
     id="defs4838" /><sodipodi:namedview
     pagecolor="#ffffff"
     bordercolor="#666666"
     borderopacity="1"
     objecttolerance="10"
     gridtolerance="10"
     guidetolerance="10"
     inkscape:pageopacity="0"
     inkscape:pageshadow="2"
     inkscape:window-width="673"
     inkscape:window-height="480"
     id="namedview4836"
     showgrid="false"
     inkscape:zoom="18.153846"
     inkscape:cx="0.83898305"
     inkscape:cy="6.5"
     inkscape:window-x="0"
     inkscape:window-y="0"
     inkscape:window-maximized="0"
     inkscape:current-layer="Слой_x0020_1" /><g
     id="Слой_x0020_1"
     style="fill:#ff0000"><metadata
       id="CorelCorpID_0Corel-Layer" /><path
       fill="white"
       fill-rule="nonzero"
       d="M735 236l-524 432c0,1 0,2 -1,3 0,1 0,2 0,3l0 437c0,16 6,29 17,41 12,11 25,17 41,17l350 0 0 -350 233 0 0 350 350 0c16,0 30,-6 41,-17 12,-12 18,-25 18,-41l0 -437c0,-3 -1,-5 -1,-6l-524 -432zm724 334l-200 -166 0 -372c0,-9 -2,-16 -8,-21 -5,-5 -12,-8 -21,-8l-175 0c-8,0 -15,3 -21,8 -5,5 -8,12 -8,21l0 178 -222 -186c-20,-16 -43,-24 -69,-24 -27,0 -50,8 -70,24l-655 546c-6,4 -9,11 -10,19 0,8 2,15 7,22l56 67c5,6 11,9 19,10 7,1 15,-2 22,-6l631 -526 630 526c5,4 11,6 19,6l3 0c8,-1 14,-4 19,-10l57 -67c4,-7 7,-14 6,-22 -1,-8 -4,-15 -10,-19z"
       id="path4834"
       style="fill:#6ec559;fill-opacity:1" /></g></svg>