<?xml version="1.0" encoding="UTF-8" standalone="no"?>
<!-- Creator: CorelDRAW X8 -->

<svg
   xmlns:dc="http://purl.org/dc/elements/1.1/"
   xmlns:cc="http://creativecommons.org/ns#"
   xmlns:rdf="http://www.w3.org/1999/02/22-rdf-syntax-ns#"
   xmlns:svg="http://www.w3.org/2000/svg"
   xmlns="http://www.w3.org/2000/svg"
   xmlns:sodipodi="http://sodipodi.sourceforge.net/DTD/sodipodi-0.dtd"
   xmlns:inkscape="http://www.inkscape.org/namespaces/inkscape"
   xml:space="preserve"
   width="18px"
   height="13px"
   version="1.1"
   shape-rendering="geometricPrecision"
   text-rendering="geometricPrecision"
   image-rendering="optimizeQuality"
   fill-rule="evenodd"
   clip-rule="evenodd"
   viewBox="0 0 1858 1315"
   id="svg4216"
   inkscape:version="0.91 r13725"
   sodipodi:docname="green-car.svg"><metadata
     id="metadata4226"><rdf:RDF><cc:Work
         rdf:about=""><dc:format>image/svg+xml</dc:format><dc:type
           rdf:resource="http://purl.org/dc/dcmitype/StillImage" /><dc:title></dc:title></cc:Work></rdf:RDF></metadata><defs
     id="defs4224" /><sodipodi:namedview
     pagecolor="#ffffff"
     bordercolor="#666666"
     borderopacity="1"
     objecttolerance="10"
     gridtolerance="10"
     guidetolerance="10"
     inkscape:pageopacity="0"
     inkscape:pageshadow="2"
     inkscape:window-width="673"
     inkscape:window-height="480"
     id="namedview4222"
     showgrid="false"
     inkscape:zoom="16.777778"
     inkscape:cx="9"
     inkscape:cy="6.5"
     inkscape:window-x="0"
     inkscape:window-y="0"
     inkscape:window-maximized="0"
     inkscape:current-layer="svg4216" /><g
     id="Слой_x0020_1"
     style="fill:#6ec559;fill-opacity:1"><metadata
       id="CorelCorpID_0Corel-Layer" /><path
       fill="white"
       fill-rule="nonzero"
       d="M1848 407c-9,-11 -23,-18 -37,-18l-181 0c-45,-117 -103,-233 -169,-276 -114,-75 -323,-113 -532,-113 -209,0 -417,38 -532,113 -66,43 -124,159 -169,276l-180 0c-15,0 -28,7 -37,18 -9,11 -13,26 -10,40l27 129c4,22 24,38 46,38l54 0c-52,60 -77,135 -77,210 0,93 35,177 99,237 1,0 2,1 2,1l0 182c0,39 32,71 72,71l167 0c39,0 71,-32 71,-71l0 -73 934 0 0 73c0,39 32,71 72,71l167 0c39,0 71,-32 71,-71l0 -178c68,-63 101,-149 101,-235 1,-78 -26,-156 -80,-217l57 0c22,0 42,-16 46,-38l27 -129c3,-14 -1,-29 -9,-40zm-1372 -175c182,-120 724,-120 906,0 36,23 81,117 123,232l-1152 0c42,-115 87,-209 123,-232zm-214 610c0,-77 63,-140 141,-140 77,0 140,63 140,140 0,78 -63,141 -140,141 -78,0 -141,-63 -141,-141zm1195 141c-77,0 -140,-63 -140,-141 0,-77 63,-140 140,-140 78,0 141,63 141,140 0,78 -63,141 -141,141z"
       id="path4220"
       style="fill:#6ec559;fill-opacity:1" /></g></svg>