<?xml version="1.0" encoding="UTF-8"?>
<!DOCTYPE svg PUBLIC "-//W3C//DTD SVG 1.1//EN" "http://www.w3.org/Graphics/SVG/1.1/DTD/svg11.dtd">
<!-- Creator: CorelDRAW X8 -->
<svg xmlns="http://www.w3.org/2000/svg" xml:space="preserve" width="11px" height="13px" version="1.1" shape-rendering="geometricPrecision" text-rendering="geometricPrecision" image-rendering="optimizeQuality" fill-rule="evenodd" clip-rule="evenodd"
viewBox="0 0 701 804"
 xmlns:xlink="http://www.w3.org/1999/xlink">
 <g id="Слой_x0020_1">
  <metadata id="CorelCorpID_0Corel-Layer"/>
  <path fill="white" fill-rule="nonzero" d="M666 645l-32 0c0,-5 1,-9 1,-14l0 -438c0,-48 -27,-89 -67,-109 -20,-49 -68,-84 -124,-84l-187 0c-56,0 -104,35 -124,84 -40,20 -67,61 -67,109l0 438c0,5 1,9 1,14l-32 0c-19,0 -35,16 -35,35l0 89c0,19 16,35 35,35l631 0c19,0 35,-16 35,-35l0 -89c0,-19 -16,-35 -35,-35zm-382 -130c-3,3 -7,5 -11,5l-14 0c-7,0 -13,-5 -14,-12 -1,-4 -1,-10 -1,-20l0 -36c0,-23 -10,-25 -20,-25l-9 0 0 79c0,8 -7,14 -14,14l-15 0c-8,0 -14,-6 -14,-14l0 -208c0,-8 6,-14 14,-14l44 0c38,0 56,18 56,56l0 18c0,22 -6,38 -19,47 13,8 20,24 20,48l0 36c0,6 0,11 1,15 0,4 -1,8 -4,11zm102 -9c0,8 -7,14 -15,14l-14 0c-8,0 -14,-6 -14,-14l0 -208c0,-8 6,-14 14,-14l14 0c8,0 15,6 15,14l0 208zm172 -132c0,50 -31,60 -57,60l-14 0 0 72c0,8 -6,14 -14,14l-15 0c-8,0 -14,-6 -14,-14l0 -208c0,-8 6,-14 14,-14l43 0c26,0 57,10 57,60l0 30z"/>
 </g>
</svg>
