<?xml version="1.0" encoding="UTF-8" standalone="no"?>
<!-- Creator: CorelDRAW X8 -->

<svg
   xmlns:dc="http://purl.org/dc/elements/1.1/"
   xmlns:cc="http://creativecommons.org/ns#"
   xmlns:rdf="http://www.w3.org/1999/02/22-rdf-syntax-ns#"
   xmlns:svg="http://www.w3.org/2000/svg"
   xmlns="http://www.w3.org/2000/svg"
   xmlns:sodipodi="http://sodipodi.sourceforge.net/DTD/sodipodi-0.dtd"
   xmlns:inkscape="http://www.inkscape.org/namespaces/inkscape"
   xml:space="preserve"
   width="85px"
   height="92px"
   version="1.1"
   shape-rendering="geometricPrecision"
   text-rendering="geometricPrecision"
   image-rendering="optimizeQuality"
   fill-rule="evenodd"
   clip-rule="evenodd"
   viewBox="0 0 41416 44741"
   id="svg2"
   inkscape:version="0.91 r13725"
   sodipodi:docname="sprey11.svg"><metadata
     id="metadata35"><rdf:RDF><cc:Work
         rdf:about=""><dc:format>image/svg+xml</dc:format><dc:type
           rdf:resource="http://purl.org/dc/dcmitype/StillImage" /><dc:title></dc:title></cc:Work></rdf:RDF></metadata><defs
     id="defs33" /><sodipodi:namedview
     pagecolor="#ffffff"
     bordercolor="#666666"
     borderopacity="1"
     objecttolerance="10"
     gridtolerance="10"
     guidetolerance="10"
     inkscape:pageopacity="0"
     inkscape:pageshadow="2"
     inkscape:window-width="1280"
     inkscape:window-height="743"
     id="namedview31"
     showgrid="false"
     inkscape:zoom="2.5652174"
     inkscape:cx="42.5"
     inkscape:cy="46"
     inkscape:window-x="0"
     inkscape:window-y="0"
     inkscape:window-maximized="1"
     inkscape:current-layer="Слой_x0020_1" /><g
     id="Слой_x0020_1"><metadata
       id="CorelCorpID_0Corel-Layer" /><g
       id="_806898976"
       style="fill:#ffffff"
       transform="matrix(0.8660254,-0.50000001,0.49999999,0.8660254,-8410.7792,13351.166)"><path
         d="m 19639,21520 2208,-3627 3259,1985 -706,1159 c -193,317 -93,731 225,924 l 942,574 c 986,600 1300,1891 699,2877 l -63,105 -6564,-3997 z m -7651,-4801 c 601,-986 1891,-1300 2878,-700 l 942,574 c 317,193 731,93 924,-225 l 706,-1159 3259,1984 -2208,3627 -6564,-3996 63,-105 z m 7013,-6988 1522,927 -2155,3541 -1523,-927 2156,-3541 z m 2396,6313 -1880,-1145 2156,-3541 1880,1145 -2156,3541 z m 1150,700 2156,-3541 1880,1144 -2156,3542 -1880,-1145 z m 5989,-1207 719,438 -2156,3540 -1522,-927 2155,-3540 804,489 z m 270,-6200 c -704,-428 -928,-1350 -499,-2054 428,-703 1349,-927 2054,-499 329,201 564,515 663,882 l -1130,1856 c -371,80 -758,16 -1088,-185 z m -2540,12048 -367,-223 357,-585 718,438 c 318,193 732,93 925,-225 l 2856,-4690 c 193,-318 93,-731 -225,-925 l -718,-438 506,-832 c 398,-653 249,-1489 -317,-1969 l 3909,-6421 c 474,-779 226,-1799 -553,-2273 L 28430,241 C 27650,-233 26631,15 26156,794 l -1122,1844 c -194,317 -93,731 224,924 318,193 732,93 925,-224 l 1122,-1844 c 89,-145 279,-191 424,-103 l 4928,3000 c 145,89 192,279 103,425 l -923,1515 c -210,-274 -472,-511 -777,-696 -1338,-815 -3088,-389 -3903,949 -814,1337 -389,3088 949,3902 305,186 635,309 976,370 l -571,938 c -193,317 -93,732 225,925 l 369,225 c 90,54 118,171 64,261 l -507,833 -7668,-4669 507,-833 c 54,-89 172,-117 261,-63 l 369,225 c 318,193 732,92 925,-225 l 1727,-2837 c 193,-317 93,-731 -225,-924 -317,-193 -731,-93 -925,225 l -1386,2277 c -686,-282 -1497,-31 -1896,622 l -507,833 -718,-438 c -318,-193 -732,-92 -925,225 l -2856,4690 c -193,318 -92,732 225,925 l 719,438 -356,585 -367,-224 c -1620,-987 -3741,-471 -4727,1149 l -1266,2080 c -194,317 -93,731 224,924 318,194 731,93 925,-224 l 503,-826 14278,8693 -747,1227 -10759,-6551 c -318,-194 -732,-93 -925,224 l -1436,2359 c -193,317 -93,731 225,924 318,193 731,93 925,-225 l 1085,-1783 10185,6201 -5917,9718 -10184,-6201 3431,-5635 c 193,-318 92,-732 -225,-925 -317,-193 -731,-93 -925,225 l -3781,6210 c -194,318 -93,732 224,925 l 10760,6551 -1510,2480 c -601,987 -1891,1300 -2877,700 L 2350,36574 C 1364,35974 1051,34683 1651,33697 L 9322,21098 c 193,-317 93,-732 -225,-925 -317,-193 -731,-93 -925,225 L 501,32997 c -986,1620 -471,3740 1150,4727 l 10700,6515 c 1621,987 3741,471 4728,-1149 L 27416,26112 c 987,-1620 471,-3740 -1150,-4727 z"
         id="path7"
         style="fill:#ffffff;fill-rule:nonzero"
         inkscape:connector-curvature="0" /><path
         d="m 30248,8164 c 6,-43 10,-88 8,-131 -2,-45 -9,-89 -18,-131 -43,-173 -153,-324 -305,-417 -151,-92 -336,-120 -509,-78 -43,9 -85,25 -124,44 -39,18 -78,41 -113,66 -37,27 -69,56 -99,88 -30,33 -57,68 -79,105 -23,38 -42,77 -58,120 -14,41 -26,84 -32,127 -6,44 -9,88 -8,131 2,44 7,89 19,131 9,43 25,85 43,125 19,40 41,78 67,113 26,36 56,69 88,99 32,29 68,57 105,79 152,93 337,121 510,80 42,-11 85,-26 124,-45 40,-18 78,-41 113,-66 36,-26 69,-55 99,-88 29,-33 56,-68 79,-106 23,-37 42,-77 57,-118 15,-42 26,-84 33,-128 z"
         id="path9"
         style="fill:#ffffff;fill-rule:nonzero"
         inkscape:connector-curvature="0" /><path
         d="m 34623,11134 c -193,317 -92,732 225,925 l 59,36 c 317,193 732,92 925,-225 193,-317 93,-732 -225,-925 l -59,-36 c -318,-193 -732,-92 -925,225 z"
         id="path11"
         style="fill:#ffffff;fill-rule:nonzero"
         inkscape:connector-curvature="0" /><path
         d="m 36736,13208 c 317,193 731,93 924,-225 194,-317 93,-731 -224,-924 l -59,-37 c -318,-193 -732,-92 -926,226 -193,317 -92,731 226,924 l 59,36 z"
         id="path13"
         style="fill:#ffffff;fill-rule:nonzero"
         inkscape:connector-curvature="0" /><path
         d="m 39264,13172 -59,-36 c -317,-193 -731,-93 -925,225 -193,317 -92,731 225,924 l 59,37 c 318,193 732,92 925,-226 193,-317 93,-731 -225,-924 z"
         id="path15"
         style="fill:#ffffff;fill-rule:nonzero"
         inkscape:connector-curvature="0" /><path
         d="m 41093,14285 -59,-36 c -318,-193 -732,-92 -925,225 -194,317 -92,732 225,925 l 59,36 c 317,193 732,93 925,-225 193,-317 93,-732 -225,-925 z"
         id="path17"
         style="fill:#ffffff;fill-rule:nonzero"
         inkscape:connector-curvature="0" /><path
         d="m 32135,14045 35,58 c 58,94 135,169 223,223 209,127 480,135 703,-2 316,-194 416,-608 222,-925 l -36,-57 c -194,-317 -608,-417 -925,-222 -317,194 -416,608 -222,925 z"
         id="path19"
         style="fill:#ffffff;fill-rule:nonzero"
         inkscape:connector-curvature="0" /><path
         d="m 34407,15177 -35,-57 c -195,-317 -609,-417 -926,-223 -317,193 -417,608 -223,925 l 35,57 c 58,95 135,170 224,224 208,127 478,135 701,0 317,-194 417,-609 224,-926 z"
         id="path21"
         style="fill:#ffffff;fill-rule:nonzero"
         inkscape:connector-curvature="0" /><path
         d="m 35495,16955 -35,-58 c -194,-317 -608,-417 -925,-223 -317,194 -417,609 -224,926 l 36,57 c 57,94 135,169 223,223 209,127 479,136 702,0 317,-194 417,-608 223,-925 z"
         id="path23"
         style="fill:#ffffff;fill-rule:nonzero"
         inkscape:connector-curvature="0" /><path
         d="m 35702,8844 c 88,54 190,88 301,96 l 67,5 c 370,27 693,-251 720,-622 27,-371 -251,-693 -622,-720 l -67,-5 c -370,-27 -693,251 -720,622 -19,261 112,497 321,624 z"
         id="path25"
         style="fill:#ffffff;fill-rule:nonzero"
         inkscape:connector-curvature="0" /><path
         d="m 37781,8995 c 88,54 190,88 300,96 l 68,5 c 371,27 693,-251 720,-622 27,-371 -251,-693 -622,-720 l -67,-5 c -371,-27 -694,252 -721,622 -19,261 113,497 322,624 z"
         id="path27"
         style="fill:#ffffff;fill-rule:nonzero"
         inkscape:connector-curvature="0" /><path
         d="m 40326,7905 -68,-5 c -370,-27 -693,251 -720,622 -19,261 113,498 322,624 88,54 190,88 300,96 l 67,6 c 371,27 694,-252 721,-623 27,-371 -251,-693 -622,-720 z"
         id="path29"
         style="fill:#ffffff;fill-rule:nonzero"
         inkscape:connector-curvature="0" /></g></g></svg>